<svg xmlns="http://www.w3.org/2000/svg" viewBox="95.79 118.19 602.11 858.24"><!-- Source: https://football-logos.cc --><defs data-source="https://football-logos.cc"><clipPath id="a" clipPathUnits="userSpaceOnUse"><path d="M-521.28 309.138H73.998v-841.89H-521.28Z"></path></clipPath><clipPath id="b" clipPathUnits="userSpaceOnUse"><path d="M-297.638 722.53h595.276v-841.89h-595.276Z"></path></clipPath><clipPath id="c" clipPathUnits="userSpaceOnUse"><path d="M-296.925 88.644h595.276v-841.89h-595.276Z"></path></clipPath><clipPath id="d" clipPathUnits="userSpaceOnUse"><path d="M-474.502 319.446h595.276v-841.89h-595.276Z"></path></clipPath><clipPath id="e" clipPathUnits="userSpaceOnUse"><path d="M-470.837 342.84H124.44v-841.89h-595.276Z"></path></clipPath><clipPath id="f" clipPathUnits="userSpaceOnUse"><path d="M-355.768 639.487h595.276v-841.89h-595.276Z"></path></clipPath><clipPath id="g" clipPathUnits="userSpaceOnUse"><path d="M-305.993 535.509h595.276v-841.89h-595.276Z"></path></clipPath></defs><path d="M0 0c-.65 17-.975 25.823-1.3 36.457-.436 14.298-7.781 19.013-13.866 20.451l-.136.032c-4.895 1.158-5.822 1.029-21.311-1.135l-.297-.042a221 221 0 0 0-4.519-.589c-19.771-2.353-57.194 1.845-87.05 9.765-32.845 8.71-64.556 21.682-85.368 31.027-3.166 1.425-5.98 2.372-8.138 2.742l-.669.114h-1.975l-.669-.114c-2.157-.369-4.972-1.317-8.134-2.74-20.817-9.348-52.526-22.319-85.373-31.029-29.852-7.921-67.276-12.118-87.048-9.765-1.439.171-2.894.362-4.521.59l-.297.041c-15.489 2.163-16.415 2.292-21.309 1.135l-.138-.032c-6.084-1.438-13.429-6.153-13.865-20.451-.325-10.634-.65-19.457-1.3-36.457-3.103-81.076-3.238-117.721 2.195-161.885 7.373-59.943 24.666-107.347 54.422-149.184 44.571-62.673 95.454-97.198 164.984-111.942l.821-.175h2.439l.82.175c69.531 14.744 120.414 49.269 164.984 111.942 29.757 41.837 47.05 89.241 54.423 149.184C3.237-117.721 3.103-81.076 0 0" clip-path="url(#a)" style="fill:#fae100;fill-opacity:1;fill-rule:nonzero;stroke:none" transform="matrix(1.33333 0 0 -1.33333 695.04 412.184)"></path><path d="M0 0c49.283 10.451 106.592 34.313 159.01 108.022 70.198 98.696 57.247 219.094 53.503 341.526-.481 15.728-9.715 11.571-29.138 9.253-19.423-2.312-57.761 1.278-90.733 10.025-36.671 9.724-73.106 25.379-86.881 31.564C2.062 502.054 0 502.406 0 502.406s-2.062-.352-5.761-2.016c-13.775-6.185-50.209-21.84-86.881-31.564-32.966-8.747-71.31-12.337-90.733-10.025-19.423 2.318-28.657 6.475-29.137-9.253-3.745-122.432-16.696-242.83 53.502-341.526C-106.592 34.313-49.283 10.451 0 0" clip-path="url(#b)" style="fill:#231f20;fill-opacity:1;fill-rule:evenodd;stroke:none" transform="matrix(1.33333 0 0 -1.33333 396.85 963.373)"></path><path d="m0 0-11.406-35.168H-48l28.99-22.337-10.93-36.119L0-71.762l30.416-21.862L19.01-57.505l30.416 22.337H10.931Z" clip-path="url(#c)" style="fill:#c9a764;fill-opacity:1;fill-rule:evenodd;stroke:none" transform="matrix(1.33333 0 0 -1.33333 395.9 118.192)"></path><path d="M0 0v16.906c0 8.628-3.183 11.667-12.078 11.667h-14.191V21.43h12.249c3.531 0 4.829-1.312 4.829-5.18V0h-17.078v-7.149H4.414V0Zm-30.927 7.615v20.958h-13.484V21.43h4.299V7.615Zm-53.886 20.958V21.43h4.299V0h-6.122v-7.149h12.426c1.999 0 2.881.835 2.881 2.74V21.43h12.608V-7.149h9.191v35.722zm-11.429 4.76-1.999-16.784h6.184l3.178 16.784zm-10.359 0-2.004-16.784h6.184l3.121 16.784zm-16.434-40.482h9.243v22.328c0 9.348-4.237 13.394-13.833 13.394h-12.072V21.43h10.421c4.413 0 6.241-2.262 6.241-7.5zm-35.277 14.764v20.958h-13.484V21.43h4.299V7.615Zm-26.326-14.764h9.248v22.328c0 9.348-4.242 13.394-13.843 13.394h-12.072V21.43h10.421c4.419 0 6.246-2.262 6.246-7.5zm-21.439 0v35.722h-13.901V21.43h4.715V-7.149Zm-44.582 15.72c0-1.67.706-2.441 2.18-2.441h6.777v22.443h-8.957zm25.619 20.002h-8.952V6.666c0-4.467-2.18-6.666-6.833-6.666h-10.779c-4.647 0-6.771 2.199-6.771 6.666v21.907h-8.946v-22.8c0-8.576 4.709-12.922 14.424-12.922h13.365c9.72 0 14.492 4.346 14.492 12.922zm-68.732-35.722h9.543l12.073 28.579v7.143h-18.023v5.952h-8.775V21.43h17.197zm-12.482 14.764v20.958h-13.491V21.43h4.3V7.615ZM-332.107 0h-13.73v21.43h8.9c3.298 0 4.83-1.669 4.83-5.48zm-2.238 28.573h-23.798V21.43h3.354V-7.149h31.633v24.648c0 7.741-3.416 11.074-11.189 11.074" clip-path="url(#d)" style="fill:#fae100;fill-opacity:1;fill-rule:evenodd;stroke:none" transform="matrix(1.33333 0 0 -1.33333 632.67 425.928)" data-source="https://football-logos.cc"></path><path d="m0 0-9.558-18.485L-19.115 0h-5.336v-28.817h3.599v24.374l9.761-18.282h3.061L1.737-4.443v-24.374h3.605V0Zm-29.623-3.046V0h-18.329v-21.16c0-5.681 2.066-7.657 8.109-7.657h10.22v3.046h-9.643c-3.395 0-4.878 1.52-4.878 4.938v6.177h12.823v2.843h-12.823v8.767zm-22.013-22.725h-9.761c-3.395 0-4.595 1.193-4.595 4.448V0H-69.8v-22.354c0-4.735 1.986-6.463 7.322-6.463h10.842zm-40.052 7.207 5.506 14.448 5.46-14.448zm14.854-10.253h4.182L-84.196 0h-4.012l-11.544-28.817h4.176l2.858 7.494h13.027zm-29.125 13.665-6.083 3.998c-2.898 1.852-4.058 2.838-4.058 4.611 0 2.466 1.528 3.497 4.556 3.497h10.213V0h-10.881c-5.087 0-7.696-1.892-7.696-6.177 0-2.759 1.658-4.69 5.132-7.077l6.078-4.285c2.694-1.723 4.057-2.962 4.057-4.775 0-2.427-1.448-3.457-4.306-3.457h-10.26v-3.046h11.007c4.889 0 7.367 2.179 7.367 6.424 0 2.799-1.861 5.101-5.126 7.241M-124.707 0h-3.808v-18.564c0-5.394-2.275-7.618-7.611-7.618-5.376 0-7.656 2.224-7.656 7.618V0h-3.808v-18.564c0-7.291 3.604-10.501 11.464-10.501 7.82 0 11.419 3.21 11.419 10.501zm-43.775-14.122v11.245h5.171c4.55 0 6.253-1.813 6.253-5.603 0-3.868-1.703-5.642-6.253-5.642zm15.057-9.757c-.99 4.775-2.269 7.207-5.081 8.276 3.553.823 5.245 3.334 5.245 7.456 0 5.472-2.682 8.147-8.765 8.147h-10.265v-28.817h3.809v11.897h5.053c3.882-.084 5.166-1.813 6.201-6.959l1.036-4.938h3.848zm-24.038 20.833V0h-18.329v-21.16c0-5.681 2.072-7.657 8.109-7.657h10.22v3.046h-9.637c-3.395 0-4.883 1.52-4.883 4.938v6.177h12.822v2.843h-12.822v8.767zM-202.288 0h-8.691v-3.046h4.889v-18.322c0-3.125-1.245-4.403-4.142-4.403h-3.266v-3.046h3.967c5.302 0 7.243 2.016 7.243 7.083zM-242.3-14.122v11.245h5.172c4.555 0 6.253-1.813 6.253-5.603 0-3.868-1.698-5.642-6.253-5.642zm15.063-9.757c-.996 4.775-2.275 7.207-5.087 8.276 3.559.823 5.251 3.334 5.251 7.456 0 5.472-2.688 8.147-8.771 8.147h-10.259v-28.817h3.803v11.897h5.053c3.887-.084 5.172-1.813 6.202-6.959l1.035-4.938h3.854zm-40.964 5.315 5.507 14.448 5.454-14.448zm14.855-10.253h4.181L-260.708 0h-4.018l-11.544-28.817h4.176l2.858 7.494h13.038zM-274.363 0h-20.897v-3.046h8.561v-25.771h3.808v25.771h8.528zm-29.046-28.823h3.803V0h-3.803zm-5.172 25.777V0h-18.329v-21.16c0-5.681 2.066-7.657 8.109-7.657h10.22v3.046h-9.643c-3.395 0-4.883 1.52-4.883 4.938v6.177h12.828v2.843h-12.828v8.767zm-32.94-22.809h-6.496v10.872h6.496c4.222 0 6.044-1.481 6.044-5.355 0-3.829-1.822-5.517-6.044-5.517m5.382 18.242c0-3.417-1.698-4.735-5.54-4.735h-6.338v9.386h6.338c3.842 0 5.54-1.441 5.54-4.651m-1.16-6.013c3.061.535 4.883 2.883 4.883 6.711 0 4.527-2.976 6.915-8.606 6.915h-10.718v-28.817h11.011c6.039 0 9.015 2.719 9.015 8.068 0 4.448-2.275 6.667-5.585 7.123" clip-path="url(#e)" style="fill:#fff;fill-opacity:1;fill-rule:evenodd;stroke:none" transform="matrix(1.33333 0 0 -1.33333 627.783 457.119)"></path><path d="M0 0h-13.562v-4.83h7.618v-29.031c0-4.963-1.934-6.989-6.455-6.989h-5.111v-4.823h6.205C-3.035-45.673 0-42.478 0-34.453zm-37.923-40.977h-10.142v17.227h10.142c6.59 0 9.432-2.346 9.432-8.483 0-6.072-2.842-8.744-9.432-8.744m8.4 28.906c0-5.421-2.655-7.501-8.656-7.501h-9.886v14.869h9.886c6.001 0 8.656-2.279 8.656-7.368m-1.81-9.527c4.782.845 7.624 4.571 7.624 10.63C-23.709-3.787-28.36 0-37.152 0h-16.732v-45.673h17.186c9.438 0 14.089 4.305 14.089 12.788 0 7.049-3.556 10.57-8.724 11.287M-75.716-4.83h12.921V0h-14.027c-10.266 0-14.407-3.587-14.407-12.463v-20.814c0-8.809 4.141-12.396 14.407-12.396h14.027v4.823h-12.921c-6.789 0-9.563 2.484-9.563 8.424v19.113c0 5.939 2.774 8.483 9.563 8.483m-20.419 0V0h-28.428v-45.673h5.944v22.122h19.835v4.498h-19.835V-4.83Z" clip-path="url(#f)" style="fill:#fae100;fill-opacity:1;fill-rule:evenodd;stroke:none" transform="matrix(1.33333 0 0 -1.33333 474.357 852.65)"></path><path d="M0 0v26.886c56.375 5.219 100.705 52.364 101.781 109.958H80.875C79.826 90.836 44.817 53.119 0 47.951v27.091c30.023 4.929 53.123 30.583 54.137 61.802h-20.98C32.21 117.199 18.454 100.939 0 96.396v40.448h-20.862V96.385c-18.442 4.52-32.204 20.809-33.151 40.459h-20.986c1.003-31.247 24.108-56.895 54.137-61.814V47.951c-44.823 5.134-79.843 42.862-80.897 88.893h-20.89c1.071-57.605 45.423-104.761 101.787-109.986V-.028c-71.123 5.339-127.425 64.483-128.513 136.872h-20.913c1.1-83.901 66.722-152.405 149.302-157.835v-36.842C-43.905-61.274-63.214-75.74-73.39-95.674H52.528C42.341-75.711 22.992-61.229.04-57.815v36.818c82.648 5.402 148.292 73.917 149.386 157.841h-20.89C127.442 64.483 71.135 5.328 0 0" clip-path="url(#g)" style="fill:#fae100;fill-opacity:1;fill-rule:evenodd;stroke:none" transform="matrix(1.33333 0 0 -1.33333 407.99 714.012)" data-source="https://football-logos.cc"></path><!-- source: https://football-logos.cc --></svg>