<svg xmlns="http://www.w3.org/2000/svg" viewBox="3.5 406.05 473.81 506.05"><!-- Source: https://football-logos.cc --><path fill="#FFF" d="m88.865 906.355-9.883-11.799H7.322l57.245-55.687-49.42-48.327 135.767.198c.009 0-.376-.248-.375-.246.333.271-34.942-23.409-77.323-89.646C15.517 610.673 30.111 479.96 30.111 479.96l210.273-67.884 210.308 67.884s14.594 130.713-43.103 220.888c-42.028 65.686-77.178 89.575-77.198 89.587-.012.008-.5.308-.5.306l135.767-.198-49.42 48.327 57.244 55.687h-71.659l-9.883 11.798z" data-source="https://football-logos.cc"></path><path fill="#FFF" d="m88.865 906.355-9.883-11.799H7.322l57.245-55.687-49.42-48.327 135.767.198-.375-.246c.333.271-34.942-23.409-77.323-89.646C15.517 610.673 30.111 479.96 30.111 479.96l210.273-67.884 210.308 67.884s14.594 130.713-43.103 220.888c-42.028 65.686-77.198 89.587-77.198 89.587l-.5.306 135.767-.198-49.42 48.327 57.244 55.687h-71.659l-9.883 11.798z"></path><path fill="#DB2926" d="m78.981 888.792 4.216 2.004 9.883 11.8-8.431 7.521-9.884-11.8zm0 0h2.537l1.679 2.004zm-75.482 1.577 3.823-1.577h71.659v11.53H7.322zm64.912-55.665-.022 8.355-57.245 55.687-7.646-8.379 57.245-55.685zm-53.264-49.903 3.844 1.576 49.42 48.328-7.689 8.333-49.42-48.327zm132.774 10.783 5.985-9.685-2.993 10.584h-.39l-1.135-.002-1.832-.002-2.477-.004-3.075-.004-3.621-.007-4.119-.005-4.566-.008-4.963-.007-5.312-.009-5.61-.008-5.858-.009-6.058-.009-6.207-.009-6.306-.01-6.355-.01-6.356-.01-6.306-.01-6.207-.009-6.058-.009-5.859-.01-5.61-.008-5.312-.007-4.964-.009-4.565-.007-4.119-.005-3.621-.007-3.074-.005-2.478-.003-1.832-.003-1.136-.001-.39-.001v-11.485l.39.001 1.136.001 1.832.003 2.478.004 3.074.005 3.621.006 4.119.005 4.565.007 4.964.008 5.312.008 5.61.008 5.859.01 6.058.009 6.207.01 6.306.009 6.356.01 6.355.01 6.306.009 6.207.01 6.058.009 5.858.009 5.61.008 5.312.008 4.963.008 4.566.008 4.119.005 3.621.006 3.075.004 2.477.005 1.832.003 1.135.001.39.001zm6.069-9.593-6.903 9.008 6.444-9.347-.129-.089.003.002.158.094.094.05-.102-.039.01.007.033.008.012.008-.008.009.015.01-.006-.012.059.034-.049-.035.061.033.018.013.017.012.018.012.018.011-.027-.011.082.056-.027-.011.038.032.014.01.035.01.013.008-.01.008.01.007.118.05-.081-.04-.147-.087.002.003.132.091-5.985 9.684.13.089-.003-.002-.158-.093-.094-.05.101.039-.01-.007-.033-.008-.013-.009.008-.009-.014-.011.006.014-.06-.034.049.035-.06-.035-.018-.012-.017-.012-.017-.011-.017-.012.026.012-.083-.057.028.012-.038-.032-.015-.01-.035-.01-.012-.009.01-.008-.01-.006-.118-.051.081.04.147.086-.002-.001-.132-.091zm-85.427-81.989 9.306-6.304 3.908 6.017 3.861 5.772 3.808 5.529 3.752 5.291 3.689 5.054 3.622 4.845 3.548 4.593 3.47 4.369 3.365 4.169 3.298 3.926 3.204 3.734 3.105 3.501 2.98 3.313 2.892 3.087 2.777 2.906 2.635 2.687 2.532 2.515 2.401 2.322 2.245 2.136 2.125 1.927 1.958 1.771 1.828 1.59 1.649 1.417 1.51 1.245 1.32 1.077 1.171.915.972.752.811.618.601.441.409.292.209.121-6.438 9.369 6.903-9.008-6.582 9.277-.341-.257-.54-.382-.732-.531-.898-.662-1.104-.844-1.257-1.005-1.452-1.167-1.598-1.336-1.781-1.508-1.915-1.68-2.089-1.859-2.212-2.063-2.375-2.225-2.489-2.414-2.62-2.604-2.766-2.822-2.864-2.996-2.979-3.223-3.111-3.403-3.193-3.636-3.292-3.825-3.386-4.062-3.496-4.259-3.558-4.503-3.635-4.729-3.709-4.936-3.776-5.189-3.839-5.425-3.896-5.665-3.949-5.907zM28.451 474.467l3.32 10.99 3.889-4.842-.04.311-.11 1.067-.141 1.77-.202 2.42-.223 3.083-.229 3.669-.22 4.247-.193 4.793-.151 5.309-.094 5.792-.021 6.267.069 6.643.174 7.034.295 7.39.434 7.718.586 7.99.733 8.255.94 8.488 1.12 8.689 1.336 8.837 1.569 8.976 1.817 9.082 2.06 9.137 2.34 9.182 2.637 9.172 2.927 9.153 3.255 9.105 3.577 9.001 3.938 8.867 4.292 8.745 4.683 8.549 5.047 8.342-9.305 6.306-5.352-8.792-4.902-8.999-4.51-9.151-4.112-9.317-3.753-9.406-3.386-9.465-3.059-9.515-2.724-9.531-2.428-9.497-2.147-9.451-1.861-9.353-1.612-9.246-1.38-9.107-1.163-8.914-.94-8.713-.777-8.479-.586-8.217-.434-7.897-.296-7.571-.174-7.213-.069-6.823.021-6.356.094-5.927.151-5.444.193-4.929.219-4.382.229-3.805.223-3.173.201-2.555.185-1.861.11-1.157.041-.445zm-3.888 4.842.416-3.72 3.473-1.122zm217.481-72.726v10.989L31.771 485.457l-3.32-10.99 210.273-67.883zm-3.32 0 1.66-.536 1.66.536zm217.516 72.726-7.208 6.148-210.309-67.884 3.32-10.99 210.309 67.883zm-3.888-4.842 3.474 1.121.415 3.722zm-40.111 229.535-9.306-6.306 5.047-8.341 4.683-8.55 4.292-8.745 3.937-8.867 3.578-9.001 3.255-9.104 2.927-9.154 2.637-9.172 2.341-9.182 2.06-9.136 1.817-9.083 1.568-8.976 1.336-8.836 1.12-8.689.94-8.488.733-8.256.586-7.989.434-7.719.296-7.39.175-7.033.069-6.643-.021-6.267-.094-5.793-.151-5.308-.193-4.794-.219-4.246-.229-3.67-.224-3.083-.2-2.419-.142-1.771-.11-1.067-.04-.311 11.097-1.306.04.445.11 1.158.185 1.86.201 2.555.223 3.173.229 3.805.22 4.382.192 4.929.152 5.444.094 5.927.02 6.356-.069 6.823-.175 7.213-.296 7.571-.434 7.897-.586 8.217-.777 8.479-.94 8.713-1.163 8.914-1.38 9.107-1.611 9.246-1.861 9.353-2.147 9.451-2.427 9.496-2.725 9.533-3.058 9.514-3.387 9.465-3.753 9.406-4.112 9.317-4.509 9.152-4.901 8.998zm-79.01 91.39-5.679-9.909-.218.157.036-.026.237-.191.456-.314.646-.466.809-.641 1.012-.774 1.186-.935 1.334-1.098 1.519-1.264 1.68-1.434 1.813-1.606 1.982-1.782 2.105-1.962 2.266-2.144 2.399-2.33 2.506-2.496 2.65-2.712 2.769-2.907 2.859-3.084 2.989-3.309 3.092-3.491 3.189-3.724 3.258-3.913 3.367-4.15 3.449-4.346 3.526-4.567 3.597-4.817 3.663-5.022 3.724-5.254 3.779-5.487 3.831-5.728 3.875-5.969 9.305 6.306-3.962 6.104-3.918 5.861-3.867 5.625-3.812 5.388-3.75 5.158-3.684 4.905-3.613 4.704-3.537 4.482-3.455 4.239-3.39 4.049-3.276 3.813-3.178 3.627-3.076 3.398-2.991 3.219-2.856 2.998-2.738 2.801-2.637 2.633-2.486 2.42-2.354 2.233-2.235 2.052-2.071 1.871-1.943 1.697-1.767 1.523-1.608 1.353-1.464 1.189-1.275 1.025-1.098.864-.94.687-.733.555-.543.405-.369.237-.167.114zm.218-.16-.219.159-.134.081zm-3.558-10.234v11.485l-2.84-10.696-.261.156.179-.115.138-.071.009-.007-.01.017.013-.009.037-.031-.005.011.04-.033.02-.013-.045.034.109-.059-.021.01.001-.015.001.008.023-.013.023-.015.045-.036.045-.015.065-.035-.065.032.087-.059.02-.011-.004.011.039-.032-.007.013.014-.009.034-.029.008-.005-.124.063-.17.109.263-.158 5.68 9.91.261-.157-.179.114-.138.071-.009.007.01-.015-.013.007-.038.033.005-.013-.04.034-.02.012.045-.032-.109.058.021-.009-.001.013-.001-.009-.023.016-.023.013-.046.037-.044.014-.066.036.065-.033-.086.058-.02.012.004-.012-.039.034.006-.014-.014.008-.034.03-.009.006.125-.063.17-.11-.263.158zm139.61 9.711-3.845 1.576-135.766.199v-11.486l135.766-.198zm-57.086 48.351-.022-8.355 49.418-48.328 7.689 8.333-49.419 48.328zm61.067 57.261-3.822-1.575-57.244-55.687 7.645-8.378 57.244 55.686zm-75.875-9.525 4.216-2.004h71.659v11.529h-71.659zm0 0 1.679-2.004h2.538zm-5.667 21.303-4.216-9.505 9.883-11.798 8.433 7.521-9.884 11.8zm4.215-1.982-1.66 1.981h-2.555zm-311.506 0 4.215-9.504h303.074v11.485H88.865zm4.216 1.982H86.31l-1.66-1.981z"></path><path fill="#DB2926" d="M287.645 474.924c-32.556-3.812-52.292 1.81-78.249-8.354-15.239-5.966-34.182-27.445-50.656-31.423-11.648-2.812-18.532-9.149-39.536-9.547-21.003-.397-23.886 8.751-28.828 10.74-3.271 1.316-9.472-6.364-21.827 3.977-5.105 4.272-5.043 6.197.823 6.763 4.119.398 6.178.796 8.237 3.977s-1.404 7.561 1.236 10.342c4.53 4.774 9.447 2.222 10.295 7.956 1.236 8.353 4.119 9.546 8.647 15.114 4.532 5.568 7.855 12.786 8.649 17.899 1.236 7.955 0 8.353 8.237 9.943 6.164 1.191 8.236-3.182 10.295-7.557 2.977-6.324 4.118-9.149 9.061-9.547 7.969-.642 5.354 15.513 5.766 24.265.711 15.104 11.479 24.076 11.942 27.444.824 5.967-14.002 22.274-18.532 36.195-2.578 7.924 5.766 10.738 14.826 18.297 6.836 5.702 9.472 7.955 18.945 13.126 6.127 3.344 10.691 4.772 16.061 4.772.824 0 7.001-3.182 7.413-14.318 0 0-9.472 1.989-21.415-5.171-7.415-4.443-12.767-8.354-16.474-12.728-3.706-4.376 0-8.752 5.767-14.718 5.766-5.967 18.231-17.575 21.827-16.706 4.942 1.194 9.472 7.558 16.061 23.468s9.884 37.787 4.119 46.537c-5.767 8.751-10.296 11.934-11.944 15.514-1.646 3.579-1.236 6.362-1.236 6.362s5.355.797 9.885 0c4.53-.795 9.472-2.386 9.472-2.386s1.647-1.988 3.707-8.75 7.001-13.922 7.413-30.627c.412-16.706 2.471-24.264 2.882-34.605.412-10.342 1.648-20.285 13.178-21.081s44.89-6.364 50.655 2.785c5.766 9.147 9.061 34.207 5.766 45.343-3.295 11.139-7.414 26.651-12.356 29.435-4.941 2.785-10.295 7.559-10.295 7.559s1.234 3.579 5.354 4.375c4.119.796 7.001 3.978 11.531-3.182s15.65-23.07 17.709-30.627c2.059-7.559 7.414-25.457 9.473-33.81s10.708-17.104 16.061-7.955c5.354 9.147 16.061 17.899 16.061 28.637 0 10.741 2.656 26.771-2.059 33.413-9.883 13.921-12.354 17.501-12.354 17.501s2.471 3.182 7.412 3.579 9.884-1.591 10.708-4.375c1.29-4.359 5.354-6.364 6.177-15.115.825-8.751 2.472-28.638 3.295-43.355.824-14.716-.412-23.864 2.47-33.81 2.884-9.944 5.524-16.617 8.238-9.944 4.529 11.138 0 16.706 6.177 29.037 8.277 16.521 18.944 17.104 18.944 17.104s.063-13.966-2.882-25.059c-4.119-15.513.947-21.956 3.707-41.764 2.883-20.685.732-59.099-15.649-60.857-22.239-2.388-27.182 15.91-36.243 21.877-9.057 5.967-26.766-2.784-53.947-5.965"></path><path fill="#FFF" d="M239.934 822.229c-53.912 0-97.802-42.395-97.802-94.457 0-52.024 43.89-94.413 97.802-94.413 53.861 0 97.752 42.389 97.752 94.413-.001 52.062-43.891 94.457-97.752 94.457"></path><path fill="#DB2926" d="M140.535 727.773h3.195l.122 4.769.372 4.697.611 4.631.85 4.563 1.069 4.481 1.295 4.395 1.516 4.303 1.723 4.21 1.924 4.105 2.126 4.001 2.314 3.885 2.504 3.769 2.686 3.64 2.856 3.505 3.021 3.371 3.191 3.231 3.342 3.079 3.488 2.921 3.634 2.762 3.779 2.592 3.9 2.421 4.033 2.239 4.147 2.057 4.263 1.87 4.37 1.661 4.466 1.469 4.569 1.256 4.652 1.038 4.736.819 4.813.596 4.884.358 4.949.124v3.281l-5.099-.123-5.034-.373-4.963-.608-4.886-.845-4.801-1.076-4.706-1.294-4.616-1.508-4.508-1.727-4.399-1.92-4.285-2.121-4.159-2.316-4.037-2.498-3.892-2.683-3.758-2.853-3.613-3.022-3.456-3.182-3.291-3.335-3.133-3.486-2.956-3.635-2.774-3.768-2.591-3.898-2.402-4.026-2.201-4.143-2-4.26-1.785-4.364-1.565-4.47-1.345-4.563-1.119-4.647-.874-4.729-.636-4.811-.385-4.879zm99.4-96.061v3.294V635l-4.949.123-4.884.359-4.813.595-4.736.82-4.651 1.037-4.569 1.256-4.466 1.469-4.371 1.661-4.263 1.868-4.147 2.057-4.033 2.238-3.906 2.421-3.773 2.591-3.634 2.761-3.494 2.921-3.336 3.077-3.191 3.229-3.021 3.37-2.863 3.504-2.68 3.639-2.504 3.766-2.314 3.884-2.126 4-1.924 4.103-1.722 4.208-1.516 4.299-1.295 4.393-1.069 4.479-.85 4.559-.61 4.628-.372 4.695-.122 4.765h-3.195l.134-4.933.384-4.875.636-4.808.874-4.728 1.119-4.646 1.345-4.56 1.566-4.467 1.785-4.362 2-4.258 2.2-4.141 2.402-4.024 2.59-3.896 2.78-3.768 2.95-3.632 3.132-3.485 3.291-3.334 3.46-3.18 3.607-3.022 3.758-2.852 3.897-2.681 4.032-2.498 4.158-2.316 4.285-2.12 4.399-1.92 4.508-1.727 4.616-1.507 4.706-1.294 4.802-1.075 4.886-.846 4.963-.608 5.034-.371 5.099-.125zm0 .006v-.007zm99.349 96.055h-3.195l-.121-4.766-.372-4.695-.61-4.627-.85-4.559-1.069-4.479-1.295-4.393-1.516-4.299-1.722-4.208-1.924-4.104-2.125-3.999-2.313-3.884-2.503-3.766-2.686-3.639-2.855-3.504-3.02-3.37-3.19-3.231-3.335-3.076-3.494-2.92-3.632-2.761-3.777-2.591-3.899-2.421-4.03-2.238-4.145-2.057-4.26-1.869-4.368-1.661-4.463-1.468-4.565-1.257-4.648-1.037-4.732-.819-4.809-.596-4.879-.358-4.944-.117v-3.295l5.094.13 5.029.371 4.959.609 4.882.845 4.798 1.075 4.703 1.295 4.613 1.507 4.505 1.726 4.396 1.92 4.283 2.121 4.156 2.315 4.036 2.498 3.89 2.682 3.757 2.851 3.605 3.022 3.459 3.181 3.291 3.332 3.132 3.487 2.956 3.632 2.773 3.768 2.59 3.895 2.401 4.025 2.2 4.141 1.999 4.258 1.786 4.362 1.565 4.467 1.345 4.56 1.119 4.646.874 4.728.635 4.807.385 4.876zm-99.349 96.097v-3.2880000000000003l4.944-.117 4.879-.358 4.809-.596 4.732-.819 4.649-1.038 4.565-1.257 4.463-1.468 4.368-1.663 4.26-1.868 4.145-2.057 4.03-2.239 3.898-2.421 3.771-2.592 3.638-2.763 3.487-2.92 3.342-3.078 3.19-3.232 3.019-3.371 2.856-3.505 2.686-3.641 2.502-3.768 2.314-3.885 2.125-4.002 1.924-4.104 1.723-4.211 1.515-4.302 1.295-4.395 1.069-4.481.85-4.563.611-4.63.372-4.698.122-4.769h3.195l-.133 4.935-.385 4.879-.636 4.812-.874 4.729-1.119 4.648-1.345 4.563-1.565 4.47-1.785 4.365-1.999 4.259-2.2 4.143-2.402 4.026-2.59 3.898-2.773 3.768-2.956 3.635-3.133 3.486-3.29 3.335-3.454 3.182-3.612 3.022-3.751 2.853-3.895 2.681-4.036 2.5-4.156 2.316-4.283 2.121-4.396 1.92-4.505 1.727-4.613 1.508-4.704 1.294-4.798 1.076-4.882.845-4.958.609-5.03.372-5.094.129zm0 .007v-.007zM239.868 693.158l29.653 22.805-9.06 32.086-40.771.133-10.296-32.219z" data-source="https://football-logos.cc"></path><path fill="#DB2926" d="m215.443 648.327-2.412-11.402s8.682-3.979 25.328-3.979l2.955.018c16.642 0 25.326 3.976 25.326 3.976l-2.413 11.404-24.361 10.344z"></path><path fill="#DB2926" d="M239.073 696.077v-40.308h1.593v40.308zM294.782 696.077l26.631 19.756 13.454-8.354s-.653-11.39-10.432-27.048c-10.433-16.706-18.945-22.538-18.945-22.538l-8.169 9.611zM276.935 774.832l28.417-.929 10.571 12.86s-7.412 10.076-17.573 16.705c-10.156 6.629-20.316 11.666-20.316 11.666l-11.601-12.595z"></path><path fill="#DB2926" d="m296.763 696.008-27.593 20.883-.942-1.325 27.592-20.883zM281.643 654.85l-.768 1.442-1.15-.646-1.11-.61-1.068-.572-1.026-.539-.989-.501-.949-.473-.907-.44-.871-.409-.829-.381-.79-.352-.755-.324-.714-.298-.676-.274-.638-.245-.604-.226-.564-.203-.528-.183-.491-.163-.455-.146-.416-.127-.383-.113-.347-.095-.313-.08-.274-.067-.239-.055-.208-.047-.17-.033-.14-.024-.104-.02-.07-.01-.04-.007v.002l.168-1.635.032.005.058.008.095.016.128.02.159.03.197.04.227.047.265.061.3.073.331.086.366.103.402.112.44.134.474.15.509.17.547.189.583.211.616.231.658.259.695.279.733.305.767.331.809.358.847.387.884.416.926.447.961.479 1.001.514 1.044.546 1.081.579 1.122.616zm16.992 13.248000000000001-1.392.799.001.005-.017-.027-.035-.059-.052-.08-.078-.115-.101-.139-.126-.169-.149-.196-.182-.221-.208-.247-.243-.273-.275-.301-.308-.323-.347-.35-.384-.375-.421-.398-.465-.421-.508-.444-.552-.471-.594-.49-.645-.514-.694-.533-.745-.557-.796-.578-.85-.597-.906-.618-.962-.638-1.024-.656-1.08-.68-1.143-.695-1.209-.715-1.271-.73.768-1.442 1.29.743 1.222.724 1.161.707 1.099.686 1.036.669.982.651.924.631.869.611.815.589.764.57.712.552.664.526.619.509.571.483.525.464.484.44.446.418.404.395.365.369.332.348.295.321.261.298.233.273.2.248.175.22.145.195.12.171.096.14.078.119.054.085.034.059zM277.086 776.534l-17.914-28.638 1.343-.889 17.914 28.639zM318.064 749.067l-1.536-.445.445-1.677.415-1.663.385-1.65.356-1.627.333-1.607.303-1.584.282-1.557.254-1.527.234-1.494.21-1.46.193-1.422.169-1.384.154-1.339.135-1.299.12-1.246.101-1.198.089-1.146.076-1.091.064-1.031.052-.972.042-.909.033-.842.024-.773.018-.702.012-.632.007-.553.002-.474v-.399l-.001-.308-.003-.225-.002-.135-.001-.04 1.592-.039.001.053.002.143.002.231.002.32v.398l-.003.486-.006.565-.012.639-.018.715-.024.787-.033.854-.042.922-.052.983-.064 1.045-.076 1.104-.089 1.159-.107 1.212-.119 1.265-.136 1.312-.154 1.356-.175 1.399-.191 1.441-.216 1.479-.235 1.514-.26 1.547-.282 1.575-.31 1.603-.333 1.628-.363 1.653-.392 1.668-.42 1.69zm-12.116 26.574-1.192-1.087.011-.016.057-.065.091-.113.127-.163.162-.209.195-.261.226-.309.254-.358.282-.41.309-.46.333-.51.356-.562.377-.613.396-.665.417-.718.43-.77.445-.824.458-.873.472-.931.479-.983.485-1.036.496-1.094.497-1.146.503-1.203.5-1.257.503-1.314.499-1.368.497-1.426.493-1.481.481-1.543.477-1.597.465-1.653 1.536.444-.473 1.68-.483 1.622-.495 1.562-.499 1.508-.503 1.451-.511 1.394-.509 1.334-.513 1.283-.509 1.223-.51 1.17-.501 1.113-.498 1.062-.49 1.004-.478.949-.47.899-.457.843-.443.79-.423.736-.408.686-.39.632-.368.58-.346.529-.321.479-.295.425-.267.377-.238.327-.207.274-.175.228-.139.175-.104.127-.063.079zM185.232 696.077l-26.631 19.756-13.453-8.354s.652-11.39 10.432-27.048c10.432-16.706 18.944-22.538 18.944-22.538l8.168 9.611zM203.078 774.832l-28.416-.929-10.57 12.86s7.412 10.076 17.57 16.705c10.16 6.629 20.318 11.666 20.318 11.666l12.355-12.793z"></path><path fill="#DB2926" d="m184.195 694.683 27.59 20.883-.942 1.325-27.591-20.883zM199.138 656.291l-.768-1.442 1.163-.653 1.122-.615 1.082-.58 1.044-.544 1-.515.962-.479.926-.447.883-.416.847-.387.809-.358.768-.331.733-.304.694-.28.658-.26.617-.231.583-.21.546-.19.51-.169.473-.15.441-.134.402-.113.367-.103.331-.086.299-.073.264-.062.227-.047.197-.039.159-.03.128-.02.094-.016.059-.008.032-.005.168 1.635-.001-.002-.039.007-.07.01-.104.02-.141.024-.17.033-.208.047-.24.055-.274.066-.312.081-.347.096-.383.112-.416.127-.454.145-.491.163-.528.183-.564.204-.604.226-.638.245-.677.273-.714.299-.754.323-.79.353-.829.381-.871.409-.907.44-.949.473-.989.501-1.026.539-1.069.572-1.11.61zm-16.366 12.605-1.393-.798.017-.034.035-.06.053-.084.074-.115.099-.145.12-.17.145-.195.175-.221.2-.247.233-.272.262-.299.294-.321.333-.348.366-.369.403-.395.446-.417.484-.441.526-.464.571-.482.619-.508.665-.528.712-.552.764-.569.815-.59.869-.611.924-.632.981-.65 1.037-.669 1.1-.686 1.161-.707 1.222-.724 1.289-.742.768 1.441-1.271.73-1.209.716-1.143.693-1.081.681-1.023.656-.962.639-.906.617-.851.599-.796.577-.745.556-.693.533-.646.514-.594.49-.552.471-.508.444-.465.421-.42.398-.385.375-.347.351-.308.323-.275.301-.243.272-.208.247-.181.222-.15.195-.126.169-.102.139-.074.111-.055.084-.035.058-.016.028zM201.583 775.646l17.915-28.639 1.342.889-17.915 28.638zM163.488 748.622l-1.536.444-.451-1.703-.42-1.689-.391-1.669-.364-1.653-.333-1.628-.31-1.603-.282-1.576-.261-1.546-.234-1.515-.217-1.479-.192-1.441-.176-1.398-.153-1.358-.136-1.31-.119-1.266-.107-1.213-.09-1.158-.076-1.104-.064-1.045-.052-.983-.042-.921-.032-.854-.025-.787-.018-.715-.012-.639-.007-.564-.002-.486v-.399l.001-.32.003-.231.002-.142.001-.053 1.592.037-.001.041-.001.135-.002.225-.002.309v.398l.003.473.006.553.012.632.018.704.025.772.033.843.042.908.053.972.063 1.031.076 1.09.089 1.146.101 1.2.119 1.246.136 1.297.154 1.34.169 1.384.193 1.422.209 1.46.235 1.494.254 1.527.282 1.556.304 1.585.333 1.607.357 1.629.385 1.649.415 1.663zm11.771 25.93-1.192 1.089-.029-.035-.063-.078-.104-.127-.139-.175-.174-.228-.207-.275-.238-.326-.267-.378-.294-.426-.321-.477-.346-.53-.369-.58-.389-.634-.409-.684-.423-.736-.443-.79-.457-.844-.47-.899-.478-.949-.491-1.004-.498-1.061-.502-1.113-.509-1.17-.509-1.224-.513-1.282-.509-1.334-.511-1.394-.504-1.451-.499-1.508-.494-1.562-.482-1.622-.472-1.681 1.536-.443.465 1.653.477 1.597.482 1.542.492 1.482.497 1.426.499 1.367.504 1.315.5 1.256.503 1.204.497 1.145.496 1.094.485 1.036.478.983.472.931.458.873.444.823.431.771.417.718.396.664.376.613.355.562.333.511.309.46.282.41.254.358.225.309.195.261.161.209.127.163.091.113.056.066zM239.253 805.552v-1.646l1.797-.005 1.729-.02 1.664-.032 1.598-.044 1.535-.054 1.471-.063 1.408-.073 1.346-.08 1.285-.087 1.223-.093 1.162-.099 1.102-.101 1.04-.106.983-.108.925-.111.867-.107.81-.112.753-.111.694-.105.641-.105.586-.104.532-.096.475-.094.424-.087.372-.076.316-.069.269-.064.216-.054.163-.041.116-.028.066-.02.015-.004.431 1.582-.034.012-.08.021-.128.034-.182.047-.229.054-.281.064-.334.075-.384.084-.437.087-.493.093-.545.102-.599.104-.653.106-.713.111-.765.11-.822.112-.88.114-.938.111-.996.108-1.058.106-1.115.106-1.175.099-1.235.093-1.296.088-1.359.08-1.421.072-1.484.063-1.547.055-1.611.043-1.676.032-1.741.021zm-25.996-2.631.512-1.558.007.001.063.022.101.031.146.044.193.059.243.065.286.075.335.084.383.094.436.098.482.107.532.108.587.115.636.116.688.119.744.118.794.121.852.119.904.116.962.114 1.016.112 1.076.106 1.13.098 1.192.095 1.247.088 1.31.078 1.37.069 1.427.059 1.492.046 1.554.035 1.617.021 1.68.004v1.647l-1.693-.011-1.629-.021-1.567-.035-1.505-.046-1.446-.059-1.382-.069-1.322-.078-1.266-.087-1.204-.094-1.148-.105-1.088-.106-1.034-.111-.975-.115-.922-.121-.865-.12-.813-.122-.757-.124-.707-.12-.654-.122-.599-.115-.552-.115-.5-.106-.448-.104-.402-.095-.353-.091-.306-.08-.255-.073-.211-.058-.166-.051-.12-.037-.069-.022zM163.544 831.333s-1.235 22.993 4.667 22.993c5.08 0 11.943-4.682 11.943-11.151 0-6.475-.137-11.705-.137-11.705zM201.434 831.47h15.373s.274 30.565.138 37.727c-.138 7.294-4.983 8.673-6.451 8.673h-18.945v-11.151s9.746 1.375 9.746-2.756c0-13.083.139-32.493.139-32.493M277.622 865.314c-.137 9.399-3.432 12.281-26.717 12.517-14.191.146-18.584-.648-21.604-2.021l.139-8.647s5.354.409 12.079.685c2.452.1 12.064.157 14.278-.275 2.211-.428 7.137-3.379 7.137-4.94l.412-20.59h-28.14v-10.571l42.417.032zM291.212 853.035c0-7.829-.211-16.126 4.531-20.487 4.741-4.36 9.607-3.058 23.748-2.799 21.215.38 25.534-5.727 32.536-.384 2.862 2.185 3.019 4.197 1.373 8.399-2.217 5.654-5.223 6.912-6.729 15.398-1.647 9.284-4.53 14.516-12.493 20.617-3.429 2.628-11.531 5.088-18.944 3.309-7.404-1.778-13.397-5.368-16.608-8.525-4.531-4.457-7.414-9.92-7.414-15.528m19.357 9.55c4.44 3.432 10.569 5.783 17.297 1.145 5.033-3.474 10.296-15.147 7.413-19.221-.998-1.41-5.614-2.417-16.75-2.417-3.233 0-11.629-.527-13.313 1.782-3.161 4.327-3.021 12.239 5.353 18.711M129.319 831.056h17.867s.316 39.953.16 49.312c-.16 9.539-5.793 11.34-7.5 11.34-4.553 0-14.329-.072-14.422 0-.143.106-.049-14.624.15-14.666 2.002-.431 3.583-1.489 3.583-3.512 0-17.102.162-42.474.162-42.474" data-source="https://football-logos.cc"></path><!-- source: https://football-logos.cc --></svg>