<svg xmlns="http://www.w3.org/2000/svg" viewBox="26.29 186.69 735.16 757.86"><!-- Source: https://football-logos.cc --><path d="M466.786 205.848c34.736 16.273 59.308 36.966 69.869 71.9 11.304 37.393 6.5 59.308.812 119.834-4.159 44.267-6.093 64.993-4.062 79.617 1.25 8.997 7.312 25.185 17.467 47.527 10.156 22.342 20.717 39.81 20.717 39.81s-26.81 23.153-48.745 59.307c-21.936 36.152-38.59 77.532-38.59 77.532s-92.618-21.084-188.349-21.085h-.005c-95.73 0-188.348 21.085-188.348 21.085s-16.655-41.38-38.59-77.532c-21.936-36.154-48.746-59.308-48.746-59.308s10.561-17.467 20.717-39.809S57.15 486.196 58.4 477.2c2.032-14.624.097-35.35-4.062-79.617-5.687-60.526-10.492-82.441.813-119.833 10.562-34.935 35.133-55.628 69.869-71.9 45.09-21.124 170.88-72.867 170.88-72.867s125.796 51.743 170.886 72.866z" style="fill:#231f20;fill-opacity:1;fill-rule:nonzero;stroke:none" transform="matrix(1.33333 0 0 -1.33333 -.667 1121.853)" data-source="https://football-logos.cc"></path><path d="M479.058 691.465c5.664-13.283 19.375-43.993 36.423-72.09 16.752-27.61 36.063-47.705 45.197-56.482-4.017-7.09-10.877-19.712-17.646-34.603-10.877-23.931-16.816-40.255-18.156-49.907-.614-4.414-.9-9.226-.9-14.872 0-14.395 1.862-34.217 4.917-66.736l2.398-24.312c2.08-20.538 3.613-35.684 3.613-49.267 0-14.547-1.759-27.299-6.492-42.956-8.892-29.407-28.414-49.323-65.279-66.594-40.355-18.904-147.204-63.088-167.233-71.35-20.028 8.263-126.873 52.446-167.228 71.35-36.864 17.271-56.387 37.187-65.278 66.594-4.733 15.657-6.493 28.409-6.493 42.956 0 13.583 1.534 28.729 3.614 49.267l2.397 24.312c3.056 32.52 4.918 52.34 4.918 66.736 0 5.646-.287 10.458-.9 14.872-1.34 9.652-7.28 25.976-18.157 49.907-6.769 14.891-13.629 27.514-17.646 34.603 9.135 8.777 28.445 28.872 45.198 56.482 17.047 28.097 30.759 58.807 36.423 72.09 23.636-4.864 102.727-19.786 183.152-19.787 80.43 0 159.521 14.923 183.158 19.787" style="fill:#fff;fill-opacity:1;fill-rule:nonzero;stroke:none" transform="matrix(1.33333 0 0 -1.33333 -.667 1121.853)"></path><path d="M473.94 681.62c6.826-15.506 19.237-42.087 34.179-66.712 14.707-24.241 31.384-42.91 41.86-53.536-4.077-7.462-9.466-17.815-14.787-29.519-14.954-32.898-17.918-45.595-18.847-52.285-.669-4.816-.98-9.99-.98-16.025 0-14.849 1.884-34.896 4.954-67.573l2.403-24.374c2.094-20.664 3.591-35.454 3.591-48.473 0-13.822-1.688-25.648-6.146-40.39-8.11-26.832-26.26-45.16-60.687-61.287-38.356-17.969-137.257-58.962-163.58-69.833-26.32 10.871-125.218 51.864-163.574 69.833C97.9 237.572 79.75 255.9 71.637 282.732c-4.457 14.743-6.145 26.569-6.145 40.39 0 13.02 1.498 27.81 3.591 48.474l2.403 24.374c3.07 32.677 4.954 52.724 4.954 67.573 0 6.034-.31 11.209-.98 16.025-.93 6.69-3.894 19.387-18.847 52.285-5.32 11.704-10.71 22.057-14.787 29.519 10.476 10.627 27.153 29.295 41.861 53.536 14.942 24.625 27.353 51.206 34.178 66.713 29.855-5.917 102.47-18.554 178.035-18.554 75.568 0 148.185 12.637 178.04 18.554" style="fill:#d71823;fill-opacity:1;fill-rule:nonzero;stroke:none" transform="matrix(1.33333 0 0 -1.33333 -.667 1121.853)"></path><path d="M448.173 631.797c6.32-12.66 13.75-26.579 21.882-39.984 8.666-14.28 17.896-26.859 26.502-37.428a474 474 0 0 1-1.895-4.109c-13.57-29.855-20.274-49.17-22.414-64.583-.97-6.975-1.41-14.03-1.41-22.025 0-16.986 1.993-38.203 5.156-71.863l2.434-24.695c2.094-20.677 3.338-33.679 3.338-43.91 0-10.338-1.27-17.847-4.214-27.584-2.948-9.75-8.23-20.396-36.959-33.855-31.66-14.83-106.417-46.08-144.693-61.961-38.274 15.88-113.026 47.13-144.687 61.961-28.73 13.46-34.012 24.105-36.96 33.855-2.943 9.737-4.213 17.246-4.213 27.584 0 10.231 1.244 23.233 3.337 43.91l2.435 24.695c3.163 33.66 5.156 54.877 5.156 71.863 0 7.994-.442 15.05-1.41 22.025-2.14 15.414-8.844 34.728-22.414 64.583a474 474 0 0 1-1.895 4.109c8.606 10.57 17.835 23.147 26.501 37.428 8.133 13.405 15.563 27.323 21.882 39.984 38.406-6.226 94.513-13.25 152.268-13.251 57.76 0 113.867 7.025 152.273 13.251" style="fill:#231f20;fill-opacity:1;fill-rule:nonzero;stroke:none" transform="matrix(1.33333 0 0 -1.33333 -.667 1121.853)"></path><path d="M336.682 563.181v-10.764l.033-.751c6.047-5.895 31.326-30.986 31.085-31.95-.152-.607-16.62-2.573-31.076-4.186l-.042-.417V414.236l-.013-.497 2.245-5.398c27.31 14.746 45.88 43.734 45.88 77.084 0 34.256-19.594 63.91-48.126 78.255z" style="fill:#d71823;fill-opacity:1;fill-rule:nonzero;stroke:none" transform="matrix(1.33333 0 0 -1.33333 -.667 1121.853)"></path><path d="M336.728 584.044c40.224-12.284 69.527-50.198 69.527-95.065s-29.304-82.78-69.528-95.063l-.045-.736V225.752l.042-1.438c28.015 11.76 58.778 24.827 81.554 34.916l-.053 1.56v57.309l.003.249-4.635-3.6-9.47 9.874-4.01-3.114-8.473 10.908 16.201 12.583 10.369-13.348.015.36V619.07l-.035 1.324c-23.93-3.194-51.939-6.144-81.536-7.669l.028-.967v-27.25z" style="fill:#d71823;fill-opacity:1;fill-rule:nonzero;stroke:none" transform="matrix(1.33333 0 0 -1.33333 -.667 1121.853)"></path><path d="M336.682 541.923v-14.217l.046-.425 8.459-.388-8.444 15.581z" style="fill:#d71823;fill-opacity:1;fill-rule:nonzero;stroke:none" transform="matrix(1.33333 0 0 -1.33333 -.667 1121.853)" data-source="https://football-logos.cc"></path><path d="M342.615 363.526v-8.293h19.21c4.18 0 7.6 3.398 7.6 7.55v22.443h-26.81v-8.328h2.79l-2.248-3.69v-6.804h11.882v7.312h-2.641l.718 3.182h6.56v-11.61c-.068-1.118-.19-1.727-1.296-1.778H343.07zM391.36 355.69v20.7H374.3v8.836h26.81v-29.993h-9.749zm-7.074-.457v17.062h-8.43s-1.59-3.454-1.557-5.79v-11.272h9.716zM345.729 295.608l10.467-30.98 14.623 4.94-14.757 43.68-19.243-6.501 4.259-12.604 4.618 1.56zM384.292 308.883l13.65-26.169 13.417 7-14.794 28.362c-4.22 7.65-8.557 11.572-16.974 7.068l-20.349-10.616 6.257-11.993 15.126 7.891c1.612.863 2.556.585 3.666-1.543M274.624 193.755l-4.3 1.22s-3.01-1.68-5.854-2.278l-1.185-4.168c2.994.135 4.713.633 4.713.633l-2.912-10.322-3.692 1.049-1.398-4.924 12.504-3.551 1.398 4.923-3.895 1.106zM278.475 176.912l4.294-.574c-.248-1.861.633-2.167 2.663-2.437s2.55.171 2.726 1.36l.364 2.734s-3.661-.056-5.974 1.037c-2.313 1.094-3.405 3.016-2.91 6.775.728 5.367 3.996 6.229 8.023 5.692 5.033-.673 7.47-2.123 6.756-7.458l-1.214-9.111c-.374-2.755-2.19-6.119-8.5-5.305-6.286.813-6.776 3.078-6.228 7.287m11.167 7.422c.22 1.964-.658 2.753-2.184 2.955-1.927.257-2.92-.506-3.125-2.04-.204-1.536.13-2.544 2.332-2.853 2.092-.293 2.8.358 2.977 1.938M329.185 190.398l-4.183-1.134c-.491 1.813-1.422 1.753-3.399 1.217-1.976-.536-2.285-1.146-1.986-2.31l.722-2.662s3.354 1.47 5.91 1.357 4.307-1.463 5.306-5.12c1.406-5.231-1.274-7.29-5.193-8.353-4.902-1.329-7.71-.935-9.119 4.26l-2.406 8.87c-.72 2.686-.35 6.49 5.786 8.182 6.108 1.686 7.438-.214 8.562-4.307m-7.424-11.167c.557-1.895 1.672-2.284 3.157-1.879 1.877.51 2.496 1.596 2.091 3.091s-1.105 2.295-3.253 1.728c-2.043-.54-2.444-1.414-1.995-2.94M304.126 174.792l9.25.526.281-4.958-14.751-.839-.222 3.903c-.124 2.18.332 3.986 3.33 6.7 3 2.713 4.627 3.627 4.686 5.25.06 1.631-.941 2.236-2.158 2.167-1.521-.087-2.613-.556-2.71-2.393l-4.65-.264s-.27 3.206 1.139 4.744c1.868 2.038 3.74 2.195 6.68 2.363s6.343-1.12 6.812-5.309c.414-3.69-.957-5.575-3.915-8.054-3.058-2.565-3.772-3.836-3.772-3.836M254.601 646.17l.262 6.9 10.092-.383-.865-22.833-7.43.281.605 15.933zM322.2 645.582l-.263 6.9 10.092.386.87-22.832-7.428-.285-.608 15.933zM194.668 643.977l7.403-.692 1.327 14.206-10.056.94-.642-6.876 2.654-.247zM352.576 647.745l1.02-16.419-7.422-.46-.855 13.784.755 2.184-10.034-.624-.428 6.893 18.492 1.148.397-6.386zM228.881 631.993l.703 10.047 1.504 3.05 6.213-.434-.923-13.188zm20.768-1.452 1.594 22.793-20.767 1.453-.482-6.889 12.87-.9-1.113-15.905zM174.73 654.112l6.135-.798-1.165-8.963-6.13.797c.47 3.597 1.16 8.964 1.16 8.964m-7.984-.755-1.827-14.048 21.652-2.815 2.311 17.774c.432 3.323-1.473 5.21-4.4 5.54l-16.617 2.16-.89-6.848 2.735-.356zM307.08 645.324l-.134 6.905 10.098.196.578-29.753-7.433-.144-.443 22.848zM408.149 649.95l1.687-12.906-6.848-.895-2.066 15.81-2.618-.343-.896 6.847 9.467 1.238.34-2.602s1.638 2.878 5.265 3.334l8.19 1.07 2.143-16.396c.625-5.04-1.327-6.557-4.552-6.961l-5.236-.685-.842 6.445 3.255.425-1.224 9.365-1.163-.152c-3.706-.468-5.198-1.073-4.902-3.594M284.896 629.357l6.765-.124.049 2.69-4.095 6.407 4.295 4.51.17 9.239-7.446.137-.164-8.935-5.768 9.043-8.046.148-.014-.787 3.377-5.314-3.543-3.647-.24-13.098 8.834-.162.105 5.686-1.93.036.11 5.967zM369.915 639.595l1.707.15c1.214.088 1.463.755 1.37 2.276l-1.199 13.742 7.684.67 1.198-13.742c.54-6.58-2.08-9.288-7.038-9.704l-14.331-1.25-.6 6.88 4.645.405-1.425 1.92-2.868 13.71 7.561.66zM384.042 650.004l-.778 6.862 10.036 1.137 2.574-22.703-7.388-.838-1.795 15.842zM223.11 649.057l-1.589-16.374-7.4.717 1.335 13.747 1.09 2.037-10.007.97.667 6.874 18.442-1.789-.617-6.368zM266.601 282.457l5.126 20.422-21.406 5.374 2.934 11.688-14.74 3.7-6.227-24.806 21.437-5.382-1.582-6.305c-1.266-5.04-3.145-5.856-5.544-7.068l-7.36-3.178-3.165-12.608 5.385-1.352 15.311 7.604c5.42 2.688 7.72 3.505 9.831 11.911M413.593 314.748l11.068 8.596L407.841 345l-16.2-12.583 8.472-10.908 4.01 3.114zM287.37 411.799v8.53h12.998v-30.195h-9.207v21.661zM298.308 269.474l-6.092-.134-.748 33.911-14.214-.314 1.018-46.095 40.61.897c9.609.348 13.677 6.261 13.417 18.038l-.626 28.361-14.349-.317.64-29.037c.076-3.384-.566-5.024-2.735-4.936l-7.052-.156s3.693 5.093 3.45 9.963l-.53 24.03-13.538-.3z" style="fill:#fff;fill-opacity:1;fill-rule:nonzero;stroke:none" transform="matrix(1.33333 0 0 -1.33333 -.667 1121.853)"></path><path d="m255.12 393.026-69.168 51.27 10.832 14.08 56.483-46.722 1.872 4.115-.017.499v106.528l-.008.317-42.894 12.851s-4.739-3.925-5.822-3.52c-1.083.406-8.259 5.958-8.259 7.041s7.04 5.28 8.8 5.28c.666 0 18.204-4.097 18.204-4.097 7.576 12.59 17.833 23.331 29.967 31.403l.012.334v39.149l.086 1.168c-29.597 1.522-57.61 4.47-81.544 7.664l-.084-1.215V340.203l-.004-.315 5.297 7.669 26.736-18.472c6.835-4.64 6.062-10.522 2.983-14.98l-20.165-29.187-14.837 10.25-.01-.206v-34.68l.002-1.075c22.8-10.101 53.583-23.176 81.603-34.937l-.064 1.788v43.464l-.01.2-13.652-6.78-5.385 1.352 3.165 12.608 7.36 3.178c2.398 1.212 4.278 2.027 5.544 7.068l1.582 6.305-21.437 5.382 6.227 24.807 14.74-3.7-2.934-11.69 4.819-1.209-.019.223v85.76z" style="fill:#d71823;fill-opacity:1;fill-rule:nonzero;stroke:none" transform="matrix(1.33333 0 0 -1.33333 -.667 1121.853)"></path><path d="m173.557 335.676 2.207-1.524s-.92-.26-2.185-.91zM255.144 561.622a87.4 87.4 0 0 1-19.713-15.294c-1.627-1.685-5.51-6.577-5.51-6.577 8.13-1.822 17.228-3.839 25.192-5.501l.008.275v26.66z" style="fill:#d71823;fill-opacity:1;fill-rule:nonzero;stroke:none" transform="matrix(1.33333 0 0 -1.33333 -.667 1121.853)"></path><path d="m168.421 328.856-14.085-20.386 34.09-23.552 20.166 29.187c3.079 4.458 3.852 10.34-2.983 14.98l-26.736 18.472-7.273-10.528 4.164-2.877s-4.558-1.295-7.343-5.296M225.143 540.668c17.162 28.525 48.102 47.562 83.418 47.562 53.955 0 97.694-44.436 97.694-99.25 0-51.118-38.036-93.209-86.923-98.656l-7.454-30.25-22.206-22.748-15.572 14.082 14.858 16.538-103.006 76.35 10.832 14.08 56.483-46.722 30.988 68.118-3.791 35.747-68.244 20.445s-4.739-3.925-5.823-3.52c-1.083.406-8.258 5.958-8.258 7.041s7.04 5.28 8.8 5.28c.665 0 18.204-4.097 18.204-4.097m4.777-.917c14.642-3.28 32.415-7.194 41.066-8.525 15.842-2.438 29.788-1.083 29.788-1.083v3.114s-3.52.54-6.5.676c-2.977.136-4.738 2.167-5.009 7.583s-.541 14.218-.541 14.218l19.092-1.084-.948-25.997 38.319-1.76-9.613 17.737s-5.01-.405-5.687 0c-.677.407-1.745 8.795-1.084 8.938 1.896.406 5.958-.136 6.636-.678.676-.54 32.632-32.09 32.361-33.174-.27-1.083-52.536-6.5-52.536-6.5s-3.657-14.082-5.282-19.362-3.52-8.26-10.29-12.458c0 0 7.717-.541 8.8-.947s4.334-9.75 12.187-28.435c7.854-18.686 18.235-43.673 18.235-43.673 27.31 14.746 45.88 43.734 45.88 77.084 0 48.29-38.936 87.438-86.964 87.438-24.479 0-46.596-10.17-62.4-26.535-1.626-1.685-5.51-6.577-5.51-6.577m30.371-133.908 35.977-29.76 21.821 24.29a86 86 0 0 1 13.854 4.597l-35.907 60.449z" style="fill:#fff;fill-opacity:1;fill-rule:nonzero;stroke:none" transform="matrix(1.33333 0 0 -1.33333 -.667 1121.853)"></path><path d="m185.226 327.615 7.317-5.056c1.853-1.28 2.292-1.952 1.066-3.698l-10.083-14.594-9.915 6.85 11.47 16.6z" style="fill:#d71823;fill-opacity:1;fill-rule:nonzero;stroke:none" transform="matrix(1.33333 0 0 -1.33333 -.667 1121.853)"></path><path d="M221.428 363.13v-7.897h20.158c4.18 0 7.6 3.398 7.6 7.55v22.443h-9.538l-.212-.008v-21.86h-4.223l-2.75 21.868h-10.256l2.233-14.76c.753-5.104 3.359-7.108 3.359-7.108h-6.382zM208.429 376.033v-4.16c0-2.796-1.15-3.845-7.244-8.718v-7.922h4.265l9.952 8.328c1.93 1.625 2.911 2.844 2.776 7.007v14.658h-14.124l-.365-.008v7.49h-9.75v-16.453h14.507zM210.019 294.634l12.767-5.78 11.308 24.98-18.689 8.46-5.695-12.583 4.625-2.094z" style="fill:#fff;fill-opacity:1;fill-rule:nonzero;stroke:none" transform="matrix(1.33333 0 0 -1.33333 -.667 1121.853)" data-source="https://football-logos.cc"></path><!-- source: https://football-logos.cc --></svg>