<svg xmlns="http://www.w3.org/2000/svg" viewBox="0.46 0.53 1770.13 1774.27"><!-- Source: https://football-logos.cc --><path fill="#d4af37" fill-rule="evenodd" d="m948.642 94.649 98.471.007a.34.34 52.792 0 1 .2.615l-79.661 57.885a.34.34 42.923 0 0-.123.38l30.422 93.653a.34.34-40.974 0 1-.523.38l-79.668-57.874a.34.34 44.815 0 0-.4 0l-79.668 57.874a.34.34-63.767 0 1-.523-.38l30.422-93.653a.34.34 34.37 0 0-.123-.38l-79.661-57.885a.34.34 7.381 0 1 .2-.615l98.471-.007a.34.34 11.344 0 0 .323-.235L917.237.765a.34.34-8.627 0 1 .646 0l30.436 93.649a.34.34-55.504 0 0 .323.235" data-source="https://football-logos.cc"></path><path fill="#fff" fill-rule="evenodd" d="M989.16 1227.13a.199.198 67.208 0 0-.34-.14l-110.76 111.93a.32.313-47.048 0 1-.43.02l-93.31-78.44a.981.959-24.287 0 0-.63-.23H623.06a.37.37-45 0 1-.37-.37v-20.68a.275.274-19.818 0 0-.45-.21l-25.6 21.09a1.264 1.245-64.476 0 1-.8.29h-122.7a.224.223 24.112 0 1-.15-.39l86.17-76.77a.237.234 23.947 0 0-.16-.41h-98.53a.5.5 45 0 1-.5-.5v-96.34a.67.67-89.93 0 1 .67-.67h86.08a.55.54 0 0 1 .55.54v17.93a.67.67 0 0 0 .67.67h181.62a.217.216-26.71 0 0 .13-.39L427.85 881.62a.3.292-54.126 0 1-.06-.41l75.3-101.16a.531.527-52.31 0 1 .76-.1L732.3 961.28a.303.299-60.059 0 0 .47-.13l93.17-250.91a4.1 4.042-37.282 0 0 .25-1.75l-6.77-92.22a.353.334-85.511 0 0-.25-.31l-256.04-68.32a1.511 1.505 40.354 0 0-1.01.08l-45.08 19.92a1.619 1.614 42.413 0 1-1.14.05l-57.15-19.05a.395.391-69.663 0 1-.24-.53l26.38-61.55a.8.766-86.835 0 1 .46-.43l58.18-21.29a2.609 2.552-48.349 0 1 1.44-.1l51.83 11.31a.563.561 30.583 0 0 .51-.13c57.07-49.76 124.64-91.45 196.25-118.56 75.38-28.53 156.31-39.1 234.32-22.46q27.1 5.78 60.68 17.05c107.6 36.13 207.22 104.17 259.27 207.92 26.61 53.04 38.14 113.14 33.65 172.71q-2.91 38.63-12.26 71.64c-12.76 45.09-36.54 85.62-65.98 122.28-13.85 17.24-27.91 34.11-41.93 48.47-63.25 64.73-144.4 107.49-234.72 122.82a.436.423.842 0 0-.35.33l-1.36 6.24a.195.193 6.943 0 0 .19.24h305.22a.4.4 45 0 1 .4.4v159.56a.38.38-45 0 1-.38.38H989.59a.43.43-53.16 0 1-.43-.43zM507.5 813.16l-46.97 63.1a.386.378-54.201 0 0 .08.53l404.76 298.29a.416.407 39.036 0 1 .07.6l-61.84 69.93a.47.47 40.794 0 0 .05.67l72.29 60.78a.647.645 42.302 0 0 .88-.04l98.35-99.39a3.101 3.015 74.724 0 0 .79-1.43l31.38-128.7a.551.547 3.1 0 1 .46-.41c92.26-12.37 178.83-56.1 242.15-124.17q27.12-29.16 48.4-58.56c20.57-28.44 37.6-59.39 47.12-91.9 12.85-43.92 17.06-91.69 10.97-136.6q-10.4-76.61-56.66-140.43c-58.66-80.9-150.8-132.86-245.55-159.84q-35.23-10.03-62.43-13.07c-90.2-10.08-178.97 15.43-257.99 57.8q-70.43 37.76-129.66 90.72a1.11 1.097-59.376 0 1-.99.26l-56.8-12.39a1.704 1.684 40.935 0 0-.92.06l-42.24 15.46a1.701 1.685-88.247 0 0-.99.94l-12.19 28.44a.584.582-69.02 0 0 .35.79l24.3 8.1a1.757 1.732 41.838 0 0 1.25-.06l44.23-19.54a1.665 1.632 39.733 0 1 1.1-.09l279.66 74.63a.782.776-84.837 0 1 .58.7l8.35 113.78a2.855 2.774-37.831 0 1-.17 1.21L743.43 999.42a.288.279-60.579 0 1-.44.13L508.08 813.08a.408.406-52.724 0 0-.58.08m78.7 377.053a.35.35 8.245 0 1-.117.261l-51.637 46.005a.35.35 9.943 0 0 .233.611h53.155a.35.35 47.227 0 0 .223-.08l39.696-32.705a.35.35-23.112 0 0 .127-.27v-76.055a.35.35-8.168 0 0-.35-.35H524.28a.35.35-57.186 0 1-.35-.35V1109a.35.35-72.366 0 0-.35-.35h-39.9a.35.35 79.332 0 0-.35.35v50.23a.35.35-82.284 0 0 .35.35h102.17a.35.35-60.182 0 1 .35.35zm77.94 14.087a.53.53 33.748 0 1-.53.53h-17.18a.53.53-19.202 0 0-.53.53v31.02a.53.53-78.743 0 0 .53.53h90.748a.53.53 35.805 0 0 .353-.134l37.192-33.138a.53.53 56.233 0 0 .177-.396v-75.012a.53.53-86.519 0 0-.53-.53h-38.63a.53.53 45 0 0-.53.53v65.082a.53.53-72.905 0 1-.177.396l-12.312 10.968a.53.53 63.076 0 1-.353.134H704.37a.53.53 36.846 0 1-.53-.53v-76.05a.53.53-78.743 0 0-.53-.53h-38.64a.53.53 74.816 0 0-.53.53zm443.74-45.15a.43.43-45 0 1 .43.43v46.33a.43.43 45.002 0 1-.43.43h-94.98a.43.43-15.197 0 0-.43.43v34.45a.43.43-78.717 0 0 .43.43h136.83a.43.43-44.989 0 0 .43-.43v-113.08a.43.43-84.144 0 0-.43-.43h-136.76a.43.43 74.807 0 0-.43.43v30.58a.43.43-88.265 0 0 .43.43h15.73a.43.43 25.18 0 1 .43.43v25.8a.43.43-45 0 0 .43.43h40.03a.43.43 81.842 0 0 .43-.43v-25.8a.43.43 45 0 1 .43-.43zm198.9 82.5a.53.53-45 0 0 .53-.53v-112.76a.53.53 45 0 0-.53-.53h-138.69a.53.53-8.159 0 0-.53.53v31.2a.53.53 87.54 0 0 .53.53h96.69a.53.53-64.82 0 1 .53.53v80.5a.53.53 81.841 0 0 .53.53zm-475.646-62.362a.34.34 56.035 0 0-.053-.499l-32.359-23.85a.34.34 6.896 0 0-.542.274v60.439a.34.34 53.668 0 0 .595.226zm380.326 5.412a.54.54 0 0 0-.54-.54h-40.82a.54.54 0 0 0-.54.54v56.4a.54.54 0 0 0 .54.54h40.82a.54.54 0 0 0 .54-.54z"></path><path fill="#243e87" fill-rule="evenodd" d="M507.5 813.16a.408.406-52.724 0 1 .58-.08l234.91 186.47a.288.279-60.579 0 0 .44-.13l106.24-286.09a2.855 2.774-37.831 0 0 .17-1.21l-8.35-113.78a.782.776-84.837 0 0-.58-.7l-279.66-74.63a1.665 1.632 39.733 0 0-1.1.09l-44.23 19.54a1.757 1.732 41.838 0 1-1.25.06l-24.3-8.1a.584.582-69.02 0 1-.35-.79l12.19-28.44a1.701 1.685-88.247 0 1 .99-.94l42.24-15.46a1.704 1.684 40.935 0 1 .92-.06l56.8 12.39a1.11 1.097-59.376 0 0 .99-.26q59.23-52.96 129.66-90.72c79.02-42.37 167.79-67.88 257.99-57.8q27.2 3.04 62.43 13.07c94.75 26.98 186.89 78.94 245.55 159.84q46.26 63.82 56.66 140.43c6.09 44.91 1.88 92.68-10.97 136.6-9.52 32.51-26.55 63.46-47.12 91.9q-21.28 29.4-48.4 58.56c-63.32 68.07-149.89 111.8-242.15 124.17a.551.547 3.1 0 0-.46.41l-31.38 128.7a3.101 3.015 74.724 0 1-.79 1.43l-98.35 99.39a.647.645 42.302 0 1-.88.04l-72.29-60.78a.47.47 40.794 0 1-.05-.67l61.84-69.93a.416.407 39.036 0 0-.07-.6L460.61 876.79a.386.378-54.201 0 1-.08-.53zm125.41-303.9 293.03 35.44a.34.333-86.108 0 0 .37-.33l.08-11.72a.55.55 45 0 0-.55-.55l-43.7-.3a.952.948-5.996 0 1-.93-.75l-17.98-85.99a.831.829-10.597 0 1 .68-.99l87.57-14.06a.457.455 85.815 0 1 .53.46l-.78 114.63a.512.511 1.792 0 0 .48.51l159.58 12.58a.21.209 73.099 0 0 .18-.34l-69.15-89.18a.795.79 67.188 0 0-.73-.3c-20.26 2.62-45.3.97-54.58-20.55-4.24-9.82 9.75-11.29 15.44-11.23q27.25.29 53.89 10.12a2.412 2.333 75.32 0 1 .79.48q40.69 37.58 126.72 117.21c13.13 12.16-9.87 17.14-17.31 18.48q-15.29 2.74-19.06 3.31-80.08 12.19-167.9 24.41a1.091 1.084 4.834 0 0-.87.73l-35.23 105.69a1.051 1.049 5.746 0 1-.87.71l-26.69 3.06a.402.4-89.094 0 0-.36.35l-.74 6.17a.214.204-87.552 0 0 .21.24l37.38-1.28a.597.596 77.458 0 1 .58.37l131.85 310.28a.461.458-24.741 0 0 .63.23q16.72-8.52 32.96-18.72c95.44-59.88 177.12-153.32 182.78-270.39q1.71-35.16-5.32-69.97c-2.01-9.97-3.27-17.22-4.88-24.15-16.63-71.45-59.67-134.53-116.31-180.4-74.4-60.25-168.59-91.83-264.45-87.19-85.86 4.15-167.53 36.68-236.15 88.29q-23.91 17.99-41.36 34.12a.302.302 26.964 0 0 .17.52m131.17 516.76 136.65 122.52a.63.63 57.31 0 0 .89-.05l83.89-94.86a1.436 1.421-72.483 0 1 .93-.49l74.38-8.52a.189.187 53.106 0 0 .05-.36l-20.76-8.9a1.419 1.4-3.413 0 1-.64-.56l-130-215.86a.396.396 0 0 0-.68 0l-121.38 205.72a.528.501 13.358 0 1-.43.25l-22.78.78a.19.188-25.27 0 0-.12.33"></path><path fill="#fff" fill-rule="evenodd" d="M632.74 508.74q17.45-16.13 41.36-34.12c68.62-51.61 150.29-84.14 236.15-88.29 95.86-4.64 190.05 26.94 264.45 87.19 56.64 45.87 99.68 108.95 116.31 180.4 1.61 6.93 2.87 14.18 4.88 24.15q7.03 34.81 5.32 69.97c-5.66 117.07-87.34 210.51-182.78 270.39q-16.24 10.2-32.96 18.72a.461.458-24.741 0 1-.63-.23L952.99 726.64a.597.596 77.458 0 0-.58-.37l-37.38 1.28a.214.204-87.552 0 1-.21-.24l.74-6.17a.402.4-89.094 0 1 .36-.35l26.69-3.06a1.051 1.049 5.746 0 0 .87-.71l35.23-105.69a1.091 1.084 4.834 0 1 .87-.73q87.82-12.22 167.9-24.41 3.77-.57 19.06-3.31c7.44-1.34 30.44-6.32 17.31-18.48q-86.03-79.63-126.72-117.21a2.412 2.333 75.32 0 0-.79-.48q-26.64-9.83-53.89-10.12c-5.69-.06-19.68 1.41-15.44 11.23 9.28 21.52 34.32 23.17 54.58 20.55a.795.79 67.188 0 1 .73.3l69.15 89.18a.21.209 73.099 0 1-.18.34l-159.58-12.58a.512.511 1.792 0 1-.48-.51l.78-114.63a.457.455 85.815 0 0-.53-.46l-87.57 14.06a.831.829-10.597 0 0-.68.99l17.98 85.99a.952.948-5.996 0 0 .93.75l43.7.3a.55.55 45 0 1 .55.55l-.08 11.72a.34.333-86.108 0 1-.37.33l-293.03-35.44a.302.302 26.964 0 1-.17-.52m298.49-99.28q-11.03-.44-22.49.24-60.63 3.59-116.58 25.5-54.88 21.5-102.5 57.05a.225.223 29.954 0 0 .11.4l163.21 19.74a.383.377 87.172 0 0 .41-.46l-18.1-86.56a.287.284 80.528 0 1 .24-.34l95.71-15.37a.101.1-48.139 0 0-.01-.2m57.66 4.84-12.72-2.02a.648.639 4.603 0 0-.75.63v7.18a.291.287-18.051 0 0 .46.23q5.34-3.9 13.02-5.37a.33.33 44.177 0 0-.01-.65m289.03 334.28.02-1.05c.96-21.29-.53-42.68-4.66-63.59-2.39-12.08-4.31-22.94-6.55-31.48q-12.53-47.69-39.77-88.2c-33.1-49.19-80.06-89.24-133.66-115.84a.175.173-9.775 0 0-.2.28q90.62 83.78 106.85 98.85c15.93 14.79 15.18 38.19-4.3 49.6q-11.07 6.49-26.68 9.08c-56.77 9.44-120.85 18.37-172.05 25.5a.721.718 5.166 0 0-.59.49l-25.45 76.37a.796.788-47.306 0 0 .02.57l125.4 295.11a.366.362-26.585 0 0 .52.17q49.4-28.84 89.81-68.55c25.04-24.62 46.9-53.09 62.98-84.27q25.05-48.52 28.31-103.04M975.03 472.8l-.35 50.87a.402.393-87.675 0 0 .36.4l85.3 6.72a.335.329 72.91 0 0 .28-.54l-28.9-37.27a.993.982-19.836 0 0-.82-.38c-17.5.7-38.25-3.73-51.33-16.01q-3.87-3.63-4.11-3.94a.243.241 25.451 0 0-.43.15"></path><path fill="#d4af37" fill-rule="evenodd" d="m1277.94 747.53-.02 1.05q-.13-.53.02-1.05"></path><path fill="#fff" fill-rule="evenodd" d="M764.08 1026.02a.19.188-25.27 0 1 .12-.33l22.78-.78a.528.501 13.358 0 0 .43-.25l121.38-205.72a.396.396 0 0 1 .68 0l130 215.86a1.419 1.4-3.413 0 0 .64.56l20.76 8.9a.189.187 53.106 0 1-.05.36l-74.38 8.52a1.436 1.421-72.483 0 0-.93.49l-83.89 94.86a.63.63 77.577 0 1-.89.05zm113.565-108.475a.37.37-18.05 0 0 .319.559l63.178-.221a.37.37-77.222 0 0 .315-.561l-31.773-52.896a.37.37 71.566 0 0-.636.002zm68.195 7.515v137.66a.212.211 65.705 0 0 .37.14l27.73-31.36a1.542 1.501 16.717 0 1 .96-.5l32.36-3.71a.28.275-18.953 0 0 .21-.42l-61.35-101.89a.152.15-60.648 0 0-.28.08m-23.42 16.59a.47.47 0 0 0-.47-.47h-40.96a.47.47 0 0 0-.47.47v112.9a.47.47 0 0 0 .47.47h40.96a.47.47 0 0 0 .47-.47zm-65.14 136.1V952.78a.183.182-29.979 0 0-.34-.09l-48.07 81.47a.653.641-53.945 0 0 .12.81l47.91 42.95a.228.228-69.095 0 0 .38-.17m41.763 37.948a.33.33-63.928 0 0 .467-.027l32.565-36.822a.33.33-84.145 0 0-.247-.549h-73.636a.33.33 44.644 0 0-.22.576z"></path><path fill="#243e87" fill-rule="evenodd" d="M922.42 1054.55a.47.47 0 0 1-.47.47h-40.96a.47.47 0 0 1-.47-.47v-112.9a.47.47 0 0 1 .47-.47h40.96a.47.47 0 0 1 .47.47z" data-source="https://football-logos.cc"></path><path fill="#fff" fill-rule="evenodd" d="m856.13 1619.97-.01-1 .06-12.96a.161.151-88.093 0 0-.14-.16h-.01a.1.1-86.81 0 0-.1.09l-30.75 168.61a.314.306 8.658 0 1-.35.25l-101.96-16.19a.394.385 10.303 0 1-.32-.45l33.89-185.84a.53.528 10.553 0 0-.42-.61l-36.43-7.1a.48.48-6.612 0 0-.56.38l-33.45 183.46a.66.66 38.762 0 1-.77.53l-122.1-22.26a.143.143 54.225 0 1-.11-.17l21.78-122.27a.467.467-50.185 0 1 .54-.38l20.29 3.49a.243.243 80.385 0 0 .28-.2l22.18-128.95a.141.138-25.24 0 0-.26-.09l-79.99 138.55a2.702 2.683 2.497 0 1-1.22 1.11l-101.65 47.36a.994.989 48.458 0 1-.95-.06l-62.99-38.63a.426.422-59.04 0 0-.59.15l-26.24 46.71a.882.881-61.496 0 1-1.18.35l-90.91-48.61a.416.412 28.66 0 1-.17-.57l106.06-187.07a.529.524-60.459 0 1 .71-.2l89.81 49.68a.345.345-31.032 0 1 .13.47l-39.39 70.13a.242.242-87.397 0 0 .31.34l58.3-26.68a2.693 2.666-87.27 0 0 1.22-1.12l23.51-40.72a.26.247-60.934 0 0-.09-.35l-128.79-68.85a.377.373-55.508 0 0-.47.09l-118.16 135.1a.567.567-7.631 0 1-.8.06l-78.4-65.91a.517.511-50.051 0 1-.06-.73l117.74-136.82a.143.141.546 0 0-.2-.2l-144.79 114.71a.208.2 51.782 0 1-.29-.04l-64-83.42a.548.54 52.174 0 1 .09-.76l146.78-113.82a.376.37 51.922 0 0 .06-.53l-91.43-110.96a.81.81 82.375 0 1 .1-1.14l95.13-79.45a.114.114-2.086 0 1 .16.02q55.19 69.06 138.22 172.54 4.31 5.38 8.83 9.46 29.78 26.99 64.41 58.53c1.53 1.39 2.95 2.08 5.16 3.25q185.79 98.23 203.86 107.81a.758.757-70.714 0 1 .38.79l-.08.4a.51.51-74.026 0 0 .41.59l224.08 41.95a.388.378-79.428 0 1 .3.45l-21.57 118.3a.291.287-85.873 0 0 .29.34l135.81-4.65a.551.541-1.023 0 1 .57.54v86.8a.57.57-.512 0 1-.56.57l-138.26 2.37a.48.47 89.415 0 1-.48-.48zm-624.669-509.932a.52.52 2.912 0 0-.741-.076l-58.733 49.047a.52.52 47.256 0 0-.068.73l92.06 111.728a.52.52-9.559 0 1-.082.741l-147.328 114.235a.52.52 49.767 0 0-.094.727l35.283 45.991a.52.52-23.932 0 0 .736.091l205.428-162.759a.52.52 66.529 0 0 .085-.731zm148.175 178.071a.6.6 58.644 0 0-.855.055L208.526 1486.01a.6.6-49.416 0 0 .069.851l42.735 35.93a.6.6-28.866 0 0 .837-.064l170.643-195.111a.6.6-55.474 0 0-.051-.842zm25.809 122.386a.35.35-62.312 0 0 .147.467l128.659 68.788a.35.35 64.42 0 1 .138.483l-39.603 68.59a.35.35-46.397 0 1-.158.144l-111.521 51.04a.35.35 41.667 0 0-.037.616l62.35 38.239a.35.35-65.839 0 0 .33.019l84.59-39.404a.35.35-2.679 0 0 .155-.143l93.143-161.329a.35.35-53.495 0 0-.139-.485l-182.404-96.464a.35.35 49.101 0 0-.476.151zm250.614 42.959a.45.45 8.81 0 0-.526.366l-30.987 180.167a.45.45 43.915 0 1-.519.367l-20.088-3.449a.45.45-71.936 0 0-.519.363l-13.899 76.199a.45.45-51.989 0 0 .362.524l76.334 13.918a.45.45 23.638 0 0 .524-.362l33.547-183.969a.45.45-44.762 0 1 .529-.361l82.407 16.058a.45.45-33.006 0 1 .356.522l-33.747 185.03a.45.45 30.923 0 0 .372.525l55.641 8.839a.45.45-4.514 0 0 .513-.364l46.871-257.006a.45.45 24.759 0 0-.36-.523zm-274.459 7.545a.52.52-15.279 0 0-.704.199l-87.332 154.026a.52.52 28.507 0 0 .209.716l50.049 26.463a.52.52-73.747 0 0 .696-.205l86.196-153.432a.52.52-56.972 0 0-.202-.709zm590.47 149.574a.36.36 63.275 0 0-.372-.36l-91.83 3.145a.36.36-13.374 0 0-.348.36v38.586a.36.36 7.74 0 0 .366.36l91.83-1.578a.36.36-87.136 0 0 .354-.36zM963.67 1472.6l237.95-71.97a.478.472 78.532 0 1 .61.41q.08.82.56.88a.351.332 29.903 0 0 .25-.06q88.22-62.36 176.43-124.72c1.59-1.13 2.46-2.31 3.67-4q1.85-2.58 139.95-190.37a.514.508 35.989 0 1 .72-.11l246.57 180.49a.53.528-53.688 0 1 .11.73l-144.58 203.46a.52.52-51.319 0 1-.73.11l-99.12-72.56a.544.544 14.893 0 1-.12-.76l86.36-116.02a.264.264 49.211 0 0-.05-.37l-51.71-38.48a.47.47 72.382 0 0-.66.1l-5.87 8.02a.66.658 35.933 0 0 .15.93q11.98 8.56 28.27 20.34c5.3 3.83 11.13 6.94 16.51 10.11a.488.488-56.022 0 1 .14.72l-63.69 83.21a.58.575-57.102 0 1-.73.16c-5.07-2.68-10.02-4.8-15.18-8.31q-19.36-13.15-30.71-20.87a.686.678-53.298 0 0-.92.14l-19.32 24.35a.429.424 47.533 0 0-.02.52l107.11 154a.637.633-36.03 0 1-.14.87l-83.47 61.89a.536.53-35.602 0 1-.75-.12l-110-153.38a.267.264-35.265 0 0-.36-.06l-30.4 20.34a.586.583 54.734 0 0-.14.83l107.83 148.45a.367.364 54.276 0 1-.08.5l-98 75.2a.256.25-36.441 0 1-.36-.05l-72.15-100.6a.64.64 51.732 0 1 .1-.85l13.97-12.45a.431.418 51.838 0 0 .06-.57l-92.48-128.95a.141.141 19.213 0 0-.25.12l80.2 269.81a.41.41-71.366 0 1-.27.51l-96.43 29.16a.765.756-16.88 0 1-.95-.5l-54.06-178.74a.459.456 73.789 0 0-.56-.31l-38.48 11.06a.452.449 72.941 0 0-.3.57l56.25 177.09a.421.418-17.774 0 1-.27.52l-97.67 32.6a.392.389-18.211 0 1-.5-.25l-92.73-291.93a.668.661-17.629 0 1 .44-.84m681.011-199.785a.51.51 74.631 0 1 .105.714l-86.119 115.699a.51.51-66.921 0 0 .108.716l61.108 44.731a.51.51-64.237 0 0 .717-.117l117.579-165.448a.51.51 14.376 0 0-.115-.707L1528.89 1115.28a.51.51 38.536 0 0-.712.109l-118.501 160.808a.51.51-25.978 0 0 .101.707l57.835 44.267a.51.51 14.185 0 0 .692-.067l16.008-18.098a.51.51 66.744 0 1 .668-.084l50.99 34.617a.51.51-56.574 0 0 .692-.112l35.826-46.807a.51.51-62.989 0 0-.11-.726l-51.147-36.344a.51.51-23.426 0 1-.116-.717l33.81-46.178a.51.51 71.269 0 1 .716-.108zm-325.628 296.732a.54.54-52.983 0 0-.08.718l45.512 63.472a.54.54-7.651 0 0 .768.113l60.51-46.42a.54.54-28.569 0 0 .108-.746l-108.651-149.58a.54.54-84.765 0 1 .136-.766l69.11-46.247a.54.54-1.685 0 1 .739.134l109.185 152.249a.54.54 18.257 0 0 .761.119l46.338-34.361a.54.54-47.34 0 0 .122-.742l-147.88-212.623a.54.54 21.639 0 0-.755-.133l-165.152 116.752a.54.54 36.111 0 0-.127.756l103.39 144.153a.54.54-86.624 0 1-.08.718zm-250.33-29.897a.49.49 26.67 0 1 .331-.619l83.492-23.988a.49.49 22.885 0 1 .604.33l54.038 178.638a.49.49 11.851 0 0 .611.327l52.094-15.757a.49.49 45.222 0 0 .328-.608l-73.691-247.901a.49.49 64.947 0 0-.611-.329l-193.043 58.383a.49.49-28.918 0 0-.326.618l78.44 246.932a.49.49-6.207 0 0 .622.317l53.32-17.8a.49.49 3.44 0 0 .312-.613z"></path><path fill="#243e87" fill-rule="evenodd" d="M586.2 1190.213v-30.283a.35.35-84.151 0 0-.35-.35H483.68a.35.35-56.858 0 1-.35-.35V1109a.35.35-60.926 0 1 .35-.35h39.9a.35.35-57.186 0 1 .35.35v18.28a.35.35-72.366 0 0 .35.35h103.25a.35.35 25.185 0 1 .35.35v76.055a.35.35-65.543 0 1-.127.27l-39.696 32.705a.35.35 67.662 0 1-.223.08h-53.155a.35.35 57.453 0 1-.233-.611l51.637-46.005a.35.35-21.862 0 0 .117-.261M231.461 1110.038l126.546 159.724a.52.52 56.781 0 1-.085.731l-205.428 162.759a.52.52-24.969 0 1-.736-.091l-35.283-45.991a.52.52 13.404 0 1 .094-.727l147.328-114.235a.52.52-39.176 0 0 .082-.741l-92.06-111.728a.52.52 86.097 0 1 .068-.73l58.733-49.047a.52.52 3.619 0 1 .741.076M1644.681 1272.815l-89.039-66.268a.51.51 11.63 0 0-.716.108l-33.81 46.178a.51.51 22.369 0 0 .116.717l51.147 36.344a.51.51-19.661 0 1 .11.726l-35.826 46.807a.51.51-18.869 0 1-.692.112l-50.99-34.617a.51.51 56.418 0 0-.668.084l-16.008 18.098a.51.51 75.628 0 1-.692.067l-57.835-44.267a.51.51-13.589 0 1-.101-.707l118.501-160.808a.51.51 70.293 0 1 .712-.109l209.174 153.123a.51.51 71.858 0 1 .115.707L1620.6 1434.558a.51.51-20.595 0 1-.717.117l-61.108-44.731a.51.51-21.272 0 1-.108-.716l86.119-115.699a.51.51 36.651 0 0-.105-.714M664.14 1204.3v-76.07a.53.53-56.247 0 1 .53-.53h38.64a.53.53-53.162 0 1 .53.53v76.05a.53.53 11.248 0 0 .53.53h17.998a.53.53 9.296 0 0 .353-.134l12.312-10.968a.53.53 68.566 0 0 .177-.396v-65.082a.53.53-44.988 0 1 .53-.53h38.63a.53.53-51.106 0 1 .53.53v75.012a.53.53-70.487 0 1-.177.396l-37.192 33.138a.53.53 62.219 0 1-.353.134H646.43a.53.53-53.162 0 1-.53-.53v-31.02a.53.53 17.583 0 1 .53-.53h17.18a.53.53-15.212 0 0 .53-.53M1107.88 1159.15h-37.43a.43.43 45 0 0-.43.43v25.8a.43.43-64.82 0 1-.43.43h-40.03a.43.43-45 0 1-.43-.43v-25.8a.43.43-8.158 0 0-.43-.43h-15.73a.43.43-56.7 0 1-.43-.43v-30.58a.43.43-56.244 0 1 .43-.43h136.76a.43.43-60.183 0 1 .43.43v113.08a.43.43-44.999 0 1-.43.43H1012.9a.43.43-53.159 0 1-.43-.43v-34.45a.43.43 33.751 0 1 .43-.43h94.98a.43.43-45.008 0 0 .43-.43v-46.33a.43.43-45 0 0-.43-.43M1306.78 1241.65h-40.94a.53.53-64.82 0 1-.53-.53v-80.5a.53.53 81.841 0 0-.53-.53h-96.69a.53.53-54.469 0 1-.53-.53v-31.2a.53.53 25.18 0 1 .53-.53h138.69a.53.53 45 0 1 .53.53v112.76a.53.53-45 0 1-.53.53"></path><path fill="#fff" fill-rule="evenodd" d="m125.323 1169.772 64.204 82.789a.32.32 47.699 0 1-.054.446L61.718 1354.984a.32.32-3.999 0 1-.456-.058l-60.74-80.963a.32.32 87.166 0 1 .051-.438l124.292-103.802a.32.32 74.188 0 1 .458.049m3.288 27.879a.49.49-67.549 0 0-.701-.075l-95.263 79.556a.49.49-35.528 0 0-.078.67l32.818 43.754a.49.49 15.799 0 0 .698.089l97.637-77.934a.49.49 68.504 0 0 .082-.683z"></path><path fill="#243e87" fill-rule="evenodd" d="M1211.46 1241.1a.54.54 0 0 1-.54.54h-40.82a.54.54 0 0 1-.54-.54v-56.4a.54.54 0 0 1 .54-.54h40.82a.54.54 0 0 1 .54.54zM128.611 1197.651l35.193 45.377a.49.49 7.663 0 1-.082.683l-97.637 77.934a.49.49 12.598 0 1-.698-.089l-32.818-43.754a.49.49-2.327 0 1 .078-.67l95.263-79.556a.49.49-75.636 0 1 .701.075M379.636 1288.109l43.123 38.665a.6.6-9.963 0 1 .051.842l-170.643 195.111a.6.6-36.636 0 1-.837.064l-42.735-35.93a.6.6-15.973 0 1-.069-.851l170.255-197.846a.6.6 77.905 0 1 .855-.055M1319.053 1569.547l13.954-12.434a.54.54 65.856 0 0 .08-.718l-103.39-144.153a.54.54 74.282 0 1 .127-.756l165.152-116.752a.54.54-86.336 0 1 .755.133l147.88 212.623a.54.54-11.033 0 1-.122.742l-46.338 34.361a.54.54 66.2 0 1-.761-.119l-109.185-152.249a.54.54-18.03 0 0-.739-.134l-69.11 46.247a.54.54 84.186 0 0-.136.766l108.651 149.58a.54.54-4.111 0 1-.108.746l-60.51 46.42a.54.54.398 0 1-.768-.113l-45.512-63.472a.54.54-9.048 0 1 .08-.718M405.445 1410.495l35.174-69.288a.35.35 63.671 0 1 .476-.151l182.404 96.464a.35.35-25.286 0 1 .139.485l-93.143 161.329a.35.35 44.593 0 1-.155.143l-84.59 39.404a.35.35-6.32 0 1-.33-.019l-62.35-38.239a.35.35 83.394 0 1 .037-.616l111.521-51.04a.35.35 82.005 0 0 .158-.144l39.603-68.59a.35.35 24.925 0 0-.138-.483l-128.659-68.788a.35.35-20.109 0 1-.147-.467M1068.723 1539.65l56.521 177.93a.49.49 23.907 0 1-.312.613l-53.32 17.8a.49.49 18.19 0 1-.622-.317l-78.44-246.932a.49.49 19.798 0 1 .326-.618l193.043-58.383a.49.49-73.889 0 1 .611.329l73.691 247.901a.49.49 50.062 0 1-.328.608l-52.094 15.757a.49.49 25.429 0 1-.611-.327l-54.038-178.638a.49.49-45.069 0 0-.604-.33l-83.492 23.988a.49.49-54.228 0 0-.331.619M656.059 1453.454l196.811 36.844a.45.45 44.908 0 1 .36.523l-46.871 257.006a.45.45 43.483 0 1-.513.364l-55.641-8.839a.45.45 45.427 0 1-.372-.525l33.747-185.03a.45.45 53.544 0 0-.356-.522l-82.407-16.058a.45.45-89.853 0 0-.529.361l-33.547 183.969a.45.45 38.355 0 1-.524.362l-76.334-13.918a.45.45-52.1 0 1-.362-.524l13.899-76.199a.45.45-44.468 0 1 .519-.363l20.088 3.449a.45.45-7.595 0 0 .519-.367l30.987-180.167a.45.45 46.792 0 1 .526-.366"></path><path fill="#243e87" fill-rule="evenodd" d="m381.6 1460.999 48.912 27.058a.52.52-21.988 0 1 .202.709l-86.196 153.432a.52.52-38.477 0 1-.696.205l-50.049-26.463a.52.52 63.453 0 1-.209-.716l87.332-154.026a.52.52 74.083 0 1 .704-.199M972.07 1610.573v40.153a.36.36-70.138 0 1-.354.36l-91.83 1.578a.36.36 36.355 0 1-.366-.36v-38.586a.36.36 37.034 0 1 .348-.36l91.83-3.145a.36.36-51.636 0 1 .372.36"></path><path fill="#d4af37" fill-rule="evenodd" d="m856.13 1619.97-.01-1z" data-source="https://football-logos.cc"></path><!-- source: https://football-logos.cc --></svg>