<svg xmlns="http://www.w3.org/2000/svg" viewBox="43.08 172.91 509.11 496.06"><!-- Source: https://football-logos.cc --><path d="m143.067 306.593.012-4.272h-.852l-.002 4.272z" style="fill:#fff;fill-rule:evenodd" data-source="https://football-logos.cc"></path><path d="M141.777 309.319c-1.045-.807-8.145-6.286-8.997-7.035a1.103 1.103 0 1 1 1.457-1.657c.455.4 2.602 2.517 4.646 4.544l.001-.004c.258-.729 2.383-6.985 2.704-7.93a.37.37 0 0 0 .02-.196c-.144-.586-1.071-4.303-1.206-4.374-.197-.104-5.825-1.634-6.6-1.845-.057-.016-.1-.001-.124.036-.1.152-.41.536-.952.5-.497-.035-.835-.414-.858-.805s.345-.79.82-.805c.347-.011.68.15.832.238a.5.5 0 0 0 .16.064l1.64.24.003.001c.447-.55 2.67-3.04 6.78-3.66 4.872-.736 9.71 1.624 11.124 7.446 1.512 6.23-2.478 11.89-8.573 13.33h-.001l-.16 2.315-2.677 3.206-1.802-1.542 1.76-2.064zm-5.488-18.886 4.589.672c.789.114 1.141.198 1.226.153.055-.03 0-.19-.044-.294a.21.21 0 0 0-.128-.116 8 8 0 0 0-.265-.073c-.237-.061-.33-.222-.375-.475-.047-.253-.085-.736-.115-1.019-.024-.212-.202-.343-.29-.395-.028-.017-.05-.07-.042-.135.015-.128.07-.336.262-.458.198-.125.95-.085 1.625.092.674.176.732.574.758 1.088.016.306.017.477-.023.65a1.3 1.3 0 0 1-.128.34.34.34 0 0 0-.028.22c.02.105.058.256.133.414.15.316.245.552.705.582s1.632.184 2.29.291c.66.107.836.169.491-.23a92 92 0 0 1-1.15-1.387c-.024-.03-.075-.042-.136-.043-.182 0-.574-.03-.79-.24-.284-.275-.33-.69-.184-.957a.81.81 0 0 1 1.042-.322c.511.229.555.784.55 1.01 0 .063.01.114.041.137.443.347 3.865 3.016 3.86 3.074-.008.092-4.29.452-4.85.498-.098.009-.983 2.148-1.168 2.599a.33.33 0 0 1-.124.14c-.201.132-.682.45-.76.54-.08.092.75.199 1.042.234.061.007.105.042.118.101.19.885 1.711 7.986 1.927 8.812l.012.047c1.185-.58 2.86-1.748 4.11-4.03 2.144-3.923.919-11.584-4.414-13.514-5.547-2.009-8.993 1.17-9.763 1.99zm7.804 16.252s1.142-.235 1.65-.432l-.002-.006c-.338-.826-2.706-6.603-2.82-6.603-.111 0-2.985 5.065-3.528 6.024l-.003.007 3.072 2.837z" style="fill:#fff;fill-rule:evenodd"></path><path d="M150.858 307.068h1.194v5.372h-.063v.021h-4.063v-1.24h2.932v-2.914h-1.717v.675h-1.215v-1.87h.02v-.044zM158.494 308.307v4.133h-1.214v-4.133h-2.22v-1.24h3.434zm-3.434 4.154h.607v-2.849h-.607zm0-4.154h-.608v-1.24h.608zm0 1.305v2.85h-.608v-2.85zM135.968 307.068h1.215v5.372h-.544v.021h-1.634l-.189.066-.02-.066h-2.242v-1.24h1.718l-1.215-2.914h-.9v-1.24h1.675v-.021l1.739 4.176h.397v-2.915h-.837v-1.24zM131.246 307.046l-1.13 5.415h-.336l-.02-.021h-1.613v-1.218h1.005l.586-2.915h-2.764v-3.675h1.214v2.436h1.801v-.022z" style="fill:#fff;fill-rule:evenodd"></path><path d="M333.907 269.169c2.55.1 4.936.106 7.486.206 1.575-.9 3.384-1.865 4.959-2.765l.094 2.99c-1.487.786-.99 1.526-.029 2.147 1.045.675 2.343 2.64 2.138 4.116-.345 2.486-3.4 4.744-7.256 4.763-3.974.018-6.147-2.205-6.15-3.404l-.225-2.493 1.927-.075.032 1.528c.016 1.302 2.332 1.36 4.247 1.35 2.983-.016 4.877-.617 4.838-2.606-.03-1.52-.87-2.358-3.283-2.608-2.772-.286-5.544-.278-8.315-.164z" style="fill:#fcfcff;fill-rule:evenodd"></path><path d="m331.756 262.94 12.15-2.812 1.238 2.963-12.488 2.812zM315.437 235.346l10.542-6.663 2.146 2.388-10.861 6.775zM278.236 208.2l5.813-11.033 3.004 1.702-5.986 10.587zM198.557 213.65l-7.043-10.292 2.908-1.862 6.566 10.237zM307.797 232.208l12.556-9.634 2.37 2.167-12.863 9.776z" style="fill:#fff;fill-rule:evenodd"></path><path d="M341.092 253.21c.375.888.562 1.607.937 2.495-3.052 1.349-7.747 2.903-9.862 2.325-2.301-.629-5.672-4.55-8.269-7.482l1.744-1.302c1.725 1.996 2.685 2.195 4.162 1.209 2.523-1.685 5.075-3.326 7.612-4.988l1.65 2.663-7.237 4.574c-.648.358-.996.963-.263 1.913.432.56 1.505.608 2.25.525 2.297-.255 4.913-1.231 7.276-1.931" style="fill:#fefbfd;fill-rule:evenodd"></path><path d="m183.888 208.14 2.746-2.197c2.294 2.423 5.3 5.609 5.464 7.795.178 2.378-3.346 6.728-5.285 10.157l-2.046-1.769c.741-1.222 1.918-2.399.494-3.46-2.432-1.811-6.17-3.573-8.586-5.406l2.972-2.14c2.245 1.761 4.962 3.416 7.207 5.178.554.49 1.418.985 2.02-.054.616-1.062-.214-2.254-.541-2.929-1.01-2.077-2.994-3.184-4.445-5.176" style="fill:#f4fffb;fill-rule:evenodd"></path><path d="m327.662 234.496 2.624-.637 5.176 8.287-2.073 1.304-.546-.831c-.347-.53-.788-.52-1.104-.35-2.87 1.544-5.578 3.015-8.465 4.527l-1.838-2.662c2.888-1.425 5.438-2.72 8.34-4.115.863-.415.955-1.363.06-2.522-.754-.978-1.45-2-2.174-3" style="fill:#f8fefe;fill-rule:evenodd"></path><path d="m288.975 202.016 1.995-1.872c2.787 1.686 6.1 3.71 8.888 5.396l-1.26 2.1-.862-.496c-.55-.315-.939-.108-1.144.186-1.861 2.674-3.371 4.226-5.264 6.88l-2.842-1.546c1.932-2.575 3.18-4.262 5.138-6.817.583-.76.108-1.46-1.213-2.09-1.115-.531-2.338-1.177-3.436-1.741M302.748 207.343l-1.676 1.564 2.315 2.015c1.77 1.54 2.373 3.3.626 5.327-.534.621-2.339 2.664-4.76.787l-3.115-2.416-1.734 1.723c2.389 2.571 5.137 4.08 7.875 4.102 1.886.015 3.374-.856 4.64-2.133 1.069-1.077 1.852-2.734 1.5-5.016-.428-2.782-3.385-4.315-5.671-5.953M269.06 192.904l-.498 1.875 3.832 1.125c.962.282 1.693 1.664 1.342 2.601l-2.56 6.839 3.146 1.083 2.274-6.796c.589-1.762.188-4.465-2.274-5.186zM216.092 192.993l.456 1.886 7.42-.885c.981-.21 1.828.77 2.022 1.753l1.408 7.126 3.447-.642-1.407-6.964c-.367-1.82-2.36-3.987-4.893-3.592zm1.483 5.33 3.234-.938 1.36 6.211-3.212.61zM138.398 278.915l2.473.293 1.04-5.633c.104-.997 1.5-1.717 2.481-1.516l8.265 1.7.697-3.359-8.931-1.697c-1.823-.347-4.524 1.002-4.936 3.532zm5.707 1.497.115-3.365 7.404.968-.42 3.242zM257.82 190.86l-.082 1.852c1.39.18 3.362.57 3.223 1.699-.086.696-.246 1.598-.48 2.356-4.592 2.802-5.624 3.114-5.919 5.378.453.063 1.305.114 1.758.176.884-1.57 2.05-1.968 3.582-1.719l.035 2.438 3.481.301.006-4.746c.36-1.594.662-2.73.89-4.348.275-1.937-2.15-3.629-6.494-3.387M242.331 185.589c.282.047 3.422-.047 3.422-.047l.094 4.172 7.078-.047.14 2.39-4.64 9.704-4.172-.188 4.453-8.156-.029-1.667-6.299.073z" style="fill:#fff;fill-rule:evenodd"></path><path d="M163.022 220.398c.222-.18 2.235-2.592 2.235-2.592l3.652 2.956 4.6-5.317 1.882 1.48 5.368 9.243-2.908 2.998-4.157-7.994-1.266-1.084-4.03 4.516z" style="fill:#f4fffb;fill-rule:evenodd"></path><path d="m148.256 248.888 1.563-2.842 6.898 3.022-1.503 2.903z" style="fill:#fff;fill-rule:evenodd"></path><path d="M202.808 208.378c.235.61.704 1.453.938 2.062l7.868-3.665c1.484-.618 2.264-3.937 1.695-5.756-.671-2.146-3.392-4.566-5.86-4.407-2.348.152-5.214 1.708-7.781 2.672-.575.216-.835.78-.516 1.547.451 1.084 1 2.125 1.5 3.188 1.72 1.49 3.54 1.055 5.509-.018l-.632-1.433c-.504.139-1.012.221-1.547.047-.467-.148-.667-.51-.891-1.125-.376-1.033-.03-1.392 1.875-2.063 1.915-.674 3.788.025 4.547 2.016.705 1.848.839 3.452-.516 4.172-1.984.999-4.19 1.845-6.189 2.763" style="fill:#fbfdff;fill-rule:evenodd"></path><path d="M151.948 266.27c.612.228 2 .74 2.612.966l2.431-6.825c.73-2.412-1.83-5.052-3.57-5.828-2.053-.915-5.927-.547-7.533.917-1.739 1.584-2.568 4.408-3.542 6.97-.218.573.034 1.143.82 1.41 1.11.378 3.188.734 4.303 1.003 1.552.283 3.015-1.142 3.695-3.342l-2.162-.767c-.229.47-.46.757-.906 1.121-.42.253-1.058.104-1.667-.135-1.023-.4-1.063-.899-.307-2.77.76-1.882 3.509-2.215 4.894-1.726 1.864.66 3.355 2.194 3 3.522-.695 2.126-1.29 3.402-2.069 5.485" style="fill:#fff;fill-rule:evenodd"></path><path d="m162.915 247.813-11.344-6.422 5.25-6.797c1.323-1.714 3.196-1.84 5.11-.844l8.015 4.172-2.062 2.86-6.423-3.844c-1.367-.819-2.5-.81-3.468.375l-2.11 2.578 9 5.156z" style="fill:#f4fffb;fill-rule:evenodd"></path><path d="m139.852 325.292 15.326-5.29.75 2.164-6.404 2.197 2.346 6.894 6.404-2.196.75 2.164-15.324 5.29-.75-2.165 7.185-2.49-2.346-6.896-7.186 2.492z" style="fill:#fdfefd;fill-rule:evenodd"></path><path d="m186.63 389.347 7.954-14.127 1.997 1.12-3.333 5.893 6.555 3.788 3.296-5.855 1.998 1.12-7.692 13.79-1.998-1.12 3.498-6.333-6.556-3.788-3.722 6.632z" style="fill:#f0fffd;fill-rule:evenodd"></path><path d="M149.8 345.81c-.894-.439-1.44-.759-1.89-1.082-.62-.445-1.03-.752-1.47-1.478-.714-1.173-.74-1.88-.38-2.803.347-.889 1.043-1.468 1.89-1.883.496-.243 1.013-.294 1.548-.293.527 0 .816.053 1.262.25.485.216.924.521 1.297.97.274.328.714.78 1.165 1.493.919 1.454 1.103 2.016 1.687 2.629q.36-.163.453-.209c.7-.342 1.095-.731 1.261-1.217.178-.517.268-.853-.18-1.823-.308-.666-.47-1.06-.896-1.365-.465-.333-.76-.375-1.587-.225l-.826-1.94c.806-.184 1.679-.23 2.314-.06.635.171 1.035.302 1.555.989.515.681.782 1.013 1.256 1.98.47.958.66 1.862.748 2.565.087.7-.028.944-.18 1.366-.158.439-.465.867-.887 1.21-.26.21-.889.508-1.672.834l-2.515 1.048c-1.644.684-2.592 1.32-2.982 1.608q-.584.432-1.002 1.069l-1.267-2.667c.34-.308.784-.585 1.297-.966m4.058-1.755c-.594-.568-.627-.78-1.482-2.078-.485-.736-.884-1.02-1.226-1.248-.322-.215-.633-.362-.961-.419a1.52 1.52 0 0 0-.95.134c-.454.223-.744.602-.858 1.137-.115.535-.034 1.196.37 1.913.293.521.233.415.747.91.492.475.937.736 1.568.755.489.015 1.204-.338 1.962-.704zM208.002 397.78c-.948.305-1.563.455-2.11.534-.756.11-1.264.175-2.086-.041-1.328-.348-1.839-.838-2.22-1.751-.368-.881-.27-1.781.051-2.668.188-.52.524-.916.91-1.287.38-.365.623-.529 1.081-.696a3.5 3.5 0 0 1 1.606-.205c.426.046 1.056.065 1.876.265 1.671.408 2.194.684 3.04.719q.145-.367.18-.466c.267-.732.28-1.286.062-1.75-.231-.496-.4-.801-1.395-1.187-.685-.265-1.075-.436-1.594-.359-.566.084-.807.258-1.297.94l-1.943-.82c.452-.693 1.047-1.333 1.623-1.651s.954-.502 1.805-.37c.845.132 1.267.186 2.279.552a8 8 0 0 1 2.32 1.325c.55.443.636.699.82 1.107.192.426.269.947.203 1.487-.04.331-.286.983-.623 1.761l-1.081 2.502c-.707 1.634-.946 2.75-1.027 3.228q-.12.717.021 1.465l-2.764-1.038c.031-.458.158-.965.263-1.596m1.7-4.083c-.823.005-.994-.125-2.51-.464-.86-.193-1.345-.12-1.749-.046-.382.07-.707.18-.983.367q-.417.284-.59.756c-.172.476-.116.95.173 1.414.289.465.806.884 1.595 1.119.573.171.456.136 1.17.135.684 0 1.185-.122 1.652-.546.362-.329.631-1.08.922-1.87zM234.382 403.862c-.844.526-1.404.822-1.915 1.033-.706.292-1.183.478-2.033.47-1.372-.013-1.987-.364-2.58-1.156-.572-.764-.697-1.662-.603-2.6.056-.55.284-1.016.568-1.47.279-.447.475-.665.879-.94.439-.298.93-.51 1.507-.59.424-.06 1.04-.195 1.883-.201 1.72-.013 2.295.127 3.124-.046.034-.26.055-.428.062-.496.078-.775-.044-1.315-.368-1.713-.346-.424-.584-.678-1.644-.809-.728-.09-1.148-.16-1.632.041-.529.22-.72.447-1.029 1.23l-2.084-.322c.269-.783.69-1.548 1.17-1.998.481-.449.803-.72 1.66-.799.852-.078 1.274-.13 2.345-.022a8 8 0 0 1 2.574.719c.64.294.787.522 1.065.873.29.365.492.853.56 1.392.042.33-.037 1.023-.174 1.86l-.437 2.69c-.286 1.757-.245 2.898-.207 3.381q.059.724.379 1.416l-2.934-.332c-.082-.452-.083-.975-.136-1.611m.65-4.375c-.795.206-.993.121-2.546.163-.882.023-1.333.213-1.707.383-.353.16-.642.346-.863.596a1.52 1.52 0 0 0-.387.876q-.078.758.512 1.33c.394.38.998.66 1.82.695.598.026.476.02 1.169-.154.663-.168 1.118-.408 1.467-.934.271-.407.349-1.2.438-2.038zM309.074 381.203c-.213.972-.393 1.58-.6 2.093-.284.709-.484 1.18-1.083 1.782-.968.973-1.649 1.168-2.63 1.04-.946-.125-1.676-.663-2.28-1.386-.356-.424-.53-.913-.656-1.433-.125-.511-.144-.804-.058-1.285a3.5 3.5 0 0 1 .63-1.491c.253-.345.586-.88 1.171-1.488 1.193-1.24 1.694-1.554 2.15-2.268a24 24 0 0 0-.312-.39c-.5-.598-.972-.887-1.483-.933-.545-.049-.893-.056-1.727.61-.573.459-.916.71-1.11 1.198-.213.531-.184.826.16 1.594l-1.685 1.267c-.373-.74-.626-1.575-.612-2.233s.045-1.077.587-1.746c.539-.664.797-1.002 1.622-1.693a8 8 0 0 1 2.313-1.34c.658-.253.923-.199 1.368-.153.465.049.954.245 1.387.572.267.202.707.742 1.21 1.424l1.62 2.192c1.057 1.432 1.902 2.2 2.275 2.51q.559.464 1.277.718l-2.287 1.868c-.38-.257-.755-.622-1.248-1.029m-2.676-3.521c-.409.713-.608.795-1.663 1.936-.599.647-.779 1.103-.918 1.489-.132.364-.2.7-.177 1.034q.035.503.357.89c.325.387.762.578 1.31.561.546-.016 1.169-.253 1.768-.816.436-.41.347-.326.706-.944.343-.592.49-1.086.357-1.703-.102-.478-.616-1.088-1.153-1.737z" style="fill:#fdfefd;fill-rule:evenodd"></path><path d="m147.636 354.622 13.124-8.616 1.058 1.612-1.246.818q1.096.096 1.931.578.831.48 1.505 1.502.88 1.34.926 2.771.048 1.432-.744 2.7-.793 1.265-2.15 2.156-1.448.951-2.99 1.142a4.86 4.86 0 0 1-2.88-.503 5.53 5.53 0 0 1-2.132-1.898q-.582-.887-.705-1.811a4.3 4.3 0 0 1 .095-1.715l-4.628 3.038zm9.494-3.664c-1.215.797-1.854 1.53-2.079 2.451-.225.926-.103 1.6.404 2.371.515.786 1.231 1.24 2.19 1.347.979.108 1.98-.216 3.042-1.046.876-.685 1.761-1.356 2.002-2.297.24-.94.204-1.696-.294-2.455-.493-.752-.988-1.076-2.004-1.235-1.02-.161-2.044.065-3.261.864M162.555 359.345q2.388-2.045 4.795-1.56 2.003.407 3.513 2.171 1.675 1.956 1.578 4.197-.097 2.235-2.145 3.99-1.661 1.42-3.081 1.684c-.948.177-1.876.007-2.85-.337-.968-.342-1.922-.94-2.63-1.767-1.138-1.33-1.533-2.81-1.463-4.292q.106-2.223 2.283-4.086m1.596 1.885c-1.1.941-1.462 1.965-1.552 2.69-.083.676.13 1.578.82 2.385.683.799 1.193 1.197 2.218 1.275.995.075 1.885-.197 3.01-1.16 1.063-.91 1.672-1.785 1.76-2.785.09-1.003-.368-1.856-1.066-2.632-.626-.695-1.275-.982-2.154-1.088-.994-.12-1.94.377-3.036 1.315M256.775 398.965q-.539-3.096 1.108-4.919c.913-1.01 2.137-1.647 3.661-1.911q2.536-.44 4.414.788c1.247.815 2.027 2.112 2.334 3.882q.374 2.153-.126 3.51c-.332.904-.952 1.616-1.746 2.277-.788.657-1.79 1.171-2.862 1.357-1.725.3-3.199-.117-4.437-.934-1.239-.816-2.02-2.169-2.346-4.05m2.436-.408c.247 1.425.942 2.26 1.52 2.707.538.417 1.422.695 2.469.514 1.035-.18 1.638-.414 2.228-1.255.574-.817.794-1.721.54-3.182-.238-1.377-.68-2.348-1.494-2.935-.817-.589-1.784-.63-2.807-.428-.918.183-1.496.595-2.036 1.296-.61.794-.667 1.86-.42 3.283M269.527 396.727q-.907-3.01.509-5.017c.785-1.112 1.923-1.891 3.404-2.337q2.465-.741 4.478.252 2.004.992 2.783 3.573.63 2.094.297 3.5c-.222.937-.751 1.719-1.46 2.47-.704.748-1.636 1.378-2.678 1.692-1.678.504-3.19.268-4.518-.394q-1.991-.994-2.815-3.74m2.369-.698c.416 1.386 1.206 2.13 1.834 2.505.585.349 1.495.519 2.513.213 1.006-.302 1.576-.608 2.062-1.514.47-.88.58-1.804.154-3.223-.403-1.339-.958-2.25-1.837-2.734-.882-.487-1.846-.412-2.838-.087-.89.291-1.413.769-1.865 1.53-.511.862-.439 1.927-.023 3.31M175.495 376.803l1.687 1.512c-2.421 1.083-4.664.346-5.918-.887-.906-.89-1.66-2.327-1.656-3.35.007-1.474.493-3.038 1.728-4.401 1.276-1.41 2.599-2.154 4.1-2.272 1.264-.1 2.863.141 4.14 1.298 1.235 1.118 1.583 2.22 1.598 3.696.015 1.454-.49 2.673-1.707 3.964-.076.081-.194.208-.351.37l-6.101-5.211c-.794.881-1.246 1.827-1.209 2.843.028.771.512 1.633.972 2.017.723.601 1.795.77 2.717.421m-1.409-6.348 4.412 3.807c.572-.77.796-1.483.849-2.128.062-.773-.306-1.5-.932-2.087-.707-.666-1.221-.818-2.003-.882-.836-.067-1.663.5-2.326 1.29M178.189 382.674l9.495-12.36 2.099 1.616-9.617 12.331zM314.778 378.291l-10.726-11.308 1.924-1.82 10.678 11.423zM319.597 373.62l-11.144-10.897 1.853-1.892 11.102 11.014zM336.25 352.156l-13.436-7.899 1.345-2.282 13.423 8.023z" style="fill:#f0fffd;fill-rule:evenodd"></path><path d="m217.148 388.404.537-2.12 2.337.644-.565 2.068zm-3.74 12.757 3.05-10.692 2.468.688-3.097 10.703z" style="fill:#fdfcfc;fill-rule:evenodd"></path><path d="m220.738 402.986 2.048-9.646-1.84-.39.31-1.455 1.84.39.249-1.176c.158-.745.364-1.272.568-1.612.703-1.176 3.205-1.025 4.595-.516l-.66 1.582c-1.16-.387-2.214-.138-2.485 1.142l-.216 1.016 2.381.505-.309 1.455-2.358-.5-2.048 9.646z" style="fill:#effffe;fill-rule:evenodd"></path><path d="m244.597 406.083-1.07-15.62 10.443-.714.125 1.832-8.158.558.334 4.865 7.665-.525.126 1.833-7.666.525.486 7.09z" style="fill:#fdfefd;fill-rule:evenodd"></path><path d="m289.14 393.498.976 1.42c-.493.352-.954.63-1.377.825q-1.043.483-1.762.45-.714-.037-1.175-.417-.461-.382-1.188-1.956l-2.744-5.934-1.422.658-.624-1.35 1.422-.658-1.061-2.295 1.735-1.643 1.35 3.002 1.827-.845.624 1.35-1.814.839 2.753 5.84c.235.498.454.963.567 1.094.328.381.715.312 1.106.077.2-.12.482-.25.807-.457M294.96 392.598l-1.903 1.018-7.452-13.481 2.013-1.141 2.91 4.95c.279-1.324.702-2.328 1.91-3.014a5.7 5.7 0 0 1 2.108-.716 4.44 4.44 0 0 1 2.06.193q.954.335 1.814 1.086c.57.497.939 1.178 1.341 1.888.958 1.685 1.363 3.179.966 4.619-.398 1.446-1.108 2.453-2.396 3.185-1.282.728-2.869.614-4.148.062zm-2.486-4.878c.668 1.177 1.257 1.781 1.908 2.105 1.067.53 1.759.552 2.747-.01.806-.457 1.303-1.011 1.377-2.05.07-.99-.083-1.788-.795-3.042-.73-1.286-1.24-1.85-2.093-2.236-.87-.393-1.579-.343-2.375.11-.806.457-1.246 1.189-1.47 2.153-.225.967.02 1.77.7 2.97zM345.587 330.767l-.604 2.071-14.846-4.106.593-2.237 5.573 1.385c-.751-1.126-1.173-2.13-.817-3.474a5.7 5.7 0 0 1 .963-2.007 4.44 4.44 0 0 1 1.578-1.337q.908-.448 2.045-.536c.755-.06 1.5.153 2.288.361 1.874.495 3.224 1.251 3.976 2.542.755 1.296.978 2.508.6 3.94-.377 1.426-1.569 2.48-2.858 3.008zm-5.225-1.636c1.309.345 2.152.348 2.84.108 1.124-.39 1.624-.87 1.914-1.968.237-.896.189-1.639-.502-2.419-.658-.742-1.335-1.191-2.73-1.56-1.43-.378-2.19-.408-3.061-.069-.89.347-1.35.888-1.583 1.774-.238.896-.022 1.723.51 2.557.534.838 1.278 1.224 2.612 1.577M328.96 354.103l1.815-1.491c2.134 2.87 1.856 4.998.748 7.29-1.485 3.07-4.367 4.205-7.516 3.542-1.407-.297-2.933-.967-4.114-1.88-3.622-2.797-4.675-7.085-2.13-10.552 1.875-2.554 4.747-3.298 7.834-2.179l-.963 1.987c-2.137-.655-3.756-.232-5.015 1.343-1.188 1.486-1.55 4.86 1.668 7.18 1.077.777 1.992 1.375 3.082 1.616 1.742.384 3.717.2 4.867-1.616.918-1.452 1.38-3.191-.277-5.24" style="fill:#f0fffd;fill-rule:evenodd"></path><path d="m348.834 302.4 3.098.105c-.941 4.358-3.791 5.502-6.452 5.955-3.562.606-6.691-.986-8.055-4.112-.61-1.397-.856-3.156-.795-4.736.187-4.846 3.653-8.157 8.211-8.103 3.994.047 6.573 2.553 6.793 5.306l-2.944-.037c-.543-2.248-2.303-2.796-4.024-2.782-2.016.016-4.6 1.287-4.624 5.49-.008 1.408.021 2.462.408 3.58.608 1.758 1.822 2.844 4.144 2.776 1.82-.054 3.66-.772 4.24-3.443" style="fill:#fefdfe;fill-rule:evenodd"></path><path d="m342.6 339.01-1.937-.855c.763 1.421 1.042 2.457.591 4.121-.502 1.852-1.69 2.716-3.352 2.63-1.043-.054-1.994-.516-2.731-.861l-6.156-2.886.989-2.05 5.686 2.66c.908.425 1.435.61 1.923.626 1.086.038 1.869-.36 2.382-1.354.29-.564.277-1.095.138-1.693-.142-.611-.39-1.221-.8-1.586-.415-.369-.68-.564-1.556-.966l-5.514-2.534.99-2.144 10.302 4.824z" style="fill:#f4fdfd;fill-rule:evenodd"></path><path d="M344.33 288.897a11.14 11.14 0 0 0-7.92 3.224 11.13 11.13 0 0 0-3.317 7.871 11.14 11.14 0 0 0 3.225 7.919 11.13 11.13 0 0 0 7.87 3.318 11.14 11.14 0 0 0 7.919-3.225 11.13 11.13 0 0 0 3.318-7.87 11.14 11.14 0 0 0-3.225-7.92 11.13 11.13 0 0 0-7.87-3.317m-9.406 1.713a13.24 13.24 0 0 1 9.414-3.83c3.67.021 6.984 1.53 9.374 3.948a13.24 13.24 0 0 1 3.83 9.414 13.25 13.25 0 0 1-3.949 9.374 13.24 13.24 0 0 1-9.413 3.83 13.25 13.25 0 0 1-9.374-3.949 13.24 13.24 0 0 1-3.83-9.414 13.25 13.25 0 0 1 3.948-9.373" style="fill:#fff;fill-rule:evenodd"></path><path d="M242.746 216.17c-45.15 0-81.75 36.601-81.75 81.75s36.6 81.751 81.75 81.751 81.75-36.6 81.75-81.75-36.6-81.75-81.75-81.75" style="fill:none"></path><path d="M242.746 178.015c-66.144 0-119.764 53.62-119.764 119.764s53.62 119.764 119.764 119.764S362.51 363.923 362.51 297.78s-53.62-119.764-119.764-119.764" style="fill:none"></path><path d="M171.332 283.04c1.793-5.834 4.306-11.865 7.335-18.035 3.032-6.173 6.57-12.47 10.42-18.841l.97.584c-3.847 6.368-7.373 12.64-10.375 18.753-3.003 6.116-5.493 12.091-7.27 17.871zM219.387 242.692c1.947 5.366 4.085 10.35 6.44 14.896 2.348 4.533 4.915 8.634 7.726 12.249l-.894.696c-2.85-3.664-5.453-7.824-7.837-12.427-2.377-4.588-4.534-9.616-6.498-15.029zM217.46 302.241l-31.95 6-.208-1.112 31.95-6zM179.66 336.711c4.115 6.608 8.722 12.013 13.699 16.513 4.977 4.502 10.333 8.108 15.94 11.115l-.536.997c-5.677-3.045-11.106-6.702-16.162-11.274-5.056-4.573-9.732-10.057-13.901-16.752zM234.84 356.804a77.2 77.2 0 0 0 5.084-15.227c1.19-5.374 1.854-11.059 1.918-17.096l1.13.01c-.066 6.118-.738 11.882-1.945 17.33a78.3 78.3 0 0 1-5.154 15.447zM263.162 370.428c5.816-1.013 11.51-3.208 17.18-6.518 5.688-3.321 11.348-7.762 17.075-13.254l.784.815c-5.797 5.559-11.527 10.054-17.289 13.418-5.782 3.376-11.602 5.617-17.56 6.655zM302.169 324.247a804 804 0 0 1-15.122-7.288 1009 1009 0 0 1-15.273-7.721l.518-1.005a1009 1009 0 0 0 15.256 7.712 803 803 0 0 0 15.1 7.278zM320.368 304.08c.075-6.796-.621-13.418-2.124-19.854-1.502-6.43-3.812-12.677-6.964-18.73l1.005-.523c3.196 6.136 5.538 12.471 7.061 18.996 1.523 6.518 2.227 13.228 2.151 20.12zM267.834 274.785c3.233-2.818 6.278-5.878 9.186-9.112 2.91-3.238 5.68-6.645 8.362-10.156l.899.686c-2.702 3.539-5.491 6.97-8.42 10.227-2.93 3.259-6.007 6.35-9.283 9.206zM271.563 230.344c-3.617-1.728-7.966-3.085-13.22-3.982-5.276-.9-11.452-1.334-18.703-1.212l-.017-1.13c7.332-.123 13.578.316 18.91 1.226 5.354.913 9.802 2.304 13.517 4.08z" style="fill:#bcbcbc;fill-rule:evenodd"></path><path d="M161.013 296.245c3.628-6.045 7.841-10.92 11.91-16.085 2.66 11.296 7.917 20.38 15.976 27.075-5.387 10.165-7.862 20.796-8.249 31.763-4.247-1.738-8.406-3.8-12.252-7.038" style="fill:#000;fill-rule:evenodd"></path><path d="M172.924 280.16c-4.07 5.164-8.283 10.04-11.911 16.085a84 84 0 0 0-.017 1.676c0 12.147 2.65 23.675 7.402 34.039 3.846 3.239 8.005 5.3 12.252 7.037.387-10.966 2.862-21.597 8.25-31.762-8.06-6.695-13.317-15.78-15.976-27.075" style="fill:#000;fill-rule:evenodd"></path><path d="m187.908 237.291.278 12.172c8.497-3.806 18.815-5.518 31.312-4.724 5.656-8.634 12.536-16.297 24-20.325-4.287-2.46-8.982-4.846-14.118-7.156" style="fill:none"></path><path d="M222.637 235.574a.354.354 0 0 1-.504-.495l12.112-12.258-6.62-3.38a.353.353 0 0 1 .32-.629l7.032 3.59q.058.025.106.072c.139.137.141.361.004.5z" style="fill:#5d5d5d;fill-rule:evenodd"></path><path d="M222.637 235.574a.354.354 0 0 1-.504-.495l12.112-12.258-6.62-3.38a.353.353 0 0 1 .32-.629l7.032 3.59q.058.025.106.072c.139.137.141.361.004.5zm-34.73 1.717.279 12.172c8.497-3.806 18.815-5.518 31.312-4.724 5.656-8.634 12.536-16.297 24-20.325-4.287-2.46-8.982-4.846-14.118-7.156-15.813 2.6-30.098 9.739-41.473 20.033" style="fill:#000;fill-rule:evenodd"></path><path d="M284.429 227.58c-5.175-.232-10.119.14-14.794 1.208 6.467 7.073 10.794 17.534 14.85 28.425 9.818 1.838 19.644 3.608 28.652 11.327.086-3.445.406-6.84 1.192-10.135" style="fill:none"></path><path d="M284.429 227.58c-5.175-.232-10.119.14-14.794 1.208 6.467 7.073 10.794 17.534 14.85 28.425 9.818 1.838 19.644 3.608 28.652 11.327.086-3.445.406-6.84 1.192-10.135a82.15 82.15 0 0 0-29.9-30.825" style="fill:#000;fill-rule:evenodd"></path><path d="M324.017 306.825c-.848-2.39-1.902-4.312-3.1-5.903-4.16 7.522-9.73 14.88-20.7 21.6-.347 12.58-2.205 23.046-5.552 31.426 2.621-.294 5.28-.367 7.95-.36" style="fill:none"></path><path d="M324.017 306.825c-.848-2.39-1.902-4.312-3.1-5.903-4.16 7.522-9.73 14.88-20.7 21.6-.347 12.58-2.205 23.046-5.552 31.426 2.621-.294 5.28-.367 7.95-.36 11.677-12.553 19.455-28.783 21.402-46.763" style="fill:#000;fill-rule:evenodd"></path><path d="m210.244 372.955-4.083-10.139c11.027-1.242 21.024-4.289 30.338-8.53 8.223 8.16 18.078 13.79 30.3 15.75-2.663 3.189-5.553 6.25-10.024 8.436" style="fill:none"></path><path d="m206.161 362.816 4.083 10.139c9.961 4.32 20.952 6.716 32.502 6.716 4.784 0 9.471-.41 14.03-1.199 4.47-2.185 7.36-5.247 10.023-8.437-12.222-1.96-22.077-7.59-30.3-15.75-9.314 4.242-19.311 7.29-30.338 8.531M214.486 302.403c8.718 10.4 18.107 18.124 27.825 24.525 11.48-4.282 22.309-9.992 32.738-16.574-1.305-13.172-3.081-25.479-5.586-36.45-11.402-4.395-24.367-5.318-37.575-5.7-8.13 10.387-13.872 21.813-17.402 34.199" style="fill:#000;fill-rule:evenodd"></path><path d="M233.05 273.128a.354.354 0 0 1 .073-.703l32.55 3.413a.35.35 0 0 1 .261.16l.938 1.463a.35.35 0 0 1 .055.167l3.186 30.213a.354.354 0 0 1-.703.072l-3.178-30.14-.801-1.25z" style="fill:#5d5d5d;fill-rule:evenodd" data-source="https://football-logos.cc"></path><path d="M171.792 281.586c1.753-5.38 4.097-10.922 6.875-16.58 2.783-5.667 5.993-11.438 9.48-17.276l-.24-10.439c-16.143 14.61-26.424 35.579-26.894 58.954 3.292-5.486 7.068-10.01 10.78-14.66M179.682 265.501c-2.609 5.313-4.83 10.52-6.533 15.584 2.636 10.516 7.579 19.068 14.997 25.51l26.57-4.99c3.473-11.825 8.98-22.768 16.674-32.759-2.359-3.238-4.543-6.83-6.568-10.74-2.137-4.125-4.097-8.606-5.897-13.402-12.077-.697-22.101.966-30.404 4.61-3.25 5.488-6.241 10.897-8.84 16.187M219.911 244.113c1.805 4.828 3.77 9.333 5.916 13.475 2.004 3.87 4.168 7.424 6.507 10.63 12.883.384 25.52 1.315 36.684 5.517 2.795-2.523 5.451-5.226 8.002-8.062 2.54-2.825 4.971-5.779 7.332-8.818-3.809-10.2-7.873-19.995-13.733-26.946-3.423-1.522-7.47-2.727-12.276-3.547-4.793-.818-10.331-1.25-16.742-1.232-10.074 4.072-16.433 11.09-21.69 18.983" style="fill:#fff;fill-rule:evenodd"></path><path d="M242.774 224.002c5.99.034 11.208.467 15.76 1.244 4.608.786 8.546 1.926 11.923 3.361 4.432-.93 9.1-1.245 13.972-1.027-12.205-7.248-26.458-11.41-41.683-11.41a82.3 82.3 0 0 0-13.366 1.088c4.849 2.18 9.305 4.43 13.394 6.744M277.861 266.43c-2.611 2.904-5.338 5.674-8.22 8.265 2.365 10.563 4.068 22.34 5.334 34.917a985 985 0 0 0 12.573 6.333 818 818 0 0 0 13.076 6.326c10.23-6.36 15.692-13.281 19.741-20.368-.08-6.035-.78-11.93-2.121-17.677a79.2 79.2 0 0 0-5.69-16.176c-8.573-7.08-17.868-8.926-27.178-10.67-2.42 3.123-4.912 6.155-7.515 9.05" style="fill:#fff;fill-rule:evenodd"></path><path d="M319.346 283.969c1.348 5.772 2.055 11.694 2.147 17.76.961 1.424 1.815 3.097 2.524 5.096.317-2.924.48-5.895.48-8.904 0-14.333-3.688-27.803-10.168-39.516-.652 2.735-.984 5.538-1.127 8.382a80.5 80.5 0 0 1 6.144 17.182M241.795 326.587c-9.428-6.263-18.539-13.797-27.02-23.842l-26.091 4.9c-5.126 9.826-7.548 20.086-8.007 30.66 3.852 5.89 8.111 10.786 12.682 14.92 4.144 3.747 8.55 6.875 13.145 9.552 10.617-1.234 20.278-4.142 29.296-8.176a77 77 0 0 0 4.124-13.024c1.051-4.745 1.692-9.732 1.871-14.99" style="fill:#fff;fill-rule:evenodd"></path><path d="M242.921 326.699c-.185 5.302-.833 10.334-1.894 15.121a78 78 0 0 1-4.062 12.924c7.913 7.702 17.326 13.076 28.882 15.13 4.888-1.163 9.7-3.165 14.494-5.964 4.921-2.873 9.82-6.583 14.76-11.088 3.004-8.004 4.708-17.83 5.092-29.505a818 818 0 0 1-13.146-6.358 988 988 0 0 1-12.494-6.293C264.46 317 253.993 322.512 242.92 326.7M192.601 354.062c-4.754-4.3-9.172-9.404-13.148-15.565-3.83-1.635-7.571-3.603-11.055-6.537 8.393 18.302 23.344 32.97 41.846 40.995l-3.522-8.747c-4.94-2.812-9.674-6.125-14.12-10.146" style="fill:#fff;fill-rule:evenodd"></path><path d="M280.913 364.89c-4.932 2.878-9.89 4.932-14.939 6.118-2.445 2.833-5.185 5.502-9.198 7.464 17.971-3.108 33.933-12.084 45.84-24.884-2.336-.006-4.661.05-6.96.26-4.932 4.475-9.826 8.17-14.743 11.041" style="fill:#fff;fill-rule:evenodd"></path><path d="M147.95 338.564c.496-.243 1.013-.294 1.548-.293.527 0 .816.053 1.262.25.485.216.924.521 1.297.97.274.328.714.78 1.165 1.493.919 1.454 1.103 2.016 1.687 2.629l.453-.209c.7-.342 1.095-.731 1.261-1.217.178-.517.268-.853-.18-1.823-.308-.666-.47-1.06-.896-1.365-.465-.333-.76-.375-1.587-.225l-.826-1.94c.806-.184 1.679-.23 2.314-.06.635.171 1.035.302 1.555.989.515.681.782 1.013 1.256 1.98.47.958.66 1.862.748 2.565.087.7-.028.944-.18 1.366-.158.439-.465.867-.887 1.21-.26.21-.889.508-1.672.834l-2.515 1.048c-1.644.684-2.592 1.32-2.982 1.608q-.584.432-1.002 1.069l-1.267-2.667c.34-.308.784-.585 1.297-.966-.893-.439-1.439-.759-1.888-1.082-.62-.445-1.03-.752-1.471-1.478-.714-1.173-.74-1.88-.38-2.803.347-.889 1.043-1.468 1.89-1.883m62.294 34.39c-18.502-8.025-33.453-22.692-41.846-40.994-4.752-10.363-7.402-21.892-7.402-34.04q0-.833.017-1.665v-.01c.47-23.375 10.751-44.343 26.894-58.954 11.375-10.294 25.66-17.433 41.473-20.033a82.3 82.3 0 0 1 13.366-1.088c15.225 0 29.477 4.162 41.683 11.41a82.15 82.15 0 0 1 29.9 30.825c6.48 11.713 10.168 25.183 10.168 39.516 0 3.009-.163 5.98-.48 8.904-1.947 17.98-9.725 34.21-21.402 46.763-11.906 12.8-27.868 21.776-45.84 24.884a82.3 82.3 0 0 1-14.029 1.199c-11.55 0-22.54-2.395-32.502-6.716m-62.608-18.332 13.124-8.616 1.058 1.612-1.246.818q1.096.096 1.931.578.831.48 1.505 1.502.88 1.34.926 2.771.048 1.432-.744 2.7-.793 1.265-2.15 2.156-1.448.951-2.99 1.142a4.86 4.86 0 0 1-2.88-.503 5.53 5.53 0 0 1-2.132-1.898q-.582-.888-.705-1.811a4.3 4.3 0 0 1 .095-1.715l-4.628 3.038zm12.636 8.809q.106-2.223 2.283-4.086 2.388-2.045 4.795-1.56 2.003.407 3.513 2.171 1.675 1.956 1.578 4.197-.097 2.235-2.145 3.99-1.661 1.42-3.081 1.684c-.948.177-1.876.007-2.85-.337-.968-.342-1.922-.94-2.63-1.767-1.138-1.33-1.533-2.81-1.463-4.292m9.336 10.647c.007-1.474.493-3.038 1.728-4.401 1.276-1.41 2.599-2.154 4.1-2.272 1.264-.1 2.863.141 4.14 1.298 1.235 1.118 1.583 2.22 1.598 3.696.015 1.454-.49 2.673-1.707 3.964l-.351.37-6.101-5.211c-.794.881-1.246 1.827-1.209 2.843.028.771.512 1.633.972 2.017.723.601 1.795.77 2.717.421l1.687 1.512c-2.421 1.083-4.664.346-5.918-.887-.906-.89-1.66-2.327-1.656-3.35m-21.819-49.114-7.186 2.492-.75-2.164 15.325-5.29.75 2.164-6.404 2.197 2.346 6.894 6.404-2.196.75 2.164-15.325 5.29-.75-2.165 7.186-2.49zm1.352-15.983h-1.215v-1.87h.021v-.043h4.105v5.372h-.063v.021h-4.063v-1.24h2.932v-2.914h-1.717zm49.416-95.33-7.043-10.293 2.908-1.862 6.566 10.238zm7.604-9.65c-1.969 1.073-3.79 1.508-5.509.017-.5-1.062-1.049-2.103-1.5-3.187-.319-.767-.06-1.331.516-1.547 2.567-.964 5.432-2.52 7.781-2.672 2.468-.16 5.188 2.261 5.86 4.407.57 1.82-.21 5.138-1.695 5.756l-7.868 3.665c-.234-.609-.703-1.453-.938-2.062 1.998-.918 4.204-1.764 6.19-2.763 1.354-.72 1.22-2.324.515-4.172-.76-1.991-2.632-2.69-4.547-2.016-1.905.67-2.25 1.03-1.875 2.063.224.615.423.977.89 1.125.536.174 1.044.092 1.547-.047zm36.585-25.986c-66.143 0-119.764 53.62-119.764 119.764s53.62 119.764 119.764 119.764 119.765-53.62 119.765-119.764-53.621-119.764-119.765-119.764M178.19 382.674l9.495-12.36 2.099 1.616-9.618 12.331zm-36.373-69.745-1.802-1.543 1.76-2.063.002-.004c-1.045-.807-8.144-6.286-8.996-7.035a1.102 1.102 0 1 1 1.457-1.657c.455.4 2.602 2.517 4.647 4.541.258-.729 2.383-6.985 2.704-7.93a.37.37 0 0 0 .02-.197c-.145-.586-1.072-4.303-1.206-4.373-.197-.105-5.825-1.635-6.6-1.846q-.087-.02-.124.037c-.1.151-.41.535-.952.499-.497-.034-.835-.414-.858-.805-.023-.39.345-.789.82-.804.347-.011.68.15.832.237a.5.5 0 0 0 .16.065l1.643.241c.447-.55 2.67-3.041 6.78-3.661 4.872-.736 9.71 1.625 11.124 7.446 1.512 6.23-2.478 11.891-8.575 13.33l-.159 2.315zm9.388-31.672-7.1-.845.116-3.365 7.404.968zm1.453-7.499-8.265-1.699c-.98-.202-2.377.519-2.482 1.516l-1.04 5.633-2.472-.293 1.09-6.68c.411-2.53 3.112-3.879 4.935-3.532l8.931 1.697zm1.903-6.521-2.613-.966c.78-2.083 1.374-3.36 2.069-5.485.355-1.328-1.136-2.863-3-3.521-1.385-.49-4.133-.156-4.894 1.725-.756 1.871-.716 2.37.307 2.77.609.239 1.247.387 1.667.135.446-.364.677-.651.906-1.12l2.162.766c-.68 2.2-2.143 3.624-3.695 3.342-1.115-.27-3.194-.625-4.303-1.003-.786-.267-1.037-.837-.82-1.41.974-2.562 1.803-5.386 3.542-6.97 1.606-1.464 5.48-1.832 7.532-.917 1.741.776 4.3 3.416 3.57 5.828zm8.355-19.424-11.344-6.422 5.25-6.797c1.323-1.714 3.196-1.84 5.11-.844l8.015 4.172-2.062 2.86-6.423-3.845c-1.367-.818-2.5-.81-3.468.376l-2.11 2.578 9 5.156zm29.183-34.075c.178 2.378-3.346 6.728-5.285 10.157l-2.046-1.769c.741-1.222 1.918-2.398.494-3.46-2.432-1.811-6.17-3.573-8.586-5.406l2.971-2.14c2.246 1.761 4.963 3.416 7.208 5.178.554.49 1.418.985 2.02-.053.616-1.063-.214-2.255-.541-2.93-1.01-2.077-2.994-3.184-4.445-5.176l2.746-2.196c2.294 2.423 5.3 5.609 5.464 7.795m115.699 18.47 12.556-9.634 2.37 2.167-12.863 9.776zm12.096 129.356c-3.622-2.797-4.675-7.085-2.13-10.552 1.875-2.554 4.747-3.298 7.834-2.179l-.963 1.986c-2.137-.654-3.756-.231-5.015 1.344-1.188 1.486-1.55 4.86 1.668 7.18 1.077.777 1.992 1.375 3.082 1.615 1.742.385 3.717.202 4.867-1.616.918-1.45 1.38-3.19-.277-5.239l1.816-1.491c2.134 2.87 1.857 4.998.748 7.29-1.485 3.07-4.367 4.205-7.516 3.542-1.407-.297-2.933-.967-4.114-1.88m16.357-9.408-13.436-7.899 1.345-2.282 13.422 8.023zm-36.714 23.978c.539-.664.797-1.002 1.622-1.693a8 8 0 0 1 2.313-1.34c.658-.253.923-.199 1.368-.153.465.049.954.245 1.388.572.266.202.705.742 1.21 1.424l1.618 2.192c1.058 1.432 1.903 2.2 2.276 2.51q.559.464 1.277.718l-2.287 1.868c-.38-.257-.755-.622-1.248-1.029-.213.972-.392 1.58-.598 2.093-.284.709-.485 1.18-1.084 1.782-.968.973-1.649 1.168-2.63 1.04-.947-.125-1.676-.663-2.28-1.386-.356-.424-.53-.913-.657-1.434-.124-.51-.143-.803-.057-1.284a3.5 3.5 0 0 1 .63-1.491c.253-.345.587-.88 1.171-1.488 1.193-1.24 1.694-1.554 2.15-2.268l-.312-.39c-.5-.598-.971-.887-1.482-.933-.546-.049-.894-.056-1.727.61-.574.46-.918.71-1.112 1.198-.212.531-.183.826.162 1.594l-1.686 1.267c-.373-.739-.626-1.575-.612-2.233s.045-1.077.587-1.746M186.63 389.346l7.954-14.126 1.997 1.12-3.333 5.893 6.555 3.788 3.296-5.855 1.998 1.12-7.692 13.79-1.998-1.12 3.498-6.333-6.556-3.788-3.722 6.632zm17.533-.338c.452-.693 1.047-1.332 1.624-1.65.575-.32.953-.503 1.804-.37.845.131 1.267.184 2.279.55a8 8 0 0 1 2.32 1.326c.55.443.636.7.82 1.107.192.426.269.947.203 1.487-.04.33-.287.983-.623 1.761l-1.081 2.502c-.707 1.634-.946 2.75-1.027 3.228q-.12.717.022 1.465l-2.764-1.038c.03-.458.157-.965.262-1.596-.948.305-1.563.455-2.11.534-.756.111-1.264.174-2.086-.04-1.328-.349-1.838-.84-2.22-1.752-.368-.881-.27-1.781.051-2.668.189-.52.524-.916.91-1.288.38-.364.623-.528 1.082-.695a3.5 3.5 0 0 1 1.606-.205c.425.046 1.055.065 1.875.265 1.671.408 2.194.684 3.04.718l.181-.465c.266-.732.279-1.286.062-1.75-.232-.496-.401-.8-1.396-1.187-.685-.265-1.075-.436-1.594-.359-.566.084-.807.258-1.297.94zm9.244 12.153 3.05-10.692 2.469.688-3.097 10.703zm7.331 1.825 2.048-9.646-1.84-.39.31-1.455 1.84.39.249-1.176c.158-.745.364-1.272.568-1.612.703-1.176 3.205-1.025 4.595-.516l-.66 1.582c-1.16-.387-2.214-.138-2.485 1.142l-.216 1.016 2.381.505-.309 1.455-2.358-.5-2.048 9.646zm-3.59-14.582.537-2.12 2.337.644-.565 2.068zm10.103 13.205c.056-.55.284-1.016.568-1.47.279-.447.475-.665.879-.94.439-.298.93-.51 1.507-.59.424-.06 1.04-.195 1.883-.201 1.72-.014 2.295.127 3.124-.046l.062-.496c.078-.775-.044-1.315-.368-1.713-.346-.424-.584-.678-1.643-.809-.73-.09-1.15-.16-1.634.041-.528.22-.719.447-1.027 1.23l-2.085-.322c.269-.783.69-1.548 1.17-1.997.481-.45.803-.72 1.66-.8.852-.078 1.274-.13 2.345-.022a8 8 0 0 1 2.574.719c.64.294.787.522 1.065.872.29.367.492.854.56 1.393.042.33-.038 1.023-.174 1.86l-.437 2.69c-.286 1.757-.245 2.898-.207 3.381q.058.724.379 1.416l-2.934-.332c-.082-.452-.083-.974-.136-1.611-.844.526-1.404.822-1.915 1.033-.706.292-1.183.477-2.033.47-1.372-.013-1.987-.364-2.58-1.156-.573-.765-.697-1.662-.603-2.6m-96.005-94.563-1.13 5.415h-.336l-.021-.021h-1.612v-1.218h1.005l.586-2.915h-2.764v-3.675h1.214v2.436h1.802v-.022zm5.392 5.415h-1.633l-.189.066-.02-.066h-2.241v-1.24h1.717l-1.215-2.914h-.9v-1.24h1.675v-.021l1.739 4.176h.397v-2.915h-.837v-1.24h2.052v5.373h-.545zm20.642-.021v-4.133h-2.828v-1.24h4.042v5.373zm-1.613.021h-1.215v-2.849h1.215zm1.05-63.393-1.503 2.902-6.958-3.082 1.563-2.842zm11.68-24.464-5.375-4.206c.222-.18 2.235-2.592 2.235-2.592l3.652 2.956 4.6-5.317 1.882 1.48 5.368 9.243-2.908 2.998-4.157-7.994-1.266-1.084zm132.675-15.697 1.676-1.564c2.286 1.638 5.243 3.171 5.672 5.953.351 2.283-.432 3.94-1.5 5.016-1.267 1.277-2.755 2.148-4.64 2.133-2.739-.022-5.487-1.53-7.876-4.102l1.734-1.723 3.115 2.416c2.421 1.877 4.226-.166 4.76-.787 1.747-2.027 1.145-3.786-.626-5.327zm28.764 28.59c-.754-.978-1.45-2-2.175-3l2.625-.638 5.176 8.287-2.073 1.304-.546-.831c-.347-.53-.788-.52-1.104-.35-2.87 1.544-5.578 3.015-8.465 4.527l-1.838-2.662c2.888-1.425 5.438-2.72 8.34-4.115.863-.415.955-1.363.06-2.522m2.33 20.533c-2.3-.629-5.67-4.55-8.268-7.482l1.743-1.302c1.726 1.996 2.685 2.195 4.163 1.209 2.522-1.685 5.075-3.326 7.612-4.988l1.65 2.663-7.237 4.574c-.648.358-.996.963-.263 1.913.432.56 1.505.608 2.25.525 2.297-.255 4.913-1.231 7.276-1.931.375.887.562 1.606.937 2.494-3.052 1.349-7.747 2.903-9.862 2.325m-16.73-22.684 10.543-6.663 2.145 2.388-10.86 6.775zm-34.988 153.198-.624-1.35 1.422-.658-1.061-2.295 1.735-1.643 1.35 3.002 1.827-.845.625 1.35-1.815.839 2.754 5.84c.234.498.453.963.566 1.095.328.38.716.311 1.106.076.2-.12.482-.25.807-.457l.975 1.42c-.492.352-.953.63-1.375.825q-1.044.484-1.763.45-.714-.035-1.175-.417t-1.187-1.956l-2.745-5.934zm12.61 5.072-7.453-13.481 2.013-1.141 2.91 4.95c.279-1.324.702-2.328 1.91-3.014a5.7 5.7 0 0 1 2.108-.716 4.44 4.44 0 0 1 2.06.193q.954.335 1.814 1.086c.57.497.939 1.178 1.341 1.887.958 1.686 1.363 3.18.966 4.62-.398 1.445-1.107 2.453-2.396 3.185-1.282.728-2.869.614-4.148.062l.777 1.351zm21.72-15.325-10.726-11.308 1.924-1.82 10.678 11.423zm4.818-4.671-11.143-10.897 1.854-1.892 11.1 11.014zm-77.218-181.797-.047-6.234c.282.047 3.422-.047 3.422-.047l.094 4.172 7.078-.047.14 2.39-4.64 9.704-4.172-.188 4.453-8.156-.029-1.667zm-25.83 3.056-.456-1.886 8.453-1.318c2.533-.395 4.526 1.771 4.893 3.592l1.406 6.964-3.446.642-1.408-7.126c-.194-.982-1.041-1.964-2.022-1.753zm2.41 9.327-1.383-5.883 3.234-.938 1.36 6.211zm113.076 95.782c.042-6.752 5.548-12.191 12.3-12.15 6.751.041 12.191 5.548 12.15 12.3-.042 6.751-5.549 12.19-12.3 12.15-6.752-.042-12.191-5.549-12.15-12.3m8.099 39.36c-.142-.611-.39-1.221-.8-1.586-.415-.369-.68-.564-1.556-.966l-5.514-2.534.99-2.144 10.301 4.824-.955 2.068-1.936-.855c.763 1.421 1.042 2.457.591 4.121-.502 1.852-1.69 2.717-3.352 2.63-1.043-.054-1.995-.515-2.731-.861l-6.156-2.886.989-2.05 5.686 2.66c.908.425 1.435.61 1.923.626 1.086.038 1.869-.36 2.381-1.354.291-.564.278-1.095.139-1.693m4.85-6.51-14.846-4.106.593-2.237 5.573 1.385c-.752-1.126-1.173-2.13-.818-3.475a5.7 5.7 0 0 1 .964-2.006 4.44 4.44 0 0 1 1.578-1.337c.605-.3 1.287-.476 2.045-.536.755-.06 1.5.153 2.288.362 1.874.494 3.224 1.25 3.976 2.541.754 1.296.978 2.508.6 3.94-.377 1.426-1.569 2.48-2.859 3.008l1.51.39zm-100.386 73.245-1.07-15.62 10.442-.714.126 1.832-8.158.559.334 4.864 7.665-.525.126 1.833-7.666.525.486 7.09zm16.947-13.948q2.536-.439 4.414.787c1.247.816 2.027 2.113 2.334 3.883q.373 2.153-.125 3.51c-.333.904-.953 1.616-1.747 2.277-.788.657-1.79 1.171-2.862 1.357-1.726.3-3.199-.117-4.437-.934-1.239-.816-2.02-2.169-2.346-4.05q-.539-3.096 1.108-4.919c.913-1.01 2.137-1.647 3.661-1.911m7.983 4.592q-.907-3.01.508-5.017c.786-1.112 1.924-1.89 3.405-2.337q2.466-.74 4.477.251 2.006.992 2.784 3.574.63 2.094.297 3.5c-.222.937-.751 1.718-1.46 2.47-.704.748-1.636 1.378-2.678 1.691-1.677.506-3.19.27-4.518-.393q-1.992-.994-2.815-3.74m-11.789-204.015.082-1.852c4.344-.242 6.769 1.45 6.495 3.387-.23 1.617-.532 2.754-.891 4.348l-.006 4.746-3.48-.3-.036-2.439c-1.532-.249-2.698.149-3.582 1.72-.453-.063-1.305-.114-1.758-.177.295-2.264 1.327-2.576 5.918-5.378.234-.758.395-1.66.48-2.356.14-1.13-1.833-1.519-3.222-1.7m10.824 2.067.498-1.875 5.262 1.541c2.462.72 2.863 3.424 2.274 5.185l-2.274 6.797-3.147-1.083 2.561-6.839c.351-.937-.38-2.319-1.342-2.6zm12.505 14.677-2.83-1.255 5.812-11.034 3.004 1.702zm7.908-7.44 1.995-1.872c2.787 1.686 6.1 3.71 8.888 5.396l-1.26 2.1-.862-.496c-.55-.315-.939-.108-1.144.186-1.861 2.674-3.371 4.226-5.264 6.88l-2.842-1.546c1.932-2.575 3.18-4.262 5.138-6.817.583-.76.108-1.46-1.213-2.09-1.115-.531-2.338-1.177-3.436-1.741m43.68 63.887-.9-2.962 12.151-2.813 1.238 2.963zm1.715 6.251-.464-2.985c2.55.1 4.936.106 7.486.206 1.575-.9 3.385-1.865 4.96-2.765l.094 2.99c-1.487.786-.99 1.526-.029 2.147 1.045.675 2.343 2.64 2.138 4.116-.345 2.486-3.4 4.744-7.256 4.763-3.974.018-6.147-2.205-6.15-3.404l-.225-2.494 1.927-.074.032 1.528c.016 1.302 2.332 1.36 4.247 1.35 2.983-.016 4.877-.617 4.838-2.607-.03-1.52-.87-2.357-3.283-2.607-2.772-.286-5.544-.278-8.315-.164" style="fill:#e70d2f;fill-rule:evenodd"></path><path d="M150.189 340.31a1.52 1.52 0 0 0-.95.134c-.454.223-.744.602-.858 1.137-.115.535-.034 1.196.37 1.913.293.521.233.415.747.91.492.475.937.736 1.568.755.489.015 1.204-.338 1.962-.704l.83-.4c-.594-.568-.627-.78-1.482-2.078-.485-.736-.884-1.02-1.226-1.248-.322-.215-.633-.362-.961-.419M157.13 350.958c-1.215.797-1.854 1.53-2.079 2.451-.225.926-.103 1.6.404 2.371.515.786 1.231 1.24 2.19 1.347.979.108 1.98-.216 3.042-1.046.876-.685 1.761-1.356 2.002-2.297.24-.94.204-1.696-.294-2.455-.493-.752-.988-1.076-2.004-1.235-1.02-.161-2.044.065-3.261.864M164.15 361.23c-1.099.941-1.461 1.965-1.55 2.69-.084.676.129 1.578.819 2.385.683.799 1.193 1.197 2.218 1.275.995.075 1.885-.197 3.01-1.16 1.063-.91 1.672-1.785 1.76-2.785.09-1.003-.368-1.856-1.066-2.632-.626-.695-1.275-.982-2.154-1.088-.994-.12-1.94.377-3.036 1.315M176.412 369.166c-.836-.068-1.663.499-2.326 1.289l4.412 3.807c.573-.77.796-1.483.849-2.128.063-.773-.306-1.5-.932-2.087-.707-.666-1.221-.818-2.003-.882M205.443 393.187c-.382.07-.707.179-.983.367q-.417.284-.59.756c-.172.475-.116.95.173 1.414s.807.884 1.595 1.119c.573.171.456.136 1.17.135.685 0 1.185-.122 1.652-.546.362-.33.631-1.08.922-1.87l.32-.865c-.823.005-.994-.125-2.51-.464-.86-.193-1.345-.12-1.749-.046M229.916 400.628a1.52 1.52 0 0 0-.387.877q-.078.758.512 1.33c.394.38.998.66 1.82.695.598.026.476.02 1.169-.154.663-.168 1.118-.408 1.467-.934.27-.407.349-1.2.438-2.038l.098-.917c-.796.206-.994.12-2.547.163-.882.023-1.333.213-1.707.383-.353.16-.641.346-.863.595M259.21 398.557c.248 1.425.943 2.26 1.521 2.707.538.417 1.422.695 2.469.514 1.035-.18 1.638-.414 2.229-1.255.572-.817.793-1.721.54-3.181-.24-1.378-.68-2.349-1.495-2.936-.817-.589-1.784-.63-2.807-.427-.918.182-1.496.593-2.036 1.295-.61.794-.667 1.86-.42 3.283M271.896 396.029c.416 1.385 1.207 2.13 1.834 2.505.585.35 1.495.52 2.513.214 1.006-.303 1.576-.608 2.062-1.515.47-.88.58-1.804.154-3.223-.403-1.339-.958-2.25-1.837-2.735-.882-.486-1.847-.411-2.838-.087-.89.292-1.413.77-1.865 1.532-.511.861-.439 1.926-.023 3.309M291.773 384.75c-.225.968.02 1.77.7 2.97.67 1.177 1.258 1.781 1.91 2.105 1.066.53 1.758.552 2.745-.01.807-.457 1.304-1.01 1.378-2.05.07-.99-.083-1.788-.795-3.042-.73-1.286-1.24-1.85-2.093-2.236-.87-.393-1.579-.343-2.375.11-.806.457-1.246 1.19-1.47 2.153zM303.64 382.14q.035.504.357.89c.325.388.762.579 1.31.562.546-.016 1.169-.253 1.768-.816.436-.41.347-.326.706-.944.343-.592.49-1.086.357-1.703-.102-.478-.616-1.088-1.153-1.737l-.587-.71c-.41.713-.608.795-1.663 1.936-.6.647-.779 1.103-.918 1.489-.133.365-.2.7-.177 1.034M142.225 306.593l.002-4.272h.852l-.012 4.272zm1.868.092s1.142-.235 1.65-.432l-.002-.006c-.338-.826-2.706-6.603-2.82-6.603-.111 0-2.985 5.065-3.528 6.024l-.003.007 3.072 2.837z" style="fill:#e70d2f;fill-rule:evenodd"></path><path d="M144.421 297.12399999999997c.19.885 1.711 7.986 1.927 8.812l.012.047c1.185-.58 2.86-1.748 4.11-4.03 2.144-3.923.919-11.584-4.414-13.515-5.547-2.008-8.993 1.17-9.767 1.995l4.589.671c.789.115 1.141.2 1.226.154.055-.03 0-.19-.044-.294a.21.21 0 0 0-.128-.116l-.265-.073c-.237-.061-.33-.222-.375-.475-.047-.253-.085-.736-.115-1.019-.024-.212-.202-.343-.29-.396-.028-.017-.05-.069-.042-.134.015-.128.07-.336.262-.458.198-.125.95-.085 1.625.092.674.176.732.574.758 1.088.016.306.017.477-.023.65-.035.157-.089.27-.128.34a.34.34 0 0 0-.028.22c.02.105.058.256.133.414.15.316.245.551.705.582s1.632.184 2.29.291c.66.107.836.169.49-.23a92 92 0 0 1-1.15-1.387c-.023-.03-.074-.043-.135-.043-.182 0-.574-.03-.79-.24-.284-.275-.33-.69-.184-.957a.81.81 0 0 1 1.042-.322c.512.229.555.784.55 1.011-.001.062.01.112.041.136.444.346 3.865 3.016 3.86 3.074-.008.092-4.29.452-4.85.498-.097.008-.983 2.148-1.168 2.598a.33.33 0 0 1-.124.141c-.201.132-.682.45-.76.54-.08.092.75.199 1.042.234.061.007.106.042.118.101M340.042 299.487c-.008 1.407.021 2.46.407 3.578.609 1.76 1.823 2.845 4.145 2.777 1.82-.054 3.66-.772 4.24-3.443l3.098.106c-.941 4.358-3.792 5.503-6.452 5.955-3.562.606-6.691-.986-8.055-4.112-.61-1.397-.856-3.156-.795-4.736.187-4.846 3.653-8.157 8.211-8.103 3.994.047 6.573 2.553 6.793 5.306l-2.944-.037c-.543-2.248-2.303-2.796-4.023-2.782-2.017.016-4.602 1.287-4.625 5.49m-6.949.505a11.14 11.14 0 0 0 3.225 7.919 11.13 11.13 0 0 0 7.87 3.318 11.14 11.14 0 0 0 7.919-3.225 11.13 11.13 0 0 0 3.318-7.87 11.14 11.14 0 0 0-3.224-7.92 11.13 11.13 0 0 0-7.871-3.317 11.14 11.14 0 0 0-7.92 3.224 11.13 11.13 0 0 0-3.317 7.871M341.885 323.292c-1.43-.378-2.19-.409-3.062-.069-.89.347-1.35.888-1.583 1.774-.238.896-.022 1.723.51 2.557.534.837 1.278 1.224 2.612 1.577 1.309.345 2.152.348 2.84.109 1.124-.392 1.624-.87 1.914-1.969.237-.896.189-1.639-.502-2.419-.658-.743-1.335-1.192-2.73-1.56" style="fill:#e70d2f;fill-rule:evenodd"></path><path d="M242.746 172.912c68.96 0 124.867 55.907 124.867 124.867s-55.907 124.867-124.867 124.867S117.88 366.739 117.88 297.779s55.907-124.867 124.866-124.867" style="fill:none"></path><path d="M242.746 178.015c66.144 0 119.765 53.62 119.765 119.764S308.89 417.543 242.746 417.543c-66.143 0-119.764-53.62-119.764-119.764s53.62-119.764 119.764-119.764" style="fill:none"></path><path d="M242.746 417.543c-66.143 0-119.764-53.62-119.764-119.764s53.62-119.764 119.764-119.764 119.765 53.62 119.765 119.764-53.621 119.764-119.765 119.764m0-244.63c-68.96 0-124.866 55.906-124.866 124.866s55.907 124.867 124.866 124.867 124.867-55.907 124.867-124.867-55.907-124.867-124.867-124.867" style="fill:#fff;fill-rule:evenodd"></path><path d="M243.704 448.294c.72-.264 1.294-1.04 2.062-1.031 1.054.012 2.164 1.394 2.215 2.508.087 1.882-.96 3.682-1.851 5.343-.476.888-.563 1.813-.844 2.719-.164 1.281-.798 4.709-.82 6-.063 3.828.485 5.5.563 9.328-.437 2.938-.272 7.197-1.312 8.813-.584.905-1.999 1.368-3 1.03-2.098-.704-4.456-10.52-4.735-17.671-.071-1.842.227-3.707 1.266-5.532.499-.875 1.391-1.476 2.016-2.25.474-.587.843-1.314.938-2.063.446-3.54 1.318-6.395 3.502-7.194" style="fill:none"></path><path d="M245.766 447.263c-.768-.01-1.341.767-2.062 1.031-2.184.8-3.056 3.653-3.502 7.194-.095.75-.464 1.476-.938 2.063-.625.774-1.517 1.375-2.016 2.25-1.039 1.825-1.337 3.69-1.266 5.532.279 7.15 2.637 16.967 4.734 17.672 1.002.337 2.417-.126 3-1.031 1.041-1.616.876-5.875 1.313-8.813-.078-3.828-.626-5.5-.563-9.328.022-1.291.656-4.719.82-6 .281-.906.368-1.83.844-2.719.892-1.66 1.938-3.46 1.851-5.343-.051-1.114-1.16-2.496-2.215-2.508M256.413 449.4c1.163-.055 2.33.34 2.297 2.343-.025 1.523-1.386 2.764-1.64 4.266-.55 3.244-.664 6.554-.75 9.843-.101 3.843-.04 7.694.187 11.531.055.915.496 1.77.656 2.672.199 1.116.408 2.2.21 3.316-.194 1.108-.485 2.322-1.335 3.059-.706.613-2.077 1.384-2.718.703-1.346-1.428-1.507-3.652-1.876-5.578-.862-4.513-1.784-9.07-1.804-13.665-.019-4.186.582-8.408 1.687-12.445.519-1.895 1.947-3.302 3.094-5.016.416-.62 1.246-.995 1.992-1.03" style="fill:#fff;fill-rule:evenodd"></path><path d="M266.411 449.938c.756-.396 2.374-.375 2.484.633.348 3.189-.621 6.386-.865 9.585-.341 4.465-.74 8.93-.89 13.405-.1 2.936.56 5.905.14 8.813-.161 1.12-.697 2.87-1.828 2.86-1.52-.014-2.865-1.533-3.515-2.907-.938-1.984-.938-4.322-.938-6.516 0-4.152.18-8.34.938-12.422.876-4.712 1.639-11.964 4.474-13.45" style="fill:none"></path><path d="M268.895 450.57c-.11-1.007-1.728-1.028-2.484-.632-2.835 1.488-3.598 8.739-4.474 13.45-.759 4.083-.938 8.27-.938 12.423 0 2.194 0 4.532.938 6.516.65 1.374 1.995 2.893 3.515 2.906 1.131.01 1.667-1.74 1.828-2.86.42-2.907-.24-5.876-.14-8.812.15-4.475.549-8.94.89-13.405.244-3.199 1.213-6.396.865-9.585" style="fill:#fff;fill-rule:evenodd"></path><path d="M277.279 455.746c.63-.124.858.294.867.656.057 2.222-.482 4.42-.68 6.633-.434 4.857-1.033 9.705-1.218 14.578-.096 2.532.286 4.335.187 7.148-.063 1.82-.786 1.936-1.57 2.04-2.048.27-3.496-1.134-3.657-2.626-.396-3.671-.145-7.114.376-10.617.78-5.245 1.9-10.465 3.514-15.516.322-1.005 1.146-2.092 2.18-2.296" style="fill:none"></path><path d="M278.146 456.402c-.009-.362-.238-.78-.867-.656-1.035.204-1.86 1.291-2.18 2.296-1.615 5.051-2.734 10.27-3.515 15.516-.521 3.503-.772 6.946-.376 10.617.161 1.492 1.61 2.895 3.657 2.625.784-.103 1.507-.218 1.57-2.039.099-2.813-.283-4.616-.187-7.148.185-4.873.784-9.721 1.218-14.578.198-2.214.737-4.411.68-6.633" style="fill:#fff;fill-rule:evenodd"></path><path d="M284.972 462.57c.682-.41.83.186.844.515.057 1.384-.783 2.901-1.266 4.195-.842 2.257-.793 4.766-.89 7.172-.06 1.474.415 2.931.422 4.407.009 2.128.055 4.29-.375 6.375-.097.468-.649.932-1.125.89-.635-.055-1.42-.5-1.547-1.125-.911-4.512-1.3-9.133-1.453-13.734-.051-1.525.04-3.203.844-4.5 1.086-1.753 2.778-3.136 4.546-4.196" style="fill:none"></path><path d="M285.816 463.085c-.013-.33-.162-.924-.844-.516-1.769 1.06-3.46 2.443-4.547 4.196-.803 1.297-.894 2.975-.843 4.5.153 4.601.542 9.222 1.453 13.734.126.625.912 1.07 1.547 1.125.476.042 1.028-.422 1.125-.89.43-2.085.384-4.247.375-6.375-.006-1.475-.482-2.932-.422-4.406.097-2.407.048-4.916.89-7.173.483-1.294 1.323-2.81 1.266-4.195" style="fill:#fff;fill-rule:evenodd"></path><path d="M119.406 448.433c-1.149.78-1.364 2.186.469 2.414 2.476.308 6.158.607 8.6-.148 23.18-7.178 54.666-16.244 80.465-21.767 3.269-.7 6.424-.809 6.515-3.047.107-2.61-2.267-4.09-5.437-3.469-12.816 2.51-25.406 5.969-37.969 9.656-16.093 4.72-31.941 9.886-48.28 14.157-1.577.412-3.016 1.289-4.363 2.204" style="fill:none"></path><path d="M119.406 448.433c-1.149.78-1.364 2.186.469 2.414 2.476.308 6.158.607 8.6-.148 23.18-7.178 54.666-16.244 80.465-21.767 3.269-.7 6.424-.809 6.515-3.047.107-2.61-2.267-4.09-5.437-3.469-12.816 2.51-25.406 5.969-37.969 9.656-16.093 4.72-31.941 9.886-48.28 14.157-1.577.412-3.016 1.289-4.363 2.204" style="fill:#fff;fill-rule:evenodd"></path><path d="M178.406 464.528c.992-.313 1.453-.97 1.465-1.969.01-.823.708-1.289 1.734-1.734 1.413-.613 2.65-.622 3.844-.14 1.48.597 3.014 1.29 4.125 2.437.943.973 1.472 2.335 1.641 3.68.133 1.053-.484 2.997-1.16 3.028l-11.73.182c-.6.01-1.412-.525-1.407-1.125.013-1.59-.027-3.828 1.488-4.36" style="fill:none"></path><path d="M179.871 462.56c-.012.997-.473 1.655-1.465 1.968-1.515.531-1.475 2.769-1.488 4.36-.005.6.807 1.133 1.406 1.124l11.731-.182c.676-.03 1.293-1.975 1.16-3.029-.169-1.344-.698-2.706-1.64-3.68-1.112-1.146-2.645-1.84-4.126-2.437-1.193-.482-2.431-.472-3.844.14-1.026.446-1.724.912-1.734 1.735" style="fill:#fff;fill-rule:evenodd"></path><path d="M166.868 479.644c-1.341-.225-2.364.15-1.594 1.547 3.846 4.93 10.107 8.101 16.547 9 1.578.22 3.112.623 4.782.047.87-.3 1.858-1.223 2.203-2.25.31-.926.046-2.843-.985-3.14-6.715-1.983-13.426-3.941-20.953-5.204" style="fill:none"></path><path d="M166.868 479.644c-1.341-.225-2.364.15-1.594 1.547 3.846 4.93 10.107 8.101 16.547 9 1.578.22 3.112.623 4.782.047.87-.3 1.858-1.223 2.203-2.25.31-.926.046-2.843-.985-3.14-6.715-1.983-13.426-3.941-20.953-5.204" style="fill:#1c4584;fill-rule:evenodd"></path><path d="M337.942 216.971c-1.899-10.295-3.834-20.584-5.697-30.886-.87-4.816-.9-9.775.727-10.875 1.208-.816 2.814.7 3.21 1.29 2.368 3.519 1.878 8.087 5.814 17.085 1.297 3.47 2.804 7.09 5.297 10.267 24.863 29.83 48.476 62.061 71.787 96.844 7.687 11.468 13.791 23.092 17.579 36.281.73 2.54 2.727 4.628 4.875 4.875 2.534.292 7.212.655 11.953-1.265 14.563-5.897 28.329-11.638 40.406-10.265 1.684.191 2.57 1.213 3 2.766.746 2.687 1.245 5.801 2.063 8.11.518 1.462-.032 2.72-1.828 3.28-4.407 1.377-9.348 1.633-13.36 3.657-4.317 2.178-6.671 5.048-6.75 9.376-.06 3.3 1.149 5.231 4.289 5.132 3.879-.122 7.824-2.178 11.671-3.609 1.442-.536 2.948-.773 4.547-.796 2.128-.031 3.797.338 4.828 1.828 3.114 4.5 5.96 9.182 8.813 13.851.603.988.463 2.057-.07 3.516-.742 2.026-1.674 3.904-2.532 5.846-.507 1.149-.283 2.102-.258 3.07.054 2.058.321 2.277.703 3.352.344.969 1.011 1.792 1.453 2.72.623 1.307.255 2.318-.89 2.812-9.09 3.912-18.25 7.88-27.375 11.483-2.996 1.183-4.474 4-5.157 6.657-.788 3.068 2.094 5.156 4.407 5.156 2.984 0 7.453-2.69 11.062-4.312 2.648-1.19 5.161-.795 6.446 2.156 1.839 4.225 2.104 7.052 5.742 7.03 3.515-.02 5.807-.687 7.406-1.312 1.322-.516 2.557-.242 2.531 1.876-.053 4.43-6.714 7.907-12.094 11.061-2.244 1.316-3.456 2.706-3.376 5.063.13 3.8-1.173 5.929-2.531 7.688-.644.834-.988 2.093-.656 3.093.405 1.22 1.492 2.849 1.359 4.828-.124 1.836-1.507 3.523-3.37 4.196-1.947.704-4.046.9-6.035 1.477-2.726.792-5.133 1.889-4.659 4.36-4.67.875-7.404 4.203-7.406 9.233-.001 3.19.2 4.946-2.86 7.781-7.312 6.775-17.68 10.529-30.891 10.64-.11.75.191 1.453.129 2.368-2.255-1.588-5.033-2.176-7.91-2.555-2.873-.379-5.782-.407-8.672-.61-11.54-.112-22.597-1.447-33.095-3.562-7.843-1.58-15.612-3.152-23.25-5.344-2.823-.81-5.41-2.371-5.812-6-.478-4.31 2.434-7.782 6-10.219 2.32-1.584 5.038-2.492 7.594-3.656 55.89-25.44 65.455-61.652 72.116-104.345.275-1.762-.47-3.687-1.336-4.904-1.017-1.43-2.907-2.978-4.523-3.042-3.506-.138-5.673 2.45-5.531 6.328.434 11.916-1.8 21.933-6.141 32.39-9.714 23.397-26.396 38.25-45.001 50.999-13.746 9.418-28.825 16.118-44.908 20.812-3.379.987-6.741 2.499-7.172 5.555-.257 1.83.735 2.971 1.823 3.996 5.789 5.456 12.367 10.202 19.505 14.121 13.889 7.629 28.535 10.401 43.287 11.531 12.976.994 31.133 1.477 34.559 3.715 1.22.797 1.565.825 1.488 1.535-.07.65-2.299 1.696-3.656 1.876-14.844 1.962-31.14 3.736-46.64 3.656-15.145-.078-30.017-2.442-44.719-6.094-2.358-.586-4.89-.105-7.289-.492-3.413-.55-7.137-1.202-10.148-2.32-4.03-1.497-8.326-2.436-12.563-2.907-6.493-.72-13.88-.198-19.5 1.97-3.955 1.524-8.256 2.48-12.423 2.717-8.436.482-16.862 1.407-25.312 1.407-9.292 0-19.268-.063-27.843-1.407-6.248-.98-12.349-2.756-18.562-3.938-3.321-.631-6.826-.885-10.031-1.5-2.406-.461-5.312-1.48-6.75-2.906-1.255-1.245-1.971-2.677-.563-3.07 1.943-.544 4.066-.125 6.047.257 4.074.788 7.76 2.478 12.023 3.234 2.954.525 5.925.97 8.86 1.594 2.865.61 5.666 1.502 8.531 2.109 1.342.284 2.71.473 4.078.562 14.191.925 27.351.932 39.61-.656 1.67-.216 1.883-1.023.187-1.71-1.593-.329-3.159-.868-4.78-.985-6.793-.493-14.548-1.244-20.648-.681-3.622.334-11.268-.618-17.016-.914-3.94-.203-7.87-.59-11.812-.75-2.306-.094-4.571-.21-6.375-1.5-.987-.705-1.867-1.553-2.742-2.39-1.93-1.845-4.125-3.57-6.563-4.712-2.857-1.338-6.208-1.585-9.094-2.624-5.09-1.835-11.03-3.518-15.75-3.938-3.1-.276-6.25-.66-9.363-.68-3.835-.025-7.63-.957-11.355-1.992-4.17-1.158-8.148-2.93-12.234-4.36-1.273-.445-2.553-1.095-3.844-1.266-.9-.118-1.997-.618-2.978.375.183.985.744 1.404 1.43 1.71 4.525 2.024 9.021 4.096 13.535 6.141 5.651 2.56 9.568 6.026 12.621 9.68 1.317 1.577 2.713 3.116 4.313 4.406 4.36 3.516 9.631 6.257 14.531 8.062 11.984 4.417 24.946 5.9 37.735 7.08 6.509.6 13.226 1.518 19.313 2.273 9.761 1.21 19.977 1.986 29.813.351 9.63-1.6 20.5-5.022 30.164-6.398 4.641-.661 9.413-.956 12.352 0 4.314 1.403 11.555 3.436 17.858 4.805 4.422.96 9.165 1.738 13.172 3.093 11.066 3.742 22.75 5.469 34.5 6.516-6.853.953-13.454 3.173-20.25 5.906-7.51 3.021-14.817 6.476-23.25 9.516-20.844 6.554-42.153 15.211-62.954 23.53-6.332 2.533-12.432 5.748-18.375 9-5.413 2.963-10.344 6.74-15.375 10.313-8.744 6.212-17.372 12.62-27.234 16.454-8.149 3.167-14.68 5.362-25.688 5.367-1.39 0-6.479-5.373-9.023-8.719-2.362-3.107-4.363-6.221-4.406-8.39s.942-3.426 1.734-4.922c1.16-2.192 2.446-4.413 2.484-8.578.02-2.08-.294-3.651-1.875-3.797-1.927-.178-3.738 1.154-5.343 2.624-1.746 1.599-3.224 3.263-5.532 4.453-2.403 1.24-5.046 1.914-7.266 3.608-1.37 1.046-2.718 2.211-3.656 3.656-1.355 2.088-2.16 3.375-5.016 3.516-1.926.095-3.668-1.496-5.156-2.625-1.701-1.29-3.745-3.068-6-3.14-2.726-.088-5.47.328-8.186.211-1.246-.054-2.58-.123-3.674-.726-1.133-.626-2.094-1.018-2.578-2.907-.244-.953-.696-1.84-1.031-2.766-.579-1.598-1.585-3.11-1.711-4.805-.11-1.458.361-2.966 1.031-4.266 1.47-2.855 4.774-6.329 7.359-9.33 1.016-1.18 2.324-1.919 3.539-2.894 1.399-1.123 2.923-1.841 4.289-3.388.56-.633 1.136-1.406 1.172-2.25.062-1.482-.007-3.54-.89-4.36-1.27-1.177-2.747-1.745-5.204-.423-1.652.889-2.51 1.751-3.75 4.032-1.24 2.28-3.425 5.135-5.906 7.218-1.951 1.639-3.3 2.878-4.781 5.344-1.43 2.38-4.326 3.77-7.125 4.313-7.237 1.4-12.902-.34-17.624-4.453a45.7 45.7 0 0 1-5.25-5.391c-1.342-1.631-1.595-4.084-.282-6.094 1.318-2.02 3.402-3.872 6.188-3.75 1.903.083 3.302-.11 4.418-1.078.923-.801 1.857-1.404 1.183-2.719-1.175-2.293-4.009-3.152-7.124-3.095-2.325.043-4.44.57-6.68 2.016-3.15 2.03-6.264 4.036-9.492 6.022-2.697 1.66-5.486 1.259-8.72-.515-7.11-3.903-12.665-8.782-16.968-14.298-1.025-1.314-2.43-3.187-2.32-4.43.126-1.431 1.27-2.408 2.719-3.117 1.122-.55 2.302-1.016 3.562-1.172 1.285-.16 2.52-.527 3.703-1.172 4.945-2.7 10.071-5.065 14.953-7.876 2.238-1.289 4.211-2.996 6.375-4.406 20.073-13.086 39.78-23.205 58.337-28.43.762-.214 1.587-.492 2.039-1.219.308-.496.456-1.077.703-1.606" style="fill:none"></path><path d="M134.048 468.465c-5.929-3.703-12.07-7.267-18.89-9.234-1.718-.496-3.1-.882-4.089-1.793-1.128-1.04-2.209-1.68-1.98-3.75.232-2.118 1.356-4.72 4.874-6.095 27.134-10.613 61.587-19.386 93.881-29.891M355.806 350.85c1.715-1.738 5.175-4.21 7.265-4.393 1.911-.167 4.282.2 4.02 2.461-.66 5.68-2.21 11.344-4.313 17.016-1.146 1.738-2.304 2.9-2.379 4.71-.078 1.884.175 3.271 1.348 4.196 2.234 1.763 4.522 1.25 6.844.141 6.219-2.972 12.487-5.984 18.609-9.328 3.924-2.144 7.484-5.57 8.812-8.157.68-1.322.453-3.226.516-4.851.297-3.672.97-6.555 2.53-8.93 2.55-3.879 2.833-2.71 4.689-6.188 1.615-3.027 2.135-6.744 2.108-10.125-.033-4.192-.407-8.316-.89-12.562-.585-5.145-2.422-10.109-4.688-14.812-2.841-6.712-6.289-12.616-9.703-18.563-1.488-2.853-4.606-5.74-6-6.14-1.255-.362-2.308-.45-3.422-.47-1.395-.025-2.179.325-2.625 1.172-1.683 3.194-2.953 6.422-4.22 10.126-.903 2.643-3.313 5.954-6.765 7.36" style="fill:none"></path><path d="M363.07 346.458c-2.09.182-5.55 2.654-7.264 4.391-19.95 42.425-63.076 71.797-113.06 71.797-12.114 0-23.825-1.726-34.902-4.944-32.294 10.506-66.747 19.278-93.881 29.89-3.518 1.377-4.642 3.978-4.875 6.096-.228 2.07.853 2.71 1.981 3.75.99.91 2.371 1.297 4.09 1.793 6.82 1.967 12.96 5.531 18.89 9.234.98-.992 2.078-.493 2.977-.375 1.291.17 2.57.821 3.844 1.266 4.086 1.43 8.063 3.202 12.234 4.36 3.726 1.035 7.52 1.967 11.355 1.992 3.113.02 6.263.404 9.364.68 4.72.42 10.659 2.103 15.75 3.938 2.885 1.04 6.236 1.286 9.093 2.625 2.438 1.142 4.633 2.866 6.563 4.71.876.838 1.755 1.686 2.742 2.391 1.804 1.29 4.07 1.406 6.375 1.5 3.942.16 7.872.547 11.812.75 5.748.297 13.394 1.248 17.016.914 6.1-.563 13.856.188 20.647.68 1.622.118 3.188.657 4.782.985 1.695.688 1.482 1.495-.188 1.711-12.259 1.588-25.419 1.581-39.61.656a29 29 0 0 1-4.078-.562c-2.865-.607-5.666-1.5-8.531-2.109-2.935-.624-5.905-1.07-8.86-1.594-4.264-.756-7.949-2.446-12.023-3.234-1.981-.382-4.104-.801-6.047-.258-1.408.394-.691 1.827.563 3.07 1.438 1.427 4.344 2.446 6.75 2.907 3.205.615 6.71.869 10.031 1.5 6.214 1.182 12.314 2.959 18.562 3.938 8.575 1.345 18.55 1.407 27.843 1.407 8.45 0 16.876-.925 25.312-1.407 4.167-.238 8.468-1.193 12.423-2.718 5.62-2.167 13.007-2.69 19.5-1.969 4.237.47 8.533 1.41 12.563 2.907 3.01 1.118 6.735 1.77 10.148 2.32 2.4.387 4.93-.094 7.29.492 14.701 3.653 29.573 6.016 44.718 6.094 15.5.08 31.796-1.694 46.64-3.656 1.357-.18 3.587-1.226 3.656-1.875.077-.71-.268-.739-1.488-1.536-3.426-2.238-21.583-2.72-34.558-3.715-14.753-1.13-29.4-3.902-43.288-11.53-7.137-3.92-13.716-8.666-19.505-14.122-1.088-1.025-2.08-2.165-1.823-3.996.43-3.056 3.793-4.568 7.173-5.555 16.082-4.694 31.16-11.394 44.907-20.812 18.605-12.748 35.287-27.602 45-50.999 4.343-10.457 6.576-20.474 6.142-32.39-.141-3.878 2.025-6.466 5.53-6.327 1.617.063 3.507 1.61 4.524 3.041.865 1.217 1.61 3.143 1.336 4.904-6.66 42.693-16.225 78.905-72.116 104.345-2.556 1.164-5.275 2.072-7.594 3.656-3.566 2.437-6.478 5.909-6 10.22.403 3.628 2.989 5.189 5.813 6 7.637 2.19 15.406 3.763 23.25 5.343 10.497 2.115 21.553 3.45 33.094 3.562 2.89.204 5.799.231 8.672.61 2.877.379 5.655.968 7.91 2.555.063-.915-.239-1.618-.13-2.368 13.212-.111 23.58-3.865 30.892-10.64 3.06-2.835 2.859-4.592 2.86-7.78.002-5.031 2.735-8.359 7.407-9.234-.475-2.471 1.932-3.568 4.658-4.36 1.989-.578 4.088-.773 6.036-1.477 1.862-.673 3.245-2.36 3.369-4.195.133-1.98-.954-3.609-1.36-4.828-.331-1 .013-2.26.657-3.094 1.358-1.76 2.661-3.888 2.531-7.688-.08-2.357 1.132-3.747 3.376-5.062 5.38-3.155 12.04-6.632 12.095-11.062.025-2.118-1.21-2.392-2.532-1.875-1.599.624-3.89 1.292-7.406 1.312-3.638.02-3.903-2.805-5.742-7.031-1.284-2.951-3.798-3.346-6.445-2.156-3.61 1.621-8.079 4.312-11.063 4.312-2.312 0-5.194-2.088-4.406-5.156.682-2.657 2.16-5.474 5.156-6.657 9.126-3.603 18.286-7.57 27.375-11.483 1.146-.494 1.513-1.505.89-2.813-.442-.927-1.11-1.75-1.453-2.719-.382-1.075-.649-1.294-.703-3.351-.025-.97-.25-1.922.258-3.07.858-1.943 1.79-3.821 2.531-5.847.534-1.459.674-2.528.07-3.516-2.853-4.669-5.697-9.352-8.812-13.851-1.031-1.49-2.7-1.86-4.828-1.828-1.599.023-3.105.26-4.547.797-3.847 1.43-7.792 3.486-11.671 3.608-3.14.099-4.35-1.833-4.29-5.132.08-4.327 2.434-7.198 6.751-9.376 4.012-2.024 8.953-2.28 13.36-3.656 1.796-.561 2.347-1.819 1.828-3.281-.818-2.309-1.317-5.423-2.063-8.11-.43-1.553-1.316-2.575-3-2.766-12.077-1.373-25.843 4.368-40.406 10.265-4.741 1.92-9.418 1.557-11.953 1.265-2.148-.247-4.146-2.334-4.875-4.875-3.788-13.189-9.892-24.813-17.578-36.281-23.312-34.783-46.925-67.015-71.788-96.844-2.493-3.176-4-6.798-5.297-10.267-3.936-8.998-3.445-13.566-5.813-17.086-.397-.59-2.003-2.105-3.211-1.289-1.627 1.1-1.598 6.059-.727 10.875 1.863 10.302 3.798 20.59 5.697 30.886 17.648 20.77 28.62 47.39 29.6 76.542 3.452-1.406 5.862-4.717 6.766-7.36 1.266-3.704 2.536-6.932 4.219-10.126.446-.847 1.23-1.197 2.625-1.171 1.114.02 2.167.107 3.422.468 1.395.402 4.512 3.288 6 6.141 3.415 5.947 6.862 11.851 9.704 18.563 2.265 4.703 4.102 9.667 4.687 14.812.483 4.246.857 8.37.89 12.562.027 3.38-.493 7.098-2.108 10.126-1.856 3.478-2.139 2.308-4.688 6.187-1.56 2.375-2.234 5.258-2.53 8.93-.064 1.625.162 3.529-.517 4.851-1.328 2.587-4.888 6.013-8.812 8.157-6.122 3.344-12.39 6.356-18.61 9.328-2.32 1.11-4.61 1.622-6.843-.14-1.173-.926-1.426-2.313-1.348-4.196.075-1.81 1.233-2.972 2.379-4.711 2.104-5.672 3.653-11.336 4.312-17.015.263-2.262-2.108-2.628-4.02-2.461m-154.13 82.474c-25.799 5.523-57.284 14.589-80.465 21.766-2.442.756-6.124.457-8.6.15-1.833-.229-1.618-1.634-.469-2.415 1.347-.915 2.786-1.792 4.362-2.204 16.34-4.27 32.188-9.438 48.281-14.157 12.563-3.687 25.153-7.145 37.968-9.656 3.17-.62 5.545.858 5.438 3.47-.091 2.237-3.246 2.346-6.516 3.046m47.473 20.467c1.163-.054 2.33.342 2.297 2.344-.025 1.523-1.386 2.764-1.64 4.266-.55 3.244-.664 6.554-.75 9.843-.101 3.843-.04 7.694.187 11.531.055.915.496 1.77.656 2.672.199 1.116.408 2.2.21 3.316-.194 1.108-.485 2.322-1.335 3.059-.706.613-2.077 1.384-2.718.703-1.346-1.428-1.507-3.652-1.876-5.578-.862-4.513-1.784-9.07-1.804-13.665-.019-4.186.582-8.408 1.687-12.445.519-1.895 1.947-3.302 3.094-5.016.416-.62 1.246-.995 1.992-1.03m-10.647-2.136c1.054.012 2.164 1.394 2.215 2.508.087 1.882-.96 3.682-1.851 5.343-.476.888-.563 1.813-.844 2.719-.164 1.281-.798 4.709-.82 6-.063 3.828.485 5.5.563 9.328-.437 2.938-.272 7.197-1.312 8.813-.583.905-1.998 1.368-3 1.03-2.098-.704-4.456-10.52-4.735-17.671-.071-1.842.227-3.707 1.267-5.532.498-.875 1.39-1.476 2.015-2.25.475-.587.844-1.314.938-2.063.446-3.54 1.318-6.395 3.502-7.194.72-.264 1.294-1.04 2.062-1.031m-60.317 13.421c1.48.598 3.014 1.291 4.125 2.438.943.973 1.472 2.335 1.641 3.68.133 1.053-.484 2.997-1.16 3.028l-11.73.182c-.6.01-1.412-.525-1.407-1.125.013-1.59-.027-3.828 1.488-4.36.993-.312 1.453-.97 1.465-1.968.01-.823.708-1.289 1.735-1.734 1.412-.613 2.65-.622 3.843-.14m99.523 1.885c.682-.408.83.187.844.516.057 1.384-.783 2.901-1.266 4.195-.842 2.257-.793 4.766-.89 7.172-.06 1.474.415 2.931.422 4.407.009 2.128.055 4.29-.375 6.375-.097.468-.649.932-1.125.89-.635-.055-1.42-.5-1.547-1.125-.911-4.512-1.3-9.133-1.453-13.734-.051-1.525.04-3.203.844-4.5 1.086-1.753 2.778-3.136 4.546-4.196m-7.693-6.823c.63-.124.858.294.867.656.057 2.222-.482 4.42-.68 6.633-.434 4.857-1.033 9.705-1.218 14.578-.096 2.532.286 4.335.187 7.148-.063 1.82-.786 1.936-1.57 2.04-2.048.27-3.496-1.134-3.657-2.626-.396-3.671-.145-7.114.376-10.617.78-5.245 1.9-10.465 3.514-15.516.322-1.005 1.146-2.092 2.18-2.296m-10.868-5.808c.756-.396 2.374-.375 2.484.633.348 3.189-.621 6.386-.865 9.585-.341 4.465-.74 8.93-.89 13.405-.1 2.936.56 5.905.14 8.813-.161 1.12-.697 2.87-1.828 2.86-1.52-.014-2.865-1.533-3.515-2.907-.938-1.984-.938-4.322-.938-6.516 0-4.152.18-8.34.938-12.422.876-4.712 1.639-11.964 4.474-13.45" style="fill:#1c4584;fill-rule:evenodd"></path><path d="M267.339 508.168c-9.836 1.635-20.052.859-29.813-.351-6.087-.755-12.804-1.673-19.313-2.274-12.789-1.18-25.75-2.662-37.735-7.078-4.9-1.806-10.17-4.547-14.531-8.063-1.6-1.29-2.996-2.83-4.313-4.406-3.053-3.654-6.97-7.12-12.62-9.68-4.515-2.045-9.011-4.117-13.536-6.14-.247.53-.395 1.11-.703 1.606-.452.727-1.277 1.005-2.04 1.219-18.555 5.225-38.263 15.344-58.336 28.43-2.164 1.41-4.137 3.117-6.375 4.406-4.882 2.811-10.008 5.176-14.953 7.876a10.3 10.3 0 0 1-3.703 1.172c-1.26.156-2.44.622-3.562 1.172-1.449.709-2.593 1.686-2.72 3.117-.11 1.243 1.296 3.116 2.321 4.43 4.303 5.516 9.857 10.395 16.969 14.298 3.233 1.774 6.022 2.175 8.719.515 3.228-1.986 6.342-3.992 9.491-6.022 2.242-1.446 4.356-1.973 6.68-2.016 3.116-.057 5.95.802 7.125 3.095.674 1.315-.26 1.918-1.183 2.719-1.116.968-2.515 1.161-4.418 1.078-2.786-.122-4.87 1.73-6.188 3.75-1.313 2.01-1.06 4.463.281 6.094a45.7 45.7 0 0 0 5.25 5.39c4.723 4.114 10.388 5.854 17.625 4.454 2.8-.542 5.696-1.933 7.125-4.313 1.48-2.466 2.83-3.705 4.78-5.344 2.482-2.083 4.668-4.938 5.907-7.218 1.24-2.28 2.098-3.143 3.75-4.032 2.457-1.322 3.934-.754 5.203.424.884.82.953 2.877.89 4.36-.035.844-.611 1.616-1.171 2.25-1.366 1.546-2.89 2.264-4.29 3.387-1.214.975-2.522 1.714-3.538 2.895-2.585 3-5.888 6.474-7.359 9.329-.67 1.3-1.14 2.808-1.031 4.266.126 1.695 1.132 3.207 1.711 4.805.335.925.787 1.813 1.031 2.766.484 1.89 1.445 2.281 2.578 2.907 1.093.603 2.428.672 3.674.726 2.716.117 5.46-.3 8.186-.211 2.255.072 4.299 1.85 6 3.14 1.488 1.13 3.23 2.72 5.156 2.625 2.856-.141 3.66-1.427 5.016-3.515.938-1.446 2.287-2.61 3.656-3.657 2.22-1.694 4.863-2.368 7.266-3.608 2.308-1.19 3.786-2.854 5.532-4.453 1.605-1.47 3.416-2.802 5.343-2.624 1.581.146 1.894 1.717 1.875 3.797-.038 4.165-1.324 6.386-2.484 8.578-.792 1.496-1.777 2.753-1.734 4.922s2.044 5.283 4.406 8.39c2.544 3.346 7.633 8.72 9.023 8.72 11.008-.006 17.539-2.2 25.688-5.368 9.862-3.834 18.49-10.242 27.234-16.454 5.03-3.573 9.962-7.35 15.375-10.313 5.943-3.252 12.043-6.467 18.375-9 20.8-8.319 42.11-16.976 62.954-23.53 8.433-3.04 15.74-6.495 23.25-9.516 6.796-2.733 13.397-4.953 20.25-5.906-11.75-1.047-23.434-2.774-34.5-6.516-4.007-1.355-8.75-2.133-13.172-3.093-6.303-1.37-13.544-3.402-17.858-4.805-2.939-.956-7.711-.661-12.352 0-9.665 1.376-20.534 4.797-30.164 6.398" style="fill:#1c4584;fill-rule:evenodd"></path><path d="M361.657 367.543c.916-.145 1.885-.096 2.748-.434 8.951-3.494 17.347-8.097 25.688-12 1.946-.911 4.282-.375 6.423-.562" style="fill:none"></path><path d="M361.657 367.543c.916-.145 1.885-.096 2.748-.434 8.951-3.494 17.347-8.097 25.688-12 1.946-.911 4.282-.375 6.423-.562.005-.643-.011-1.292.012-1.902.297-3.672.97-6.555 2.53-8.93 2.55-3.879 2.833-2.71 4.689-6.187 1.615-3.028 2.135-6.745 2.108-10.126-.033-4.192-.407-8.316-.89-12.562-.585-5.145-2.422-10.109-4.688-14.812-2.841-6.712-6.289-12.616-9.703-18.563-1.488-2.853-4.606-5.74-6-6.14-1.255-.362-2.308-.45-3.422-.47-1.395-.025-2.179.325-2.625 1.172-1.683 3.194-2.953 6.422-4.22 10.126-.903 2.643-3.313 5.954-6.765 7.36q.07 2.124.071 4.266c0 18.976-4.233 36.964-11.807 53.07 1.714-1.737 5.174-4.209 7.264-4.391 1.912-.167 4.283.2 4.02 2.46-.66 5.68-2.208 11.344-4.312 17.016-.386.586-.774 1.107-1.121 1.609" style="fill:#e70d2f;fill-rule:evenodd"></path><path d="M123.529 335.023c-10.36 2.762-19.53 8.934-28.659 15.02-7.498 5-15.398 9.7-24.796 13.125-1.51.55-2.112 1.583-1.922 2.813.192 1.25 1.326 2.502 2.25 2.672 1.41.26 2.728.851 3.234 2.437.354 1.11-.482 2.22-1.078 3.797-.469 1.24-.7 2.616-.75 4.125-.032.954.113 1.906.14 2.86.027.929.586 1.4 1.43 1.078 1.86-.71 4.024-1.13 6.305-1.406 3.09-.375 6.065-.854 7.547.89 1.007 1.185.383 2.273-.234 3.187-2.302 3.406-9.57 7.73-14.812 12.422-6.324 5.659-12.28 11.877-18.187 18.327-1.017 1.11-2.213 2.044-3.375 3-2.363 1.945-4.033 4.382-2.402 6.117 2.123 2.26 4.552 4.097 7.172 5.672.046 3.031-.074 6.07.14 9.094.23 3.26 2.084 5.877 5.25 6.093 3.333.228 6.147-1.49 9.024-3.328 1.853-1.185 3.827-1.297 5.556-1.22 1.952.088 2.94.42 2.906 1.618-.055 1.944-.965 3.543-2.227 4.746-7.04 6.71-14.314 14.494-16.066 19.898-.694 2.143-1.357 4.664-2.004 6.387-1.486 3.956-2.3 6.46-2.86 10.453-.686 4.9.019 8.354.564 10.594.531 2.182.552 2.863 2.601 3.375 5.367 1.34 9.987 3.21 11.127 6.108" style="fill:none"></path><path d="M123.529 335.023c-10.36 2.762-19.53 8.934-28.659 15.02-7.498 5-15.398 9.7-24.796 13.125-1.51.55-2.112 1.583-1.922 2.813.192 1.25 1.326 2.502 2.25 2.672 1.41.26 2.728.851 3.234 2.437.354 1.11-.482 2.22-1.078 3.797-.469 1.24-.7 2.616-.75 4.125-.032.954.113 1.906.14 2.86.027.929.586 1.4 1.43 1.078 1.86-.71 4.024-1.13 6.305-1.406 3.09-.375 6.065-.854 7.547.89 1.007 1.185.383 2.273-.234 3.187-2.302 3.406-9.57 7.73-14.812 12.422-6.324 5.659-12.28 11.877-18.187 18.327-1.017 1.11-2.213 2.044-3.375 3-2.363 1.945-4.033 4.382-2.402 6.117 2.123 2.26 4.552 4.097 7.172 5.672.046 3.031-.074 6.07.14 9.094.23 3.26 2.084 5.877 5.25 6.093 3.333.228 6.147-1.49 9.024-3.328 1.853-1.185 3.827-1.297 5.556-1.22 1.952.088 2.94.42 2.906 1.618-.055 1.944-.965 3.543-2.227 4.746-7.04 6.71-14.314 14.494-16.066 19.898-.694 2.143-1.357 4.664-2.004 6.387-1.486 3.956-2.3 6.46-2.86 10.453-.686 4.9.019 8.354.564 10.594.531 2.182.552 2.863 2.601 3.375 5.367 1.34 9.987 3.21 11.127 6.108 1.696-1.132 3.287-2.432 4.996-3.546 20.073-13.086 39.78-23.205 58.337-28.43.762-.214 1.587-.492 2.039-1.219.308-.496.456-1.077.703-1.606-.686-.307-1.246-.726-1.43-1.711-5.928-3.703-12.07-7.267-18.89-9.234-1.718-.496-3.1-.882-4.089-1.793-1.128-1.04-2.209-1.68-1.98-3.75.232-2.118 1.356-4.72 4.874-6.095 27.134-10.613 61.587-19.386 93.881-29.891-40.115-11.656-71.899-42.894-84.315-82.68" style="fill:#e70d2f;fill-rule:evenodd"></path><path d="M375.45 239.305c6.115-3.764 13.785-6.397 18.926-6.179 8.291.353 18.852 6.091 19.547 11.766.368 3.007-2.02 5.024-5.344 6.843-2.517 1.378-3.374 3.096-3.328 4.876.073 2.832 3.107 4.002 6.328 4.406 2.864.359 4.779-.954 6.47-2.438 2.874-2.522 6.043-3.68 9.233-4.358 5.104-1.086 10.371-2.008 15.328-3.186 4.253-1.011 7.153-.087 8.286 3.34.462 1.398 1.015 4.3.715 7.746-.35 4.02 1.035 3.654 3.023 4.476 5.26 2.176 11.148 7.09 12.938 13.172.586 1.992-.678 3.525-3.188 4.922-4.135 2.3-4.604.357-11.53 3.656-4.294 2.045-8.65 3.955-12.985 5.906-3.012 1.355-4.65 3.227-6.469 4.875-1.449 1.313-2.463 2.84-1.543 4.538.586 1.083 1.077 1.898 3.277 1.79 3.588-.173 6.788-.715 10.735-.937 4.986-.28 8.232-.646 9.75 2.297 2.976 5.776 5.96 11.297 9.047 17.015 1 1.854.682 3.594-.704 4.454-5.929 3.675-11.435 8.484-16.724 13.728" style="fill:none"></path><path d="M418.048 258.58c-1.69 1.483-3.605 2.796-6.47 2.437-3.22-.404-6.254-1.574-6.327-4.406-.046-1.78.81-3.498 3.328-4.876 3.324-1.819 5.712-3.836 5.344-6.843-.695-5.675-11.256-11.413-19.547-11.766-5.141-.218-12.811 2.415-18.926 6.179 14.805 19.52 29.275 39.971 43.63 61.39 7.687 11.469 13.791 23.093 17.579 36.282.73 2.54 2.727 4.628 4.875 4.875 1.379.16 3.392.34 5.705.161 5.288-5.244 10.794-10.053 16.723-13.728 1.387-.86 1.704-2.6.704-4.454-3.087-5.718-6.07-11.239-9.047-17.015-1.518-2.943-4.764-2.577-9.75-2.296-3.947.221-7.147.763-10.735.937-2.2.107-2.691-.708-3.277-1.79-.92-1.7.094-3.226 1.543-4.538 1.82-1.65 3.457-3.52 6.469-4.875 4.335-1.952 8.691-3.862 12.984-5.907 6.927-3.299 7.396-1.355 11.531-3.656 2.51-1.396 3.774-2.93 3.188-4.922-1.79-6.082-7.677-10.996-12.938-13.172-1.988-.821-3.374-.456-3.023-4.476.3-3.447-.253-6.348-.715-7.746-1.133-3.427-4.033-4.351-8.286-3.34-4.957 1.178-10.224 2.1-15.328 3.186-3.19.678-6.36 1.836-9.234 4.359" style="fill:#e70d2f;fill-rule:evenodd"></path><path d="M182.062 596.242c-8.635 3.691-17.128 7.735-25.904 11.075-6.086 2.317-9.538 6.385-9.843 12.469.062 4.11.435 8.226.187 12.328-.092 1.527.524 1.91 1.64 2.062 1.072.147 2.157.156 3.235.234-.096 2.983.603 5.15 2.485 5.11 1.379-.03 2.554.773 4.078.703 1.525 5.626 3.6 9.513 5.671 11.953 2.033 2.393 4.128 3.528 6.75 3.656 4.182.204 8.189-1.191 12.188-2.906 14.295-6.13 27.148-15.172 40.22-23.954 1.698-1.14 3.723-1.68 4.688 0 1.118 1.945-1.983 7.027-3.633 8.203-3.492 2.49-7.158 5.15-10.887 8.25-1.812 1.507-3.752 2.35-5.59 3.023-3.813 1.397-5.75 3.76-5.953 7.149-.164 2.746 2.555 3.454 5.273 2.883 2.978-.626 5.425-.962 7.008.304 1.742 1.394 2.088 3.43 2.158 5.532.096 2.903 3.534 5.078 7.125 4.594 4.382-.592 8.454-2.671 12.562-5.438 4.064-2.737 7.705-5.205 11.274-8.203.925-.777 2.14-1.183 3.71-.826 1.425.324 2.013 2.906 1.916 4.295-.144 2.074.192 2.86 1.582 2.964 1.31.098 3.046-.668 4.419-1.183 8.55-3.206 17.122-7.871 25.781-11.953 5.01-2.361 9.528-5.446 14.486-8.543 2.429-1.518 5.212-2.755 7.734-4.113 2.721-1.466 5.463-2.867 7.219-.844 1.346 1.55.9 4.381-.094 5.438-2.413 2.562-4.367 4.817-5.273 6.72-.959 2.013-1.266 3.27.585 4.576 2.52 1.78 6.48 1.04 12-.047 3.78-.743 6.637-2.865 9.563-5.062 25.478-19.131 50.989-37.2 76.076-57.329 5.943-4.768 11.683-8.59 17.86-11.39 13.235-6.002 25.75-12.313 38.624-18.47 28.5-14.687 56.843-29.683 85.5-44.062 2.152-1.08 2.995-2.324 3-4.594.014-6.098.378-12.191.704-18.28.095-1.78-.533-2.722-1.876-3.516-1.46-.865-3.105-1.401-4.734-1.876-2.272-.661-2.98-2.584-3.844-4.219-3.666-6.939-9.288-10.943-16.594-11.86-6.62-.83-12.931 3.288-19.218 7.126-6.01 3.668-11.594 7.099-17.579 11.718-3.99 3.08-10.07 6.18-13.265 7.266-1.45.492-3.824.077-3.938-1.266-.12-1.412.17-3.182 1.67-4.793 1.926-2.068 4.259-3.815 6.58-5.426 2.998-2.082 6.051-4.113 9.281-5.813 3.001-1.58 6.015-2.946 8.157-5.437 1.19-1.386 1.907-3.071 1.406-5.157-.416-1.734-2.355-1.922-4.406-1.547-1.968.36-3.824.447-5.813 1.5-1.091.578-2.374.57-2.86-.234-.654-1.084-1.254-2.2-1.88-3.3" style="fill:none"></path><path d="M375.386 516.184c18.84 1.475 37.38 2.941 53.491-1.952 8.642-2.624 15.017-7.943 13.367-18.477" style="fill:none"></path><path d="M428.877 514.232c-16.11 4.893-34.65 3.427-53.491 1.952-6.854.953-13.455 3.173-20.25 5.906-7.511 3.021-14.818 6.476-23.25 9.516-20.845 6.554-42.154 15.211-62.955 23.53-6.332 2.533-12.432 5.748-18.375 9-5.413 2.963-10.344 6.74-15.375 10.313-8.744 6.212-17.372 12.62-27.234 16.454-8.149 3.167-14.68 5.362-25.688 5.367a.8.8 0 0 1-.197-.028c-8.635 3.692-17.128 7.735-25.904 11.075-6.087 2.317-9.538 6.386-9.844 12.469.063 4.11.436 8.226.188 12.328-.092 1.527.524 1.91 1.64 2.062 1.072.147 2.157.157 3.235.234-.096 2.983.603 5.15 2.485 5.11 1.379-.03 2.554.773 4.078.703 1.525 5.626 3.6 9.513 5.671 11.953 2.033 2.393 4.128 3.528 6.75 3.656 4.182.204 8.188-1.191 12.188-2.906 14.294-6.13 27.148-15.172 40.22-23.954 1.697-1.14 3.723-1.68 4.688 0 1.118 1.945-1.983 7.027-3.633 8.203-3.492 2.49-7.158 5.15-10.887 8.25-1.812 1.507-3.752 2.35-5.59 3.023-3.813 1.397-5.75 3.76-5.953 7.149-.164 2.746 2.555 3.454 5.273 2.883 2.978-.626 5.425-.962 7.008.304 1.742 1.394 2.088 3.43 2.158 5.532.096 2.903 3.534 5.078 7.125 4.594 4.382-.592 8.454-2.671 12.562-5.438 4.064-2.737 7.705-5.205 11.274-8.203.925-.777 2.14-1.183 3.71-.826 1.425.324 2.013 2.906 1.916 4.295-.144 2.074.192 2.86 1.582 2.964 1.31.098 3.046-.668 4.419-1.183 8.55-3.206 17.122-7.871 25.781-11.953 5.01-2.361 9.528-5.446 14.486-8.543 2.429-1.518 5.212-2.755 7.734-4.113 2.721-1.466 5.463-2.867 7.219-.844 1.346 1.55.9 4.381-.094 5.438-2.413 2.562-4.367 4.817-5.273 6.72-.959 2.013-1.266 3.27.585 4.576 2.52 1.78 6.48 1.04 12-.047 3.78-.743 6.637-2.865 9.563-5.062 25.478-19.131 50.989-37.2 76.076-57.329 5.943-4.768 11.683-8.59 17.86-11.39 13.235-6.002 25.75-12.313 38.624-18.47 28.5-14.687 56.843-29.683 85.5-44.062 2.152-1.08 2.995-2.324 3-4.594.014-6.098.378-12.191.704-18.28.095-1.78-.533-2.722-1.876-3.516-1.46-.865-3.105-1.401-4.734-1.876-2.272-.661-2.98-2.584-3.844-4.219-3.666-6.939-9.288-10.943-16.594-11.86-6.62-.83-12.931 3.288-19.218 7.126-6.01 3.668-11.594 7.099-17.579 11.718-3.99 3.08-10.07 6.18-13.265 7.266-1.45.492-3.824.077-3.938-1.266-.12-1.412.17-3.181 1.67-4.793 1.926-2.068 4.259-3.815 6.58-5.426 2.998-2.081 6.051-4.113 9.281-5.813 3.001-1.58 6.015-2.946 8.157-5.437 1.19-1.386 1.907-3.071 1.406-5.157-.416-1.734-2.355-1.922-4.406-1.547-1.968.36-3.824.447-5.813 1.5-1.091.578-2.374.57-2.86-.234-.654-1.084-1.254-2.2-1.88-3.3-4.672.876-7.405 4.204-7.407 9.234-.001 3.19.2 4.946-2.86 7.782-7.312 6.774-17.68 10.528-30.891 10.64-.11.75.191 1.452.129 2.367 1.65 10.534-4.725 15.853-13.367 18.477" style="fill:#e70d2f;fill-rule:evenodd"></path><path d="M267.339 508.168c9.63-1.6 20.5-5.022 30.164-6.398 4.641-.661 9.413-.956 12.352 0 4.314 1.403 11.555 3.436 17.858 4.805 4.422.96 9.165 1.739 13.172 3.093 11.066 3.742 22.75 5.469 34.5 6.516 18.841 1.475 37.381 2.941 53.492-1.952 8.642-2.624 15.017-7.943 13.367-18.477-2.255-1.587-5.033-2.176-7.91-2.555-2.873-.379-5.782-.406-8.672-.61-11.54-.112-22.597-1.447-33.094-3.562-7.844-1.58-15.613-3.152-23.25-5.344-2.824-.81-5.41-2.371-5.813-6-.478-4.31 2.434-7.782 6-10.219 2.32-1.584 5.038-2.492 7.594-3.656 55.89-25.44 65.455-61.652 72.116-104.345.275-1.761-.47-3.687-1.336-4.904-1.017-1.43-2.907-2.978-4.523-3.041-3.506-.139-5.673 2.45-5.531 6.328.434 11.915-1.8 21.932-6.141 32.39-9.714 23.396-26.396 38.25-45.001 50.998-13.746 9.418-28.825 16.118-44.908 20.812-3.379.987-6.741 2.499-7.172 5.555-.257 1.83.735 2.971 1.823 3.996 5.789 5.456 12.368 10.202 19.505 14.121 13.889 7.629 28.535 10.401 43.288 11.531 12.975.994 31.132 1.477 34.558 3.715 1.22.797 1.565.825 1.488 1.536-.07.65-2.299 1.695-3.656 1.875-14.844 1.962-31.14 3.736-46.64 3.656-15.145-.078-30.017-2.441-44.719-6.094-2.358-.586-4.89-.105-7.289-.492-3.413-.55-7.137-1.202-10.148-2.32-4.03-1.497-8.326-2.436-12.563-2.907-6.493-.72-13.88-.198-19.5 1.97-3.955 1.524-8.256 2.48-12.423 2.717-8.436.482-16.862 1.407-25.312 1.407-9.292 0-19.268-.062-27.843-1.407-6.248-.98-12.349-2.756-18.562-3.938-3.321-.631-6.826-.885-10.031-1.5-2.406-.461-5.312-1.48-6.75-2.906-1.255-1.244-1.971-2.677-.563-3.07 1.943-.544 4.066-.125 6.047.257 4.074.788 7.76 2.478 12.023 3.234 2.954.525 5.925.97 8.86 1.594 2.865.61 5.666 1.502 8.531 2.109 1.342.284 2.71.473 4.078.562 14.191.925 27.351.932 39.61-.656 1.67-.216 1.883-1.023.187-1.71-1.593-.329-3.159-.868-4.78-.985-6.793-.493-14.548-1.244-20.648-.681-3.622.334-11.268-.617-17.016-.914-3.94-.203-7.87-.59-11.812-.75-2.306-.094-4.571-.21-6.375-1.5-.987-.705-1.867-1.553-2.742-2.39-1.93-1.845-4.125-3.57-6.563-4.711-2.857-1.339-6.208-1.586-9.094-2.625-5.09-1.835-11.03-3.518-15.75-3.938-3.1-.276-6.25-.66-9.363-.68-3.835-.025-7.63-.957-11.355-1.992-4.17-1.158-8.148-2.93-12.234-4.36-1.273-.445-2.553-1.095-3.844-1.266-.9-.118-1.997-.617-2.978.375.183.985.744 1.404 1.43 1.71 4.525 2.024 9.021 4.096 13.535 6.141 5.651 2.56 9.568 6.026 12.621 9.68 1.317 1.577 2.713 3.116 4.313 4.406 4.36 3.516 9.631 6.257 14.531 8.063 11.984 4.416 24.946 5.898 37.735 7.078 6.509.6 13.226 1.519 19.313 2.274 9.761 1.21 19.977 1.986 29.813.351m-78.534-20.18c-.344 1.027-1.332 1.95-2.203 2.25-1.67.576-3.203.174-4.78-.047-6.441-.899-12.702-4.07-16.548-9-.77-1.396.253-1.772 1.594-1.547 7.526 1.263 14.237 3.22 20.953 5.203 1.031.298 1.295 2.215.984 3.141" style="fill:#fff;fill-rule:evenodd" data-source="https://football-logos.cc"></path><!-- source: https://football-logos.cc --></svg>