<svg xmlns="http://www.w3.org/2000/svg" viewBox="31.39 11.93 221.25 275.16"><!-- Source: https://football-logos.cc --><ellipse cx="142.022" cy="177.311" rx="110.119" ry="109.658" style="display:inline;fill:#fff;fill-opacity:1;fill-rule:evenodd;stroke:none;stroke-width:1.22866;stroke-opacity:1" data-source="https://football-logos.cc"></ellipse><path d="m129.07 51.727 12.938-9.067 12.953 9.067-4.637-15.09 12.63-9.504-15.802-.266-5.144-14.933-5.133 14.933-15.8.266 12.628 9.504Zm0 0" style="stroke:none;fill-rule:nonzero;fill:#bf9d1b;fill-opacity:1"></path><path d="M51.875 138.738c-2.54-.937-5.34.098-6.3 2.696-.966 2.597.487 5.199 3.03 6.14 2.63.969 5.415-.304 6.301-2.695.887-2.395-.398-5.168-3.031-6.14M63.305 114.457c-1.364-1.055-2.29-.348-3.133.742l-.25.32 3.219 2.497.23-.297c.856-1.102 1.324-2.184-.066-3.262M130.707 81.473l-2.754-4.633-1.36 5.21ZM78.672 96.344l-.309.238 2.711 3.527.371-.285c1.192-.914 2.305-2.136 1.114-3.691-1.172-1.524-2.73-.676-3.887.21M68.156 116.953c-1.363-1.058-2.687.055-3.492 1.094l-.559.715 3.364 2.61.691-.892c.832-1.074 1.371-2.46-.004-3.527" style="stroke:none;fill-rule:nonzero;fill:#db1c30;fill-opacity:1"></path><path d="m242.715 176.523-8.133.473-.113-1.95 7.855-.456c1.606-.094 2.403-1.024 2.305-2.688l-.375-6.46 1.332-.079.406 6.942c.156 2.699-.918 4.082-3.277 4.218m-8.754-10.156 6.238-.363.668 1.937-6.789.395Zm-2.242-12.031 1.351-.27.88 4.438c.527 2.644 2.171 3.73 4.878 3.195l.512-.101c1.668-.328 2.812-.946 3.39-1.832.465-.73.586-1.676.364-2.809-.192-.957-.528-1.687-1-2.168-.61-.621-1.531-.82-2.739-.582q-.785.159-1.32.457l-1.086-1.566c.375-.313 1.051-.567 2.016-.758 1.285-.258 2.426.004 3.402.765.988.774 1.66 2.028 2 3.739.328 1.656.176 3.05-.457 4.148-.734 1.27-2.11 2.11-4.09 2.5l-.445.09c-1.746.344-3.234.086-4.434-.773-1.191-.852-1.98-2.204-2.336-4.016Zm-1.38-4.434 11.18-3.324.555 1.871-11.18 3.32Zm-1.655-7.214a32 32 0 0 1-2.2-2.368c-.71-.84-1.457-1.8-2.222-2.847l1.328-.54q.351.466.867 1.094c.36.438.79.953 1.281 1.543l.328.395 8.477-6.668.793 1.965-8.125 6.015.164.176c.656.707 1.281 1.215 1.852 1.508.714.406 1.386.613 2.03.613.665-.008 1.56-.238 2.731-.715l3.805-1.535.758 1.871-2.727 1.102c-2.05.828-3.84 1.066-5.316.707-1.27-.309-2.555-1.086-3.824-2.316m-7.22-12.637 1.196-.672c1.07 1.074 2.235 1.809 3.461 2.187 1.145.34 2.34.172 3.543-.504l3.246-1.824-3.773-6.703 4.793-2.687.972 1.691-3.64 2.047 3.773 6.7-3.508 1.968c-1.738.98-3.41 1.281-4.972.894-1.871-.453-3.582-1.496-5.09-3.097m-3.883-6.285-6.848-8.493 1.11-.89 4.699 5.832 4.898-3.942c.664-.535 1.043-1.109 1.121-1.714.083-.606-.14-1.239-.656-1.875l-2.91-3.614 1.04-.836 3.155 3.914c.457.563.793 1.106.996 1.614.2.484.282.957.239 1.406-.04.437-.203.875-.48 1.293-.286.434-.696.863-1.22 1.285l-4.956 3.988.921 1.141Zm-7.016-15.172a287 287 0 0 1-.57 5.828l-1.586-1.512.899-9.043-.168-.05c-1.243-.36-2.188-.204-2.817.453l-3.328 3.5-1.402-1.329 2.746-2.882c.61-.645 1.207-1.036 1.765-1.157.657-.117 1.684.008 3.047.368l.258.066.153-4.902 1.656 1.574c-.067 1.73-.219 4.305-.457 7.648l-.012.172.164.05c.727.22 1.309.29 1.734.208q.669-.13 1.336-.824l2.313-2.434 1.433 1.36-2.046 2.148c-.528.555-1.16.89-1.88.988-.734.106-1.734-.039-2.96-.414l-.258-.082Zm-12.238-4.57 4.356-5.938c1.144-1.559.972-2.953-.5-4.027l-3.41-2.496.788-1.079 3.602 2.633c1.211.887 1.934 1.79 2.152 2.676.243 1.004-.09 2.129-.98 3.344l-4.43 6.043Zm-3.129-9.188-3.703-2.27.711-1.152 3.703 2.266Zm-7.523-2.535c-1.067.703-2.446 1.062-4.11 1.062l-.246-.004c-1.968-.035-4.601-.726-7.836-2.054l3.985-11.282 1.832.848-3.633 9.871.203.074c2.145.762 3.945 1.168 5.344 1.207 1.379.032 2.472-.25 3.262-.855.742-.54 1.457-1.543 2.125-2.984l1.5-3.25 1.773.82-1.344 2.91c-.773 1.672-1.734 2.895-2.855 3.637m-13.07-9.754-1.801 6.094 1.402.418-.402 1.359-10.47-3.094.403-1.36 7.188 2.122 1.785-6.02c.484-1.64-.09-2.754-1.664-3.218l-4.45-1.317.38-1.281 4.828 1.426c.699.21 1.285.465 1.734.761.441.29.774.633.996 1.02.215.387.332.84.344 1.34.012.516-.082 1.105-.274 1.75m-17.214 2.89a31 31 0 0 1-3.168.66c-1.082.176-2.29.321-3.59.434l.222-1.414c.36-.035.817-.094 1.383-.18q.954-.138 2.29-.347l.206-.031-1.347-10.692 2.093.332.97 10.059.234-.047c.941-.195 1.699-.469 2.25-.809.734-.414 1.265-.894 1.574-1.422.336-.57.594-1.453.793-2.703l.644-4.05 2 .316-.465 2.906c-.347 2.184-1.066 3.836-2.132 4.91-.922.93-2.254 1.63-3.957 2.079m27.441-2.938 1.652.766-2.797 6.035-1.945-.125Zm-51.574 3.14-1.754-2.867-5.309.75-.886 3.235-1.551.219 3.722-13.461 7.325 11.906Zm-12.168 2.766-7.945-11.414 1.554-.367 5.496 8.04 1.274-9.645 1.55-.368Zm-11.203 2.688-3.969-11.625 5.941-2.02.454 1.324-4.563 1.555 1.113 3.25 4.43-1.508.45 1.328-4.427 1.508 1.496 4.39 4.563-1.55.453 1.324Zm-2.918 1.164-2.43-5.38-5.07 2.29 2.433 5.375-1.328.598-5.07-11.196 1.328-.597 2.043 4.511 5.07-2.285-2.043-4.511 1.328-.598 5.07 11.191ZM96.5 97.754c-1.637.945-3.645.41-4.844-1.176l1.11-1.016c.664 1.18 2.039 1.512 3.125.887 1.09-.625 1.312-2.035.668-3.148-.657-1.14-1.813-1.133-2.907-1.012l-.879.094c-1.453.144-2.898.055-3.753-1.426-.997-1.719-.141-3.586 1.39-4.469 1.13-.648 2.387-.605 3.531.11l-.64 1.21c-.758-.445-1.438-.503-2.203-.062-.801.465-1.356 1.55-.817 2.484.48.832 1.508.82 2.29.711l.894-.12c1.777-.239 3.332-.024 4.36 1.753 1.112 1.93.487 4.133-1.325 5.18m-8.86.226-.71-1.066 2.746-1.828.71 1.07Zm.618 4.774-5.926-2.008-.484.371 3.168 4.125-1.168.895-7.489-9.746 1.418-1.086c.832-.64 1.735-1.313 2.82-1.446 1.15-.12 2.301.454 3.016 1.387 1.07 1.395 1.07 3.242-.152 4.45l6.215 1.972Zm-10.211 8.59-8.293-9.059 4.672-4.273.945 1.035-3.59 3.281 2.324 2.531 3.485-3.183.945 1.031-3.484 3.188 3.133 3.421 3.593-3.28.946 1.034Zm-5.367 5.691-9.035-8.336 4.296-4.652 1.028.95-3.297 3.573 2.527 2.332 3.203-3.468 1.032.949-3.204 3.469 3.415 3.152 3.3-3.574 1.028.953Zm-3.344 4.16-1.691 2.176-9.707-7.527.882-1.137c1.364-1.758 3.125-3.043 5.317-1.348.707.551 1.242 1.563 1.062 2.43l.028.023c1.058-.94 2.777-.84 3.91.04 1.941 1.507 1.476 3.699.199 5.343m-7.02 10.52-10.55-6.293.754-1.266 9.347 5.578 1.84-3.074 1.203.719Zm-3.613 6.95-10.992-5.505 2.836-5.66 1.254.629-2.18 4.344 3.078 1.539 2.117-4.219 1.25.629-2.113 4.219 4.152 2.082 2.18-4.344 1.254.629Zm-2.453 6.71c-1.184 3.2-4.73 4.84-8.156 3.578-3.305-1.223-5.04-4.848-3.867-8.02 1.171-3.167 4.855-4.792 8.16-3.574 3.425 1.266 5.05 4.817 3.863 8.016m-3.844 12.047-11.93-2.973.41-1.64c.88-3.52 2.419-4.297 4.606-3.754 2.516.629 3.02 2.703 2.477 4.875l-.207.82 5.004 1.246Zm-.488 2.129-3.246.879-.793 5.355 2.851 1.781-.23 1.563-11.855-7.441 13.503-3.704Zm-1.438 11.476-5.898-.203-.2 5.61 5.903.207-.05 1.468-12.294-.425.051-1.47 4.957.169.196-5.61-4.954-.171.047-1.47 12.297.427Zm91.532-104.902c-61.094 0-110.621 49.473-110.621 110.504 0 2.707.136 5.387.324 8.05H56.84a86 86 0 0 1-.371-7.816c0-47.195 38.297-85.449 85.543-85.449s85.55 38.254 85.55 85.45c0 2.636-.136 5.238-.37 7.816h25.124c.192-2.664.32-5.344.32-8.051 0-61.031-49.527-110.504-110.624-110.504" style="stroke:none;fill-rule:nonzero;fill:#db1c30;fill-opacity:1"></path><path d="M45.125 150.383c-1.867-.465-2.516 1.18-2.867 2.59l-.094.379 4.27 1.066.113-.457c.367-1.457.476-3.106-1.422-3.578M46.582 164.977l.613-4.149-5.226 1.352ZM95.617 222.098c4.04 6.68 9.996 14.351 12.442 17.43 4.539.245 17.734.913 26.441.913 8.176 0 18.797-1.523 22.102-2.035 1.511-3.375 5.488-12.07 9.464-19.265 3.391-6.114 7.63-12.426 9.457-15.082-1.691-2.758-5.691-9.27-8.945-14.606H92a436 436 0 0 0-6.316 13.25c1.593 3.543 5.699 12.39 9.933 19.395M54.867 199.7c2.414.327 8.043 1.03 14.426 1.437 5.898.367 11.91.18 14.441.066.961-2.105 3.063-6.633 5.59-11.75H49.98a134 134 0 0 0 4.887 10.246M177.473 202.64c2.777-.288 10.804-1.074 19.175-1.503 4.993-.258 13.211-.114 16.446-.035 1.23-2.36 3.586-6.91 5.906-11.649h-49.617c3.035 4.965 6.484 10.574 8.09 13.188M172.82 270.77c3.985-5.426 5.54-9.227 6.016-10.555-2.016-1.149-6.59-3.918-11.176-7.742-4.754-3.98-9.207-9.438-10.93-11.641-3.605.547-14.082 2.031-22.23 2.031-8.496 0-21.2-.629-26.129-.894-1.629 2.14-5.445 7.078-8.238 10.234a107 107 0 0 1-7.176 7.371c2.145 2.414 7.129 7.98 10.445 11.02l.875.812c4.192 3.848 10.785 8.89 17.5 13.809a110 110 0 0 0 36.778.629c3.422-3.153 10.332-9.727 14.265-15.074M56.473 234.148c-.868-2.699-2.84-9.484-3.66-17.152-.735-6.812-.098-12.426.378-15.332a132 132 0 0 1-5.816-12.21H32.23a111.9 111.9 0 0 0 15.551 44.358c2.074.153 5.36.387 6.559.387.734 0 1.531-.027 2.133-.05M221.668 189.453a486 486 0 0 1-6.953 13.711c.45 3.617 1.344 11.328 1.605 17.059.27 6.093-.523 13.75-.89 16.859 1.601.848 4.746 2.488 6.742 3.492 2.61 1.317 6.629 2.488 7.605 2.762 11.676-15.324 19.524-33.777 22.07-53.883ZM214.441 239.293c-2.148 2.07-8.34 7.828-15.398 12.367-6.59 4.242-14.617 7.453-17.777 8.645l.047.011c-.047.188-1.32 4.739-6.57 11.899-3.65 4.965-8.833 10.078-11.817 12.879 26.21-5.082 49.164-19.54 65.304-39.778-1.628-.449-4.789-1.398-7.128-2.578-1.961-.988-5.016-2.586-6.66-3.445M101.79 272.383c-4.384-4.028-11.364-12.051-11.661-12.395l.262-.234c-3.336-1.762-11.63-6.29-18.168-11.043-6.907-5.024-12.426-10.195-14.364-12.14l-.254-.055c-.07 0-1.75.101-3.265.101-1.16 0-3.371-.164-4.985-.297 15.329 23.668 39.282 41.137 67.305 47.805-6.05-4.379-9.851-7.125-13.992-10.934ZM97.09 159.281v2.305h3.445l1.836-8.215h-4.59v-3.07H95.56v5.3h3.523l-.613 3.68ZM110.559 153.371h-3.29v2.23h.614v2.38l-2.145-4.61h-2.906v2.23h1.148l1.528 3.68h-2.676v2.305h7.727ZM131.074 153.371h-6.508v3.918h2.602v-1.691h1.3v3.683h-3.902v2.305h6.508ZM134.977 157.29h-2.68v4.296h2.68Zm0 0" style="stroke:none;fill-rule:nonzero;fill:#db1c30;fill-opacity:1" data-source="https://football-logos.cc"></path><path d="M138.266 161.586v-8.215h-5.97v2.23h3.52v5.985ZM126.176 148.957l-3.957-19.055-2.375-.32 1.898-2.062 2.215-5.079 10.926-.953-8.707-7.465c.215-2.203-2.086-2.652-3.067-1.66-1.156.95-.28 3.508 1.641 2.77l3.531 4.125-7.496-1.153-1.152-1.898c.562-.832.258-4.621-.266-4.562-1.32-.735-2.847-.856-4.433-.797-.532.418-.797.96-.805 1.64l.805.106.316 3.199c.527.352 1.055.5 1.582.453l.504 1.469-13.02-2.336c10.516-9.621 28.496-6.875 32.47 9.125 2.874 13.234-3.196 21.86-10.61 24.453m-2.992 1.496-4.7 5.64-7.636-7.573 8.058-13.215 5.875 14.39Zm18.722-25.922c-2.687-18.129-26.164-23.656-39.535-9.515l-4.031-.59c-6.156-2.551-4.59 5.668.418 1.683l14.691 4.293 2.52 9.766-6.13 17.34-10.073-10.016c-1.961-2.164-5.938 1.176-3.297 3.535l20.875 16.348-3.59 4.215 4.058 3.687 5.985-6.668-.024-6.64c12.172-4.418 19.84-12.442 18.133-27.438" style="stroke:none;fill-rule:nonzero;fill:#db1c30;fill-opacity:1"></path><path d="M115.691 148.46h.914v4.911h2.606v-7.21h-3.52ZM179.402 120.063l-3.851 3.847v60.844h1.84V123.91l3.855-3.847v-9.637l-1.844-1.121ZM155.125 109.543v10.715l3.848 3.652v60.844h1.843v-61.895l-3.851-3.507v-9.086Zm0 0" style="stroke:none;fill-rule:nonzero;fill:#db1c30;fill-opacity:1"></path><path d="M157.898 117.875h-.003l5.304 4.719 5.305-4.719h.023v-11.39a83.5 83.5 0 0 0-10.609-3.106Zm0 0" style="stroke:none;fill-rule:nonzero;fill:#db1c30;fill-opacity:1"></path><path d="M176.48 104.313a93 93 0 0 0-2.699-1.188 72 72 0 0 0-1.515-.617c-.313-.125-.614-.262-.93-.383v.035c-4.324-1.656-8.797-3.012-13.418-3.976v3.433a83.6 83.6 0 0 1 13.418 4.188v12.836l-5.969 5.246v60.82h8.68l-.031-60.82 3.797-3.793v-15.176a.3.3 0 0 0-.063-.027v-.02c-.414-.195-.844-.367-1.27-.558M144.14 184.754h4.184V171.02h-4.183ZM187.758 184.754h4.18V171.02h-4.18ZM180.29 184.754h4.179V171.02h-4.18ZM195.223 184.754h4.183V171.02h-4.183ZM151.605 184.754h4.184V171.02h-4.184ZM210.156 184.754h4.18V171.02h-4.18ZM140.855 171.02h-4.18v13.734h4.18ZM221.805 171.02h-4.184v13.734h4.184ZM202.691 184.754h4.176V171.02h-4.176ZM84.41 184.754h4.184V171.02H84.41ZM69.477 184.754h4.183V171.02h-4.183ZM76.945 184.754h4.18V171.02h-4.18ZM91.879 184.754h4.18V171.02h-4.18ZM62.012 184.754h4.18V171.02h-4.18ZM114.277 184.754h4.18V171.02h-4.18ZM103.523 171.02h-4.18v13.734h4.18ZM121.738 184.754h4.188V171.02h-4.188ZM133.395 171.02h-4.188v13.734h4.188ZM110.988 171.02h-4.18v13.734h4.18Zm0 0" style="stroke:none;fill-rule:nonzero;fill:#db1c30;fill-opacity:1" data-source="https://football-logos.cc"></path><!-- source: https://football-logos.cc --></svg>