<svg xmlns="http://www.w3.org/2000/svg" fill="none" viewBox="3.02 0.45 43.32 49.43"><!-- Source: https://football-logos.cc --><path fill="#fff" d="M27.853 49.366c11.678-1.758 19.72-12.663 17.965-24.356S33.173 5.26 21.496 7.02C9.817 8.777 1.774 19.681 3.53 31.375c1.756 11.694 12.646 19.748 24.323 17.99" data-source="https://football-logos.cc"></path><path fill="#FF1521" fill-rule="evenodd" d="M24.68 6.504c-11.963 0-21.659 9.711-21.659 21.688 0 11.978 9.696 21.689 21.658 21.689s21.659-9.71 21.659-21.689S36.64 6.504 24.679 6.504m0 42.982c-11.745 0-21.265-9.533-21.265-21.294 0-11.76 9.52-21.293 21.264-21.293s21.265 9.533 21.265 21.293-9.52 21.294-21.265 21.294" clip-rule="evenodd"></path><path fill="#FF1521" fill-rule="evenodd" d="M24.679 7.148c-11.357 0-20.611 9.016-21.018 20.288l2.153-.465 2.29.472c.4-8.82 7.668-15.849 16.575-15.849s16.184 7.038 16.575 15.865l2.173-.492 2.269.443c-.42-11.261-9.669-20.262-21.017-20.262m.017 4.895c-8.983 0-16.265 7.292-16.265 16.287s7.282 16.288 16.265 16.288c8.982 0 16.265-7.293 16.265-16.288s-7.283-16.287-16.265-16.287m-4.442 33.765h.554v2.282h.557v-2.747h-.88l-.233.466zm3.185-.52q-.45.001-.722.26-.273.262-.273.691a.87.87 0 0 0 .223.617q.225.24.578.24a1 1 0 0 0 .192-.02.7.7 0 0 0 .164-.06l-.793 1.074h.664l.437-.655q.233-.348.348-.649.116-.298.116-.55 0-.428-.257-.687-.256-.26-.682-.26zm.283 1.245a.39.39 0 0 1-.297.125.42.42 0 0 1-.32-.118.45.45 0 0 1-.113-.327q0-.195.115-.317a.4.4 0 0 1 .307-.123.4.4 0 0 1 .308.117.45.45 0 0 1 .113.322.45.45 0 0 1-.113.321m2.3.733q.64-.8.64-1.209 0-.363-.246-.567t-.69-.202c-.295 0-.511.075-.67.226q-.236.225-.236.639v.048h.558v-.013a.48.48 0 0 1 .093-.312.31.31 0 0 1 .253-.116q.171 0 .268.092a.33.33 0 0 1 .097.257.6.6 0 0 1-.08.272 3 3 0 0 1-.285.42l-.984 1.293h1.918v-.457h-.936l.255-.32.04-.048zm2.563-.636a.53.53 0 0 0 .338-.204.65.65 0 0 0 .128-.402.67.67 0 0 0-.236-.538q-.238-.199-.64-.2c-.268 0-.5.064-.655.191q-.236.191-.257.544h.526a.3.3 0 0 1 .11-.213.4.4 0 0 1 .255-.074q.153 0 .248.092.093.09.093.239 0 .174-.102.262-.102.09-.307.089l-.033-.002-.034-.002v.485s.022 0 .038-.002l.035-.002q.228 0 .347.105.117.105.117.306a.39.39 0 0 1-.114.296.46.46 0 0 1-.324.105.44.44 0 0 1-.294-.094.3.3 0 0 1-.112-.244v-.008h-.546v.022q0 .353.258.57.259.217.684.216.468 0 .738-.22a.74.74 0 0 0 .271-.602.75.75 0 0 0-.145-.467.63.63 0 0 0-.387-.244z" clip-rule="evenodd" data-source="https://football-logos.cc"></path><path fill="#fff" fill-rule="evenodd" d="m5.298 22.424.954.265-.255.921-.954-.264-.234.843 2.725.758.235-.843-1.103-.306.255-.922 1.102.306.235-.846-2.725-.759zm.992-2.654 2.018 2.254.412-.794-.35-.338.46-.883.479.094.424-.812-3-.365-.443.846zm1.913.118-.288.554-.757-.747zm1.612-2.555q.309-.43.26-.782-.046-.35-.396-.6-.338-.243-.66-.182-.32.06-.598.448L7.576 17.4l2.303 1.648.51-.717-.854-.611.278-.39zm-.62-.117-.124.174-.514-.367.145-.202q.143-.199.27-.219a.32.32 0 0 1 .236.06.28.28 0 0 1 .123.214q.011.136-.136.34m3.395-3.486q-.477-.49-1.014-.496-.54-.005-1.046.489-.495.481-.502 1.028-.008.546.475 1.045.346.356.715.457.37.103.7-.009.333-.109.676-.444.338-.329.44-.676c.067-.231.07-.463 0-.692q-.102-.344-.448-.702zm-.472 1.62a.53.53 0 0 1-.441.167q-.246-.023-.543-.33-.303-.312-.318-.557a.53.53 0 0 1 .175-.43.55.55 0 0 1 .442-.172q.244.02.522.306.331.342.349.58a.54.54 0 0 1-.186.438zm3.468-2.736-1.241.86-.317-.46 1.118-.775-.328-.476-1.119.775-.255-.37 1.207-.836-.343-.498-1.927 1.335 1.61 2.33 1.962-1.358-.365-.53zm2.812-.649-.29-.633-1.242.57-.887-1.942-.794.364 1.177 2.576 2.036-.933zm1.841-2.752.475 2.078.853-.194-.475-2.08.87-.197-.157-.682-2.59.593.157.682.869-.199zm4.985 1.629-.006-.641-1.51.01-.003-.558 1.36-.01-.006-.577-1.36.01-.003-.45 1.465-.01-.005-.604-2.342.018.022 2.832 2.384-.019zm2.793-.421-1.352-.19.294-2.115-.866-.121-.39 2.806 2.218.31zm1.502-.327-1.115-.248-.132.593 1.115.248zm.649 1.601.291-.39.934.346-.033.487.856.32-.01-3.027-.894-.332-1.98 2.286.838.312zm1.326-1.746-.06 1.063-.586-.216zm4.586 1.462-.773-.435-1.545 1.469.444-2.088-.798-.45-.454 2.993.825.465zm.595.483-1.746 2.226.687.541 1.746-2.227-.687-.542zm2.758 2.433-1.862 1.038.947-1.914-.66-.633-1.183 2.785.684.656 2.714-1.32-.642-.614zm1.65 5.027.479-.313-.598-.92.415-.27.698 1.078.51-.332-1.177-1.815-2.371 1.545.478.736.968-.631.598.92zm-.322.29-.692.376.4.74.691-.376zm3.167 1.954q-.209-.653-.68-.895-.475-.242-1.143-.027-.504.16-.76.466t-.297.626q-.038.32.101.76.116.364.295.565.181.202.437.293.256.094.587.068l-.011-.802a.86.86 0 0 1-.446-.053q-.172-.08-.25-.32a.5.5 0 0 1 .045-.437q.123-.19.572-.332.362-.116.569-.056a.51.51 0 0 1 .366.362.503.503 0 0 1-.073.463.7.7 0 0 1-.154.14l.398.684q.383-.277.495-.635.113-.357-.05-.869zm-2.258 2.574.187.82.769-.177-.187-.819-.767.176zM24.077 34.293l2.009-2.4.122-2.28c3.773-.304 6.665-3.567 6.665-7.477 0-4.11-3.283-7.443-7.33-7.443-2.55 0-4.789 1.327-6.102 3.333a6.93 6.93 0 0 1 5.319-2.498c3.85 0 6.974 3.172 6.976 7.083 0 2.974-1.797 5.52-4.358 6.57a3 3 0 0 1-.188.073L25.726 22.6l-.508.015.543-.252.7-1.944 3.28-.261-2.7-2.21c-1.04-.79-1.14.533-.231.58a1 1 0 0 1 .103.012l.796.784-2.441-.32c-.318-.16-.118-.664-.048-.953.06-.284.064-.582 0-.855-.233-.551-1.021-.592-1.517-.548-.462.043-.596.636-.12.807-.105 1.395.518.852.52 1.34l-4.664-.771-1.127-.143c-1.479-.272-.694 1.17.067.582h.068l4.405 1.164.921 3.012-1.955 5.919-3.437-3.388c-.854.064-1.131.5-1.111 1.265l6.941 5.441-1.2 1.442 1.068.971zm-1.82-5.289 2.512-4.218 1.806 4.664c-.15.052-.253.092-.405.133l-1.54 1.803zm-3.868 6.714h-2.456v.74h1.718v1.06h-1.718v.74h2.773v-.74h-.317zm.572 1.069h.739v-1.069h-.74zm3.48-1.069h-2.455v.74h1.718v1.06h-1.718v.74h2.773v-.74h-.317zm3.195 1.091v-1.09h-.739v.765l-.29.259-.73-1.025h-.865l.651.93-.651.52v1.09h.739v-.74l.32-.277.725 1.017h.875l-.642-.91.607-.537zm.321.353h1.596v-.74h-1.596zm2.602-1.778h-.739v1.074h1.798v.669l-.998 1.131h.94l.797-.907v-1.633H28.56zm2.405 2.134h-.334v.74h1.073v-1.8h1.058v1.8h.74v-2.54h-2.537zm-3.69-5.917h.297v.736h.922v-.736h1.094v1.326h-2.319v.923h3.241v-3.173h-3.235zm3.95 0h2.247v2.25h.922v-3.174h-3.169zm.923.747h-.923v1.502h.923zm-7.187-5.42h-.923v3.174h.923zm-9.218 6.89h1.176l.994-1.134v-2.04h-2.247v-.419h-.922v1.343h2.246v.835zm3.37-3.174v2.25h-.468v.923h2.318l.801-.885v-2.288h-.922v1.941l-.281.309h-.528v-2.25h-.923z" clip-rule="evenodd"></path><path fill="#FF1521" d="m21.774.45.578 1.308 1.42.145-1.062.955.299 1.398-1.235-.716-1.234.716.3-1.398-1.065-.955 1.422-.145zM26.775.45l.578 1.308 1.42.145-1.063.955.3 1.398-1.235-.716-1.234.716.299-1.398-1.062-.955 1.42-.145z" data-source="https://football-logos.cc"></path><!-- source: https://football-logos.cc --></svg>