<svg xmlns="http://www.w3.org/2000/svg" viewBox="27.07 183.73 735.79 735.79"><!-- Source: https://football-logos.cc --><path d="M572.646 427.67c0-152.386-123.535-275.921-275.92-275.921-152.387 0-275.92 123.535-275.92 275.922 0 152.386 123.533 275.92 275.92 275.92 152.385 0 275.92-123.534 275.92-275.92" style="fill:#184c84;fill-opacity:1;fill-rule:nonzero;stroke:none" transform="matrix(1.33333 0 0 -1.33333 -.667 1121.853)" data-source="https://football-logos.cc"></path><path d="M85.925 424.306c1.797-114.886 95.489-207.464 210.8-207.464 116.436 0 210.827 94.391 210.827 210.829 0 116.435-94.391 210.826-210.827 210.826-75.104 0-141.037-39.272-178.381-98.402 0 0-7.3-1.5-13.498-5.327s-7.473-6.38-10.207-9.844-4.922-9.113-6.199-12.212c-1.275-3.099-3.645-5.104-8.202-11.667-4.556-6.562-6.015-10.571-8.931-15.675-2.917-5.104-5.104-9.661-5.104-20.78s3.828-18.775 8.384-27.16c4.558-8.385 11.338-13.124 11.338-13.124" style="fill:#fff;fill-opacity:1;fill-rule:nonzero;stroke:none" transform="matrix(1.33333 0 0 -1.33333 -.667 1121.853)"></path><path d="M202.465 302.065c2.292 2.833 3.911 4.852 3.911 4.852s2.552-4.01 6.015-7.108c3.464-3.099 5.287-4.375 16.77-4.193s23.514.364 23.514.364-3.107-2.273-18.957-3.827c-9.296-.911-17.947-2.034-21.873.911-5.834 4.375-9.38 9-9.38 9" style="fill:#231f20;fill-opacity:1;fill-rule:nonzero;stroke:none" transform="matrix(1.33333 0 0 -1.33333 -.667 1121.853)"></path><path d="M223.51 545.705c4.706 3.795 24.328 9.485 30.76 11.283 1.292.36 2.703.31 3.846-.13 4.817-1.843 18.37-6.932 28.828-9.878 10.218-2.877 22.595-6.552 27.353-7.97 1.268-.38 2.419-1.481 2.625-1.922 7.713-16.45 10.334-31.733 11.4-40.964 1.094-9.478 3.098-20.78 2.552-31.352-.396-7.654-.365-10.937-3.281-13.854s-11.667-8.749-23.515-18.228c-11.848-9.478-18.775-16.04-22.055-20.232s-4.74-4.193-11.484-4.01c-6.745.182-8.567.91-20.598 4.374s-15.858 4.74-15.858 4.74l.546-6.016s22.786-5.468 31.718-9.296c5.234-2.244 8.34-4.424 10.014-5.845 1.183-1.003 1.814-2.242 2.148-3.39 1.125-3.865 4.19-13.79 9.529-26.856 5.733-14.03 13.088-26.561 15.454-30.465.492-.814.592-1.694.207-2.626a647 647 0 0 0-4.542-10.657c-3.484-8.012-6.726-11.683-15.494-21.144-6.927-7.474-13.839-9.585-21.69-9.843-11.12-.365-24.427-2.37-35.546-2.735s-13.489.547-18.046 4.557-7.488 6.878-7.488 6.878c-4.578-5.643-10.676-13.085-12.745-15.262-3.463-3.646-9.81-3.976-9.81-3.976 32.365-26.136 73.548-41.787 118.387-41.787 104.144 0 188.57 84.427 188.57 188.572 0 104.143-84.426 188.569-188.57 188.569-49.342 0-94.258-18.952-127.866-49.974 0 0 2.52-.146 5.071 1.312 2.552 1.458 8.02 5.286 10.937 6.38 2.916 1.093 8.899.122 13.488-2.37 12.76-6.926 14.036-12.76 14.036-12.76s5.468 5.287 14.036 12.213c8.567 6.927 19.14 13.671 20.597 14.4s1.823-.911 1.458-4.01c-.363-3.098 0-9.114-1.093-10.754-1.094-1.64-4.556-3.828-14.035-10.755-7.109-5.194-10.732-8.236-12.1-9.433 0 0 .373-1.383 1.102-2.84.73-1.46 1.154-1.944 1.154-1.944" style="fill:#231f20;fill-opacity:1;fill-rule:nonzero;stroke:none" transform="matrix(1.33333 0 0 -1.33333 -.667 1121.853)"></path><path d="M162.204 290.968v13.58l1.063.06h30.258c1.003.973 3.008 3.646 3.008 3.646h-7.291l-.972.049v13.835l.06 1.063h19.14c1.914 2.249 2.006 3.646 2.006 3.646h-46.574l-.698-.06v14.855l.698.03h54.594c.456 2.127.728 3.646.728 3.646h-5.832s.09 1.792 1.458 7.625 2.31 7.079 2.31 7.079h4.494s.365 1.337 1.216 4.86c.699 2.896 1.702 4.983 1.702 8.021s-.365 4.618.242 7.412c.608 2.795-1.336 4.74-3.28 9.236-1.945 4.497-1.216 7.17.242 8.75s.851 2.308.122 3.645c-.73 1.337 1.823 4.496 3.646 7.17s2.187 5.346 1.215 7.899-1.094 4.01-.122 7.413a710 710 0 0 1 3.16 11.422c.972 3.646 1.944 5.712 2.066 12.152.121 6.441-.244 9.722-2.188 15.069s-2.916 7.777-2.916 10.451c0 2.673 2.795 4.496 5.954 5.954 3.16 1.459 5.104 3.767 5.469 9.235.364 5.469-1.216 11.666-3.282 15.798s-3.888 5.225-4.01 7.535c-.121 2.309 1.094 4.86-.607 8.992s-5.469 8.992-8.02 11.788c-2.553 2.794-4.619 6.562-5.347 8.87-.73 2.309-1.702 3.281-3.403 3.281s-2.795 1.702-3.645 3.89c-.85 2.186-2.066 3.887-3.889 6.318s-4.375 5.104-6.927 6.926-7.412 3.768-10.086 3.525-4.86-1.823-7.899-4.01c-3.037-2.187-4.618-2.917-6.684-3.039-2.065-.121-3.888-.364-5.346-2.065s-4.74-2.674-7.413-4.74c-2.673-2.065-6.805-4.86-9.114-6.562-2.309-1.7-3.524-2.551-4.74-2.066-1.215.487-1.215.365-2.43-.728-1.215-1.094-3.524-1.702-5.711-1.702s-3.281-2.188-7.17-5.043c-5.217-3.831-9.661-4.375-17.134-6.562s-9.479-5.286-11.302-7.474c-1.823-2.187-4.921-6.38-6.197-10.207s-1.823-4.74-5.468-9.479c-3.646-4.74-6.38-8.749-8.75-14.035s-6.015-10.025-7.109-15.494-.364-11.666-.364-11.666 2.37 2.005 8.02 3.646c5.65 1.64 10.39 1.64 14.4 1.093 0 0-.243 2.673-3.767 4.618 0 0 .608 1.945-.85 2.309-1.459.364-.852 1.458-2.31 1.823-1.458.364-3.767.729-3.888 1.7-.122.973 1.822.73 5.104.487s10.693-3.038 14.096-8.993c0 0 5.59 4.497 10.694 5.712s9.357.972 13.245.972c3.89 0 4.375-1.094 2.674-1.823s-2.916-1.458-4.496-1.215c-1.58.244-.73-1.215-3.16-1.093-2.43.12-4.174-.628-2.794-.973 1.458-.364 1.822-1.093-.122-2.065-1.944-.973-3.646-2.431-1.216-2.431 2.431 0 8.264.244 13.246-4.253s7.778-7.292 11.787-16.892c4.011-9.6 3.768-15.676 2.431-13.974s-4.253 4.738-4.497 7.412c-.242 2.674-.728 3.16-.972 1.702-.242-1.459-1.336-.972-1.7 1.458-.365 2.43-.851 1.944-.851.73 0-1.216-.608-1.58-1.945-.244-1.336 1.337-1.58 4.618-2.187 3.889-.608-.73-.85-1.701-1.944-.608-1.094 1.094-2.31 1.58-1.337-.608.973-2.187 1.945-11.3.243-18.592s-2.795-8.87-3.28-6.197a436 436 0 0 0-1.46 8.628c-.242 1.58.608 1.7.851 3.16.244 1.457-.03 1.317-.729.12-.85-1.458-.972-.608-2.552 1.824-1.58 2.43-1.093 2.55-.486 4.252.608 1.702 0 1.58-.729.73-.73-.85-1.823-.244-.972 2.065.85 2.309.364 2.43-.243 1.216-.607-1.216-1.094-1.337-2.917 1.215s-5.59 7.048-8.992 8.992c0 0 3.038-7.291 5.225-14.218 2.188-6.926 10.937-37.307 9.722-72.06l2.917-3.403c1.458-1.702 1.944-4.132 1.822-6.198s.855-4.34 2.309-6.197c2.188-2.796 3.889-6.806 3.889-6.806h19.656l1.366-.03v-14.764l-1.275-.03h-18.228s1.002-1.945 2.096-3.647h43.473v-14.916l-.638-.03h-44.75s1.185-2.128 1.914-3.647h16.498l.91-.06v-13.853l-.029-1.185h-9.358s1.367-1.55 5.56-3.646 9.114-2.552 12.395-1.185 9.479 4.831 9.479 4.831h-14.31z" style="fill:#3fb1e5;fill-opacity:1;fill-rule:nonzero;stroke:none" transform="matrix(1.33333 0 0 -1.33333 -.667 1121.853)"></path><path d="m147.425 237.692-8.757-9.967-.784-.863 1.58-1.388c1.237-1.06 1.29-2.551-.222-4.273s-2.954-1.9-4.19-.841l-22.04 19.363c-1.211 1.09-1.22 2.542.293 4.264s3 1.86 4.21.77l14.842-13.039s.126 2.886 2.61 5.682l5.254 5.98c2.89 3.32 3.048 7.245 2.023 9.46-1.44 3.113-5.593 6.52-8.33 7.24-2.74.72-3.164 1.334-2.746 3.454s2.494 3.118 5.235 2.304c3.31-.982 10.559-5.343 13.203-10.555 2.97-5.854 2.492-12.303-2.18-17.59M275.724 169.018c-.144-2.167.012-3.447 4.186-3.704 4.254-.263 4.794.588 4.96 3.096l1.992 29.965c.167 2.507-.256 3.422-4.507 3.725-4.171.297-4.495-.95-4.64-3.117zM191.342 216.781l-5.468-9.097c-3.418-5.686-6.904-7.39-10.008-8.338-4.004-1.223-8.057-.644-12.864 2.245-4.704 2.828-7.37 5.416-8.784 9.502-1.413 4.087-1.182 8.451 1.13 12.198l9.673 16.09c1.119 1.861 1.977 2.824 5.55.652 3.643-2.214 3.6-3.22 2.306-5.374l-9.734-16.195c-2.002-3.23-2.223-7.811 2.585-10.7 4.91-2.952 8.935-.939 11.513 3.351l6.742 11.216c.715 1.19.552 1.388.208 1.635-.589.423-1.52.28-3.972-1.342s-6.148-4.607-8.608-3.199-3.7 3.21-1.112 4.82c2.586 1.611 8.039 5.3 10.688 5.96 3.31.824 4.758.658 8.17-1.393 4.29-2.579 4.906-7.171 1.985-12.03M449.95 245.439l12.407-16.092c2.309-2.993 1.62-4.537-1.576-7.001l-10.125-7.806c-1.301-.978-2.729-.708-4.128 1.106s-1.25 3.3.052 4.28l7.192 5.544-.441.573-10.954 14.207c-1.768 2.293-4.45 2.576-6.455 1.03s-1.816-3.077-2.306-3.529c-.488-.454-.991-.689-3.011.647s-1.645 3.355-.59 5.409c1.034 2.015 4.466 5.957 10.023 6.357 4.839.348 7.844-2.009 9.912-4.725M372.35 206.667l7.565-24.972c.728-2.405.522-3.392-3.55-4.647-3.997-1.232-4.594-.089-5.223 1.99l-6.498 21.45c-.912 3 .897 4.746.897 4.746l-16.416-4.973c-1.553-.491-2.85.25-3.514 2.444-.664 2.192-.055 3.51 1.498 4.003l27.422 8.307c1.565.452 2.803-.307 3.468-2.5.664-2.194-.003-3.53-1.567-3.982l-4.254-1.289zM237.001 196.508l-2.317-12.021c-.673-3.494-1.603-5.77-3.854-5.337-2.25.434-1.726 1.56-3.029 1.812-1.303.251-2.235-.382-2.417-2.666-.218-2.721.836-4.583 5.988-5.576 7.224-1.393 10.875 2.57 12.29 9.914l3.288 17.055.126.65 7.343-1.415c2.605-.502 4.257-1.864 3.622-5.611l-4.14-21.475c-.411-2.132-.415-3.422 3.695-4.194 4.189-.787 4.83-.009 5.306 2.458l4.105 21.297c.786 4.208.503 6.087-1.648 9.162-1.588 2.273-4.096 3.923-8.536 4.779l-20.86 4.02c-1.602.288-2.755-.595-3.19-2.845-.433-2.25.369-3.51 1.971-3.798l5.225-1.008s-2.203-1.235-2.968-5.2M228.292 218.46c-.928 2.247-2.022 2.845-3.407.869s-2.445-3.817-4.895-7.032-2.533-3.226-2.29-5.131c.242-1.903.622-2.708 2.435-1.574 1.813 1.136 4.765 3.303 7.377 5.722 2.092 1.939 2.34 3.37.78 7.146M388.138 225.363c-2.145 1.142-3.37.907-3.181-1.499s.542-4.5.697-8.538c.156-4.038.098-4.102 1.497-5.416 1.398-1.315 2.204-1.695 2.881.335.677 2.029 1.574 5.579 2.051 9.108.38 2.826-.338 4.088-3.945 6.01M321.748 187.691l.977-18.648c.132-2.51-.304-3.418-4.559-3.661-4.175-.239-4.481 1.013-4.595 3.181l-.958 18.286c-.364 5.962-4.95 8.197-8.383 8.017s-6.231-.93-7.857-2.163-2.102-.23-2.612 1.433-.484 3.698 1.855 4.929c5.995 3.152 15.745 3.784 20.745-.604 3.025-2.653 5.04-5.11 5.387-10.77M119.054 264.949l-14.48-11.792c-1.949-1.587-2.94-1.772-5.646 1.52-2.657 3.23-1.826 4.216-.143 5.588l14.2 11.563c4.598 3.81 3.696 8.832 1.526 11.498s-4.429 4.483-6.383 5.068c-1.955.585-1.427 1.56-.384 2.954 1.042 1.393 2.7 2.572 5.074 1.41 6.081-2.98 12.345-10.479 11.752-17.105-.358-4.008-1.152-7.084-5.516-10.704M88.968 299.913c-1.836-1.16-2.778-2.038-.529-5.564 2.293-3.594 3.299-3.528 5.423-2.187l13.252 8.366c2.124 1.342 2.615 2.222.357 5.836-2.216 3.547-3.415 3.074-5.25 1.915zM423.045 217.084c1.141-1.848 2.01-2.8 5.558-.585 3.617 2.255 3.562 3.261 2.243 5.398l-8.233 13.337c-1.319 2.138-2.195 2.638-5.831.416-3.57-2.18-3.11-3.383-1.969-5.231zM334.91 170.864c.358-2.141.804-3.351 4.925-2.64 4.201.723 4.53 1.676 4.115 4.154l-4.96 29.62c-.416 2.478-1.038 3.27-5.245 2.586-4.128-.67-4.155-1.96-3.797-4.101zM86.374 310.508l-17.197-8.16c-2.271-1.077-3.278-1.02-5.122 2.82-1.811 3.77-.77 4.53 1.192 5.46l17.689 8.394c3.683 1.806 4.71 5.83 2.606 11.106-2.054 5.154-4.502 7.944-6.05 8.812-1.546.867-1.265 1.402.544 2.794s3.885 1.56 6.032-.475c2.91-2.758 8.453-12.61 8.642-16.526.358-7.404-2.893-11.631-8.336-14.225m-30.273 19.395c-1.962-.93-3.003-1.69-1.192-5.46 1.845-3.841 2.852-3.899 5.122-2.821l15.27 7.246c2.27 1.077 2.863 1.892 1.054 5.752-1.774 3.787-3.022 3.46-4.984 2.53zM471.3 235.565c1.478-1.59 2.515-2.354 5.565.508 3.109 2.916 2.86 3.893 1.149 5.733l-20.447 21.998c-1.71 1.84-2.666 2.16-5.801-.728-3.077-2.832-2.39-3.923-.912-5.513zM498.383 287.649c1.82-1.182 3.014-1.67 5.275 1.846 2.306 3.586 1.826 4.472-.281 5.84l-13.142 8.539c-2.107 1.369-3.111 1.447-5.45-2.116-2.295-3.497-1.365-4.387.456-5.571zM488.777 281.94l14.508-11.758c1.951-1.582 2.336-2.515-.333-5.838-2.617-3.261-3.753-2.65-5.44-1.284l-14.225 11.53c-4.673 3.72-9.403 1.81-11.567-.86-2.165-2.67-3.481-5.253-3.654-7.286s-1.235-1.716-2.813-.98c-1.577.734-3.07 2.116-2.419 4.677 1.671 6.563 7.729 14.23 14.336 15.006 3.996.47 7.17.322 11.607-3.207M525.89 313.277l-6.409-12.436c-.764-1.44-.27-2.847 1.768-3.897s3.444-.69 4.208.748l5.857 11.365c2.726 5.242 1.745 9.616.834 12.324-1.168 3.476-2.91 6.725-8.538 9.627l-14.706 7.579c-2.234 1.152-3.24 1.128-5.212-2.65-1.933-3.709-.917-4.503 1.013-5.498l14.864-7.661c2.788-1.439 3.986-2.715 3.986-2.715l-25.865-.78c-1.76-.053-2.665-.161-4.507-3.735s-2.621-5.65 1.228-5.535l25.294.763c3.036.175 4.782 1.54 6.642 3.415zM369.274 572.682c-2.874 3.83-10.937 16.405-18.107 23.696-1.637 1.664-1.094 2.187 1.395 1.391 3.405-1.09 6.75-2.326 10.055-3.633 45.149-17.862 81.223-53.422 99.476-98.02 0 0-4.353-2.543-9.578-3.88 0 0-1.58-8.75-2.066-26.978s.243-27.099.243-27.099-1.337-2.795-12.395-8.385-22.481-11.787-27.099-14.339-5.103-1.215-1.58.972c3.525 2.187 7.413 4.982 5.712 4.982s-8.992-1.823-15.433-2.065c0 0-16.892 11.3-30.016 19.564s-23.331 13.367-25.276 14.704c-1.944 1.337-4.244 8.309-6.076 13.367-2.552 7.048-6.168 33.177-6.805 40.71-.729 8.627 0 20.172.365 26.37.365 6.197.972 7.413 5.346 9.842s20.416 11.423 26.37 15.069 7.534 4.618 12.76 2.066 21.873-10.937 28.193-15.555c6.319-4.618 13.975-11.18 17.377-14.34 3.403-3.16 4.982-4.86 4.982-4.86s-.85 1.701-6.076 7.778c-5.226 6.075-15.311 15.675-26.37 22.48-11.058 6.806-17.133 9.236-19.2 10.087-2.066.85-3.645 2.673-6.197 6.076" style="fill:#fff;fill-opacity:1;fill-rule:nonzero;stroke:none" transform="matrix(1.33333 0 0 -1.33333 -.667 1121.853)" data-source="https://football-logos.cc"></path><path d="M346.55 590.06c-1.583 2.034-2.796 1.944-.972-1.095 1.822-3.037 5.346-10.45 7.17-13.002 1.821-2.552 1.943-4.497-.852-6.927s-8.384-6.197-14.582-10.815c-6.197-4.618-7.292-5.712-6.076-5.712s7.899 3.89 13.246 6.806 11.909 7.17 13.245 9.479c1.337 2.309 1.459 4.01-.729 7.169-2.187 3.16-7.899 10.815-10.45 14.097M465.518 487.132c-.997.663-.487-1.094.486-5.104.972-4.01 4.86-20.294 6.562-32.568s1.58-14.338 2.187-14.217c.608.121 1.216 6.804.973 14.339-.244 7.534-3.16 21.387-5.47 27.342-2.308 5.954-3.645 9.479-4.738 10.208M471.958 397.207c-4.375-23.696-13.465-45.506-25.866-64.294 0 0-1.111-1.692-8.16-4.851-7.048-3.16-20.9-9.6-24.668-11.666-3.767-2.066-4.253-1.944-5.59-.85s-6.684 7.413-9.478 10.936c-2.795 3.525-5.348 8.993-7.048 13.368-1.702 4.375-1.216 5.468 1.094 10.815 2.308 5.347 4.738 11.787 7.655 26.248s2.43 22.724 4.132 25.276c1.7 2.552 8.87 7.9 13.367 11.302s9.843 6.32 17.377 9.72c7.534 3.404 14.534 6.397 15.92 6.077 1.579-.364 2.307-1.215 6.682-9.114s14.583-22.967 14.583-22.967M364.656 432.812c-2.612 1.455-2.066.122 0-1.701s13.61-10.572 18.957-14.218c5.347-3.645 8.142-6.198 8.87-8.871.73-2.673.73-4.861-.485-16.648-1.215-11.788-1.944-17.256-2.066-19.08-.121-1.821.608-2.43 1.701 1.824 1.094 4.253 3.89 14.096 4.74 24.547.85 10.45 1.093 12.517-5.468 17.5-6.563 4.981-17.742 11.908-26.249 16.647M404.029 311.778c0-.73-4.496-5.832-10.816-13.488-6.319-7.656-17.863-23.332-20.416-26.37-2.551-3.038-2.579-3.548-5.056-4.63-13.611-5.942-28.126-10.32-43.305-12.515-4.134-.597-5.836.86-8.388 3.778-2.552 2.916-11.909 12.273-21.387 18.957-9.479 6.683-13.732 9.721-13.368 11.545.365 1.822 1.945 4.374 5.104 7.533 3.16 3.16 11.423 13.367 14.218 16.405s5.712 5.712 12.03 11.06c6.32 5.345 7.048 5.954 13.61 5.832s15.434.243 23.454.971c8.02.73 16.163 2.188 21.51 3.525 5.346 1.337 7.047 1.58 11.3-1.215s7.656-5.104 10.815-8.507c3.16-3.402 10.695-12.88 10.695-12.88M140.938 345.318h39.736s-2.672 9.965-3.887 14.704H144.34s-2.551-9.357-3.403-14.704" style="fill:#fff;fill-opacity:1;fill-rule:nonzero;stroke:none" transform="matrix(1.33333 0 0 -1.33333 -.667 1121.853)"></path><path d="M188.786 373.146h-9.205v14.34h-34.633v-24.548h4.74v19.808h25.154v-9.597l-1.276-.003h-2.491v-10.178h4.74v5.439h27.098v-23.105l4.74-.015v27.859h-10.026s-1.914 8.415-1.914 15.433 2.096 24.516 5.195 31.899c0 0 .729-.547 1.458-3.737.73-3.19.73-7.2 1.003-8.111s-.456-2.096-.912-3.737c-.456-1.64-1.185-3.372-.091-3.007 1.093.363 2.825 2.095 4.375 5.285s2.005 5.196 2.096 8.203c0 0 1.185-.638 1.731-1.823.547-1.184.912-1.913 1.641-1.367.729.547.456-.912.456-1.914s.82-2.552 1.64-1.64c.82.911.912-.456.912-2.096s.273-3.464 1.367-3.555c1.094-.09.547.73.638 4.922s-.456 11.028-5.651 16.313c0 0 .638.092 1.185.73.547.637 2.37-.912 3.099-.456s.911.456 2.734-.182 2.552-.365.182 1.64-6.744 5.287-14.035 3.828c0 0 0 1.55 2.096 3.372 2.096 1.823 5.104 2.37 3.463 2.917-1.64.547-7.291 0-10.481-4.74 0 0-1.367 1.641-5.195 3.008-3.827 1.367-10.85.627-9.66-.364.546-.456 2.187-.82 3.827-1.367s2.643-1.459 3.28-2.552c0 0-4.1-.365-7.38-2.917-3.282-2.552-5.652-5.742-7.019-11.119s-1.458-6.653-.547-6.288c.912.364 2.279 2.46 3.099 4.283.82 1.822 2.187.911 3.008 2.005.82 1.094 1.914 1.823 1.914 1.823s-.092-3.007-.182-6.289c-.092-3.281.364-6.47 1.093-7.473.73-1.003 1.094-2.826 1.64 1.094.547 3.918.82 4.648 1.914 6.561s1.277 3.008 2.279 4.375 2.552 3.828 5.012 5.013c0 0-2.004-4.01-4.83-16.04-2.825-12.032-3.463-25.216-3.28-31.93z" style="fill:#fff;fill-opacity:1;fill-rule:nonzero;stroke:none" transform="matrix(1.33333 0 0 -1.33333 -.667 1121.853)"></path><path d="M75.56 457.116s.122-2.673 1.093-4.86c.973-2.188 2.553-4.74 2.553-4.74s1.458 2.796 2.916 4.74c1.459 1.944 4.618 3.767 2.309 3.645s-2.795 0-1.945 1.58c.851 1.58-.12.85-1.943-.486-1.823-1.337-2.917-2.795-3.403-1.094-.487 1.702-1.58 1.215-1.58 1.215M89.899 439.86s-2.552-2.43-3.402-4.253c0 0 2.065-2.066 4.86-3.888 0 0-1.336 3.038-1.458 8.141M104.968 449.46s-1.823-2.43-2.552-4.739 0-3.767-1.216-3.645-1.7-.608-.971-1.701c.729-1.094.243-3.16.243-6.32 0-3.159-.243-3.159-1.337-2.794s-1.337-.122 0-1.459c1.337-1.336 1.7-3.16-.122-1.823s-2.065.851-.729-.486c1.337-1.337 2.552-3.524 3.768-6.44s3.888-8.871 4.982-15.92c1.093-7.048 1.944-12.516 3.16-17.741 1.214-5.225 2.187-7.413 2.673-7.413s.972 3.646.972 11.544c0 7.9-1.337 23.332-2.552 32.446-1.215 9.115-6.319 26.491-6.319 26.491" style="fill:#3fb1e5;fill-opacity:1;fill-rule:nonzero;stroke:none" transform="matrix(1.33333 0 0 -1.33333 -.667 1121.853)"></path><path d="M194.437 470.15c-1.09.12-1.367 1.093-3.554 2.916-2.188 1.823-4.102 2.46-6.107 2.005s-4.465-.73-3.007.455 3.554 1.732 5.923 1.641 4.284-.729 6.562-2.917c0 0 2.735 2.553 5.56 2.735s4.83-.091 6.836-1.276c2.005-1.185.911-1.459-2.005-1.094s-5.378-.182-6.653-1.458c-1.277-1.276-1.914-3.19-3.555-3.008M176.209 457.572s-1.002 1.458-4.01 1.732c-3.008.273-4.467-.82-4.193-1.458s2.005 0 3.555-.365 2.825-1.276 3.463-2.279 1.458-1.002 2.643.183c1.185 1.184 1.823 2.37 3.372 2.37 1.55 0 4.102-.82 2.279.637-1.823 1.459-5.013 1.276-7.109-.82M95.653 534.615l-23.896 13.178q-1.861 1.026-2.355 2.333-.495 1.307.2 2.565.714 1.294 2.079 1.59 1.362.296 3.244-.742l23.897-13.178q1.884-1.038 2.371-2.355.488-1.318-.226-2.611-.683-1.239-2.068-1.522-1.382-.284-3.246.742M98.14 560.4l-1.305-1.881 9.142-6.342q1.806-1.252 2.144-2.59.337-1.336-.494-2.534-.895-1.29-2.277-1.38t-3.108 1.11l-21.868 15.17q-1.86 1.29-2.154 2.649-.294 1.356.913 3.096l6.07 8.75q1.257 1.81 2.316 2.983 1.057 1.17 2.28 1.853a8.2 8.2 0 0 0 3.143 1.1 8.7 8.7 0 0 0 3.446-.224 10.5 10.5 0 0 0 3.28-1.535q3.176-2.205 3.908-5.2t-.842-6.96q1.811.869 4.308 1.073a30 30 0 0 0 5.004-.018q2.507-.22 4.35-.65 1.844-.431 2.385-.807.564-.39.884-1.11a2.94 2.94 0 0 0 .238-1.522q-.085-.803-.611-1.564-.63-.907-1.514-1.207a5.2 5.2 0 0 0-1.89-.26q-1.009.04-2.895.22l-5.341.508q-2.919.309-4.659.163-1.739-.145-2.8-.803-1.06-.66-2.052-2.088m-9.773 11.337-3.44-4.957 7.789-5.404 3.339 4.812q1.343 1.937 1.902 3.504.557 1.569.18 2.863-.375 1.293-1.883 2.34-1.179.817-2.467.88a4.2 4.2 0 0 1-2.422-.624q-1.078-.646-2.998-3.414M107.771 605.125q3.45 3.667 7.516 4.801 4.066 1.133 8.272-.274 4.205-1.41 8.164-5.132 2.925-2.75 4.621-5.743 1.698-2.99 2.06-6.12a13.35 13.35 0 0 0-.735-6.16q-1.099-3.032-3.716-5.813-2.603-2.77-5.617-4.059-3.012-1.288-6.128-1.12-3.115.17-6.262 1.723-3.147 1.55-5.987 4.221-2.909 2.734-4.602 5.798t-2.004 6.145a13.4 13.4 0 0 0 .782 6.057q1.093 2.97 3.636 5.676m19.36-5.419q-2.775 2.61-5.595 3.687-2.82 1.074-5.322.505-2.504-.572-4.394-2.582-1.346-1.431-1.91-3.188a8.06 8.06 0 0 1-.285-3.671q.279-1.914 1.517-4.033t3.376-4.129q2.153-2.026 4.37-3.156t4.233-1.284q2.015-.154 3.711.51 1.695.663 3.04 2.094a8.4 8.4 0 0 1 2.187 4.292q.462 2.46-.734 5.298-1.197 2.838-4.195 5.657M135.663 625.439l22.626-8.297-12.74 16.275q-1.24 1.586-1.239 2.868t1.062 2.111q1.094.857 2.345.561 1.25-.296 2.489-1.877l16.791-21.452q2.81-3.592.055-5.748-.69-.538-1.407-.757-.72-.218-1.563-.131a8.3 8.3 0 0 0-1.744.384q-.9.298-1.821.624l-22.16 8.207 12.475-15.936q1.22-1.56 1.17-2.885t-1.106-2.151q-1.091-.853-2.38-.56-1.29.295-2.499 1.84l-16.471 21.044q-1.047 1.338-1.369 2.319a3.76 3.76 0 0 0 .024 2.223q.349 1.127 1.234 1.821.694.542 1.378.687.685.145 1.38.027.695-.12 1.597-.467.9-.347 1.873-.73M173.557 619.214l-14.453 23.148q-1.125 1.803-.92 3.184.205 1.383 1.424 2.143 1.255.783 2.59.377t2.473-2.229l14.452-23.148q1.14-1.824.925-3.212-.217-1.386-1.47-2.17-1.2-.75-2.547-.323-1.348.426-2.474 2.23M201.217 668.205l8.063 2.876q3.144 1.121 5.617 1.3 2.471.178 4.919-.882 6.322-2.663 9.498-11.564 1.047-2.938 1.434-5.535.385-2.596.081-4.9a14.3 14.3 0 0 0-1.318-4.396 11.2 11.2 0 0 0-2.013-2.846 12.3 12.3 0 0 0-2.779-2.115q-1.574-.889-3.678-1.638l-8.061-2.875q-1.687-.601-2.735-.362-1.05.24-1.662 1.139-.614.895-1.177 2.477l-8.532 23.92q-.763 2.135-.208 3.411.552 1.276 2.551 1.99m4.261-4.383 7.9-22.148 4.689 1.673q1.54.55 2.384.95a7.6 7.6 0 0 1 1.654 1.092q.81.69 1.269 1.582 2.104 3.911-.34 10.768-1.725 4.829-3.946 6.746t-4.458 1.86q-2.235-.056-5.068-1.066zM247.734 682.258q4.946.944 8.903-.526 3.956-1.47 6.535-5.078 2.577-3.61 3.597-8.947.753-3.945.37-7.363-.383-3.417-1.927-6.163a13.35 13.35 0 0 0-4.212-4.556q-2.668-1.808-6.42-2.524-3.733-.713-6.93.012t-5.618 2.692q-2.423 1.966-4.058 5.07-1.639 3.103-2.369 6.932-.75 3.922-.32 7.395.426 3.474 1.984 6.152a13.4 13.4 0 0 0 4.189 4.444q2.63 1.763 6.276 2.46m12.49-15.752q-.714 3.74-2.365 6.268t-4.011 3.534q-2.361 1.007-5.072.49-1.93-.37-3.418-1.46t-2.387-2.805q-.897-1.712-1.139-4.154-.242-2.444.308-5.324.554-2.906 1.686-5.121 1.131-2.218 2.673-3.525 1.54-1.308 3.303-1.766 1.762-.459 3.691-.09a8.4 8.4 0 0 1 4.29 2.192q1.817 1.72 2.515 4.719t-.073 7.042M283.526 666.146l-2.288-.087.425-11.119q.083-2.196-.782-3.269-.866-1.073-2.322-1.129-1.57-.06-2.471.992-.904 1.05-.983 3.15l-1.015 26.595q-.087 2.264.823 3.313.908 1.05 3.023 1.132l10.642.407q2.203.082 3.776-.059 1.57-.142 2.852-.709a8.2 8.2 0 0 0 2.768-1.853 8.7 8.7 0 0 0 1.892-2.887 10.5 10.5 0 0 0 .743-3.545q.148-3.862-1.808-6.248-1.955-2.385-6.068-3.51 1.781-.924 3.446-2.8a30 30 0 0 0 2.993-4.01q1.331-2.135 2.095-3.867.762-1.732.788-2.39.026-.686-.357-1.374a2.95 2.95 0 0 0-1.073-1.105q-.692-.415-1.618-.451-1.103-.042-1.874.484a5.2 5.2 0 0 0-1.344 1.356 55 55 0 0 0-1.563 2.445l-2.804 4.574q-1.507 2.518-2.67 3.822-1.16 1.303-2.324 1.755t-2.902.387m3.189 14.623-6.03-.23.362-9.471 5.853.223q2.355.09 3.943.585 1.59.496 2.397 1.575.808 1.078.739 2.911-.056 1.434-.78 2.501a4.2 4.2 0 0 1-1.954 1.562q-1.164.473-4.53.344M325.058 685.354q5.006-.548 8.358-3.113 3.35-2.565 4.758-6.771 1.407-4.207.815-9.61-.436-3.99-1.805-7.146-1.367-3.155-3.649-5.329a13.35 13.35 0 0 0-5.363-3.12q-3.081-.946-6.878-.53-3.778.413-6.621 2.044-2.844 1.63-4.582 4.22t-2.394 6.038q-.656 3.446-.23 7.322.432 3.968 1.86 7.164 1.426 3.195 3.702 5.299a13.4 13.4 0 0 0 5.307 3.02q3.031.916 6.722.512m7.323-18.722q.413 3.785-.423 6.686-.839 2.9-2.8 4.555t-4.705 1.955q-1.953.212-3.696-.393a8.05 8.05 0 0 1-3.104-1.982q-1.359-1.374-2.307-3.638-.949-2.265-1.266-5.18-.323-2.94.108-5.39.434-2.453 1.523-4.154 1.09-1.702 2.64-2.657t3.503-1.168a8.4 8.4 0 0 1 4.744.837q2.241 1.112 3.788 3.774t1.995 6.755M367.544 670.578l-6.943 1.713-6.007-24.354q-.52-2.105-1.654-2.904t-2.53-.455q-1.424.352-2.062 1.6-.64 1.249-.125 3.33l6.006 24.354-6.943 1.713q-1.63.401-2.232 1.371-.601.969-.287 2.242.324 1.317 1.338 1.876 1.014.56 2.577.174l20.259-4.997q1.649-.406 2.26-1.392.608-.985.296-2.254-.314-1.273-1.32-1.845-1.005-.575-2.633-.172M421.417 647.81l-6.36 3.27-11.47-22.308q-.991-1.928-2.28-2.443-1.287-.517-2.567.141-1.303.671-1.636 2.033-.334 1.363.647 3.27l11.47 22.308-6.36 3.27q-1.493.767-1.855 1.85-.361 1.082.239 2.247.62 1.207 1.735 1.516 1.116.31 2.548-.426l18.556-9.54q1.511-.779 1.877-1.877.365-1.099-.232-2.262-.6-1.166-1.71-1.49-1.11-.326-2.603.44M416.056 621.632l14.65 23.024q1.141 1.792 2.477 2.203 1.334.412 2.547-.36 1.246-.794 1.457-2.174.21-1.38-.944-3.192l-14.651-23.024q-1.155-1.814-2.5-2.218t-2.592.39q-1.192.76-1.39 2.159t.946 3.192M436.074 602.995l-7.764 6.119q-1.681 1.326-1.765 2.699t1.307 3.136l16.116 20.447q1.417 1.8 2.776 2.008 1.357.209 3.005-1.09l8.231-6.487q1.818-1.434 2.963-2.729 1.144-1.295 1.659-2.816.45-1.287.45-2.714t-.474-2.78a8.8 8.8 0 0 0-1.41-2.54q-3.214-4.076-8.523-2.956c2.447-3.774 2.374-7.31-.22-10.6q-1.8-2.284-4.334-3.25-2.535-.966-5.081-.374-1.573.394-3.248 1.367-1.678.975-3.688 2.56m9.157 12.395-5.352 4.218-6.263-7.945 5.525-4.354q5.212-4.11 8.388-.08 1.622 2.06 1.004 4.053t-3.302 4.108m3.28 15.17-5.53-7.015 4.71-3.713q1.923-1.515 3.277-1.953 1.354-.437 2.77.219 1.044.435 1.803 1.399 1.619 2.055.784 3.808-.837 1.754-3.64 3.965zM485.54 596.66l-10.268 10.611-6.157-5.956 9.454-9.772q1.043-1.079 1.04-2.111-.004-1.03-.85-1.851-.85-.82-1.89-.814-1.041.008-2.1 1.1l-9.453 9.773-7.075-6.844 10.62-10.978q1.074-1.11 1.07-2.206-.006-1.095-.92-1.98-.883-.851-1.976-.822-1.095.033-2.169 1.142l-12.387 12.804q-1.49 1.54-1.414 2.922t1.708 2.958l18.711 18.102q1.086 1.05 2.066 1.414t1.916.025c.622-.226 1.26-.673 1.905-1.34l12.033-12.439q1.09-1.126 1.086-2.188 0-1.062-.862-1.894-.878-.849-1.939-.816-1.06.032-2.15 1.16M487.086 571.93l-1.355 1.845-8.972-6.58q-1.772-1.298-3.145-1.183-1.374.117-2.237 1.292-.928 1.266-.562 2.602.365 1.337 2.059 2.578l21.462 15.74q1.827 1.338 3.206 1.173 1.38-.164 2.63-1.87l6.298-8.588q1.304-1.779 2.068-3.16.762-1.38 1.01-2.76.35-1.635.015-3.331a8.7 8.7 0 0 0-1.332-3.185 10.5 10.5 0 0 0-2.52-2.601q-3.116-2.286-6.188-2.003-3.071.284-6.306 3.062.23-1.995-.389-4.423a30 30 0 0 0-1.645-4.726q-1.025-2.298-2.031-3.902-1.008-1.602-1.54-1.992-.552-.405-1.337-.474a2.94 2.94 0 0 0-1.517.27q-.73.34-1.28 1.088-.652.89-.648 1.823.004.935.37 1.873.365.94 1.15 2.665l2.219 4.885q1.241 2.66 1.67 4.351.43 1.694.152 2.91c-.184.81-.62 1.686-1.305 2.62m13.9 5.55-3.569 4.866-7.644-5.605 3.465-4.723q1.392-1.901 2.694-2.94 1.301-1.037 2.647-1.102t2.825 1.018q1.157.85 1.636 2.047.475 1.2.198 2.493-.26 1.23-2.252 3.946M491.416 545.813l23.516 13.844q1.83 1.078 3.207.837 1.376-.24 2.105-1.479.75-1.275.31-2.599-.441-1.323-2.293-2.414l-23.516-13.845q-1.854-1.09-3.236-.84-1.38.253-2.131 1.526-.718 1.22-.255 2.554.458 1.337 2.293 2.415M507.251 515.471l3.295 3.219-5.504 11.975-4.673-.444q-2.735-.258-3.828-.055t-1.702 1.53q-.517 1.125-.034 2.393.48 1.27 1.6 1.783.643.296 1.423.41.78.115 2.215.215l23.9 1.858 2.47.198q1.443.115 2.494-.024a4.44 4.44 0 0 0 1.94-.738q.887-.602 1.45-1.828.573-1.245.452-2.312a4.5 4.5 0 0 0-.68-1.943 10.3 10.3 0 0 0-1.31-1.648 123 123 0 0 0-2.026-2.014l-16.772-17.03q-1.903-1.969-2.955-2.453-1.095-.503-2.4-.068-1.303.435-1.858 1.64-.323.703-.287 1.33.037.624.341 1.178.303.553 1.076 1.383.774.829 1.373 1.445m3.315 15.834 4.044-8.801 10.879 10.378zM524.814 483.335q-3-.91-5.835-.183-2.833.728-5.037 3.118-2.202 2.392-3.37 6.23-1.397 4.605-.468 8.155.696 2.502 2.528 4.487 1.83 1.986 3.934 2.624 1.222.37 2.331-.15 1.11-.521 1.479-1.737a2.37 2.37 0 0 0-.176-1.87q-.476-.889-1.668-1.778-1.41-1.077-2.266-2.094-.858-1.016-1.168-2.481-.312-1.465.309-3.51.852-2.808 2.782-4.14 1.93-1.333 4.019-.698 1.656.502 2.402 1.764.744 1.263.834 2.93.09 1.665-.06 4.366-.177 3.588.261 6.174.436 2.589 1.97 4.493 1.533 1.905 4.405 2.776 2.734.83 5.283.079 2.55-.753 4.495-3.053 1.944-2.299 3.032-5.878.867-2.858.745-5.172t-.956-4.072q-.834-1.755-2.016-2.808-1.183-1.052-2.488-1.449-1.197-.363-2.394.14-1.2.502-1.559 1.686-.327 1.08.057 1.81.384.728 1.45 1.766 1.673 1.44 2.393 2.96.721 1.524-.08 4.165-.743 2.45-2.347 3.604-1.602 1.155-3.214.665-1-.304-1.571-1.035-.573-.732-.822-1.785a9.5 9.5 0 0 1-.268-2.06q-.015-1.005.056-3.287.139-2.828-.007-5.202t-.83-4.213a8.16 8.16 0 0 0-2.163-3.207q-1.484-1.365-4.002-2.13zM549.103 450.22l-1.601 12.812-8.773-1.096 1.338-10.71q.185-1.489-.44-2.312-.625-.824-1.824-.974t-2 .506q-.799.658-.98 2.125l-1.34 10.71-11.314-1.414q-2.157-.268-3.312.51-1.154.78-1.334 2.205-.18 1.447.759 2.488.94 1.043 3.071 1.308l26.41 3.3q1.496.188 2.499-.111.999-.298 1.543-1.132t.717-2.215l1.916-15.333q.194-1.558-.446-2.403-.64-.847-1.827-.996-1.214-.15-2.04.513-.828.663-1.022 2.219M519.701 441.547q-.083 1.368.797 2.42.883 1.05 2.58 1.154 1.439.088 2.533-.797 1.095-.885 1.181-2.276.086-1.389-.88-2.434-.966-1.043-2.426-1.135-1.675-.101-2.69.821-1.013.923-1.095 2.247M530.834 403.298q-1.65.07-3.542.911-1.89.844-3.672 2.551-1.784 1.71-2.834 4.295t-.908 5.956q.108 2.56.712 4.634a12.6 12.6 0 0 0 1.771 3.737q1.169 1.665 3.016 3.025a17.4 17.4 0 0 0 3.74 2.034q2.056.821 4.368 1.177 2.309.357 4.883.25 4.179-.176 7.44-1.45 3.257-1.276 5.52-3.496a14.2 14.2 0 0 0 3.37-5.113q1.109-2.897.974-6.117-.164-3.926-1.969-6.92-1.803-2.996-4.336-4.525-2.536-1.528-4.73-1.437a3.16 3.16 0 0 0-2.09.882q-.887.833-.84 1.958.052 1.258.717 1.858.663.604 2.258 1.308 2.63 1.173 3.978 2.85 1.35 1.679 1.455 4.214.17 4.037-3.016 6.567t-9.237 2.782q-4.043.17-6.77-.777-2.727-.946-4.132-2.831t-1.513-4.489q-.118-2.822 1.302-4.836 1.419-2.013 4.285-3.13 1.352-.475 2.19-1.128.837-.654.78-2.021-.049-1.17-.958-1.972-.911-.8-2.212-.747M376.21 672.879c-.442 1.047.083 1.626 1.169 1.287l3.033-.948c1.085-.34 2.08-1.54 2.213-2.67l.462-3.95c.133-1.13-.604-1.97-1.637-1.869-1.034.102-2.24 1.043-2.682 2.09zM180.311 658.44c-1.007.528-.97 1.31.083 1.737l2.944 1.197c1.054.427 2.586.133 3.406-.655l2.868-2.756c.82-.788.784-1.905-.077-2.484-.862-.577-2.392-.619-3.398-.091z" style="fill:#fff;fill-opacity:1;fill-rule:nonzero;stroke:none" transform="matrix(1.33333 0 0 -1.33333 -.667 1121.853)" data-source="https://football-logos.cc"></path><!-- source: https://football-logos.cc --></svg>