<svg xmlns="http://www.w3.org/2000/svg" viewBox="86.83 157.3 620 800.99"><!-- Source: https://football-logos.cc --><defs data-source="https://football-logos.cc"><clipPath id="b" clipPathUnits="userSpaceOnUse"><path d="M-271.874 146.881h595.276v-841.89h-595.276Z"></path></clipPath><clipPath id="c" clipPathUnits="userSpaceOnUse"><path d="M-312.851 411.016h595.276v-841.89h-595.276Z"></path></clipPath><clipPath id="d" clipPathUnits="userSpaceOnUse"><path d="M-303.474 666.902h595.276v-841.89h-595.276Z"></path></clipPath><clipPath id="e" clipPathUnits="userSpaceOnUse"><path d="M-269.532 686.18h595.276v-841.89h-595.276Z"></path></clipPath><clipPath id="f" clipPathUnits="userSpaceOnUse"><path d="M-145.966 596.753H449.31v-841.89h-595.276Z"></path></clipPath><clipPath id="g" clipPathUnits="userSpaceOnUse"><path d="M-133.904 376.592h595.276v-841.89h-595.276Z"></path></clipPath><clipPath id="h" clipPathUnits="userSpaceOnUse"><path d="M-166.115 639.248h595.276v-841.89h-595.276Z"></path></clipPath><clipPath id="i" clipPathUnits="userSpaceOnUse"><path d="M-467.788 393.246h595.276v-841.89h-595.276Z"></path></clipPath><clipPath id="j" clipPathUnits="userSpaceOnUse"><path d="M-510.77 427.84H84.506v-841.89H-510.77Z"></path></clipPath><clipPath id="k" clipPathUnits="userSpaceOnUse"><path d="M-225.717 272.75H369.56v-841.89h-595.276Z"></path></clipPath><clipPath id="l" clipPathUnits="userSpaceOnUse"><path d="M-435.893 594.302h595.276v-841.89h-595.276Z"></path></clipPath><clipPath id="m" clipPathUnits="userSpaceOnUse"><path d="M-134.128 557.995h595.276v-841.89h-595.276Z"></path></clipPath><clipPath id="n" clipPathUnits="userSpaceOnUse"><path d="M-456.987 562.02h595.276v-841.89h-595.276Z"></path></clipPath><clipPath id="p" clipPathUnits="userSpaceOnUse"><path d="M-307.053 670.015h595.276v-841.89h-595.276Z"></path></clipPath><clipPath id="q" clipPathUnits="userSpaceOnUse"><path d="M-472.577 548.078h595.276v-841.89h-595.276Z"></path></clipPath><clipPath id="r" clipPathUnits="userSpaceOnUse"><path d="M-267.547 252.87h595.276v-841.89h-595.276Z"></path></clipPath><clipPath id="s" clipPathUnits="userSpaceOnUse"><path d="M-183.017 282.517h595.276v-841.89h-595.276Z"></path></clipPath><clipPath id="t" clipPathUnits="userSpaceOnUse"><path d="M-313.715 261.445h595.276v-841.89h-595.276Z"></path></clipPath><clipPath id="u" clipPathUnits="userSpaceOnUse"><path d="M-129.682 553.306h595.276v-841.89h-595.276Z"></path></clipPath><clipPath id="v" clipPathUnits="userSpaceOnUse"><path d="M-93.39 421.349h595.277v-841.89H-93.39Z"></path></clipPath><clipPath id="w" clipPathUnits="userSpaceOnUse"><path d="M-222.896 297.308H372.38v-841.89h-595.276Z"></path></clipPath><clipPath id="x" clipPathUnits="userSpaceOnUse"><path d="M-395.93 313.996h595.276v-841.89H-395.93Z"></path></clipPath><clipPath id="y" clipPathUnits="userSpaceOnUse"><path d="M-392.743 272.805h595.276v-841.89h-595.276Z"></path></clipPath><clipPath id="z" clipPathUnits="userSpaceOnUse"><path d="M-448.2 367.466h595.276v-841.89H-448.2Z"></path></clipPath><clipPath id="A" clipPathUnits="userSpaceOnUse"><path d="M-418.866 340.101H176.41v-841.89h-595.276Z"></path></clipPath><clipPath id="B" clipPathUnits="userSpaceOnUse"><path d="M-326.916 252.101H268.36v-841.89h-595.276Z"></path></clipPath><clipPath id="C" clipPathUnits="userSpaceOnUse"><path d="M-312.78 630.946h595.276v-841.89H-312.78Z"></path></clipPath><clipPath id="D" clipPathUnits="userSpaceOnUse"><path d="M-134.943 333.954h595.276v-841.89h-595.276Z"></path></clipPath><clipPath id="E" clipPathUnits="userSpaceOnUse"><path d="M-136.368 386.37h595.276v-841.89h-595.276Z"></path></clipPath><clipPath id="F" clipPathUnits="userSpaceOnUse"><path d="M-439.075 632.441H156.2v-841.89h-595.276Z"></path></clipPath><clipPath id="G" clipPathUnits="userSpaceOnUse"><path d="M-503.515 398.552H91.761v-841.89h-595.276Z"></path></clipPath><clipPath id="H" clipPathUnits="userSpaceOnUse"><path d="M-433.508 348.593h595.276v-841.89h-595.276Z"></path></clipPath><clipPath id="I" clipPathUnits="userSpaceOnUse"><path d="M-353.982 257.53h595.276v-841.89h-595.276Z"></path></clipPath><clipPath id="J" clipPathUnits="userSpaceOnUse"><path d="M-267.334 643.26h595.276v-841.89h-595.276Z"></path></clipPath><clipPath id="K" clipPathUnits="userSpaceOnUse"><path d="M-120.54 433.986h595.276v-841.89H-120.54Z"></path></clipPath><clipPath id="L" clipPathUnits="userSpaceOnUse"><path d="M-168.99 320.366h595.275v-841.89H-168.99Z"></path></clipPath><clipPath id="M" clipPathUnits="userSpaceOnUse"><path d="M-114.728 399.347h595.276v-841.89h-595.276Z"></path></clipPath><clipPath id="N" clipPathUnits="userSpaceOnUse"><path d="M-274.126 654.163H321.15v-841.89h-595.276Z"></path></clipPath><clipPath id="O" clipPathUnits="userSpaceOnUse"><path d="M-298.62 524.187h595.277v-841.89H-298.62Z"></path></clipPath><clipPath id="P" clipPathUnits="userSpaceOnUse"><path d="M-398.296 386.983H196.98v-841.89h-595.276Z"></path></clipPath><clipPath id="Q" clipPathUnits="userSpaceOnUse"><path d="M-271.521 436.912h595.276v-841.89h-595.276Z"></path></clipPath><clipPath id="R" clipPathUnits="userSpaceOnUse"><path d="M-362.361 416.623h595.276v-841.89h-595.276Z"></path></clipPath><clipPath id="S" clipPathUnits="userSpaceOnUse"><path d="M-172.585 437.73h595.276v-841.89h-595.276Z"></path></clipPath><clipPath id="T" clipPathUnits="userSpaceOnUse"><path d="M-215.336 412.65H379.94v-841.89h-595.276Z"></path></clipPath><clipPath id="U" clipPathUnits="userSpaceOnUse"><path d="M-312.851 411.016h595.276v-841.89h-595.276Z"></path></clipPath><clipPath id="V" clipPathUnits="userSpaceOnUse"><path d="M-435.893 594.302h595.276v-841.89h-595.276Z"></path></clipPath><clipPath id="W" clipPathUnits="userSpaceOnUse"><path d="M-472.577 548.078h595.276v-841.89h-595.276Z"></path></clipPath><clipPath id="X" clipPathUnits="userSpaceOnUse"><path d="M-372.408 379.755h595.276v-841.89h-595.276Z"></path></clipPath><clipPath id="o" clipPathUnits="userSpaceOnUse"><path d="M-307.053 670.015h595.276v-841.89h-595.276Z"></path></clipPath></defs><circle cx="396.831" cy="626.561" r="310" style="display:inline;fill:#000;fill-opacity:1;fill-rule:evenodd;stroke:none;stroke-width:1.33333;stroke-opacity:1"></circle><path d="M0 0c4.111.483 8.237.684 12.376.712 1.342.009 2.102.624 2.508 2.119.425 1.564.894 3.241 2.07 4.527.166.181.3.434.346.673.601 3.167 2.574 5.778 3.549 8.801.905 2.803 2.085 5.52 2.928 8.34.341 1.14.967 2.12 1.321 3.238.252.798.766.541 1.013-.084a408 408 0 0 0 2.578-6.7c1.103-2.943 2.185-5.894 3.268-8.845 1.084-2.955 2.151-5.916 3.241-8.868.318-.861.674-1.708 1.044-2.548.294-.666.873-.772 1.539-.732 6.413.39 12.729-.969 19.116-1.062 2.866-.042 5.731-.115 8.597-.176.451-.01 1.032.133 1.24-.371.268-.651-.41-.833-.783-1.129Q59.105-7.529 52.25-12.941c-2.481-1.96-4.962-3.919-7.456-5.862-1.077-.839-1.495-1.581-1.077-3.192.983-3.787 2.063-7.557 3.112-11.319 1.044-3.746 1.816-7.589 3.342-11.213.515-1.225.399-2.694.988-3.975.236-.513-.033-.864-.73-.644-1.195.377-2.128 1.186-3.146 1.842-3.672 2.363-7.214 4.921-10.954 7.186-2.123 1.286-4.124 2.775-6.162 4.198-.912.637-1.935 1.066-2.774 1.868-1.01.966-2.894.767-3.973-.12-1.757-1.445-3.88-2.347-5.696-3.657-1.609-1.161-3.516-1.765-5.01-3.139-1.29-1.188-2.907-2.05-4.394-2.974-2.064-1.283-3.923-2.917-6.186-3.879-.516-.22-.717-.706-1.033-1.099-.317-.394-.724-.587-1.219-.375-.441.188-.536.591-.51 1.023.019.305.001.639.122.905 1.609 3.536 2.152 7.4 3.342 11.07.708 2.188 1.2 4.538 1.86 6.753.664 2.225.866 4.594 1.92 6.714.855 1.718.596 2.869-.886 4.035C.118-14.379-5.529-10.007-11.129-5.576c-1.521 1.204-2.926 2.553-4.534 3.651-.288.197-.666.415-.534.839.154.493.627.449 1.033.45 3.635.008 7.269.054 10.897.321z" clip-path="url(#b)" style="fill:#fadd14;fill-opacity:1;fill-rule:nonzero;stroke:none" transform="matrix(1.33333 0 0 -1.33333 362.499 195.842)"></path><path d="M0 0v-.091q11.98.001 23.962-.003c.818 0 1.637-.057 2.455-.044.417.007.85.121.901.643.043.432-.293.63-.637.754-2.429.88-4.537 2.345-6.739 3.643-7.931 4.677-15.885 9.313-23.811 13.996-.98.578-1.724.534-2.64-.161-5.584-4.233-11.105-8.554-16.932-12.459-2.292-1.536-4.552-3.12-6.814-4.7-.326-.227-.704-.528-.566-.999.145-.498.622-.445 1.027-.451 3.069-.045 6.138-.114 9.208-.122C-13.724-.013-6.862 0 0 0m-97.515-1.632q15.596-.001 31.191.003c.497 0 1.092-.124 1.301.521.196.609-.262.944-.682 1.244-.915.654-1.872 1.253-2.764 1.938-6.578 5.049-13.173 10.078-19.689 15.205-1.357 1.067-2.458 1.246-4.008.46-5.419-2.747-10.925-5.318-16.436-7.879-6.902-3.208-13.651-6.747-20.698-9.647-.429-.177-.929-.362-.865-.93.072-.642.646-.772 1.157-.776 1.125-.009 2.253.13 3.375.083 9.371-.388 18.746-.081 28.118-.222m-42.751-25.081c10.496-.02 20.994.316 31.49-.022.529-.017 1.047.098 1.594.282 2.18.733 4.089 2.006 6.164 2.915 2.826 1.239 5.556 2.664 8.351 3.953 5.801 2.677 11.446 5.698 17.415 8.01.519.201 1.206.425 1.05 1.107-.157.689-.857.381-1.315.333-2.497-.264-4.906-1.159-7.36-1.423-6.156-.661-12.182-2.064-18.305-2.869-5.875-.773-11.639-2.196-17.529-2.891-1.336-.158-2.379.166-3.471.798a574 574 0 0 1-8.413 4.756c-4.188 2.33-8.388 4.638-12.583 6.954-.978.54-.952 1.174-.065 1.722 2.203 1.361 4.393 2.757 6.674 3.979 6.986 3.741 14.017 7.398 21.022 11.104 4.563 2.413 9.113 4.85 13.664 7.283a929 929 0 0 1 6.74 3.643c.34.185.859.345.65.869-.179.449-.677.4-1.085.368-1.273-.101-2.544-.309-3.818-.319-5.224-.038-10.448.015-15.672-.027-6.152-.05-4.165.943-8.718-3.396-7.519-7.165-15.337-14.015-22.612-21.436-5.629-5.741-11.674-11.036-17.594-16.466-2.753-2.525-5.364-5.203-8.256-7.579-.372-.305-.897-.7-.724-1.257.168-.54.764-.389 1.21-.389q15.748-.003 31.496-.002M49.51-5.607c.329-1.054 1.029-1.731 1.878-2.177 2.593-1.364 4.94-3.104 7.365-4.723 1.495-.997 1.499-1.243.423-2.757-1.571-2.211-3.192-4.393-4.635-6.686-.773-1.228-1.339-.975-2.094-.131-2.798 3.128-5.757 6.104-8.366 9.409-1.613 2.043-3.516 3.858-5.285 5.779-.618.671-1.256.792-2.012.191-3.371-2.681-7.084-4.861-10.659-7.245-4.939-3.295-9.874-6.597-14.821-9.881-.723-.48-1.535-.829-2.243-1.328-.388-.273-.971-.631-.746-1.21.226-.582.862-.484 1.355-.366 1.013.244 2.038.192 3.059.196 10.091.039 20.183.015 30.274.111 23.5.223 47.002-.41 70.504.34 8.951.285 17.926.215 26.889-.064.489-.016 1.112-.195 1.347.426.239.635-.202 1.08-.683 1.403-1.503 1.007-2.7 2.35-4.003 3.577-5.44 5.122-10.887 10.236-16.327 15.358-.877.827-1.562.793-2.452-.133-3.515-3.652-7.107-7.23-10.686-10.82-.546-.548-1.151-.981-2.041-.8-3.459.702-6.894 1.509-10.377 2.12-5.437.955-10.841 2.102-16.242 3.248-4.903 1.04-9.871 1.791-14.739 2.941-4.863 1.15-9.903 1.493-14.683 3.222m-90.84-20.289v-.157c10.399 0 20.797.003 31.195-.005.934-.001 1.844.079 2.7.474 2.133.986 4.251 2.003 6.393 2.968 3.263 1.471 6.539 2.913 9.814 4.358.656.29 1.905.012 1.839.955-.073 1.051-1.324.835-2.134 1.012-.05.011-.102.01-.153.017-5.627.749-11.307 1.23-16.864 2.33-4.528.895-9.107 1.27-13.638 2.042-1.51.257-3.121.091-4.566.521-4.011 1.192-8.213 1.007-12.262 1.92-2.588.584-5.26.798-7.894 1.179-.471.068-.946.169-1.023.744-.066.486.294.728.659.939a19.6 19.6 0 0 1 3.351 2.432c2.387 2.161 4.591 4.515 7.137 6.511C-31.22 6.7-25.749 11.16-20.068 15.36c3.083 2.279 5.956 4.843 8.907 7.298.327.272.848.579.567 1.12-.254.491-.804.421-1.246.318-1.416-.332-2.851-.274-4.283-.27-10.654.029-21.309-.016-31.962.119-11.313.144-22.636-.497-33.94.411-.461.037-.987.055-1.174-.484-.173-.503.284-.688.621-.917 6.15-4.164 11.841-8.941 17.803-13.358 4.924-3.647 9.682-7.52 14.513-11.293.956-.747.961-1.443-.009-2.228-4.499-3.642-8.648-7.687-13.047-11.441-3.384-2.888-6.494-6.098-10.139-8.68-.441-.311-1.158-.518-.948-1.213.221-.731.965-.635 1.573-.635q15.751-.005 31.502-.003M85.445 24.032c-1.299 0-2.272-.011-3.244.006-.408.006-.856.025-.973.545-.095.424.201.666.507.862 3.422 2.196 6.045 5.374 9.407 7.644.379.255.9.525.671 1.059-.242.567-.851.519-1.354.389-1.193-.309-2.428-.384-3.622-.627-3.33-.676-6.743-.367-10.069-.992-1.486-.28-1.904.072-1.738 1.574.172 1.572.458 3.132.717 4.693.517 3.123.148 6.36 1.218 9.411.12.343.257.718-.169.941-.323.168-.592-.057-.823-.255-.31-.265-.639-.525-.887-.844-2.766-3.56-5.839-6.858-8.785-10.265-1.058-1.223-1.344-1.213-2.273.119-3.22 4.617-6.426 9.243-9.657 13.852-.378.539-.867 1.002-1.324 1.483-.177.186-.438.346-.681.174-.232-.164-.212-.47-.111-.704.921-2.133.833-4.424.926-6.655.15-3.584 1.455-7.005 1.31-10.631-.049-1.224-.185-1.862-1.586-1.678-2.739.359-5.532.01-8.261.59-.378.08-.874.213-1.136-.197-.293-.459.054-.889.274-1.276 1.39-2.445 2.798-4.879 4.197-7.318.27-.472.821-.912.478-1.513-.333-.583-.995-.413-1.543-.416-5.685-.029-11.37-.128-17.053-.053-9.469.125-18.944-.388-28.408.24-.436.029-1.026.17-1.15-.438-.099-.479.275-.85.702-1.068 1.038-.531 2.116-.988 3.126-1.566C15.721 14.496 27.298 7.85 38.89 1.232 39.901.654 40.945.231 42.201.181 48.447-.067 54.694.123 60.94.08c17.512-.123 35.025-.198 52.538-.293.516-.002 1.1-.057 1.276.57.173.622-.356.868-.781 1.166-.626.44-1.255.887-1.817 1.402-6.712 6.161-13.453 12.293-20.091 18.533-2.014 1.894-4.024 3.347-6.62 2.574m-99.677-137.204.567.001c0 12.083.003 24.167-.008 36.251 0 .762.05 1.581-.196 2.278-1.84 5.21-3.479 10.482-5.102 15.762-1.76 5.723-3.872 11.325-6.096 16.884-1.047 2.617-1.736 5.348-2.568 8.033-.34 1.1-.694 2.321-2.118 2.262-3.374-.138-6.73.218-10.08.268-14.24.213-28.486.063-42.73.087-3.685.006-7.371.165-11.056.252-.619.014-1.484.613-1.778-.205-.25-.694.646-1.109 1.172-1.432a361 361 0 0 1 7.792-4.619c8.453-4.902 16.932-9.76 25.366-14.693 7.832-4.58 15.597-9.273 23.434-13.843 4.536-2.645 9.159-5.141 13.735-7.716.5-.282.86-.766.997-1.299.239-.922.42-1.868.514-2.815.909-9.156 1.15-18.359 2.171-27.518.707-6.337.99-12.743 1.394-19.123.272-4.29.282-8.615.947-12.856.662-4.219.084-8.502.944-12.687.02-.098.006-.204-.001-.306-.018-.25.021-.543-.266-.664-.331-.14-.59.047-.814.266-.383.375-.471.889-.659 1.364-.562 1.424-1.122 2.854-1.789 4.23-2.371 4.895-5.241 9.528-7.517 14.478-2.761 6.005-5.668 11.943-8.473 17.928a2334 2334 0 0 0-8.002 17.302c-1.716 3.745-3.536 7.44-5.218 11.203-1.582 3.536-3.371 6.992-5.008 10.513-.913 1.964-1.758 3.963-2.714 5.895-.963 1.946-1.897 3.893-2.752 5.889-.535 1.25-1.279 2.375-2.532 3.15-8.137 5.038-16.238 10.134-24.363 15.193-2.432 1.514-4.911 2.954-7.202 4.685-.352.266-.766.701-1.215.303-.432-.383-.1-.867.118-1.257.373-.67.828-1.294 1.187-1.971 4.023-7.593 8.022-15.198 12.05-22.788 4.917-9.264 9.874-18.505 14.771-27.778 1.525-2.888 1.461-2.922-1.32-4.574-1.338-.794-1.793-.652-2.531.717a742 742 0 0 1-4.473 8.221c-3.225 5.814-6.469 11.618-9.709 17.424-3.59 6.433-7.187 12.862-10.774 19.296-3.304 5.925-6.714 11.792-9.762 17.855-.476.948-.935.825-1.442.135-.298-.404-.521-.884-.685-1.362-.995-2.904-2.314-5.672-3.526-8.485-1.539-3.569-3.086-7.134-4.624-10.703-.991-2.301-1.969-4.608-2.958-6.91-.208-.484-.49-.925-1.06-1.015-.684-.107-.806.499-1.072.911-.554.86-1.09 1.734-1.661 2.583-5.162 7.661-10.433 15.251-15.432 23.016-1.506 2.34-2.974 3.338-5.877 3.167-5.034-.295-10.085.004-15.135.615-4.351.526-8.801.022-13.192.493-.295.032-.648.069-.821-.259-.175-.331.061-.596.266-.81.495-.517.984-1.048 1.534-1.502 2.369-1.956 4.775-3.867 7.14-5.828 7.804-6.471 15.574-12.982 23.397-19.431 11.614-9.576 23.276-19.093 34.89-28.669 7.783-6.417 15.506-12.905 23.276-19.338 7.849-6.497 15.727-12.959 23.583-19.448 7.224-5.966 14.472-11.904 21.643-17.934 6.936-5.833 14.237-11.205 21.224-16.972.754-.622 1.355-.425 2.028.16 2.626 2.285 5.313 4.497 8.016 6.694 8.662 7.039 17.242 14.18 25.883 21.246 10.741 8.783 21.548 17.486 32.257 26.308a3550 3550 0 0 1 30.319 25.281c9.71 8.181 19.249 16.568 29.033 24.661 9.311 7.701 18.415 15.647 27.757 23.309.354.291.704.602.984.96.274.35.622.761.282 1.241-.281.398-.743.307-1.137.228-1.625-.323-3.267-.214-4.904-.22-7.89-.03-15.78-.066-23.67-.071-5.687-.003-11.373.038-17.06.059-.587.002-1.33.383-1.689-.294-.382-.718.282-1.246.688-1.73 2.831-3.371 5.673-6.734 8.546-10.07 2.078-2.414 2.118-2.41-.107-4.608-14.026-13.859-28.073-27.698-42.088-41.567-12.521-12.39-25.38-24.435-37.757-36.971-2.163-2.19-2.147-2.172-4.551-.159-.947.794-1.02 1.538-.221 2.478a57 57 0 0 1 2.564 3.254c7.103 9.709 14.188 19.431 21.291 29.141 8.583 11.734 17.187 23.454 25.763 35.195 1.552 2.125 1.662 2.221 3.951 1.025 3.857-2.014 8.036-3.332 11.83-5.481.318-.18.683-.32 1.012-.076.343.253.254.642.166.992q-.134.52-.311 1.028c-1.678 4.82-3.368 9.636-5.037 14.459a1650 1650 0 0 0-4.167 12.188c-.302.896-.829 1.14-1.628.689s-1.544-.999-2.341-1.453c-7.294-4.151-14.597-8.287-21.891-12.437-5.426-3.087-10.808-6.255-16.29-9.239-1.501-.817-2.382-1.901-3.163-3.34-1.135-2.093-1.497-4.434-2.438-6.583-1.124-2.571-2.12-5.2-3.126-7.821-1.978-5.152-3.911-10.322-5.89-15.474-1.439-3.743-2.931-7.465-4.383-11.203-1.573-4.047-3.11-8.109-4.692-12.153-1.35-3.452-2.768-6.877-4.109-10.332-2.001-5.154-3.964-10.322-5.939-15.486-1.093-2.861-2.198-5.718-3.257-8.592-.727-1.971-1.444-3.941-2.75-5.622-.281-.363-.67-.788-1.15-.601-.63.246-.185.806-.132 1.207.073.551.206 1.113.422 1.625 1.539 3.635 2.483 7.467 3.719 11.202 1.572 4.75 2.891 9.582 4.356 14.368 1.914 6.248 3.993 12.448 5.758 18.736 1.4 4.986 3.153 9.856 4.507 14.859 1.651 6.105 3.827 12.066 5.642 18.13 1.684 5.627 3.343 11.261 5.179 16.842.328.997.182 1.786-.506 2.681-3.617 4.708-7.375 9.308-10.831 14.142-1.427 1.996-3.032 3.865-4.563 5.786-.747.938-1.641 1.289-2.923 1.279-3.685-.03-7.341-.362-11.011-.591-3.213-.201-6.452.008-9.679.03-.503.004-1.067.11-1.373-.446-.299-.543.051-.963.32-1.405 1.198-1.965 2.442-3.905 3.562-5.915C-11.188-50.61-5.069-61.72 1.135-72.782c.614-1.093.772-2.119.466-3.214-.332-1.191-.481-2.404-.714-3.607-1.632-8.428-3.444-16.824-4.85-25.289-.632-3.801-1.63-7.518-2.172-11.344-.766-5.403-2.141-10.716-3.09-16.096-1.039-5.888-2.488-11.7-3.244-17.64-.103-.804-.401-1.586-.643-2.368-.119-.387-.284-.858-.797-.783-.636.093-.547.653-.519 1.103.044.714.187 1.425.187 2.137.012 12.237.009 24.474.009 36.711m36.486-101.842c-5.585 0-11.17.028-16.754-.022-1.214-.011-1.948.341-2.57 1.449-5.579 9.953-11.215 19.873-16.855 29.79-.387.68-.62 1.732-1.564 1.711-.837-.019-.798-1.077-1.134-1.666-2.205-3.861-4.309-7.761-6.831-11.454-3.89-5.694-7.142-11.798-10.535-17.803-.831-1.471-1.85-2.036-3.572-2.022-10.4.079-20.802.124-31.201-.013-2.556-.034-4.889.56-7.12 1.487-5.331 2.216-10.68 4.417-15.812 7.08-8.87 4.602-17.352 9.812-25.316 15.883-6.655 5.072-12.986 10.495-18.792 16.504-10.006 10.355-18.693 21.726-25.771 34.281-4.904 8.698-9.045 17.746-12.355 27.184-3.67 10.463-6.205 21.187-7.828 32.137-1.491 10.064-1.411 20.199-1.212 30.332.06 3.018.322 6.032.408 9.05.061 2.11.384 4.175.768 6.24 1.008 5.423 1.721 10.893 3.042 16.27 1.343 5.467 2.969 10.838 4.64 16.203 3.022 9.709 7.322 18.862 12.277 27.703 4.459 7.956 9.64 15.44 15.328 22.589 6.596 8.289 13.952 15.834 22.004 22.676 10.335 8.782 21.576 16.251 33.75 22.278 4.951 2.451 9.96 4.82 15.132 6.725 7.719 2.842 15.597 5.222 23.654 6.984 4.909 1.074 9.886 1.65 14.833 2.448 12.534 2.023 25.13 1.381 37.7.785 4.82-.229 9.587-1.479 14.39-2.187 6.247-.922 12.335-2.54 18.348-4.378 15.044-4.599 29.183-11.174 42.381-19.769 10.864-7.076 20.827-15.252 29.768-24.606 6.119-6.401 11.756-13.24 16.753-20.587 4.467-6.568 8.619-13.312 12.113-20.449 3.397-6.936 6.498-13.976 8.717-21.411 1.094-3.664 2.363-7.303 3.303-10.998 1.308-5.141 2.485-10.329 3.296-15.596.662-4.293.811-8.649 1.733-12.908.511-2.364.366-4.794.367-7.198.002-6.093-.052-12.186-.083-18.28-.014-2.623-.687-5.163-.972-7.755-.431-3.91-.949-7.817-1.613-11.694-.49-2.865-1.351-5.665-1.903-8.522-.682-3.521-1.764-6.924-2.803-10.343-2.054-6.759-4.589-13.332-7.538-19.753-3.1-6.75-6.565-13.296-10.555-19.565-4.958-7.789-10.469-15.154-16.636-22.034-3.283-3.663-6.59-7.289-10.208-10.632-8.485-7.839-17.565-14.883-27.382-20.988-6.972-4.335-14.331-7.917-21.778-11.321-3.012-1.377-6.184-2.407-9.286-3.589-.685-.26-1.408-.234-2.126-.234q-8.3.002-16.6.001z" clip-path="url(#c)" style="fill:#fadd14;fill-opacity:1;fill-rule:nonzero;stroke:none" transform="matrix(1.33333 0 0 -1.33333 417.135 548.021)"></path><path d="M0 0c0-5.886-.02-11.773.016-17.659.008-1.198-.534-1.715-1.64-1.715-2.355-.001-4.71.036-7.066.062-1.316.015-1.834.635-1.609 1.968.134.8.106 1.632.108 2.449.023 11.519.013 23.038.076 34.557.014 2.525-1.83 3.898-3.157 5.575-2.248 2.844-4.546 5.646-6.489 8.714-.235.371-.628.771-.269 1.247.287.382.754.229 1.151.216 4.301-.139 8.603-.147 12.901.023 1.457.058 2.282-.816 3.067-1.733 1.796-2.1 3.509-4.271 5.257-6.412.977-1.196 1.484-1.214 2.627-.171 2.571 2.346 5.17 4.663 7.73 7.021 1.001.921 2.091 1.239 3.477 1.237 7.731-.011 15.464-.206 23.194.08 1.305.049 1.66-.558.979-1.74a8301 8301 0 0 0-10.447-18.067c-1.308-2.256-2.611-4.515-3.97-6.74-.38-.623-.318-1.067.022-1.676C30.422-.755 34.85-8.768 39.305-16.765c1.417-2.543 1.443-2.519-1.606-2.525-7.427-.014-14.853-.026-22.28-.072-1.13-.007-1.724.324-1.713 1.564.048 5.322.058 10.645.068 15.967.004 2.281.042 2.259 2.273 2.152 2.095-.1 4.199-.046 6.298-.015 1.386.02 1.351.857.863 1.775-1.106 2.077-2.272 4.121-3.397 6.188-1.613 2.964-3.259 5.912-4.795 8.915-.786 1.538-1.714 2.254-3.605 2.078-3.257-.302-6.551-.235-9.823.012-1.278.096-1.749-.322-1.739-1.615C-.11 11.773-.133 5.886-.133 0z" clip-path="url(#d)" style="fill:#fadd14;fill-opacity:1;fill-rule:nonzero;stroke:none" transform="matrix(1.33333 0 0 -1.33333 404.632 889.203)"></path><path d="M0 0c-5.943 0-11.886-.006-17.829.01-.587.001-1.351-.197-1.667.467-.279.587.335 1.017.628 1.473 3.321 5.172 6.098 10.658 9.224 15.942.785 1.328 1.619 1.782 3.187 1.733 5.015-.156 10.038-.1 15.057-.106 1.164-.001 1.809.58 1.784 1.805-.11 5.223-.125 10.445.011 15.668.031 1.197-.645 1.613-1.76 1.584-1.842-.048-3.686-.042-5.528-.091-1.247-.033-1.76.572-1.753 1.777.024 4.25.039 8.5.031 12.75-.002 1.247.531 1.745 1.792 1.665 1.326-.083 2.671-.119 3.989.008 1.45.14 2.517-.39 3.312-1.504 2.41-3.374 4.781-6.776 7.177-10.16.473-.669.559-1.414.543-2.193-.137-6.296.204-12.596-.167-18.89-.062-1.043.132-1.925 1.172-2.45.655-.331.898-.912.899-1.651.004-5.478.031-10.956.044-16.435.004-1.529-1.124-1.492-2.164-1.491-4.969.002-9.938.026-14.908.041Q1.537-.047 0-.048z" clip-path="url(#e)" style="fill:#fadd14;fill-opacity:1;fill-rule:nonzero;stroke:none" transform="matrix(1.33333 0 0 -1.33333 359.376 914.906)"></path><path d="M0 0c-1.791-1.098-3.011-2.238-4.162-3.436-2.484-2.585-5.185-4.935-7.815-7.363-1.014-.935-1.701-.773-2.52.249a57 57 0 0 1-3.659 4.136c-.891.913-.854 1.541.099 2.398a3906 3906 0 0 1 23.68 21.427c.933.852 1.5.757 2.267-.097a426 426 0 0 1 6.737-7.365c.89-.946.768-1.75.043-2.707-1.859-2.45-3.893-4.75-5.936-7.043-.204-.229-.443-.436-.607-.69-.258-.401-.851-.836-.354-1.313.398-.382.855.121 1.205.362C11.802.499 14.642 2.42 17.4 4.452c.962.709 1.587.658 2.348-.193 2.286-2.556 4.576-5.11 6.934-7.599.853-.9.746-1.505-.118-2.276-7.562-6.747-15.094-13.527-22.659-20.27-2.408-2.146-2.448-2.115-4.636.211a180 180 0 0 0-3 3.29c-.702.784-.709 1.404.203 2.169 3.487 2.928 6.899 5.945 10.337 8.931.154.134.304.282.415.45.18.274.602.543.223.908-.27.26-.578.008-.819-.155-1.019-.686-2.015-1.406-3.038-2.087-3.115-2.073-6.253-4.113-9.35-6.212-.772-.523-1.331-.353-1.868.251a102 102 0 0 0-2.706 3.127c-.536.654-.392 1.277.154 1.923 3.041 3.593 6.054 7.21 9.072 10.822C-.658-1.721-.187-1.187 0 0" clip-path="url(#f)" style="fill:#fadd14;fill-opacity:1;fill-rule:nonzero;stroke:none" transform="matrix(1.33333 0 0 -1.33333 194.621 795.671)"></path><path d="M0 0c1.093 1.91-.461 2.794-1.78 3.655-3.544 2.315-7.197 4.466-10.688 6.857-1.655 1.133-3.472 2.013-5.027 3.29-.975.801-1.838.607-2.44-.415-.731-1.244-1.486-1.117-2.472-.317-.871.707-1.839 1.294-2.76 1.941-.836.588-.877 1.225-.288 2.08 4.21 6.112 8.126 12.416 12.104 18.679.976 1.537 1.177 1.509 2.716.504C-5.366 32.831-.056 29.45 5.243 26.052c4.007-2.569 8.026-5.119 12.029-7.693 1.455-.936 1.469-1.215.487-2.667-1.09-1.61-2.122-3.259-3.203-4.876-.484-.724-1.022-1.012-1.914-.429-5.138 3.356-10.315 6.653-15.468 9.987a477 477 0 0 0-7.306 4.818c-1.371.922-1.751.863-2.642-.593-1.239-2.02-1.214-1.982.791-3.298C-6.38 17.622-.537 14.309 4.798 10.22 7.976 7.784 9.282 2.271 6.928-.791c-.585-.762-.936-1.7-1.449-2.523-.356-.572-.937-.931-1.566-.521-1.238.808-2.42 1.701-3.602 2.589C-.034-.987-.148-.577 0 0" clip-path="url(#g)" style="fill:#fadd14;fill-opacity:1;fill-rule:nonzero;stroke:none" transform="matrix(1.33333 0 0 -1.33333 178.54 502.123)"></path><path d="M0 0c.604 1.602 1.236 3.319 1.899 5.024.685 1.759 1.429 3.496 2.082 5.267.154.419.475 1.08-.158 1.349-.573.243-.93-.33-1.185-.751C1.065 8.295-.934 6.026-2.83 3.681c-1.167-1.443-1.521-1.416-2.957-.191-1.244 1.06-2.506 2.113-3.852 3.036-1.074.736-1.141 1.406-.327 2.351 6.973 8.096 13.348 16.666 19.901 25.095.735.946 1.29 1.116 2.228.318 1.479-1.258 3.025-2.437 4.563-3.623.756-.582.945-1.268.633-2.158-1.117-3.178-2.115-6.4-3.438-9.504a8 8 0 0 1-.26-.721c-.122-.38-.393-.837.084-1.095.426-.229.799.128 1.05.44a245 245 0 0 1 3.212 4.102 225 225 0 0 1 2.87 3.794c.663.901 1.349.94 2.194.233 1.451-1.214 2.903-2.433 4.421-3.562.857-.638.947-1.177.285-2.011A8398 8398 0 0 1 11.608-.289c-1.297-1.646-2.607-3.285-3.829-4.986-.628-.874-1.244-.979-2.04-.341C4.023-4.239 2.317-2.85.605-1.467.175-1.12-.016-.668 0 0" clip-path="url(#h)" style="fill:#fadd14;fill-opacity:1;fill-rule:nonzero;stroke:none" transform="matrix(1.33333 0 0 -1.33333 221.487 852.33)"></path><path d="M0 0c-3.153-.185-5.54 1.164-7.314 3.815-3.053 4.565-5.224 9.597-7.775 14.427-.443.838-.313 1.53.589 1.877 1.112.428 2.098 1.064 3.092 1.688.978.615 1.591.282 2.148-.6.475-.752.644-1.611.988-2.405.319-.735 1.067-1.009 1.312-.177 1.064 3.608 4.54 4.042 7.152 5.478 5.592 3.074 11.487 5.578 17 8.817.96.564 1.663.296 2.154-.635a350 350 0 0 0 2.824-5.439c.509-1.005.232-1.711-.811-2.238-6.616-3.343-13.211-6.726-19.822-10.078-1.275-.647-2.587-1.22-3.887-1.817-.898-.412-1.889-.786-1.576-2.064.316-1.288 1.55-2.184 2.715-2.005.601.093 1.224.239 1.763.508 5.35 2.672 10.688 5.367 16.021 8.073 2.278 1.156 4.553 2.321 6.792 3.551.867.476 1.439.319 1.929-.464 1.245-1.991 2.06-4.212 3.352-6.187.475-.726-.269-1.246-.843-1.562a216 216 0 0 0-6.499-3.456A1550 1550 0 0 0 6.772 1.831C4.66.789 2.511-.198 0 0" clip-path="url(#i)" style="fill:#fadd14;fill-opacity:1;fill-rule:nonzero;stroke:none" transform="matrix(1.33333 0 0 -1.33333 623.718 524.329)"></path><path d="M0 0c.434-3.751-3.184-6.933-6.763-7.48-6.723-1.027-13.248-3.019-19.967-4.072-2.162-.339-4.216-1.197-6.423-1.436-1.152-.124-1.752.181-2.026 1.277-.694 2.773-.828 5.661-1.879 8.37-.428 1.103.199 1.868 1.456 1.956 1.072.074 2.13.17 3.139.632.973.446 1.478-.24 1.7-1.016.458-1.605 1.316-1.554 2.793-1.249 2.702.558 5.365 1.277 8.067 1.808 3.662.721 7.336 1.373 10.938 2.363 1.561.429 2.132 2.045 1.224 3.376-.374.547-.877.631-1.478.544-7.986-1.164-15.986-2.214-24.028-2.917-1.015-.089-2.014-.352-3.023-.514-1.488-.24-2.012.124-2.124 1.61-.133 1.756-.633 3.41-1.154 5.074-.468 1.496-.133 1.932 1.387 1.783 2.025-.199 3.996.221 5.944.563 2.929.514 5.857.933 8.826 1.041 3.229.118 6.372.978 9.606 1.078 1.227.038 2.346-.019 3.255-.967.287-.299.663-.55 1.092-.307.495.28.446.779.32 1.23-.233.835-.454 1.682-.788 2.478-.392.933-.184 1.444.818 1.682 1.244.295 2.465.687 3.712.966 1.114.25 1.806-.088 2.086-1.361 1.03-4.69 1.658-9.469 3.091-14.074C.038 1.678-.058.815 0 0" clip-path="url(#j)" style="fill:#fadd14;fill-opacity:1;fill-rule:nonzero;stroke:none" transform="matrix(1.33333 0 0 -1.33333 681.026 570.454)"></path><path d="M0 0c.003.878.367 1.618.698 2.37.18.411.479.861.064 1.276-.381.382-.875.22-1.308.089-.335-.102-.651-.287-.95-.477-1.389-.879-2.145-.636-2.627.906-.364 1.164-.469 2.399-1.195 3.459-.419.611.025 1.035.613 1.301 1.265.573 2.605.898 3.93 1.295 3.328.997 6.647 2.038 9.927 3.183 3.308 1.155 6.224.866 8.715-1.805.729-.782 1.123-1.727 1.429-2.687 1.895-5.936 3.728-11.891 5.6-17.834a402 402 0 0 1 2.84-8.752c.302-.889.215-1.543-.694-1.861a394 394 0 0 0-9.005-3.046c-.72-.232-1.14.349-1.357.963-.442 1.255-.843 2.524-1.255 3.79-.29.892.208 1.343.948 1.642 1.192.482 1.393 1.291.997 2.474-1.685 5.045-3.314 10.109-4.969 15.164-.412 1.259-.452 2.621-1.158 3.803-.807 1.349-1.691 1.671-3.067 1.046-.796-.361-1.148-.946-.739-1.718 1.257-2.374 1.237-5.057 1.829-7.58 1.4-5.964 2.464-12.007 3.946-17.957.159-.641.19-1.315.261-1.976q.114-1.07-.931-1.382c-1.81-.543-3.629-1.062-5.426-1.648-1.077-.35-1.699.001-1.928 1.064-.604 2.797-1.188 5.599-1.775 8.4Q2.331-11.329 1.259-6.157C.834-4.106.419-2.052 0 0" clip-path="url(#k)" style="fill:#fadd14;fill-opacity:1;fill-rule:nonzero;stroke:none" transform="matrix(1.33333 0 0 -1.33333 300.956 363.667)"></path><path d="M0 0c-.16-.071-.462-.15-.698-.321-1.047-.757-1.122-1.728.029-2.859 2.077-2.041 4.268-3.964 6.411-5.937.754-.694 1.516-1.317 2.502-.346 1.016 1.001.716 1.927-.197 2.766-2.221 2.04-4.461 4.058-6.699 6.079C1.005-.308.627-.041 0 0m3.425 7.596c2.01.37 3.607-.45 5.123-1.609 5.262-4.024 9.921-8.71 14.6-13.362 2.937-2.92 3.172-7.162 1.033-10.736-1.44-2.406-3.146-4.543-5.461-6.141-4.11-2.836-7.474-2.699-11.261.211-.865.665-1.068 1.356-.229 2.157 1.632 1.556 3.204 3.169 4.595 4.943.775.989 1.505.854 2.307.085.332-.319.639-.692 1.029-.913.922-.523 1.819-.351 2.489.442.667.79.32 1.503-.354 2.143-1.225 1.163-2.424 2.354-3.642 3.524-.329.315-.68.714-1.19.515-.45-.176-.39-.667-.447-1.067-.788-5.545-7.543-8.346-11.958-4.955-1.95 1.498-3.739 3.184-5.553 4.843-4.742 4.336-5.126 8.172-1.329 13.648 1.535 2.212 3.562 3.94 5.861 5.346 1.363.834 2.828 1.167 4.387.926" clip-path="url(#l)" style="fill:#fadd14;fill-opacity:1;fill-rule:nonzero;stroke:none" transform="matrix(1.33333 0 0 -1.33333 581.191 792.403)"></path><path d="M0 0c3.766.015 6.231-1.575 8.323-3.931 2.278-2.566 3.43-5.671 4.191-8.925.527-2.256-.37-4.317-1.72-6.002-1.944-2.426-4.739-3.868-7.318-5.523-.889-.571-1.511.049-1.985.83-1.246 2.056-2.484 4.118-3.793 6.135-.637.981-.425 1.59.562 2.078 1.923.95 3.678 2.176 5.463 3.35.863.568 1.705 1.264.995 2.355-.742 1.14-1.839.884-2.846.253-2.949-1.846-5.889-3.706-8.837-5.555-2.687-1.684-5.398-3.331-8.062-5.051-1.556-1.004-1.587-1.926-.237-2.816.54-.356 1.034-.343 1.572-.013 1.524.935 3.125 1.746 4.548 2.846 1.175.908 1.675.772 2.437-.451a187 187 0 0 1 3.741-5.801c.667-.986.762-1.673-.441-2.33-1.838-1.004-3.644-2.045-5.541-2.957-2.754-1.324-5.244-.558-7.423.873-4.48 2.942-6.925 7.245-7.293 12.646-.225 3.298 1.804 5.342 4.172 7.062 5.099 3.7 10.543 6.87 15.97 10.057C-2.296-.15-.886-.106 0 0" clip-path="url(#m)" style="fill:#fadd14;fill-opacity:1;fill-rule:nonzero;stroke:none" transform="matrix(1.33333 0 0 -1.33333 178.837 743.994)"></path><path d="M0 0c3.443-.125 6.054-1.842 8.24-4.374.608-.704.42-1.536.454-2.344.047-1.146.619-1.664 1.702-1.1 1.473.768 2.909.549 4.294-.068 3.013-1.34 5.771-3.098 8.092-5.463 2.033-2.073 2.711-4.593 1.907-7.358-1.366-4.692-4.007-8.486-8.377-10.876-1.66-.907-3.496-.865-5.201-.176-2.327.942-4.404 2.372-6.511 3.73-.796.513-.984 1.094-.367 1.903 1.425 1.873 2.79 3.785 3.871 5.89.463.901 1.2 1.053 2.048.471 1.475-1.011 2.955-2.016 4.412-3.052.521-.37 1.044-.655 1.698-.557.58.087 1.103.293 1.309.911.184.55-.012 1.044-.426 1.384-2.06 1.691-4.241 3.233-6.671 4.323-1.27.569-2.441.142-3.34-1.092-1.607-2.204-1.654-2.168-3.892-.596-.335.235-.683.451-1.029.669-.806.509-.906 1.079-.376 1.919 2.149 3.405 2.088 3.623-1.265 5.897-.676.459-1.372.895-2.085 1.295-.846.474-1.624.284-2.156-.492-.513-.749-.095-1.388.504-1.861.752-.594 1.517-1.196 2.354-1.655 1.156-.635 1.153-1.436.539-2.402-1.227-1.932-2.487-3.843-3.697-5.786-.405-.65-.856-1.126-1.582-.567-1.654 1.275-3.444 2.356-4.827 4.001-1.332 1.585-1.703 3.311-1.088 5.149 1.436 4.289 3.701 8.07 7.312 10.933C-2.936-.379-1.586.124 0 0" clip-path="url(#n)" style="fill:#fadd14;fill-opacity:1;fill-rule:nonzero;stroke:none" transform="matrix(1.33333 0 0 -1.33333 609.316 749.359)"></path><path d="M4.289-19.676c-.082-.075-13.437-18.852-13.437-18.852s-14.029 18.336-13.685 18.822" clip-path="url(#o)" style="display:inline;fill:#000;fill-opacity:1;fill-rule:nonzero;stroke:none" transform="matrix(1.33333 0 0 -1.33333 409.232 906.912)"></path><path d="M0 0c0 5.886.017 11.771-.013 17.657-.007 1.289.34 1.94 1.789 1.666.739-.14 1.535-.073 2.294.008 1.48.158 1.985-.501 2.038-1.932.366-9.924.003-19.858.37-29.778.103-2.784-.833-5.001-2.189-7.297C.155-26.675-3.835-33.76-7.88-40.812c-.102-.177-.169-.377-.287-.542-.403-.57-.64-1.466-1.446-1.442-.814.024-.732.995-1.058 1.537-2.24 3.721-4.164 7.62-6.619 11.225-1.952 2.865-3.641 5.909-5.433 8.882-.268.445-.454.96-.11 1.446.336.473.831.228 1.277.193.763-.06 1.528-.132 2.293-.14 5.886-.065 11.775.179 17.659-.122 1.605-.082 1.669.954 1.667 2.119C.054-11.771.059-5.885.059 0z" clip-path="url(#p)" style="fill:#fadd14;fill-opacity:1;fill-rule:nonzero;stroke:none" transform="matrix(1.33333 0 0 -1.33333 409.405 893.354)"></path><path d="M0 0c.037-.748.493-1.002.886-1.324Q4.38-4.177 7.849-7.059c.497-.413.921-1.188 1.652-.768.84.483 1.073 1.479 1.233 2.365.137.751-.415 1.227-1.122 1.421-2.077.57-3.946 1.6-5.878 2.509C2.568-.984 1.525-.04 0 0m21.322 3.269c-.874-1.729.604-2.178 1.783-2.772.592-.298 1.227-.513 1.849-.749.939-.355 1.291-.971.859-1.923-1.057-2.328-2.133-4.648-3.179-6.981-.312-.695-.751-.735-1.356-.413a153 153 0 0 1-3.263 1.697c-.873.439-1.485.367-1.896-.717-1.051-2.772-2.31-5.458-3.6-8.13-.466-.964-.869-.869-1.772-.543-3.961 1.432-6.665 4.448-9.556 7.253C-2.41-6.517-6.009-3.021-9.673.405c-1.141 1.066-1.223 2.023-.526 3.367C-8.838 6.4-7.53 9.066-6.556 11.868c.485 1.395 1.374 1.343 2.426.867 3.306-1.495 6.6-3.019 9.9-4.529 2.649-1.211 5.308-2.402 7.945-3.638.822-.385 1.24-.025 1.594.643.652 1.228 1.558 1.384 2.65.583.68-.498 1.482-.679 2.254-.947.677-.235 1.182-.624 1.109-1.578" clip-path="url(#q)" style="fill:#fadd14;fill-opacity:1;fill-rule:nonzero;stroke:none" transform="matrix(1.33333 0 0 -1.33333 630.103 730.77)"></path><path d="M0 0c-.048 2.128-.096 3.817-.544 5.46-.268.983.17 1.489 1.093 1.602.861.107 1.736.183 2.6.152.876-.032 1.652.07 2.48.449 1.213.556 1.814.14 1.978-1.201.123-1.013.202-2.04.184-3.058-.02-1.144.464-1.797 1.595-1.774 3.064.062 6.125.308 9.131.892 1.671.325 2.194.204 2.487-1.44.514-2.893.487-5.687-.392-8.611-.841-2.796-.966-5.821-1.286-8.759-.59-5.432-1.107-10.873-1.622-16.313-.129-1.367-.739-2.12-2.146-2.342-1.932-.304-3.865-.393-5.813-.363-1.256.019-1.799.529-1.396 1.839.393 1.279.529 2.605.483 3.944-.109 3.148.87 6.162 1.131 9.268.39 4.629.893 9.248 1.362 13.87.127 1.25-.304 1.843-1.644 1.632-2.47-.389-5.001-.26-7.443-.945C1.12-6.011.523-5.35.362-4.275.128-2.713-.178-1.155 0 0" clip-path="url(#r)" style="fill:#fadd14;fill-opacity:1;fill-rule:nonzero;stroke:none" transform="matrix(1.33333 0 0 -1.33333 356.73 337.16)"></path><path d="M0 0c.767.013.995-.581 1.294-1.021 3.305-4.865 6.603-9.736 9.878-14.622a444 444 0 0 0 5.292-8.084c.429-.671.931-1.002 1.642-.656 1.104.537 1.688.059 2.238-.857.577-.962 1.263-1.861 1.93-2.767.576-.783.47-1.375-.35-1.918A3926 3926 0 0 1 8.63-38.761c-1.098-.731-1.984-.911-2.715.544-.476.947-1.21 1.77-1.871 2.616-.652.835-.55 1.446.37 2.002 1.269.767 2.478 1.636 3.754 2.391 1.146.678 1.268 1.494.56 2.547-3.856 5.728-7.721 11.45-11.55 17.196-.641.962-1.22 1.026-2.118.334-1.294-.998-2.69-1.863-4.002-2.838-.73-.542-1.196-.341-1.633.339-.773 1.204-1.565 2.396-2.341 3.6-.414.643-.463 1.153.32 1.653C-8.591-5.812-4.578-3.256-.741-.44c.244.179.523.312.741.44" clip-path="url(#s)" style="fill:#fadd14;fill-opacity:1;fill-rule:nonzero;stroke:none" transform="matrix(1.33333 0 0 -1.33333 244.023 376.69)"></path><path d="M0 0c-.494-4.028-.161-8.086-1.006-12.083-.261-1.234.486-2.383.564-3.615.178-2.808.2-5.623.555-8.423.224-1.767-.301-2.166-2.126-1.998-.662.061-1.327.098-1.992.119-2.419.078-2.535.195-2.618 2.682-.028.818-.041 1.638-.111 2.452-.034.392-.091.862-.616.932-.432.058-.612-.31-.803-.607-.831-1.29-1.679-2.571-2.47-3.885-.527-.876-1.267-1.351-2.264-1.322-1.533.045-3.07.108-4.594.271-.956.102-1.438.694-1.211 1.733.119.546.186 1.108.224 1.667.094 1.352-.546 3.123 1.989 2.886.73-.069 1.029.897 1.413 1.432 1.366 1.901 2.589 3.904 3.936 5.82.956 1.361 1.319 2.868 1.37 4.477.108 3.374.179 6.75.287 10.124.052 1.627-.371 2.092-2.032 2.122-3.274.058-3.274.058-3.142 3.375.143 3.569.266 3.738 3.807 3.134 2.903-.495 5.816-.378 8.727-.464C-.142 10.77.065 10.501.018 8.587-.051 5.727 0 2.863 0 0" clip-path="url(#t)" style="fill:#fadd14;fill-opacity:1;fill-rule:nonzero;stroke:none" transform="matrix(1.33333 0 0 -1.33333 418.287 348.594)"></path><path d="M0 0c-.986.05-1.374.622-1.675 1.313-.491 1.124-.995 2.242-1.496 3.362-.421.941-1.068 1.134-1.989.665-1.092-.555-2.123-1.232-3.334-1.552-.713-.189-.744-.747-.501-1.356.398-.995.68-2.04 1.368-2.904.814-1.023.502-1.729-.597-2.319-1.262-.677-2.648-1.086-3.849-1.902-.713-.484-1.273-.047-1.615.622-.44.864-.901 1.713-1.191 2.655C-15.396.262-16.071.53-17.611-.192c-3.26-1.53-6.515-3.072-9.788-4.573-1.037-.476-1.95-.488-2.497.827-.863 2.074-1.738 4.153-2.776 6.141-.649 1.242-.274 1.96.835 2.356 3.617 1.289 7.064 2.966 10.532 4.583 6.242 2.912 12.763 5.209 18.824 8.515 1.039.567 1.502.102 1.888-.764 1.645-3.689 3.295-7.376 4.94-11.065.145-.326.243-.677.408-.993 1.11-2.129 1.055-2.407-1.244-3.276C2.27 1.091 1.227.171 0 0" clip-path="url(#u)" style="fill:#fadd14;fill-opacity:1;fill-rule:nonzero;stroke:none" transform="matrix(1.33333 0 0 -1.33333 172.91 737.74)"></path><path d="M0 0c-1.068.092-1.424-.313-1.552-1.113a112 112 0 0 0-2.217-10.646c-.502-1.924-.769-2.059-2.633-1.338-.922.356-1.884.458-2.856.531-.97.073-1.408.584-1.157 1.541 1.811 6.914 3.098 13.942 4.518 20.94.258 1.271.863 1.5 1.936 1.046 1.965-.83 4.267-.653 6.056-2.018a.7.7 0 0 1 .44-.117c3.372.291 6.297-1.467 9.477-2.067 3.765-.711 7.538-1.421 11.246-2.373a42.5 42.5 0 0 1 5.295-1.011c1.581-.199 2.053-.909 1.608-2.443-.544-1.872-1.006-3.752-1.248-5.686-.132-1.052-.806-1.398-1.758-1.151-4.5 1.167-9.112 1.799-13.625 2.933C9.175-1.878 4.686-1.344.365-.058.172 0-.038.006 0 0" clip-path="url(#v)" style="fill:#fadd14;fill-opacity:1;fill-rule:nonzero;stroke:none" transform="matrix(1.33333 0 0 -1.33333 124.52 561.798)"></path><path d="M0 0c.163-4.351-2.742-6.654-5.932-8.65-1.856-1.162-3.922-1.986-5.87-3.009-.712-.373-1.23-.335-1.72.33-.916 1.242-1.357 2.734-2.176 4.04-.533.852.364 1.405 1.101 1.664 1.461.513 2.777 1.31 4.16 1.973 1.844.882 2.245 1.808 1.369 3.637a1795 1795 0 0 1-8.316 17.088c-.675 1.373-1.612 1.657-3.06.958-1.427-.687-2.806-1.473-4.21-2.206-1.481-.773-2.043-.561-2.724.928-.446.976-.98 1.911-1.43 2.885-.368.797-.286 1.533.594 1.944 3.239 1.515 6.457 3.083 9.745 4.485 3.146 1.34 6.407.187 8.112-2.838a166 166 0 0 0 4.486-8.56c1.593-3.26 3.428-6.4 4.817-9.764C-.398 3.316-.012 1.704 0 0" clip-path="url(#w)" style="fill:#fadd14;fill-opacity:1;fill-rule:nonzero;stroke:none" transform="matrix(1.33333 0 0 -1.33333 297.195 396.41)"></path><path d="M0 0c-2.291-.195-4.369.588-6.312 1.622-2.075 1.105-4.021 2.45-6.027 3.684-.749.461-.758.962-.218 1.632.803.996 1.548 2.047 2.04 3.238.374.906.987.975 1.72.551 1.417-.819 2.823-1.66 4.208-2.532 1.706-1.073 2.957-.91 4.032.819a940 940 0 0 1 9.1 14.942c1.748 2.935 1.697 2.981-1.172 4.867a58 58 0 0 1-3.531 2.173c-.916.513-1.103 1.096-.534 1.988.687 1.078 1.297 2.204 1.983 3.283.409.644.896 1.105 1.762.562 2.687-1.684 5.351-3.413 8.112-4.968 3.862-2.176 4.764-7.059 2.657-10.305-3.673-5.658-6.683-11.729-10.436-17.353C5.611 1.545 3.258.001 0 0" clip-path="url(#x)" style="fill:#fadd14;fill-opacity:1;fill-rule:nonzero;stroke:none" transform="matrix(1.33333 0 0 -1.33333 527.907 418.662)"></path><path d="M0 0c-1.172-1.161-1.151-3.144-2.285-4.558-.486-.604-1.112-.294-1.668.024-1.177.671-1.775.146-2.177-.985-2.036-5.73-4.658-11.217-7.041-16.803-1.162-2.722-2.398-5.414-3.511-8.155-.424-1.043-.875-1.339-1.946-.823-1.795.866-3.673 1.557-5.473 2.412-1.64.779-1.664 1.303-.917 2.882 1.636 3.461 3.176 6.969 4.702 10.48 1.527 3.512 2.929 7.079 4.511 10.565.544 1.197.808 2.511 1.642 3.608.528.694-.077 1.235-.743 1.533-1.818.812-3.615 1.683-5.478 2.376-1.293.481-1.477 1.074-.678 2.134.66.875.81 1.982 1.253 2.956.641 1.408 1.129 1.452 2.481.836 3.765-1.715 7.577-3.326 11.375-4.966 1.64-.707 3.291-1.388 4.939-2.075C-.47 1.214.007.941 0 0" clip-path="url(#y)" style="fill:#fadd14;fill-opacity:1;fill-rule:nonzero;stroke:none" transform="matrix(1.33333 0 0 -1.33333 523.657 363.74)" data-source="https://football-logos.cc"></path><path d="M0 0c-.554.069-.914.417-1.222.845-1.285 1.785-2.553 3.583-3.867 5.346-.686.923-.114 1.363.561 1.845q8.5 6.071 16.988 12.157c1.831 1.313 3.624 2.678 5.473 3.964.852.593.833 1.159.255 1.91-1.124 1.459-2.182 2.968-3.33 4.407-.792.994-.687 1.694.395 2.375.95.598 1.875 1.261 2.716 2.002.923.812 1.501.688 2.206-.307 3.282-4.627 6.622-9.213 9.945-13.811q.355-.49.75-.948c.545-.639.492-1.158-.218-1.657-1.108-.779-2.209-1.573-3.263-2.422-.883-.712-1.593-.677-2.098.359-.638 1.31-1.499 1.036-2.355.348-4.235-3.402-8.793-6.361-13.157-9.586C6.815 4.637 3.813 2.499.833.331.577.145.331-.022 0 0" clip-path="url(#z)" style="fill:#fadd14;fill-opacity:1;fill-rule:nonzero;stroke:none" transform="matrix(1.33333 0 0 -1.33333 597.6 489.954)"></path><path d="M0 0c-.592.102-.979.45-1.359.787-1.532 1.355-3.033 2.748-4.584 4.082-.905.779-.889 1.425-.07 2.296C1.31 14.957 8.408 22.952 15.491 30.962c.748.846.832 1.428-.095 2.13-.826.626-.799 1.327-.086 2.079.809.852 1.619 1.714 2.329 2.647.665.876 1.285.854 2.043.186 2.418-2.13 4.835-4.262 7.272-6.371.714-.618.643-1.101.037-1.785-7.13-8.035-14.259-16.071-21.541-23.971C3.959 4.261 2.57 2.551 1.133.885.804.504.525.052 0 0" clip-path="url(#A)" style="fill:#fadd14;fill-opacity:1;fill-rule:nonzero;stroke:none" transform="matrix(1.33333 0 0 -1.33333 558.488 453.468)"></path><path d="M0 0c2.474-.42 5.046-.848 7.614-1.293 2.672-.464 5.337-.967 8.013-1.405 1.179-.193 1.723-.616 1.362-1.948-1.071-3.952-1.49-8.031-2.206-12.053-.815-4.573-1.718-9.134-2.368-13.73-.322-2.281-.937-4.494-1.239-6.77-.239-1.812-.801-2.172-2.545-1.67-1.634.471-3.359.255-5.005.716-1.685.473-1.926.72-1.616 2.468 1.16 6.535 2.339 13.066 3.495 19.601.391 2.211.463 4.475 1.223 6.626.331.938-.092 1.535-1.113 1.777a60 60 0 0 1-6.034 1.13c-1.736.227-1.896.463-1.616 2.152.166 1.008.235 2.032.384 3.043C-1.523-.483-1.037.031 0 0" clip-path="url(#B)" style="fill:#fadd14;fill-opacity:1;fill-rule:nonzero;stroke:none" transform="matrix(1.33333 0 0 -1.33333 435.889 336.135)"></path><path d="M0 0c.023-.571-.309-.952-.687-1.314-1.071-1.028-2.135-2.064-3.209-3.089-1.188-1.133-1.623-1.102-2.71.216a759 759 0 0 0-5.095 6.224c-.671.832-1.47 1.074-2.549 1.046-4.552-.117-9.108-.144-13.662-.163-1.257-.005-1.657.738-.928 1.82 2.247 3.335 4.242 6.827 6.488 10.169s4.312 6.831 6.087 10.47c.212.434.226 1.138.865 1.139.648.001.862-.666 1.131-1.137 2.763-4.839 5.504-9.691 8.262-14.533 1.745-3.065 3.511-6.119 5.262-9.181C-.442 1.137-.07.635 0 0" clip-path="url(#C)" style="fill:#fadd14;fill-opacity:1;fill-rule:nonzero;stroke:none" transform="matrix(1.33333 0 0 -1.33333 417.04 841.261)"></path><path d="M0 0c-.44.008-.719-.147-.896-.402-.709-1.026-1.434-.713-2.181-.062-.424.371-.855.734-1.283 1.1-2.569 2.199-2.616 2.244-.364 4.626 1.61 1.703 3.085 3.509 4.519 5.353.722.93 1.38 1.09 2.245.177 3.223-3.396 6.992-6.15 10.619-9.081C17.315-2.051 21.76-6.074 26.373-9.89c3.323-2.75 2.679-2.183.396-4.933a532 532 0 0 0-4.86-5.746c-1.075-1.257-1.491-1.261-2.745-.129-.798.72-1.595 1.444-2.428 2.123-.855.697-.982 1.297-.082 2.114 1.421 1.289 1.377 1.447-.104 2.701C11.512-9.493 6.475-5.224 1.432-.961.968-.569.538-.11 0 0" clip-path="url(#D)" style="fill:#fadd14;fill-opacity:1;fill-rule:nonzero;stroke:none" transform="matrix(1.33333 0 0 -1.33333 179.924 445.271)"></path><path d="M0 0c-.371-.896-.818-1.813-1.21-2.745-1.028-2.448-2.295-4.797-3.433-7.201-.474-1.002-1.089-1.226-2.079-.684-1.077.588-2.195 1.104-3.315 1.607-1.017.458-1.073 1.054-.489 1.94.88 1.333.58 2.03-.927 2.66a292 292 0 0 0-18.65 8.598c-.923.465-1.456.342-1.76-.616-.314-.993-.845-1.117-1.739-.638-1.216.653-2.491 1.194-3.737 1.791-.957.458-.986 1.016-.485 1.967 1.331 2.525 2.596 5.095 3.698 7.726.463 1.104.902 1.306 1.92.836 4.364-2.018 8.746-3.996 13.115-6.004C-13.983 6.889-8.882 4.524-3.777 2.17A207 207 0 0 1-.7.782C-.362.633-.043.491 0 0" clip-path="url(#E)" style="fill:#fadd14;fill-opacity:1;fill-rule:nonzero;stroke:none" transform="matrix(1.33333 0 0 -1.33333 181.824 515.159)"></path><path d="M0 0c.01-.449-.208-.773-.546-1.045-1.794-1.446-3.61-2.864-5.362-4.358-.961-.82-1.581-.713-2.371.279-3.793 4.765-7.652 9.479-11.489 14.209q-.485.595-.996 1.169c-2.342 2.634-2.735 2.664-5.469.438-1.806-1.471-3.574-.916-4.362 1.354-.172.497-.06.912.271 1.276 2.321 2.55 3.476 5.659 4.086 8.96.421 2.285 2.397 3.073 3.814 4.388.537.499 1.119-.106 1.526-.605q6.738-8.277 13.484-16.546c2.201-2.697 4.413-5.386 6.623-8.076C-.436 1.01-.002.624 0 0" clip-path="url(#F)" style="fill:#fadd14;fill-opacity:1;fill-rule:nonzero;stroke:none" transform="matrix(1.33333 0 0 -1.33333 585.434 843.255)"></path><path d="M0 0c.059-.75-.516-.933-1.041-1.131-3.065-1.154-6.123-2.329-9.204-3.437-4.516-1.625-9.051-3.196-13.575-4.797-3.371-1.193-6.803-2.225-10.047-3.753-.745-.351-1.06-.046-1.176.639-.395 2.335-1.256 4.511-2.213 6.66-.423.951-.297 1.583.871 1.968A589 589 0 0 1-23.643.538c4.383 1.559 8.741 3.185 13.112 4.777.425.155 1.117.208 1.039.731-.288 1.939 1.333 1.881 2.378 2.363 3.329 1.535 3.383 1.531 4.736-1.771C-1.525 4.558-.828 2.415-.063.3-.029.205-.02.1 0 0" clip-path="url(#G)" style="fill:#fadd14;fill-opacity:1;fill-rule:nonzero;stroke:none" transform="matrix(1.33333 0 0 -1.33333 671.353 531.403)"></path><path d="M0 0c-.392.018-.639.256-.89.529-1.523 1.655-3.038 3.317-4.598 4.936-.728.755-.744 1.312.093 2.021 6.91 5.854 13.339 12.232 20.002 18.355.736.676 1.187 1.379.831 2.42-.188.549.09.971.504 1.344.911.821 1.799 1.667 2.695 2.505.614.575 1.207.472 1.742-.092 1.971-2.078 3.921-4.175 5.897-6.247.784-.821.436-1.449-.246-2.079-5.863-5.408-11.727-10.815-17.581-16.233C6.047 5.237 3.667 2.991 1.279.753.907.405.582-.013 0 0" clip-path="url(#H)" style="fill:#fadd14;fill-opacity:1;fill-rule:nonzero;stroke:none" transform="matrix(1.33333 0 0 -1.33333 578.01 464.79)"></path><path d="M0 0c2.068-.625 4.236-1.227 6.367-1.936 3.319-1.103 3.251-1.118 2.271-4.483-1.911-6.557-3.643-13.168-5.662-19.692-1.102-3.56-1.994-7.18-3.168-10.718-.411-1.235-1.028-1.59-2.303-1.101-1.906.731-3.875 1.3-5.819 1.931-1.154.374-1.586.865-.804 2.115.894 1.428 1.033 3.185 1.531 4.785 1.514 4.868 2.792 9.808 4.197 14.71.59 2.058 1.198 4.115 1.936 6.122.338.918.338 1.563-.499 2.112-.042.028-.096.054-.118.096-1.012 1.899.619 3.429.738 5.177C-1.287-.214-.718.002 0 0" clip-path="url(#I)" style="fill:#fadd14;fill-opacity:1;fill-rule:nonzero;stroke:none" transform="matrix(1.33333 0 0 -1.33333 471.976 343.374)"></path><path d="M0 0c.231-5.185-.33-8.856-.06-12.542.048-.656-.027-1.409-.812-1.655-.884-.278-1.302.396-1.663 1.025A3248 3248 0 0 0-9.949-.234a1313 1313 0 0 0-5.789 10.284c-.259.465-.817.961-.427 1.521.329.472.947.161 1.442.161 4.194-.003 8.389-.044 12.583.016 1.744.025 2.099-.118 2.124-1.9C.037 6.065 0 2.281 0 0" clip-path="url(#J)" style="fill:#fadd14;fill-opacity:1;fill-rule:nonzero;stroke:none" transform="matrix(1.33333 0 0 -1.33333 356.445 857.681)"></path><path d="M0 0c-.684-1.656-.499-3.78-1.196-5.718-.398-1.105-1.052-1.52-2.37-1.213-4.223.985-8.471 1.889-12.741 2.646-2.926.518-5.714 1.594-8.678 1.937-1.115.129-1.194 1.043-.909 1.889.624 1.851 1.119 3.716 1.247 5.676.075 1.148.897 1.238 1.791 1.06q3.157-.63 6.307-1.299c5.046-1.069 10.093-2.14 15.136-3.229C-.643 1.583.113 1.325 0 0" clip-path="url(#K)" style="fill:#fadd14;fill-opacity:1;fill-rule:nonzero;stroke:none" transform="matrix(1.33333 0 0 -1.33333 160.72 578.647)"></path><path d="M0 0c-.722-.027-1.07.346-1.404.747-2.523 3.027-5.056 6.045-7.562 9.086-.554.671-1.041 1.227-2.049.798-.71-.302-1.269.135-1.722.684-.848 1.025-1.675 2.068-2.563 3.057-.665.741-.417 1.345.236 1.815 2.295 1.65 4.314 3.619 6.426 5.48.825.727 1.35.534 2.017-.249 4.08-4.795 8.18-9.573 12.329-14.308.871-.993.921-1.712-.106-2.556C3.981 3.221 2.403 1.836.794.488.529.265.198.12 0 0" clip-path="url(#L)" style="fill:#fadd14;fill-opacity:1;fill-rule:nonzero;stroke:none" transform="matrix(1.33333 0 0 -1.33333 225.321 427.155)"></path><path d="M0 0c-.834-1.971-1.39-4.479-2.645-6.72-.304-.542-.828-.458-1.36-.273-1.926.673-3.926 1.177-5.774 2.015-1.825.828-3.829 1.082-5.61 2.009-.82.426-1.672.402-2.333-.453-.433-.559-1.057-.667-1.652-.317-1.119.66-2.378.92-3.572 1.366-1.012.378-1.328 1.074-.826 2.059 1.142 2.239 1.783 4.659 2.544 7.034.599 1.87.876 1.901 2.708 1.216 4.061-1.518 8.162-2.937 12.276-4.307 1.79-.596 3.494-1.448 5.376-1.783C-.137 1.717.031 1.092 0 0" clip-path="url(#M)" style="fill:#fadd14;fill-opacity:1;fill-rule:nonzero;stroke:none" transform="matrix(1.33333 0 0 -1.33333 152.97 532.463)"></path><path d="M0 0c1.533-.003 3.099-1.526 3.107-3.024.01-1.549-1.764-3.379-3.245-3.348-1.583.033-3.123 1.639-3.1 3.232C-3.21-1.243-1.924.004 0 0" clip-path="url(#N)" style="fill:#fadd14;fill-opacity:1;fill-rule:nonzero;stroke:none" transform="matrix(1.33333 0 0 -1.33333 365.501 872.218)"></path><path d="M0 0c0-12.237.003-24.474-.009-36.711 0-.712-.143-1.424-.187-2.137-.028-.45-.118-1.01.519-1.104.513-.075.678.396.797.783.242.782.54 1.564.643 2.368.755 5.941 2.205 11.753 3.244 17.641.949 5.38 2.324 10.693 3.09 16.096.542 3.826 1.54 7.542 2.171 11.344 1.407 8.464 3.219 16.861 4.851 25.288.233 1.204.382 2.417.714 3.608.306 1.094.147 2.121-.466 3.214C9.163 51.452 3.043 62.562-3.128 73.643c-1.12 2.009-2.364 3.95-3.562 5.915-.27.441-.619.862-.32 1.405.306.555.87.45 1.373.446 3.227-.022 6.466-.232 9.679-.031 3.669.23 7.326.562 11.011.591 1.282.011 2.176-.34 2.923-1.278 1.531-1.922 3.136-3.791 4.563-5.787 3.456-4.833 7.214-9.433 10.831-14.142.688-.895.834-1.684.506-2.681-1.836-5.58-3.495-11.214-5.179-16.842-1.815-6.063-3.991-12.024-5.642-18.129-1.354-5.004-3.107-9.873-4.507-14.859-1.765-6.289-3.844-12.489-5.758-18.736-1.466-4.786-2.784-9.619-4.356-14.369-1.236-3.734-2.18-7.567-3.719-11.202a6.3 6.3 0 0 1-.422-1.625c-.053-.401-.498-.96.132-1.206.48-.188.868.238 1.15.6 1.306 1.682 2.023 3.651 2.75 5.623 1.059 2.874 2.164 5.731 3.257 8.592 1.975 5.164 3.938 10.332 5.939 15.485 1.341 3.455 2.758 6.881 4.109 10.333 1.582 4.044 3.119 8.105 4.691 12.153 1.452 3.738 2.945 7.459 4.384 11.202 1.979 5.152 3.912 10.323 5.89 15.475 1.006 2.621 2.002 5.249 3.126 7.82.94 2.15 1.303 4.491 2.438 6.584.781 1.439 1.662 2.522 3.163 3.339 5.482 2.985 10.863 6.153 16.29 9.24 7.294 4.15 14.597 8.285 21.891 12.437.797.454 1.542 1.001 2.341 1.452s1.325.207 1.628-.689q2.06-6.102 4.167-12.187c1.669-4.823 3.359-9.639 5.036-14.459q.178-.508.312-1.029c.088-.35.177-.738-.166-.992-.33-.244-.694-.103-1.012.077-3.794 2.148-7.973 3.466-11.83 5.481-2.289 1.196-2.399 1.099-3.952-1.026-8.575-11.74-17.179-23.46-25.763-35.195-7.102-9.709-14.187-19.432-21.29-29.14a57 57 0 0 0-2.564-3.255c-.799-.939-.726-1.683.221-2.477 2.403-2.014 2.388-2.032 4.551.159C47.559-.748 60.418 11.296 72.938 23.687 86.954 37.556 101 51.395 115.027 65.253c2.225 2.199 2.185 2.195.107 4.608a1064 1064 0 0 0-8.546 10.071c-.406.484-1.07 1.012-.689 1.73.36.677 1.103.295 1.69.293 5.686-.02 11.373-.062 17.06-.058 7.89.005 15.78.041 23.67.071 1.637.006 3.279-.103 4.904.22.394.078.856.169 1.137-.228.34-.481-.008-.892-.282-1.241-.28-.358-.63-.67-.984-.96-9.342-7.663-18.446-15.608-27.757-23.31-9.784-8.092-19.323-16.479-29.033-24.661a3549 3549 0 0 0-30.319-25.28C55.276-2.314 44.469-11.017 33.728-19.801c-8.641-7.066-17.221-14.206-25.883-21.246-2.703-2.196-5.39-4.409-8.016-6.693-.673-.586-1.274-.782-2.028-.16-6.987 5.767-14.288 11.139-21.225 16.972-7.17 6.03-14.418 11.967-21.642 17.934C-52.922-6.506-60.8-.044-68.649 6.454c-7.77 6.432-15.493 12.921-23.276 19.337-11.614 9.576-23.276 19.094-34.89 28.669-7.823 6.449-15.593 12.961-23.397 19.432-2.365 1.961-4.771 3.872-7.14 5.827-.55.454-1.039.985-1.534 1.502-.205.215-.441.479-.266.811.172.327.526.29.821.259 4.391-.471 8.841.032 13.192-.493 5.05-.611 10.101-.911 15.134-.615 2.904.17 4.372-.828 5.878-3.167 4.999-7.766 10.27-15.356 15.431-23.017.572-.848 1.107-1.722 1.662-2.583.265-.412.388-1.018 1.072-.91.57.089.852.531 1.06 1.014.989 2.302 1.967 4.609 2.958 6.911 1.538 3.569 3.085 7.134 4.623 10.703 1.213 2.813 2.532 5.58 3.527 8.484.164.478.387.959.684 1.363.508.69.967.812 1.443-.135 3.047-6.064 6.458-11.93 9.762-17.855 3.587-6.434 7.184-12.864 10.774-19.297 3.24-5.806 6.484-11.609 9.709-17.423a742 742 0 0 0 4.473-8.221c.738-1.369 1.193-1.511 2.531-.717 2.781 1.652 2.844 1.685 1.32 4.573-4.897 9.274-9.855 18.515-14.771 27.778-4.028 7.59-8.027 15.196-12.05 22.788-.359.677-.815 1.302-1.188 1.972-.217.39-.549.873-.117 1.256.448.398.863-.037 1.214-.302 2.292-1.731 4.771-3.171 7.203-4.686 8.125-5.058 16.226-10.154 24.363-15.192 1.253-.775 1.997-1.9 2.532-3.15.855-1.996 1.789-3.943 2.752-5.889.956-1.933 1.801-3.932 2.714-5.895 1.637-3.522 3.426-6.977 5.007-10.513 1.683-3.764 3.503-7.459 5.219-11.203A2276 2276 0 0 1-22.218.568c2.804-5.986 5.712-11.923 8.473-17.928 2.276-4.95 5.146-9.583 7.517-14.478.667-1.377 1.227-2.807 1.789-4.231.188-.475.276-.988.659-1.363.224-.219.483-.407.814-.267.287.122.247.414.266.664.007.102.021.209.001.307-.86 4.185-.282 8.467-.944 12.687-.666 4.241-.675 8.566-.947 12.856-.404 6.379-.687 12.786-1.394 19.123-1.021 9.158-1.262 18.361-2.171 27.517a18.6 18.6 0 0 1-.514 2.816 2.1 2.1 0 0 1-.997 1.298c-4.576 2.576-9.199 5.072-13.735 7.717-7.837 4.57-15.602 9.262-23.434 13.843-8.434 4.933-16.913 9.791-25.366 14.692a365 365 0 0 0-7.792 4.62c-.526.323-1.422.737-1.172 1.432.294.818 1.159.219 1.778.204 3.685-.086 7.37-.246 11.056-.252 14.244-.024 28.49.127 42.73-.086 3.35-.05 6.706-.407 10.079-.268 1.425.058 1.779-1.163 2.119-2.262.832-2.686 1.521-5.417 2.568-8.033C-8.612 65.617-6.5 60.014-4.74 54.291-3.116 49.012-1.478 43.739.362 38.53c.246-.697.196-1.516.197-2.279C.57 24.168.567 12.084.567 0z" clip-path="url(#O)" style="fill:#0a0a03;fill-opacity:1;fill-rule:nonzero;stroke:none" transform="matrix(1.33333 0 0 -1.33333 398.159 698.917)"></path><path d="M0 0c2.596.773 4.606-.681 6.62-2.574 6.638-6.241 13.379-12.372 20.091-18.533.561-.516 1.191-.963 1.817-1.402.425-.299.954-.545.781-1.166-.176-.628-.76-.573-1.276-.57-17.513.095-35.026.17-52.538.292-6.246.044-12.493-.147-18.74.102-1.255.05-2.299.473-3.31 1.05-11.592 6.619-23.169 13.264-34.759 19.887-1.01.577-2.088 1.035-3.126 1.565-.427.219-.801.589-.703 1.069.125.607.714.467 1.151.438 9.464-.629 18.939-.115 28.407-.24 5.684-.076 11.369.024 17.054.053.547.002 1.21-.168 1.543.416.343.601-.208 1.041-.478 1.513-1.399 2.439-2.808 4.873-4.197 7.317-.22.387-.567.818-.274 1.277.262.41.758.277 1.136.196 2.729-.579 5.522-.23 8.261-.589 1.401-.184 1.537.454 1.586 1.677.145 3.627-1.16 7.048-1.31 10.631-.093 2.231-.005 4.522-.926 6.655-.101.235-.121.541.111.704.243.173.504.013.681-.173.457-.481.946-.945 1.324-1.484 3.231-4.609 6.437-9.234 9.657-13.851.928-1.332 1.215-1.343 2.273-.119 2.946 3.407 6.018 6.705 8.785 10.265.248.319.577.579.887.844.231.197.5.423.823.254.426-.222.289-.598.169-.941-1.07-3.051-.701-6.288-1.218-9.41-.259-1.562-.545-3.121-.717-4.693-.166-1.502.252-1.854 1.738-1.575 3.326.625 6.739.317 10.069.993 1.194.243 2.428.318 3.622.626.503.13 1.112.178 1.354-.389.229-.534-.292-.803-.671-1.059C2.335 6.787-.288 3.609-3.71 1.413c-.306-.196-.603-.439-.507-.863.117-.52.565-.538.973-.545C-2.272-.011-1.299 0 0 0" clip-path="url(#P)" style="fill:#0a0a03;fill-opacity:1;fill-rule:nonzero;stroke:none" transform="matrix(1.33333 0 0 -1.33333 531.061 515.978)"></path><path d="M0 0q-15.752-.001-31.502.003c-.608 0-1.352-.096-1.573.635-.21.694.507.901.948 1.213 3.645 2.582 6.755 5.792 10.139 8.68 4.399 3.754 8.548 7.799 13.047 11.441.97.785.965 1.481.009 2.228-4.831 3.773-9.589 7.645-14.513 11.293-5.962 4.416-11.653 9.194-17.803 13.358-.337.229-.795.414-.621.916.187.539.713.521 1.174.484 11.304-.907 22.627-.266 33.94-.41 10.652-.135 21.307-.09 31.962-.119 1.432-.004 2.867-.062 4.283.269.442.104.992.173 1.246-.317.281-.542-.24-.848-.567-1.12-2.952-2.455-5.824-5.019-8.907-7.298-5.681-4.2-11.152-8.661-16.709-13.016-2.545-1.996-4.75-4.35-7.136-6.511a19.6 19.6 0 0 0-3.351-2.432c-.365-.211-.725-.453-.659-.939.077-.575.551-.676 1.022-.744 2.635-.381 5.307-.595 7.895-1.179 4.049-.914 8.251-.729 12.262-1.92 1.445-.43 3.056-.265 4.566-.522 4.531-.771 9.11-1.146 13.637-2.042 5.558-1.099 11.238-1.581 16.865-2.329.051-.007.103-.007.153-.017.81-.177 2.061.039 2.134-1.012.066-.943-1.183-.666-1.839-.955-3.275-1.445-6.551-2.887-9.814-4.358-2.142-.965-4.261-1.982-6.393-2.968-.856-.396-1.766-.475-2.7-.474C20.797-.155 10.398-.158 0-.158z" clip-path="url(#Q)" style="fill:#0a0a03;fill-opacity:1;fill-rule:nonzero;stroke:none" transform="matrix(1.33333 0 0 -1.33333 362.028 582.549)"></path><path d="M0 0c4.78-1.73 9.819-2.072 14.683-3.222 4.868-1.15 9.835-1.901 14.739-2.941 5.401-1.146 10.805-2.293 16.242-3.248 3.482-.611 6.917-1.419 10.377-2.12.89-.181 1.495.252 2.041.8 3.578 3.59 7.171 7.168 10.686 10.82.89.925 1.574.96 2.452.133C76.66-4.9 82.107-10.014 87.546-15.136c1.304-1.227 2.5-2.57 4.004-3.577.481-.323.922-.768.682-1.403-.234-.621-.857-.442-1.347-.427-8.962.28-17.937.35-26.889.065-23.502-.75-47.003-.117-70.504-.34-10.09-.096-20.182-.072-30.273-.111-1.021-.004-2.046.047-3.059-.196-.494-.118-1.13-.216-1.356.366-.224.578.359.937.747 1.21.708.499 1.52.848 2.242 1.328 4.948 3.284 9.882 6.586 14.822 9.881 3.574 2.384 7.288 4.563 10.659 7.245.756.601 1.394.48 2.012-.192 1.769-1.921 3.672-3.735 5.285-5.778 2.609-3.305 5.568-6.281 8.365-9.409.755-.844 1.322-1.097 2.095.131 1.443 2.293 3.064 4.475 4.635 6.686 1.076 1.514 1.072 1.76-.423 2.757-2.426 1.619-4.772 3.358-7.365 4.723C1.028-1.731.328-1.054 0 0" clip-path="url(#R)" style="fill:#0a0a03;fill-opacity:1;fill-rule:nonzero;stroke:none" transform="matrix(1.33333 0 0 -1.33333 483.148 555.497)"></path><path d="M0 0q-15.747-.001-31.495.003c-.446 0-1.043-.151-1.21.389-.173.556.352.951.723 1.256 2.892 2.376 5.504 5.055 8.257 7.58 5.92 5.429 11.965 10.724 17.594 16.466 7.275 7.42 15.093 14.27 22.611 21.435 4.553 4.339 2.567 3.346 8.719 3.396 5.223.042 10.448-.01 15.672.028 1.273.009 2.544.217 3.818.318.407.032.906.081 1.085-.368.209-.524-.311-.683-.65-.869a973 973 0 0 0-6.74-3.643c-4.552-2.433-9.102-4.87-13.664-7.283-7.006-3.705-14.036-7.363-21.023-11.104-2.281-1.221-4.47-2.617-6.674-3.979-.887-.547-.913-1.182.065-1.722 4.196-2.316 8.396-4.624 12.584-6.953a565 565 0 0 0 8.413-4.757c1.092-.632 2.134-.956 3.471-.798 5.889.695 11.654 2.118 17.528 2.891 6.123.805 12.149 2.208 18.306 2.87 2.454.263 4.863 1.158 7.36 1.422.458.048 1.157.356 1.314-.332.156-.683-.53-.907-1.05-1.108-5.969-2.312-11.613-5.333-17.415-8.009-2.794-1.289-5.524-2.715-8.35-3.953-2.076-.91-3.984-2.183-6.165-2.916-.546-.184-1.065-.299-1.593-.282C20.995.316 10.496-.02 0 0" clip-path="url(#S)" style="fill:#0a0a03;fill-opacity:1;fill-rule:nonzero;stroke:none" transform="matrix(1.33333 0 0 -1.33333 230.113 583.639)"></path><path d="M0 0c-9.372.142-18.747-.165-28.117.223-1.122.047-2.251-.091-3.376-.083-.51.004-1.085.134-1.157.776-.064.569.436.753.866.93 7.047 2.9 13.795 6.439 20.697 9.647 5.511 2.562 11.017 5.132 16.436 7.88 1.55.786 2.652.606 4.008-.461 6.517-5.127 13.112-10.155 19.69-15.205.891-.684 1.848-1.283 2.764-1.938.419-.3.877-.635.681-1.244-.209-.645-.803-.52-1.3-.521Q15.595.001 0 0" clip-path="url(#T)" style="fill:#0a0a03;fill-opacity:1;fill-rule:nonzero;stroke:none" transform="matrix(1.33333 0 0 -1.33333 287.114 550.199)"></path><path d="M0 0c-6.862 0-13.724-.013-20.586.006-3.07.008-6.139.077-9.208.122-.405.006-.882-.047-1.027.451-.138.471.24.772.566.999 2.262 1.58 4.522 3.164 6.814 4.7 5.827 3.905 11.348 8.226 16.932 12.459.916.695 1.66.739 2.64.161 7.926-4.683 15.88-9.319 23.811-13.996 2.202-1.298 4.31-2.763 6.739-3.643.344-.124.68-.322.637-.754-.051-.522-.484-.636-.901-.643-.818-.013-1.637.044-2.455.044Q11.98-.089 0-.091Z" clip-path="url(#U)" style="fill:#0a0a03;fill-opacity:1;fill-rule:nonzero;stroke:none" transform="matrix(1.33333 0 0 -1.33333 417.135 548.021)"></path><path d="M0 0c.627-.041 1.005-.308 1.348-.618 2.238-2.021 4.478-4.039 6.699-6.079.913-.839 1.213-1.765.197-2.766-.986-.971-1.748-.348-2.502.346C3.599-7.144 1.408-5.221-.669-3.18-1.82-2.049-1.745-1.078-.698-.321-.462-.15-.16-.071 0 0" clip-path="url(#V)" style="fill:#0a0a03;fill-opacity:1;fill-rule:nonzero;stroke:none" transform="matrix(1.33333 0 0 -1.33333 581.191 792.403)"></path><path d="M0 0c1.525-.04 2.568-.984 3.734-1.532 1.932-.909 3.801-1.939 5.878-2.509.707-.194 1.259-.67 1.122-1.421-.16-.886-.393-1.882-1.233-2.365-.731-.42-1.155.355-1.652.768A1092 1092 0 0 1 .886-1.324C.493-1.002.037-.748 0 0" clip-path="url(#W)" style="fill:#0a0a03;fill-opacity:1;fill-rule:nonzero;stroke:none" transform="matrix(1.33333 0 0 -1.33333 630.103 730.77)"></path><path d="M0 0c.063.661-.493 1.817.333 2.136.892.346 1.101-.951 1.623-1.506.734-.783 1.393-1.635 2.083-2.459.756-.903 1.562-.883 2.366-.089C7.096-1.235 7.751-.516 8.42.19c.344.363.638.907 1.245.663.52-.209.421-.761.446-1.213.093-1.632.205-3.263.269-4.897.048-1.214.562-1.494 1.696-1.087 1.466.526 2.666 1.524 4.077 2.13.348.15.749.625 1.09.269.395-.413-.041-.879-.289-1.227a94 94 0 0 0-2.751-3.679c-1.409-1.783-1.385-2.002.247-3.511 2.166-2.004 4.297-4.046 6.438-6.079.276-.262.802-.475.516-.966-.25-.43-.733-.307-1.111-.144-3.472 1.493-7.268 1.694-10.849 2.741-.98.286-1.509.066-1.892-.905-.787-1.997-1.68-3.953-2.515-5.931-.142-.338-.241-.751-.667-.733-.519.021-.572.509-.671.902-.572 2.282-1.092 4.578-1.723 6.843-.612 2.195-1.131 2.443-3.16 1.525-1.893-.857-3.987-.895-5.92-1.596-1.678-.608-3.488-.802-5.134-1.565-.479-.223-1.224-.398-1.503.23-.229.513.462.703.813.95 3.65 2.572 6.768 5.775 10.215 8.585.849.694.811 1.36.125 2.069-.71.736-1.488 1.408-2.198 2.145-.378.392-.922.855-.594 1.444.311.559.923.178 1.406.122.253-.029.502-.097.753-.15C-.317-3.499.181-3.075 0 0" clip-path="url(#X)" style="fill:#fadd14;fill-opacity:1;fill-rule:nonzero;stroke:none" transform="matrix(1.33333 0 0 -1.33333 496.544 506.34)" data-source="https://football-logos.cc"></path><!-- source: https://football-logos.cc --></svg>