<svg xmlns="http://www.w3.org/2000/svg" xml:space="preserve" viewBox="0 0 249.45 291.5"><!-- Source: https://football-logos.cc --><path d="m1693.26 1180.11 208.55 359.19H1484.7l-192.2 331-177.68-305.99c-64.29 21.38-132.949 33.13-204.336 33.13-358.019 0-649.296-291.28-649.296-649.303 0-358.02 291.277-649.293 649.296-649.293 314.486 0 577.396 224.773 636.696 522.086h354.63z" style="fill:#fff;fill-opacity:1;fill-rule:evenodd;stroke:none" transform="matrix(.13333 0 0 -.13333 -4.126 300.647)" data-source="https://football-logos.cc"></path><path d="M1547.18 820.93c-59.3-297.313-322.21-522.086-636.696-522.086-358.019 0-649.296 291.273-649.296 649.293 0 358.023 291.277 649.303 649.296 649.303 71.387 0 140.046-11.75 204.336-33.13l117.53 202.39c-99.73 39.35-208.32 60.98-321.866 60.98-484.98 0-879.539-394.56-879.539-879.543 0-484.977 394.559-879.54 879.539-879.54 441.786 0 808.476 327.419 870.306 752.333z" style="fill:#0a6938;fill-opacity:1;fill-rule:evenodd;stroke:none" transform="matrix(.13333 0 0 -.13333 -4.126 300.647)"></path><path d="M1057.65 1107.02c20.37 0 41.44 15.5 41.44 41.44 0 25.95-21.07 41.45-41.44 41.45s-41.44-15.5-41.44-41.45c0-25.94 21.07-41.44 41.44-41.44M1292.5 1741.91l-139.04-239.45h105.47l84.22-145.06 84.23 145.06 2.08 3.58zM795.168 1474.82l155.152-267.19 155.14 267.19z" style="fill:#231f20;fill-opacity:1;fill-rule:evenodd;stroke:none" transform="matrix(.13333 0 0 -.13333 -4.126 300.647)"></path><path d="M1789.83 1474.82h-346.54l-100.14-172.44-100.13 172.44h-84.47l133.95-230.24V903.816l46.94 64.469v276.295h162.58l59.36-174.99h-102.21V885.395h330.66l-171.12 294.715z" style="fill:#231f20;fill-opacity:1;fill-rule:evenodd;stroke:none" transform="matrix(.13333 0 0 -.13333 -4.126 300.647)"></path><path d="M1218.82 1060.38v218.93l-97.46 167.85L1014.43 1263h139.92v-202.62H896.777L795.168 885.395h460.492v174.985z" style="fill:#231f20;fill-opacity:1;fill-rule:evenodd;stroke:none" transform="matrix(.13333 0 0 -.13333 -4.126 300.647)"></path><path d="M1367.07 1228V959.293l-73.92-101.527h-139.69l139.04-239.457 139.04 239.457V1228zM1257.87 586.254C1170.73 502.59 1053.54 450 924.301 446.48v28.399l138.959 87.707 184.42 41.207-14.55 25.059-141.83-31.696-74.91 148.524v93.668h-27.62v-75.407H715.848l-59.102 105.34 144.817 219.289 46.183-20.92 13.942 24.01-71.317 32.31-92.219 117.05 107.575 123.92-14.661 25.25-135.605-156.31-150.664-80.58-37.176 30.71c62.777 117.35 170.813 207 300.649 245.44l-12.922 22.25-1.328 2.29c-216.055-66.74-373.102-267.87-373.102-505.853 0-292.465 237.098-529.563 529.566-529.563 139.916 0 267.066 54.348 361.716 142.996z" style="fill:#231f20;fill-opacity:1;fill-rule:evenodd;stroke:none" transform="matrix(.13333 0 0 -.13333 -4.126 300.647)" data-source="https://football-logos.cc"></path><path d="M408.547 948.137c0 75.153 16.609 146.493 46.344 210.553l35.558-29.37-11.261-191.414-60.95-87.871c-6.316 31.742-9.691 64.531-9.691 98.102M426.887 814.027l64.398 92.844 137.754-44.68 67.559-120.402-15.047-161.762-114.16 2.231c-66.192 62.113-115.543 141.89-140.504 231.769M896.672 446.551c-111.688 3.043-214.328 42.691-296.406 107.433l112.636-2.211 183.77-79.625zM517.953 229.488l-28.004-7.066-7.32 27.957 28.008 7.066zM679.008 162.656l-26.488-12.504-12.793 26.352 26.503 12.508zM641.414 219.859c-8.012-16.812-18.406-28.91-31.18-36.277-6.851-3.914-13.976-4.965-21.371-3.137q-7.095 1.746-31.336 13.289l-27.414 13.055 20.254 22.555 39.387-18.754q26.532-12.645 41.094 17.918 9.89 20.778 1.043 33.09c-3.286 4.562-10 9.261-20.176 14.113q-3.395 1.616-10.223 4.422c-4.566 1.871-7.976 3.355-10.234 4.433-4.528 2.153-7.512 5.707-8.965 10.657q-2.185 7.43 1.109 14.34c5.61 11.792 12.664 16.562 21.153 14.304q-3.587-7.528-.528-11.476 1.74-2.31 10.149-6.301c2.429-1.168 6.105-2.766 11.015-4.801 4.907-2.039 8.582-3.633 11.02-4.793 10.234-4.879 16.305-12.109 18.223-21.691 2.539-13.067-1.801-31.387-13.02-54.946M828.953 186.754c-3.926-20.492-13.746-42.129-29.457-64.922l-61.855 11.856 15.129 26.699 27.367-5.25c7.929-1.528 14.414-2.028 19.449-1.528q8.76 7.817 11.719 23.227c1.988 10.363.215 19.715-5.309 28.074-5.523 8.363-13.433 13.528-23.738 15.5-15.59 2.996-28.953-3.82-40.074-20.43-7.551-11.265-12.649-23.82-15.305-37.664-1.254-6.531-1.922-12.211-1.992-17.043l-18.317-8.964q.102 7.788 2.114 18.238c5.285 27.598 19.699 51.301 43.226 71.101l.531 2.778c-.55.929-4.882 3.129-12.984 6.613-8.867 3.801-12.293 10.941-10.277 21.434 1.886 9.871 7.691 14.843 17.414 14.902-1.93-6.207-1.168-9.914 2.301-11.125l10.937-3.73q10.652-3.696 8.402-15.454l-1.339-7 1.257-2.703c5.508.68 15.719 8.285 30.641 22.825q38.295-25.066 30.16-67.434M1020.3 222.391c-6.57-13.618-9.63-22.7-9.17-27.258a98.3 98.3 0 0 1 3.34-17.445l7.49-26.293c1.02-3.622 1.66-6.907 1.9-9.86.58-7.078-5.67-15.609-18.77-25.605l-3.46 42.375c-.27 3.312-1 8.355-2.161 15.121-1.176 6.765-1.903 11.894-2.192 15.39-.414 5.11.77 10.809 3.573 17.086 2.79 6.282 4.17 9.645 4.13 10.094-.05.715-.32 1.645-.76 2.781l-63.669-5.214c-16.278-1.34-24.969 4.777-26.074 18.339q-1.394 17.01 12.757 19.512a21 21 0 0 1 .043-2.238q.456-5.62 5.411-6.524c1.281-.254 4.785-.144 10.527.332l59.975 4.911c10.13.832 15.79-6.098 16.99-20.782q.21-2.554.12-4.722m-77.237-38.754c-.84-5.383-1.094-10.129-.747-14.239.372-4.562.668-8.234.899-11l2.754-16.656c.445-5.637.699-8.722.742-9.258q.797-9.785-17.137-22.734c-.211 1.426-1.355 19.191-3.433 53.324-.391 5.821.757 10.235 3.464 13.246.329.387 4.227 3.407 11.708 9.067zM1145.09 214.766q5.895-23.204 3.57-40.391c-2.21-16.844-10.41-27.07-24.61-30.68l-57.22-14.539-.2 29.852 22.53 5.726c15 3.809 27.23 7.481 36.66 10.993 4.91 3.308 8.03 8.582 9.35 15.832 1.15 6.074.9 12.363-.75 18.855-1.18 4.649-3.23 9.402-6.14 14.27-3.36 5.582-6.82 9.281-10.35 11.093-7.51 3.973-17.6 4.344-30.26 1.137-7.25-1.844-13.68-4.129-19.31-6.867-2.25-5.41-2.61-11.121-1.08-17.152.27-1.047.81-2.446 1.63-4.196 6.46 1.641 11.18 2.239 14.19 1.801 4.63-.691 7.63-3.691 8.98-9.016 1.22-4.804 1.21-9.554-.02-14.238-6.91.063-11.81-.266-14.7-1-5.17-1.316-9.45-4.289-12.83-8.922-4.94 3.653-8.37 9.231-10.27 16.727-2.61 10.277-1.17 21.586 4.31 33.926l-.45.718c-9.24 2.008-14.91 7.11-16.98 15.301-2.73 10.703-.26 18.106 7.43 22.195 2.01-7.945 5.91-11.039 11.68-9.293l23.29 7.395c15.41 4.66 27.36 3.789 35.85-2.605 11.38-8.649 19.94-24.286 25.7-46.922M1199.03 274.031c7.04-18.371 5.07-36.258-5.93-53.668l-8.22 3.36c5.06 13.726 6.32 23.906 3.77 30.558-2.77 7.235-6.75 9.864-11.9 7.883l-6.09-2.336c-14.11-5.422-23.6-1.801-28.46 10.86-4.38 11.402-2.43 18.968 5.84 22.722 2.47-6.445 5.69-8.906 9.67-7.379l10.67 4.094q10.275 3.95 18.75-1.035c5.26-3.082 9.23-8.098 11.9-15.059M1397.38 401.715c12.25-15.426 15.74-33.113 10.46-53.043l-8.86.746c.72 14.645-1.14 24.77-5.58 30.359q-7.245 9.121-13.71 3.993l-5.08-4.043c-11.8-9.368-21.88-8.793-30.23 1.73q-11.28 14.216-1.17 23.27c4.15-5.215 7.88-6.5 11.21-3.864l8.92 7.09c5.73 4.551 11.79 6.082 18.16 4.598 5.94-1.375 11.23-4.985 15.88-10.836M1306.85 330.199c-2.08-11.422-.95-21.058 3.42-28.89 1.66-2.981 4.42-6.739 8.28-11.262l16.57-19.422c4.75-5.57 7.68-9.34 8.77-11.297 3.01-5.41.54-16.133-7.43-32.172l-30.82 53.946c-1.01 1.8-2.15 3.722-3.43 5.777s-2.02 3.277-2.24 3.664c-2.13 3.828-3.59 9.238-4.36 16.23-.77 6.989-1.66 11.383-2.66 13.184l-50-27.832c-1.82-7.59-2.75-12.008-2.77-13.254-.09-3.535 1.53-8.277 4.85-14.23l5.63-10.114 16.56-26.496c1.83-3.297 3.54-6.343 5.1-9.164 3.45-6.199 1.19-16.594-6.77-31.187l-31.63 60.066c-3.72 7.067-5.83 13.031-6.32 17.899q-.63 6.285 2.16 19.234c-11.47-6.387-20.37-3.891-26.7 7.476-5.46 9.801-4.8 17.571 1.99 23.301 3.08-5.519 7.25-6.82 12.52-3.886l60.09 33.449c6.75 3.761 12.36 4.316 16.81 1.668 3.06-1.797 6.51-6.145 10.35-13.035zM1575.36 552.168c15.32-10.586 25.59-22.77 30.82-36.559 2.76-7.379 2.64-14.574-.34-21.589-1.9-4.489-7.94-14.09-18.12-28.825l-17.26-24.98-19.03 23.652 24.92 36.063c11.19 16.195 7.53 30.703-11.01 43.515-12.61 8.719-23.44 10.797-32.52 6.243-5.03-2.532-10.77-8.461-17.21-17.782q-2.145-3.107-6.03-9.437c-2.6-4.223-4.6-7.367-6.03-9.438-2.87-4.14-6.88-6.535-12.04-7.176-5.16-.644-9.85.497-14.08 3.418q-16.26 11.234-10.89 23.282c4.72-3.262 8.54-4.106 11.5-2.543 1.73.89 4.35 3.89 7.88 8.996 1.54 2.219 3.7 5.594 6.49 10.117 2.8 4.516 4.97 7.891 6.5 10.105 6.45 9.325 14.56 14.172 24.31 14.536 13.32.429 30.69-6.77 52.14-21.598M1533.27 439.457l18.31-22.984-69.92-74.285-17.2 24.167 19.53 20.758c17.85 18.95 28.24 31.242 31.19 36.879-3.93 7.164-10.34 14.926-19.22 23.285q-18.645 17.556-29.4 15.618c-4.69-.903-10.33-5.11-16.93-12.637l-17.74-20.231c-5.54-6.41-10.5-10.324-14.91-11.746-6.16-1.992-12.46.039-18.89 6.086q-13.05 12.286-5.52 23.395c6.24-5.141 11.8-4.926 16.66.633l20.52 23.175c12.2 13.875 23.32 20.039 33.37 18.5 6.14-.961 14.32-6.257 24.56-15.886 16.39-15.434 28.81-29.954 37.27-43.571zM1628.49 683.891c18.88-8.852 37.44-23.696 55.67-44.52l-26.66-56.898-22.58 21.347 11.75 25.055c3.4 7.258 5.47 13.375 6.22 18.34-3.59 6.898-10.09 12.555-19.49 16.965-9.48 4.449-18.92 5.047-28.31 1.797-9.38-3.247-16.28-9.571-20.69-18.961-6.66-14.231-3.27-28.754 10.16-43.586 9.12-10.051 20.07-18.078 32.88-24.078 6.03-2.829 11.33-4.989 15.91-6.477l4.21-19.984c-5.02 1.355-10.75 3.535-17.18 6.55-25.47 11.934-44.94 31.731-58.38 59.383l-2.57 1.199q-1.545-.461-9.57-10.89c-5.84-7.606-13.61-9.145-23.3-4.594-9.11 4.274-12.51 11.117-10.18 20.527 5.52-3.378 9.3-3.543 11.32-.484l6.3 9.652c4.13 6.27 9.8 7.715 17 4.336l6.43-3.011 2.93.554c.69 5.496-4.17 17.246-14.6 35.254 22.45 20.555 46.69 24.727 72.73 12.524M359.559 525.293l-59.176-50.965c-2.934-2.523-15.875-13.183-25.223-21.238l.235-.277 108.445 44.289 11.535-13.399-59.738-100.555.238-.277c9.215 7.93 21.676 19.149 24.605 21.668l59.176 50.969 11.301-13.117-100.211-86.305-16.707 19.398 60.078 101.575-.242.281-109.238-44.492-16.59 19.265 100.211 86.301zM153.164 731.496c-20.336-12.234-18.066-31.898-13.941-43.926 7.773-22.644 30.777-35.195 63.703-23.89 29.445 10.097 48.504 28.324 37.859 59.336-3.765 10.976-15.512 28.172-46.574 23.933l-5.621 16.379c49.601 9.235 64.848-28.375 68.074-37.785 9.746-28.395.844-62.605-47.234-79.109-38.504-13.215-72.692-.411-85.188 36-11.062 32.226 3.231 55.832 23.301 65.441zM125.336 875c-22.223-8.34-23.563-28.094-21.688-40.664 3.528-23.684 23.868-40.207 58.301-35.074 30.785 4.586 52.844 19.047 48.008 51.476-1.711 11.477-10.133 30.516-41.453 31.992l-2.551 17.129c50.457.067 58.613-39.687 60.078-49.523 4.426-29.699-10.539-61.723-60.824-69.211-40.258-6.004-71.555 12.797-77.226 50.875-5.02 33.699 13.324 54.316 34.804 60.125zM161.551 973.598l-57.047 24.125.019.371 59.125 16.526zm18.246 46.652 39.109 11.09 1 19.5-134.523-41.08-1.031-20.229 129.535-56.418.941 18.395-37.738 15.765zM270.711 559.027l-60.844-11.613-.183.316 39.992 46.579zm-10.731 48.93 26.364 30.945-9.996 16.77-89.067-108.856 10.379-17.41 139.055 25.016-9.43 15.82-40.14-7.847zM117.438 1118.1l7.417 31.56c4.547 19.36 13.086 25.12 25.102 22.29 15.777-3.7 18.398-15.11 14.481-31.78l-7.375-31.38zm109.773-44.14 13.019 55.4c6.7 28.52-7.113 47.84-27.734 52.68-22.058 5.19-31.469-8.31-36.855-15.93-3.305 15.72-14.426 21.55-22.852 23.53-17.574 4.13-35.363-4.75-41.008-28.77l-13.312-56.66zm-55.981 31.5 8.047 34.25c3.328 14.17 10.664 29.28 28.774 25.02 14.347-3.36 21.344-14.66 17.086-32.77l-8.723-37.12zM267.512 1216.76l-6.461-16.66-123.301 47.83 6.461 16.66zM249.715 1447.74l10.121 14.72 108.984-74.91-10.121-14.73-50.847 34.96-39.133-56.92 50.851-34.96-10.117-14.72-108.988 74.91 10.121 14.73 45.082-30.99 39.129 56.92zM374.215 1473.81l-24.36 56.94.27.26 54.055-29.1zm45.5 20.95 35.871-19.13 14.242 13.35-125.394 63.71-14.778-13.86 54.184-130.48 13.437 12.6-16.257 37.52zM625.516 1642.34l.714 61.93.344.12 37.696-48.45zm50.086.79 25.086-32 18.421 6.47-88.98 108.93-19.117-6.71-3.133-141.26 17.379 6.1.293 40.9zM507.785 1514.84l-14.23-10.81-79.977 105.33 14.227 10.8zM545.875 1540.07l-15.5-8.88-65.75 114.74 79.426 45.52 7.875-13.75-63.922-36.63 20.141-35.16 56.253 32.24 7.879-13.75-56.257-32.23zM810.633 1636.01l-17.742-2.12-15.653 131.32 90.899 10.84 1.875-15.73-73.16-8.72 4.796-40.24 64.379 7.68 1.879-15.73-64.383-7.68zM1049.71 1724.61c-2.44 23.55-21.22 29.85-33.85 31.22-23.809 2.58-44.934-12.88-48.684-47.41-3.344-30.88 5.062-55.83 37.664-59.36 11.53-1.26 32.09 2.06 41.44 31.92l17.21-1.86c-12.7-48.76-53.22-46.59-63.11-45.51-29.853 3.23-57.044 25.82-51.571 76.25 4.379 40.38 30.484 65.87 68.761 61.72 33.88-3.67 49.18-26.63 49.36-48.84zM916.473 1643.86l-19.157-.36-.363 19.52 19.156.36zM1090.7 1620.31l-18.72 4.09 4.18 19.08 18.71-4.1z" style="fill:#fff;fill-opacity:1;fill-rule:evenodd;stroke:none" transform="matrix(.13333 0 0 -.13333 -4.126 300.647)"></path><path d="m222.686 148.636-28.112-20.498-27.587 21.198 10.808-33.07-28.686-19.687 34.791.06 9.86-33.365 10.693 33.107 34.78-.934-28.183 20.401z" style="fill:#b4a269;fill-opacity:1;fill-rule:evenodd;stroke:none;stroke-width:0;stroke-linecap:square;stroke-linejoin:round;stroke-dasharray:none;stroke-opacity:1" transform="matrix(.32567 0 0 .32567 96.608 -12.534)"></path><path d="m222.686 148.636-28.112-20.498-27.587 21.198 10.808-33.07-28.686-19.687 34.791.06 9.86-33.365 10.693 33.107 34.78-.934-28.183 20.401z" style="fill:#b4a269;fill-opacity:1;fill-rule:evenodd;stroke:none;stroke-width:0;stroke-linecap:square;stroke-linejoin:round;stroke-dasharray:none;stroke-opacity:1" transform="matrix(.32567 0 0 .32567 61.092 -20.606)"></path><path d="m222.686 148.636-28.112-20.498-27.587 21.198 10.808-33.07-28.686-19.687 34.791.06 9.86-33.365 10.693 33.107 34.78-.934-28.183 20.401z" style="fill:#b4a269;fill-opacity:1;fill-rule:evenodd;stroke:none;stroke-width:0;stroke-linecap:square;stroke-linejoin:round;stroke-dasharray:none;stroke-opacity:1" transform="matrix(.32567 0 0 .32567 25.575 -12.534)" data-source="https://football-logos.cc"></path><!-- source: https://football-logos.cc --></svg>