<svg xmlns="http://www.w3.org/2000/svg" viewBox="23.95 200.73 737.87 634.24"><!-- Source: https://football-logos.cc --><circle cx="394.167" cy="574.964" r="260" style="display:inline;fill:#fffffe;fill-opacity:1;fill-rule:evenodd;stroke:none;stroke-width:1.33333;stroke-opacity:1" data-source="https://football-logos.cc"></circle><path d="M173.933 588.954c-1.787.74-3.683 1.168-5.578 1.358l16.082-18.766c-.376 2.883-.99 5.931-1.988 8.525q-.384.996-.848 1.88zM192.077 572.44c.113-1.56.148-2.938.146-4.066l-.016-.304q1.404.928 2.731 1.773zM184.178 609.412c-2.089-1.4-3.903-3.179-5.37-4.939a13.9 13.9 0 0 1-1.822-2.884l24.993-27.471c5.519 3.18 8.899 4.715 8.899 4.715l-.03.46a85 85 0 0 1-.838 6.27zM150.374 585.536c-.776-1.238-.74-2.763-.492-3.835.11-.468.403-1.377.527-1.988.207-1.014.257-2.094.155-3.205l20.993-24.043c2.86 2.46 5.673 4.739 8.396 6.84zM127.179 562.652c-1.056.037-2.197-.208-3.107-1.112-1.79-1.778-3.846-6.119-4.896-10.811l22.845-25.006a69 69 0 0 1 3.478-.402l.203.232a184 184 0 0 0 9.747 11.413zM123.867 532.004a17 17 0 0 1 3.342-2.212c3.107-1.58 6.983-2.632 10.39-3.319L118.5 543.74c.14-2.962.887-5.941 2.571-8.546zM159.633 541.342q.676.686 1.354 1.358l.316.268-12.946 14.283-6.871 5.95q-.555-.323-1.118-.599zM138.354 515.478q.98 1.45 1.979 2.865l.209.325c-.92.035-2.876.151-5.458.549zM121.354 502.324c4.497-1.173 8.031-1.73 8.031-1.73a165 165 0 0 0 2.658 4.792l-31.487 27.874c-1.336-1.214-2.578-2.6-3.573-4.146zM178.7 614.474 95.92 690.846l75.898-83.524.17-.187c1.168 1.616 2.516 3.221 4.03 4.62.942.869 1.944 1.683 3.002 2.427zM160.178 599.79a23 23 0 0 0 1.897-.059l-8.21 7.453zM145.029 590.297l-28.503 25.253 18.239-20.881.234-.25c2.183-.321 4.2-1.255 5.796-2.827 1.415-1.395 2.334-3.128 2.772-5.022l.068-.288q.4-.069.788-.171l.037.35c.048.74.232 2.015.877 3.567zM111.362 559.355a14.7 14.7 0 0 0 3.25 4.45c2.523 2.385 4.954 3.511 6.873 4.028l-.213.173-102.81 93.093 92.728-101.554zM94.062 565.973l15.855-18.095a32 32 0 0 0-.174 3.804zM95.2 538.025l-32.743 29.033 29.617-32.547.236-.253a27.7 27.7 0 0 0 3.03 3.635zM140.842 480.92l61.824-67.939c-.231 50.197 43.226 93.422 93.423 93.19l-63.823 58.883-.183.173c-2.695-.968-8.37-3.17-15.718-6.916l.18-.21 41.276-45.423-46.706 42.46-.265.228a171 171 0 0 1-8.243-4.907l.217-.238 40.125-46.683-47.413 42.008-.152.073a165 165 0 0 1-10.634-8.19l.151-.161 39.61-45.35-46.118 39.564-.166.175a155 155 0 0 1-2.828-2.711 192 192 0 0 1-2.357-2.359l.198-.223 28.962-31.968-31.892 29.008-.171.16a184 184 0 0 1-12.575-14.88l1.5-1.7-1.651 1.5a174 174 0 0 1-5.78-8.127l.185-.21 48.68-55.483-53.655 47.572-.208.151c-3.098-5.289-4.995-9.28-5.906-11.327z" style="fill:#3a88d0;fill-opacity:1;fill-rule:nonzero;stroke:none" transform="matrix(1.33333 0 0 -1.33333 -.667 1121.853)"></path><path d="m309.824 444.501.518-7.894-2.411-.158-.45 6.825-.03.311-44.204 3.76h-.406l-9.512-16.736-.165-.372 25.05-33.887.251-.317h7.708v-2.418h-7.823l-.25-.336-15.375-21.654.264-.305 13.635-15.951-1.837-1.57-13.978 16.353-.51.608-27.727 14.613-.383.18-7.13-9.032-.379-.504a80.25 80.25 0 0 1 26.164-26.737l.47-.28h-7.785l-.312.242c-20.655 15.277-34.043 39.786-34.043 67.419 0 46.312 37.613 83.855 84.01 83.855 22.361 0 42.683-8.72 57.736-22.941l-3.547-2.62c-14.04 13.009-32.767 21.041-53.338 21.256l-.038-.537v-5.306l-.01-.597 24.943-17.283.461-.077 21.55-3.5-.388-2.387-19.5 3.168-.396.025-10.865-24.691z" style="fill:#133f7a;fill-opacity:1;fill-rule:nonzero;stroke:none" transform="matrix(1.33333 0 0 -1.33333 -.667 1121.853)"></path><path d="M309.18 392.26c0-2.76-2.254-4.997-5.035-4.997-2.78 0-5.036 2.237-5.036 4.997s2.255 4.995 5.036 4.995 5.035-2.236 5.035-4.995M339.7 424.736h-12.47l-.456-.013L342.22 402.5v-38.475l-.01-.569 7.334 7.305-.005.661v31.18h24.247l5.887-7.901v-14.176h-10.536v-19.598h35.324l-18.727 31.903.386.662 18.341 31.245h-37.415l-.466-.48-14.875-14.175-.351-.319-11.107 14.967zM303.487 424.736h-23.432l14.914-25.41 5.402 5.117 3.416 20.276z" style="fill:#133f7a;fill-opacity:1;fill-rule:nonzero;stroke:none" transform="matrix(1.33333 0 0 -1.33333 -.667 1121.853)"></path><path d="m363.995 429.865-21.737 37.032-21.316-36.314-.258-.502h22.232l.328-.42 8.525-11.489.28-.381 12.198 11.624zM363.792 396.83v-40.785l-.005-.602-3.643-6.208-.118-.235h-35.527l-.13.24-3.722 6.342.618-.001h20.605l.237.228 12.73 12.68.048.362v28.405h8.941z" style="fill:#133f7a;fill-opacity:1;fill-rule:nonzero;stroke:none" transform="matrix(1.33333 0 0 -1.33333 -.667 1121.853)"></path><path d="m291.07 379.692-11.015-18.767h56.548l.272.043v19.019l.037.382h-2.633v23.703l.005.48-14.006 20.152-.33.032H309.18l-.052-.475-3.334-19.792.597-.009h9.296l7.746-11.772V380.37H291.48z" style="fill:#133f7a;fill-opacity:1;fill-rule:nonzero;stroke:none" transform="matrix(1.33333 0 0 -1.33333 -.667 1121.853)"></path><path d="M81.413 579.146c.48.974 1.268.974 1.749 0l2.361-4.786 5.28-.767c1.076-.156 1.32-.905.54-1.663l-3.82-3.725.902-5.26c.183-1.07-.453-1.533-1.415-1.028l-4.722 2.484-4.724-2.484c-.962-.505-1.599-.043-1.415 1.029l.902 5.26-3.821 3.724c-.778.757-.535 1.507.54 1.662l5.281.768zM73.808 531.984c.192 1.07.949 1.288 1.68.484l3.595-3.944 5.286.725c1.077.147 1.517-.504.98-1.449l-2.641-4.636 2.323-4.805c.472-.978-.011-1.6-1.075-1.38l-5.227 1.08-3.85-3.694c-.785-.752-1.525-.484-1.645.596l-.59 5.303-4.702 2.521c-.957.514-.931 1.3.06 1.749l4.861 2.199zM143.624 623.656c.667.859 1.437.7 1.714-.35l1.358-5.16 5.02-1.807c1.023-.367 1.112-1.15.198-1.737l-4.489-2.886-.166-5.334c-.034-1.086-.75-1.413-1.592-.725l-4.132 3.377-5.124-1.49c-1.043-.303-1.575.278-1.181 1.29l1.935 4.973-3 4.414c-.611.898-.223 1.584.862 1.522l5.327-.304zM188.12 638.44c.342 1.032 1.122 1.14 1.733.24l2.992-4.418 5.335-.039c1.087-.008 1.43-.716.763-1.574l-3.276-4.212 1.612-5.086c.328-1.037-.24-1.581-1.262-1.212L191 623.954l-4.34-3.105c-.883-.633-1.577-.262-1.542.825l.175 5.333-4.293 3.168c-.875.645-.736 1.42.308 1.721l5.126 1.482z" style="fill:#afa322;fill-opacity:1;fill-rule:nonzero;stroke:none" transform="matrix(1.33333 0 0 -1.33333 -.667 1121.853)"></path><path d="m122.925 425.728 3.379-.316q.065.738.138 1.466c.268 2.68.584 5.3.933 7.843l-3.353.534c-.115-.842-.224-1.695-.336-2.554-.226-1.748-1.272-1.594-1.737-1.516s-.658 1.046-.232 3.37l-3.33.504s-.252-2.722 0-4.649c.386-2.981 3.046-3.639 4.679-3.195zM125.705 413.578l-16.748.818.21 4.317 16.656-.814s-.12-3.067-.118-4.321M136.894 454.734a2.007 2.007 0 1 0-4.015 0 2.007 2.007 0 0 0 4.015 0m-21.917-1.168a2.007 2.007 0 1 1 0-4.014 2.007 2.007 0 0 1 0 4.014m10.065-11.455-13.54 2.247-.708-4.265 16.924-2.807s.739 4.9 1.823 10.4c1.084 5.499 2.676 12.137 2.676 12.137l-11.116 2.64-1-4.205 7.777-1.846s-.743-3.367-1.089-5.098l-7.823 1.528-.828-4.243 7.803-1.523s-.595-3.296-.899-4.965M115.592 473.633l2.03-.575-1.785-6.302-2.03.574.297 1.045c-1.882.395-2.786 1.269-2.516 2.724.252 1.355.872 3.06.872 3.06l1.82-.601s-.261-.885-.504-1.627c-.309-.95 1.008-1.153 1.008-1.153zm18.528-6.593-15.115 4.736-1.292-4.124 15.238-4.777zM114.707 396.403l10.488.591c2.409.185 3.803.262 3.339-2.682h3.486c0 5.406-1.84 7.06-6.197 7.027 0 0-.116 1.92-.116 3.547s-.078 4.917-.078 4.917l-17.158-.076.018-4.322 13.809.06s.039-2.94.155-4.297l-7.98-.448zM118.423 370.77l7.166 1.43-.85 5.11-7.862-1.211-.633 4.275 7.87 1.212a560 560 0 0 1-.692 6.094l-7.899-.866-.432 4.3 11.32 1.242c.715-8.598 2.002-17.086 3.586-24.887.55-2.71.55-5.305-2.432-6.698-2.981-1.395-7.59-.969-8.753 4.686-.626 3.045-.39 5.313-.39 5.313m-5.304 8.896a2.009 2.009 0 1 1 0-4.018 2.009 2.009 0 0 1 0 4.018m2.014-11.079a2.007 2.007 0 1 1 0-4.015 2.009 2.009 0 0 1 0 4.015m1.007-4.569a2.009 2.009 0 1 1 .002-4.017 2.009 2.009 0 0 1-.002 4.017m14.021 29.126a2.008 2.008 0 1 1 0-4.016 2.008 2.008 0 0 1 0 4.016m.543-4.88a2.007 2.007 0 1 1 0-4.015 2.007 2.007 0 0 1 0 4.015m-5.849-23.97c1.978.375 2.053 1.356 1.502 3.915l-4.41-.88c-.158-1.963.662-3.46 2.908-3.034M473.318 452.097l-9.378-2.135-.93 4.939 8.824 2.008c1.51.354 1.86 1.679 1.454 3.597l-1.414 5.777 3.033.705s1.352-5.028 2.1-8.283c.987-4.3-.58-5.954-3.689-6.608m-3.453 8.5-1.168 4.968-7.668-1.801 1.168-4.969zM474.279 444.62l-6.049-.828-.408 3.792-3.37-.46 1.15-8.775 10.587 1.448c4.352.555 3.49 4.499 2.673 9.297l-3.143-.43c.416-3.09.364-3.838-1.44-4.045M479.153 429.971l-6.505-.548-.476 5.082 6.52.55a2.56 2.56 0 0 1 1.742.933l.47-4.88s-.301-.994-1.751-1.137M479.667 420.504l-6.521-.26-.25 5.098 6.536.261a2.56 2.56 0 0 1 1.783.855l.252-4.897s-.345-.979-1.8-1.057M478.173 389.431l-6.488.708.505 5.078 6.504-.709a2.57 2.57 0 0 1 1.89.583l-.475-4.88s-.486-.918-1.936-.78M478.45 417.861l.04-3.79c-.03-2.425-.703-2.886-2.253-2.887l-9.049.054-.202-5.303 9.619-.058c3.176-.07 5.05.54 5.095 5.594.018 1.965-.04 4.574-.09 6.39zM473.876 377.526l-9.714 1.559 1.399 8.798 3.315-.495-.54-3.885 5.422-.87c2.144-.327 2.377.254 2.91 3.592l3.301-.492c-1.103-6.74-1.684-8.83-6.093-8.207M464.699 366.442l-1.114-4.47-3.02.755 3.079 13.362 3.253-.813-1.13-4.542s-.264-3.476 3.919-4c1.56-.194 3.312.35 3.95 2.673.64 2.324 1.04 3.924 1.04 3.924l2.966-.741c-1.565-7.133-2.088-10.329-5.69-10.968s-6.49.692-7.253 4.82M251.487 278.322c14.183-4.974 29.238-7.563 44.679-7.563 15.504 0 30.62 2.61 44.854 7.624l.347.12h93.19l-.332-.366c-34.56-37.16-83.63-60.363-138.059-60.363-54.439 0-103.516 23.211-138.077 60.383l-.313.346h93.229z" style="fill:#133f7a;fill-opacity:1;fill-rule:nonzero;stroke:none" transform="matrix(1.33333 0 0 -1.33333 -.667 1121.853)"></path><path d="M135.119 257.592H20.47l36.099 31.521-36.099 33.549h68.053l.659.035v-43.148l-.009-.49 46.767-21.453zM456.362 257.592h115.5l-36.099 31.521 36.099 33.549h-68.673l-.039-1.166v-42.451l-.396-.171z" style="fill:#3a88d0;fill-opacity:1;fill-rule:nonzero;stroke:none" transform="matrix(1.33333 0 0 -1.33333 -.667 1121.853)" data-source="https://football-logos.cc"></path><path d="M93.597 285.324V349h403.82v-63.676z" style="fill:#3a88d0;fill-opacity:1;fill-rule:nonzero;stroke:none" transform="matrix(1.33333 0 0 -1.33333 -.667 1121.853)"></path><path d="M291.58 490.445v5.462l.015.293c-19.938-.39-38.104-8.124-51.892-20.597l.612-.015h19.017l.47.012 31.76 14.565zM257.744 473.17h-20.102l-.527-.015c-10.23-10.114-17.736-22.968-21.31-37.354l.438-.455 11.19-11.814.373-.37 22.274 6.65.268.443 10.577 18.611-.038.365-2.653 23.941h-.49zM215.625 432.484l10.248-10.82.498-.593 4.723-32.453.054-.483-7.5-9.5-.266-.363c-6.313 11.388-9.91 24.478-9.91 38.389a79.4 79.4 0 0 0 1.686 16.31z" style="fill:#fff;fill-opacity:1;fill-rule:nonzero;stroke:none" transform="matrix(1.33333 0 0 -1.33333 -.667 1121.853)"></path><path d="m94.027 280.659 41.567-18.145.453-.2v18.59l-.58.004H93.442zM497.661 280.378l1.19.53h-42.023l-.544-.004v-18.63zM473.939 475.802c-26.719 73.06-96.231 125.142-177.773 125.142-26.6 0-51.918-5.542-74.89-15.547l-.517-.242 16.925-15.614.664.228c18.282 6.743 37.784 10.26 57.818 10.26 44.981 0 87.282-17.724 119.11-49.907 17.046-17.235 29.998-37.51 38.363-59.62l.15-.515 20.385 5.065z" style="fill:#133f7a;fill-opacity:1;fill-rule:nonzero;stroke:none" transform="matrix(1.33333 0 0 -1.33333 -.667 1121.853)"></path><path d="M447.133 363.927c4.244 14.558 6.44 29.823 6.44 45.431 0 42.675-16.417 82.778-46.228 112.92-29.717 30.048-69.201 46.596-111.179 46.596-16.791 0-33.184-2.647-48.712-7.749l-.458-.175 17.963-16.574.584.099a135.5 135.5 0 0 0 30.623 3.483c36.347 0 70.55-14.343 96.308-40.387 25.913-26.201 40.184-61.08 40.184-98.213 0-15.725-2.558-31.046-7.478-45.474l-.268-.79h22zM164.058 444.44c-2.893-11.314-4.384-23.08-4.384-35.082 0-15.906 2.619-31.399 7.65-45.973l.097-.29H145.46l-.119.347c-4.337 14.704-6.582 30.134-6.582 45.916 0 18.437 3.065 36.395 8.95 53.277l.105.265 16.35-17.967z" style="fill:#133f7a;fill-opacity:1;fill-rule:nonzero;stroke:none" transform="matrix(1.33333 0 0 -1.33333 -.667 1121.853)"></path><path d="M228.491 253.021c1.135 3.757-7.219 4.655-5.374 10.764 1.016 3.364 4.358 5.113 8.114 3.978 1.935-.584 3.47-1.476 4.523-2.345l-1.537-2.961c-.874.753-1.953 1.276-3.663 1.793-1.765.534-2.743.17-3.098-1.007-1.042-3.448 7.224-4.855 5.345-11.077-1.025-3.393-4.607-4.989-9.204-3.6-1.906.576-3.554 1.594-4.525 2.53l1.489 3.006c1.123-1.042 2.443-1.93 4.152-2.448 1.879-.567 3.338-.09 3.778 1.367M239.287 243.639l-3.838 1.065 5.348 19.27 3.837-1.064zM259.138 247.75l.402-2.458.057-.01 2.594 13.814 3.705-.735-3.895-19.617-4.8.95s-2.866 8.134-4.337 13.014l-.618 2.603-2.68-14.096-3.677.73 3.896 19.616 4.86-1.03zM276.984 237.022c-6.486.4-9.342 5.04-8.927 10.633.458 6.171 4.62 10.05 10.724 9.617 2.16-.153 3.97-.687 4.9-1.217l-.952-3.416c-1.104.541-2.512.96-4.147 1.076-3.592.254-5.5-2.402-5.732-6.042-.273-4.271 1.078-6.719 4.492-7.049 2.402-.233 4.641.46 4.641.46l.24-3.482s-2.11-.772-5.239-.58M298.722 253.005l-7.227.046-.031-4.772 6.87-.045.106-3.28-6.998.046-.035-5.359 7.239-.047-.001-3.28-11.242.074.13 19.998 11.19-.072zM317.546 249.144c1.162 3.176-.899 4.985-3.021 4.57-2.123-.414-2.866-1.626-2.866-1.626l-1.394 3.873c2.788 1.394 7.514 2.402 10.302.232 2.789-2.169 2.402-5.81.698-9.063s-3.803-5.985-3.803-5.985l6.746.795.31-3.711-12.316-1.324-.31 3.021s4.492 6.042 5.654 9.218M344.736 256.503l-1.395 3.41 4.316 2.893 2.998.805 5.174-19.196-4.353-1.081-3.796 15.416zM341.948 253.134c1.161-5.423.387-9.373-2.17-11.697s-6.661-2.015-8.288-1.007c-1.627 1.007-3.95 3.098-4.802 9.295-.853 6.197 2.44 9.755 5.576 10.458 5.19 1.162 8.522-1.626 9.684-7.05m-9.188 3.517c-1.89-.572-2.434-3.423-1.502-8.009.931-4.586 2.595-5.722 4.305-5.286 1.713.437 3.125 2.685 2.294 7.556-.867 5.089-2.523 6.518-5.097 5.739M363.018 263.475c-1.704-2.247-1.163-5.035-1.163-5.035 2.48 4.183 8.445 3.718 10.536.543 2.091-3.177 1.704-7.515-1.627-9.684-3.33-2.17-6.738-2.4-9.45.388-2.79 2.866-4.648 7.978-2.79 13.633 1.758 5.345 8.677 6.275 8.677 6.275l1.007-3.64s-3.486-.233-5.19-2.48m3.524-5.654c-1.647 0-2.982-1.457-2.982-3.254s1.335-3.254 2.982-3.254 2.983 1.457 2.983 3.254-1.336 3.254-2.983 3.254M123.027 296.096c-4.82-.004-8.513.32-11.268.578v43.313c3.318.193 9.264.578 14.773.578 7.843 0 15.174-.679 18.137-5.58 2.068-3.42 3.463-10.39-3.664-15.038 0 0 4.705-1.42 5.965-7.05 1.162-5.189-.387-10.07-5.732-13.556-4.391-2.863-8.613-3.238-18.211-3.245m1.54 34.34v-7.035h1.287c5.147 0 6.501 1.523 6.501 3.99 0 2.247-1.828 3.263-4.063 3.263-1.625 0-2.708-.146-3.725-.218m0-16.187v-7.968c.948-.067 1.896 0 3.048 0 4.198 0 5.553 1.875 5.553 3.883 0 3.015-2.505 4.085-5.418 4.085zM172.843 318.708c-.74.518-2.052.74-3.873-.93-1.86-1.704-2.512-4.493-2.512-4.493v-17.042h-12.48V328.7h11.541l-.035-3.408s2.634 3.795 8.288 4.26c5.656.465 8.211-.697 10.148-2.634s2.263-4.472 2.255-11.725v-18.95h-12.56v18.166c-.001 2.286.002 3.756-.772 4.299M391.944 318.708c-.74.518-2.053.74-3.874-.93-1.86-1.704-2.51-4.493-2.51-4.493v-17.042h-12.482V328.7h11.541l-.035-3.408s2.634 3.795 8.29 4.26c5.654.465 8.21-.697 10.147-2.634s2.262-4.472 2.254-11.725v-18.95h-12.56v18.166c0 2.286.003 3.756-.771 4.299M212.815 304.996c5.81-.084 10.845 1.55 10.845 1.55l1.161-8.986c-4.294-1.574-9.778-1.95-13.356-1.95-11.193 0-17.861 4.583-17.83 16.467.022 8.332 4.88 17.481 17.634 17.516 12.856.036 16.66-9.84 14.316-20.993h-19.2s1.162-3.527 6.43-3.604m.936 11.429v.695c0 .851-.328 3.402-3.365 3.402-2.135 0-4.105-1.933-4.105-4.097zM308.56 296.243h-16.035l-7.978 15.225h-.723v-15.225h-12.959v43.864c3.556.324 8.258.67 13.863.582 8.96-.137 14.847-.446 18.565-6.489 3.964-6.442 2.246-16.19-5.888-19.443zm-22.388 34.006h-2.35v-9.148h2.122c3.01 0 5.727 1.059 5.679 4.687-.05 3.672-2.662 4.461-5.45 4.461M484.885 314.476v-18.233h-12.762v17.907c.062 3.376-.329 4.53-1.16 4.887-.812.348-2.207.096-3.369-1.22-1.524-1.728-2.479-3.525-2.443-5.772v-15.802h-12.77v47.341l12.77.26v-17.488s2.792 3.021 7.788 3.196c3.086.108 6.682.29 9.296-2.44 2.615-2.73 2.685-6.333 2.65-12.636M431.784 304.996c5.81-.084 10.844 1.55 10.844 1.55l1.162-8.986c-4.294-1.574-9.777-1.95-13.357-1.95-11.192 0-17.86 4.583-17.829 16.467.022 8.332 4.88 17.481 17.634 17.516 12.855.036 16.659-9.84 14.316-20.993h-19.2s1.162-3.527 6.43-3.604m.936 11.429v.695c0 .851-.328 3.402-3.366 3.402-2.134 0-4.104-1.933-4.104-4.097zM245.656 328.623v-32.38h-12.284v32.415zm-5.961 16.268c-4.107 0-7.437-3.19-7.437-7.127s3.33-7.128 7.437-7.128c4.106 0 7.436 3.19 7.436 7.128 0 3.936-3.33 7.127-7.436 7.127" style="fill:#fff;fill-opacity:1;fill-rule:nonzero;stroke:none" transform="matrix(1.33333 0 0 -1.33333 -.667 1121.853)"></path><path d="m324.639 348.78 11.976-20.404.155-.25c3.334-1.548 5.469-4.23 6.563-7.575l.122.254 7.697 13.112.202.349a6.86 6.86 0 0 0-.956 3.498c0 3.845 3.178 6.978 7.152 7.122l.154.194 2.116 3.606.205.314H324.5z" style="fill:#1a2865;fill-opacity:1;fill-rule:nonzero;stroke:none" transform="matrix(1.33333 0 0 -1.33333 -.667 1121.853)"></path><path d="M330.797 304.996c5.81-.084 10.845 1.55 10.845 1.55l1.162-8.986c-4.295-1.574-9.779-1.95-13.358-1.95-11.192 0-17.86 4.583-17.829 16.467.022 8.332 4.88 17.481 17.634 17.516 12.855.036 16.659-9.84 14.316-20.993h-19.2s1.162-3.527 6.43-3.604m.936 11.429v.695c0 .851-.328 3.402-3.365 3.402-2.135 0-4.105-1.933-4.105-4.097zM363.797 328.623v-32.38h-12.285v32.415zm-5.962 16.268c-4.107 0-7.437-3.19-7.437-7.127s3.33-7.128 7.437-7.128 7.436 3.19 7.436 7.128c0 3.936-3.33 7.127-7.436 7.127" style="fill:#fff;fill-opacity:1;fill-rule:nonzero;stroke:none" transform="matrix(1.33333 0 0 -1.33333 -.667 1121.853)"></path><path d="M167.257 598.9c1.167 2.586 4.214 8.656 8.763 12.854 6.042 5.578 14.584 8.914 23.78 5.578 8.754-3.176 12.311-13.11 14.177-21.535 1.316-5.947 1.968-12.002 2.28-15.994l.256-.216 15.24-14.06.33-.3c-6.838-2.456-32.849-12.845-56.684-36.281-22.11-21.74-32.153-42.229-34.67-47.886l-.165.166-12.84 14.109-.2.218c-3.297.51-11.109 1.876-18.632 4.343-8.2 2.688-17.733 7.21-20.028 16.234-2.412 9.48 1.752 17.653 7.9 23.114 4.252 3.779 9.952 6.139 12.936 7.2l.38.078c-1.09 7.993.435 13.412 4.531 17.283 4.926 4.654 9.494 4.515 10.598 4.4l.278-.007q-.062.393-.093.796l-.289.157c-1.5.48-2.876 1.283-4.03 2.421-4.62 4.55-3.95 12.721 1.495 18.25 5.446 5.528 13.606 6.32 18.225 1.77 1.415-1.395 2.334-3.128 2.772-5.022l.068-.288q.4-.069.788-.171l.037.35c.102 1.593.84 5.676 5.454 9.646 4.137 3.56 9.471 4.57 16.924 2.898zm-26.715-80.23c-1.99.074-8.8.532-16.354 3.374-7.817 2.942-10.37 8.16-12.42 16.304l-.624-.064c-1.902-.222-4.907-.836-7.41-2.534-4.006-2.716-8.242-6.966-8.94-12.423-.698-5.458 2.233-9.965 7.848-13.468 4.457-2.781 10.58-5.293 17.425-7.188 5.09-1.41 9.318-2.076 9.318-2.076a167 167 0 0 0 10.948 17.749zm44.464 44.942c-.07 3.774-.49 11.088-2.557 16.461-2.905 7.553-9.412 10.109-15.57 10.342-6.159.232-13.13-1.86-15.687-3.95-1.598-1.308-1.627-3.401-1.31-4.763.11-.467.403-1.377.527-1.987.711-3.487-.429-7.736-3.207-11.415l.28-.342 18.525-20.437.264.24a205 205 0 0 0 18.709 15.307zm-23.703-20.642-18.563 20.48-.315.337c-3.539-2.356-7.486-3.237-10.72-2.443-.857.21-1.9.744-2.635.972-1.336.412-3.486.727-4.998-.774-2.343-2.327-5.142-9.047-5.545-15.196-.403-6.15 1.47-12.885 8.682-16.552 6.537-3.325 16.482-4.315 18.29-4.471l.203.231a187 187 0 0 0 15.285 17.147zm14.062 53.404c7.984-2.897 12.966-5.96 15.1-14.093 1.478-5.627 1.764-10.743 1.758-13.905l-.016-.304c11.044 7.298 18.671 10.762 18.671 10.762l-.03.461c-.886 9.222-3.228 17.758-6.167 23.708-2.931 5.933-7.127 9.296-12.627 9.14-5.5-.154-10.147-3.95-13.246-7.668-2.152-2.584-3.035-5.915-3.371-7.708z" style="fill:#133f7a;fill-opacity:1;fill-rule:nonzero;stroke:none" transform="matrix(1.33333 0 0 -1.33333 -.667 1121.853)" data-source="https://football-logos.cc"></path><!-- source: https://football-logos.cc --></svg>